<svg width="40" height="220" viewBox="0 0 40 220" fill="none" xmlns="http://www.w3.org/2000/svg">
<g clip-path="url(#clip0_482_58535)">
<rect width="40" height="220" fill="white"/>
<rect y="44" width="40" height="44" fill="#FF2D55"/>
<rect y="44" width="40" height="44" stroke="black" stroke-width="2"/>
<path d="M20.5 65.5C23.3233 65.5 26.1191 66.056 28.7275 67.1364C31.336 68.2169 33.7064 69.8007 35.7029 71.7971C37.6993 73.7936 39.2831 76.164 40.3636 78.7725C41.444 81.3809 42 84.1767 42 87H37.7C37.7 84.7413 37.2551 82.5045 36.3907 80.4177C35.5263 78.331 34.2593 76.4349 32.6622 74.8378C31.0651 73.2407 29.169 71.9737 27.0823 71.1093C24.9955 70.2449 22.7587 69.8 20.5 69.8C18.2413 69.8 16.0045 70.2449 13.9177 71.1093C11.831 71.9737 9.93494 73.2407 8.3378 74.8378C6.74067 76.4349 5.4737 78.331 4.60932 80.4177C3.74494 82.5045 3.3 84.7413 3.3 87H-1C-1 84.1767 -0.443987 81.3809 0.636436 78.7725C1.71691 76.164 3.30069 73.7936 5.29715 71.7971C7.29361 69.8007 9.66397 68.2169 12.2725 67.1364C14.8809 66.056 17.6767 65.5 20.5 65.5Z" fill="black"/>
<path d="M20.5 74.53C22.1375 74.53 23.7591 74.8524 25.272 75.479C26.7849 76.1057 28.1596 77.0245 29.3175 78.1825C30.4755 79.3404 31.3943 80.7151 32.021 82.228C32.6476 83.7409 32.97 85.3625 32.97 87H28.67C28.67 85.9272 28.4586 84.8649 28.0481 83.8737C27.6375 82.8825 27.0355 81.9818 26.2769 81.2231C25.5182 80.4645 24.6175 79.8625 23.6263 79.4519C22.6351 79.0414 21.5728 78.83 20.5 78.83C19.4272 78.83 18.3649 79.0414 17.3737 79.4519C16.3825 79.8625 15.4818 80.4645 14.7231 81.2231C13.9645 81.9818 13.3625 82.8825 12.9519 83.8737C12.5414 84.8649 12.33 85.9272 12.33 87H8.03C8.03 85.3625 8.35238 83.7409 8.97902 82.228C9.6057 80.7151 10.5245 79.3404 11.6825 78.1825C12.8404 77.0245 14.2151 76.1057 15.728 75.479C17.2409 74.8524 18.8625 74.53 20.5 74.53Z" fill="black"/>
<path d="M3.3 44C3.3 46.2587 3.74494 48.4955 4.60932 50.5823C5.4737 52.669 6.74067 54.5651 8.3378 56.1622C9.93494 57.7593 11.831 59.0263 13.9177 59.8907C16.0045 60.7551 18.2413 61.2 20.5 61.2C22.7587 61.2 24.9955 60.7551 27.0823 59.8907C29.169 59.0263 31.0651 57.7593 32.6622 56.1622C34.2593 54.5651 35.5263 52.669 36.3907 50.5823C37.2551 48.4955 37.7 46.2587 37.7 44H42C42 46.8233 41.444 49.6191 40.3636 52.2275C39.2831 54.836 37.6993 57.2064 35.7029 59.2029C33.7064 61.1993 31.336 62.7831 28.7275 63.8636C26.1191 64.944 23.3233 65.5 20.5 65.5C17.6767 65.5 14.8809 64.944 12.2725 63.8636C9.66397 62.7831 7.29361 61.1993 5.29715 59.2029C3.30069 57.2064 1.71691 54.836 0.636436 52.2275C-0.443987 49.6191 -1 46.8233 -1 44H3.3Z" fill="black"/>
<path d="M12.33 44C12.33 45.0728 12.5414 46.1351 12.9519 47.1263C13.3625 48.1175 13.9645 49.0182 14.7231 49.7769C15.4818 50.5355 16.3825 51.1375 17.3737 51.5481C18.3649 51.9586 19.4272 52.17 20.5 52.17C21.5728 52.17 22.6351 51.9586 23.6263 51.5481C24.6175 51.1375 25.5182 50.5355 26.2769 49.7769C27.0355 49.0182 27.6375 48.1175 28.0481 47.1263C28.4586 46.1351 28.67 45.0728 28.67 44H32.97C32.97 45.6375 32.6476 47.2591 32.021 48.772C31.3943 50.2849 30.4755 51.6596 29.3175 52.8175C28.1596 53.9755 26.7849 54.8943 25.272 55.521C23.7591 56.1476 22.1375 56.47 20.5 56.47C18.8625 56.47 17.2409 56.1476 15.728 55.521C14.2151 54.8943 12.8404 53.9755 11.6825 52.8175C10.5245 51.6596 9.6057 50.2849 8.97902 48.772C8.35238 47.2591 8.03 45.6375 8.03 44H12.33Z" fill="black"/>
<path d="M3.3 44C3.3 46.2587 3.74494 48.4955 4.60932 50.5823C5.4737 52.669 6.74067 54.5651 8.3378 56.1622C9.93494 57.7593 11.831 59.0263 13.9177 59.8907C16.0045 60.7551 18.2413 61.2 20.5 61.2C22.7587 61.2 24.9955 60.7551 27.0823 59.8907C29.169 59.0263 31.0651 57.7593 32.6622 56.1622C34.2593 54.5651 35.5263 52.669 36.3907 50.5823C37.2551 48.4955 37.7 46.2587 37.7 44H32.97C32.97 45.6375 32.6476 47.2591 32.021 48.772C31.3943 50.2849 30.4755 51.6596 29.3175 52.8175C28.1596 53.9755 26.7849 54.8943 25.272 55.521C23.7591 56.1476 22.1375 56.47 20.5 56.47C18.8625 56.47 17.2409 56.1476 15.728 55.521C14.2151 54.8943 12.8404 53.9755 11.6825 52.8175C10.5245 51.6596 9.6057 50.2849 8.97902 48.772C8.35238 47.2591 8.03 45.6375 8.03 44H3.3Z" fill="#1098EC"/>
<path d="M37.7 87C37.7 84.7413 37.2551 82.5045 36.3907 80.4177C35.5263 78.331 34.2593 76.4349 32.6622 74.8378C31.0651 73.2407 29.169 71.9737 27.0823 71.1093C24.9955 70.2449 22.7587 69.8 20.5 69.8C18.2413 69.8 16.0045 70.2449 13.9177 71.1093C11.831 71.9737 9.93494 73.2407 8.3378 74.8378C6.74067 76.4349 5.4737 78.331 4.60932 80.4177C3.74494 82.5045 3.3 84.7413 3.3 87H8.03C8.03 85.3625 8.35238 83.7409 8.97902 82.228C9.6057 80.7151 10.5245 79.3404 11.6825 78.1825C12.8404 77.0245 14.2151 76.1057 15.728 75.479C17.2409 74.8524 18.8625 74.53 20.5 74.53C22.1375 74.53 23.7591 74.8524 25.272 75.479C26.7849 76.1057 28.1596 77.0245 29.3175 78.1825C30.4755 79.3404 31.3943 80.7151 32.021 82.228C32.6476 83.7409 32.97 85.3625 32.97 87H37.7Z" fill="#2B38B2"/>
<rect y="88" width="40" height="44" fill="white"/>
<rect y="88" width="40" height="44" stroke="black" stroke-width="2"/>
<path d="M19.4648 131H0.617188C1.20747 130.358 1.79841 129.716 2.38867 129.074C4.93939 126.3 7.48932 123.526 10.04 120.752C13.1814 124.168 16.3235 127.584 19.4648 131Z" fill="black"/>
<path d="M37.3857 129.074C37.976 129.716 38.5669 130.358 39.1572 131H20.3096C23.4508 127.584 26.5922 124.168 29.7334 120.752C32.2843 123.526 34.8349 126.3 37.3857 129.074Z" fill="black"/>
<path d="M41.7461 112.211L39.1572 114.864L38.2539 115.789L29.75 107.492L19.5 117.493L9.25 107.492L0.746094 115.789L0.617188 115.657L-2.74609 112.211L0.617188 108.93L9.25 100.507L19.5 110.507L29.75 100.507L40.002 110.509L41.7461 112.211Z" fill="black"/>
<path d="M20.3115 100.598L8.04785 88.0449H32.5762L20.3115 100.598Z" fill="black"/>
<path d="M0.617188 95.5615V88.0449H7.95996L0.617188 95.5615Z" fill="black"/>
<path d="M40.002 95.5566L32.6631 88.0449H40.002V95.5566Z" fill="black"/>
<path d="M8.04785 88.0449H7.95996L8.00391 88L8.04785 88.0449Z" fill="black"/>
<path d="M32.6631 88.0449H32.5762L32.6191 88L32.6631 88.0449Z" fill="black"/>
<path d="M9.25 100.507L19.5 110.507L29.75 100.507L40.002 110.509V95.5566L32.6631 88.0449H32.5762L20.3115 100.598L8.04785 88.0449H7.95996L0.617188 95.5615V108.93L9.25 100.507Z" fill="#EC7D10"/>
<path d="M0.617188 131C1.20747 130.358 1.79841 129.716 2.38867 129.074C4.93939 126.3 7.48932 123.526 10.04 120.752C13.1814 124.168 16.3235 127.584 19.4648 131H20.3096L29.7334 120.752C32.2843 123.526 34.8349 126.3 37.3857 129.074C37.976 129.716 38.5669 130.358 39.1572 131V114.864L38.2539 115.789L29.75 107.492L19.5 117.493L9.25 107.492L0.746094 115.789L0.617188 115.657V131Z" fill="#08EC72"/>
<rect y="132" width="40" height="44" fill="#0088FF"/>
<rect y="132" width="40" height="44" stroke="black" stroke-width="2"/>
<circle cx="20" cy="154" r="16.75" fill="#EC0868" stroke="black" stroke-width="2.5"/>
<rect y="176" width="40" height="44" fill="#00C0E8"/>
<rect y="176" width="40" height="44" stroke="black" stroke-width="2"/>
<path d="M17.1836 196.483H3.22461L10.2041 179.318L17.1836 196.483Z" fill="#00C8B3" stroke="black" stroke-width="2.5"/>
<path d="M36.7773 196.483H22.8184L29.7979 179.318L36.7773 196.483Z" fill="#FFBC0A" stroke="black" stroke-width="2.5"/>
<path d="M17.1836 218.506H3.22461L10.2041 201.341L17.1836 218.506Z" fill="#08EC72" stroke="black" stroke-width="2.5"/>
<path d="M36.7773 218.506H22.8184L29.7979 201.341L36.7773 218.506Z" fill="#FC2F00" stroke="black" stroke-width="2.5"/>
<rect width="40" height="44" fill="#6155F5"/>
<rect width="40" height="44" stroke="black" stroke-width="2"/>
<path fill-rule="evenodd" clip-rule="evenodd" d="M14.167 6.36523L20.001 12.1992L26.3018 5.89844V2H29.3018V14.167H41.4688V17.167H35.2578L30.1133 22.3115L35.6348 27.833H41.4688V30.833H29.3018V43H26.3018V38.7275L20.0029 32.4277L14.167 38.2637V43H11.167V30.833H-1V27.833H4.36914L9.89062 22.3115L4.74609 17.167H-1V14.167H11.167V2H14.167V6.36523ZM20 16.4434L14.167 10.6074V17.167H8.98828L14.1328 22.3115L8.61133 27.833H14.167V34.0215L20.0039 28.1846L26.3018 34.4844V27.833H31.3926L25.8711 22.3115L31.0156 17.167H26.3018V10.1406L20 16.4434Z" fill="black"/>
<path d="M14.167 10.6074V17.167H8.98828L14.1328 22.3115L8.61133 27.833H14.167V34.0215L20.0039 28.1846L26.3018 34.4844V27.833H31.3926L25.8711 22.3115L31.0156 17.167H26.3018V10.1406L20 16.4434L14.167 10.6074Z" fill="#C200FB"/>
</g>
<rect x="1" y="1" width="38" height="218" stroke="black" stroke-width="2"/>
<defs>
<clipPath id="clip0_482_58535">
<rect width="40" height="220" fill="white"/>
</clipPath>
</defs>
</svg>
