<svg width="319" height="396" viewBox="0 0 319 396" fill="none" xmlns="http://www.w3.org/2000/svg">
<g clip-path="url(#clip0_482_56277)">
<mask id="mask0_482_56277" style="mask-type:luminance" maskUnits="userSpaceOnUse" x="-144" y="-25" width="607" height="429">
<path d="M463 -25H-144V404H463V-25Z" fill="white"/>
</mask>
<g mask="url(#mask0_482_56277)">
<path d="M56.8945 2.39163L59.7839 -19.7104L75.913 -24.6826L72.8012 -3.28833L56.8945 2.39163ZM60.5147 -19.0412L57.8763 1.13724L72.076 -3.9344L74.9208 -23.4814L60.5147 -19.0412Z" fill="#262626"/>
<path d="M42.4062 7.15868L45.1046 -15.5483L60.6341 -19.9576L57.752 2.09219L42.4062 7.15868ZM45.8394 -14.8679L43.3653 5.94375L57.0188 1.43583L59.6645 -18.7941L45.8394 -14.8679Z" fill="#262626"/>
<path d="M28.3945 11.1956L30.9528 -12.0596L45.9466 -15.7654L43.2539 6.89014L28.3945 11.1956ZM31.6909 -11.3612L29.3366 10.033L42.519 6.21318L44.998 -14.6491L31.6909 -11.3612Z" fill="#262626"/>
<path d="M14.7891 14.3873L17.2689 -9.35782L31.7867 -12.239L29.2332 10.9665L14.7891 14.3873ZM18.0078 -8.63195L15.719 13.2882L28.4975 10.2629L30.8568 -11.1811L18.0078 -8.63195Z" fill="#262626"/>
<path d="M1.53516 16.6404L4.00363 -7.53972L18.1006 -9.49081L15.6248 14.2089L1.53516 16.6404ZM4.74012 -6.77524L2.45375 15.6134L14.8883 13.4667L17.182 -8.49897L4.74012 -6.77524Z" fill="#262626"/>
<path d="M-11.4258 17.8803L-8.89581 -6.68L4.82239 -7.61865L2.35716 16.5212L-11.4258 17.8803ZM-8.16498 -5.87091L-10.5129 16.9279L1.62472 15.731L3.91432 -6.69802L-8.16498 -5.87091Z" fill="#262626"/>
<path d="M-12.2109 41.3294L-11.3555 17.012L2.41696 15.6537L1.63839 39.5671L-12.2109 41.3294ZM-10.5736 17.7962L-11.3668 40.3573L0.852517 38.8026L1.57606 16.5984L-10.5736 17.7962Z" fill="#262626"/>
<path d="M0.820312 39.7086L1.60051 15.7593L15.6773 13.3294L14.8922 36.8163L0.820312 39.7086ZM2.38637 16.4937L1.66445 38.6619L14.1071 36.105L14.8339 14.3462L2.38637 16.4937Z" fill="#262626"/>
<path d="M14.0781 37.0205L14.864 13.4916L29.2944 10.0742L28.4292 33.0806L14.0781 37.0205ZM15.6515 14.1831L14.9263 35.9008L27.6458 32.4096L28.4446 11.1553L15.6515 14.1831Z" fill="#262626"/>
<path d="M27.6094 33.3363L28.4762 10.2835L43.321 5.98151L42.3044 28.4517L27.6094 33.3363ZM29.262 10.945L28.4648 32.1531L41.5242 27.8116L42.4598 7.12093L29.262 10.945Z" fill="#262626"/>
<path d="M41.4805 28.7503L42.4994 6.2312L57.8274 1.17072L56.6029 23.048L41.4805 28.7503ZM43.2796 6.87127L42.3464 27.5139L55.8267 22.4294L56.9501 2.35819L43.2796 6.87127Z" fill="#262626"/>
<path d="M55.7734 23.3775L57.0004 1.44956L72.89 -4.2244L71.413 17.0085L55.7734 23.3775ZM57.7757 2.07847L56.6548 22.099L70.6417 16.4028L71.9925 -2.99917L57.7757 2.07847Z" fill="#262626"/>
<path d="M70.5781 17.3578L72.0592 -3.92407L88.5858 -10.045L86.8255 10.4972L70.5781 17.3578ZM72.8273 -3.29945L71.4805 16.0536L86.0655 9.89574L87.6664 -8.79494L72.8273 -3.29945Z" fill="#262626"/>
<path d="M85.9805 10.8541L87.744 -9.73361L104.977 -16.1163L102.921 3.70181L85.9805 10.8541ZM88.5023 -9.10555L86.9047 9.53965L102.17 3.09349L104.031 -14.8593L88.5023 -9.10555Z" fill="#262626"/>
<path d="M102.07 4.051L104.13 -15.8065L122.126 -22.2561L119.774 -3.18365L102.07 4.051ZM104.878 -15.1691L103.02 2.74427L119.035 -3.7997L121.156 -21.0017L104.878 -15.1691Z" fill="#262626"/>
<path d="M153.77 0.387362L155.199 -17.0378L175.392 -23.2085L173.693 -6.48951L153.77 0.387362ZM155.957 -16.3762L154.682 -0.829285L172.943 -7.13387L174.458 -22.0313L155.957 -16.3762Z" fill="#262626"/>
<path d="M135.551 7.56453L136.687 -10.5805L156.033 -17.3175L154.606 0.0879135L135.551 7.56453ZM137.458 -9.9464L136.44 6.29983L153.844 -0.529846L155.121 -16.0974L137.458 -9.9464Z" fill="#262626"/>
<path d="M118.191 15.0832L119.015 -3.79797L137.521 -10.8911L136.386 7.22733L118.191 15.0832ZM119.799 -3.18621L119.057 13.7825L135.611 6.63617L136.63 -9.63751L119.799 -3.18621Z" fill="#262626"/>
<path d="M101.648 22.7168L102.148 3.10035L119.837 -4.1283L119.014 14.7202L101.648 22.7168ZM102.943 3.69495L102.493 21.3929L118.229 14.1471L118.971 -2.85502L102.943 3.69495Z" fill="#262626"/>
<path d="M85.8672 30.2372L86.0412 9.90513L102.968 2.758L102.469 22.335L85.8672 30.2372ZM86.8457 10.4886L86.6878 28.9073L101.674 21.7738L102.126 4.03641L86.8457 10.4886Z" fill="#262626"/>
<path d="M70.7562 37.4289L70.6211 16.4157L86.8539 9.56195L86.6799 29.8511L70.7562 37.4289ZM71.4337 16.9957L71.5575 36.1068L85.8746 29.2934L86.0324 10.8318L71.4337 16.9957Z" fill="#262626"/>
<path d="M56.2158 44.0922L55.8047 22.4457L71.4289 16.0828L71.564 37.0489L56.2158 44.0922ZM56.6245 23.0308L57.0009 42.7966L70.7507 36.4869L70.6268 17.3277L56.6245 23.0308Z" fill="#262626"/>
<path d="M42.1361 50.0544L41.5 27.833L56.6086 22.1351L57.019 43.7326L42.1361 50.0544ZM42.3263 28.4311L42.9107 48.8009L56.1983 43.1561L55.8211 23.3414L42.3263 28.4311Z" fill="#262626"/>
<path d="M28.4142 55.1732L27.6211 32.4328L42.3024 27.5525L42.9377 49.7275L28.4142 55.1732ZM28.4523 33.0557L29.1823 53.9746L42.1106 49.1278L41.5254 28.7108L28.4523 33.0557Z" fill="#262626"/>
<path d="M14.9561 59.3311L14.082 36.1325L28.4202 32.196L29.2125 54.8918L14.9561 59.3311ZM14.9164 36.7889L15.7225 58.1977L28.3805 54.256L27.6489 33.2925L14.9164 36.7889Z" fill="#262626"/>
<path d="M1.6902 62.4388L0.824219 38.8344L14.8856 35.9446L15.758 59.1046L1.6902 62.4388ZM1.66026 39.5362L2.4615 61.3757L14.922 58.4242L14.1143 36.9768L1.66026 39.5362Z" fill="#262626"/>
<path d="M-11.4341 64.4259L-12.207 40.4645L1.63176 38.7039L2.49694 62.2758L-11.4341 64.4259ZM-11.3726 41.2221L-10.6563 63.4392L1.65927 61.5387L0.857225 39.6666L-11.3726 41.2221Z" fill="#262626"/>
<path d="M-9.14931 87.0591L-11.4883 63.567L2.43387 61.4186L4.89101 84.5391L-9.14931 87.0591ZM-10.6012 64.2981L-8.43467 86.0604L4.00156 83.8287L1.72328 62.3959L-10.6012 64.2981Z" fill="#262626"/>
<path d="M4.09709 84.7193L1.63672 61.5722L15.6932 58.2406L18.1754 80.963L4.09709 84.7193ZM2.52212 62.2414L4.79798 83.6485L17.2908 80.3152L14.9932 59.2865L2.52212 62.2414Z" fill="#262626"/>
<path d="M17.3886 81.2109L14.9023 58.4542L29.1474 54.0183L31.56 76.2937L17.3886 81.2109ZM15.7845 59.0745L18.0782 80.0689L30.6811 75.6957L28.453 55.1294L15.7845 59.0745Z" fill="#262626"/>
<path d="M30.7761 76.5983L28.3594 54.2835L42.8699 48.8429L45.1231 70.6146L30.7761 76.5983ZM29.2367 54.8643L31.4607 75.3911L44.2506 70.0561L42.1771 50.0123L29.2367 54.8643Z" fill="#262626"/>
<path d="M44.3471 70.9673L42.0898 49.1501L56.9589 42.8343L58.9758 64.0458L44.3471 70.9673ZM42.9607 49.7052L45.0302 69.7043L58.1114 63.5147L56.2621 44.0544L42.9607 49.7052Z" fill="#262626"/>
<path d="M58.1967 64.4328L56.1758 43.1758L71.5102 36.1385L73.2301 56.7331L58.1967 64.4328ZM57.0402 43.7129L58.8854 63.1269L72.3746 56.2174L70.8037 37.3972L57.0402 43.7129Z" fill="#262626"/>
<path d="M72.4535 57.1415L70.7305 36.5014L86.6403 28.9305L88.0243 48.8618L72.4535 57.1415ZM71.5875 37.0343L73.156 55.809L87.1777 48.3521L85.9184 30.214L71.5875 37.0343Z" fill="#262626"/>
<path d="M87.2427 49.2779L85.8555 29.3045L102.444 21.4084L103.475 40.6439L87.2427 49.2779ZM86.7044 29.8408L87.9605 47.936L102.638 40.1291L101.704 22.7014L86.7044 29.8408Z" fill="#262626"/>
<path d="M102.684 41.0531L101.652 21.7807L101.911 21.6606L119.004 13.7893L119.686 32.3152L102.684 41.0531ZM102.491 22.329L103.423 39.7198L118.855 31.7884L118.241 15.078L102.491 22.329Z" fill="#262626"/>
<path d="M118.889 32.7056L118.207 14.1488L136.39 6.29984L136.734 24.1222L118.889 32.7056ZM119.039 14.7177L119.652 31.3972L135.914 23.5748L135.604 7.56539L119.039 14.7177Z" fill="#262626"/>
<path d="M135.935 24.4834L135.59 6.63531L154.633 -0.837006L154.665 16.3067L154.413 16.4157L135.935 24.4834ZM136.411 7.22905L136.72 23.2136L153.855 15.7327L153.827 0.395081L136.411 7.22905Z" fill="#262626"/>
<path d="M153.856 16.631L153.824 -0.532415L173.737 -7.40585L173.477 9.09863L153.856 16.631ZM154.635 0.0913501L154.664 15.4101L172.677 8.4946L172.908 -6.21752L154.635 0.0913501Z" fill="#262626"/>
<path d="M172.66 9.3809L172.92 -7.13989L193.679 -13.2085L193.148 2.70652L172.66 9.3809ZM173.72 -6.48352L173.488 8.2123L192.359 2.06559L192.831 -12.0717L173.72 -6.48352Z" fill="#262626"/>
<path d="M192.332 2.93989L192.863 -12.9872L214.426 -18.0682L213.639 -2.68945L192.332 2.93989ZM193.65 -12.293L193.179 1.83221L212.862 -3.36727L213.559 -16.9846L193.65 -12.293Z" fill="#262626"/>
<path d="M324.816 2.8215L300.949 1.53536L301.469 -12.3823L325.629 -10.849L324.816 2.8215ZM301.79 0.721114L324.059 1.92146L324.77 -10.0442L302.245 -11.4736L301.79 0.721114Z" fill="#262626"/>
<path d="M278.262 1.9163L278.495 -12.2682L302.281 -12.3574L301.762 1.55251L278.262 1.9163ZM279.29 -11.4136L279.086 1.04457L300.985 0.704802L301.439 -11.4977L279.29 -11.4136Z" fill="#262626"/>
<path d="M256.041 3.82365L255.996 -10.6671L279.303 -12.3008L279.07 1.87598L256.041 3.82365ZM256.809 -9.86403L256.848 2.89529L278.274 1.08405L278.479 -11.3818L256.809 -9.86403Z" fill="#262626"/>
<path d="M234.396 7.17501L234.078 -7.66668L256.805 -10.752L256.85 3.731L234.396 7.17501ZM234.904 -6.91421L235.185 6.18745L256.039 2.98882L256 -9.77736L234.904 -6.91421Z" fill="#262626"/>
<path d="M213.419 11.864L212.828 -3.38184L234.884 -7.80655L235.203 7.02741L213.419 11.864ZM213.665 -2.67571L214.189 10.8172L234.377 6.33415L234.096 -6.77523L213.665 -2.67571Z" fill="#262626"/>
<path d="M193.197 17.7644L192.328 2.0553L213.631 -3.57318L214.221 11.6632L193.197 17.7644ZM193.175 2.71596L193.947 16.6567L213.387 11.0171L212.863 -2.48438L193.175 2.71596Z" fill="#262626"/>
<path d="M173.804 24.7202L172.645 8.48773L193.126 1.81592L193.995 17.513L173.804 24.7202ZM173.5 9.10549L174.532 23.5551L193.151 16.909L192.378 2.9562L173.5 9.10549Z" fill="#262626"/>
<path d="M155.292 32.5478L153.824 15.7293L173.436 8.20117L174.594 24.4199L155.292 32.5478ZM154.687 16.311L155.997 31.3277L173.742 23.8554L172.709 9.39293L154.687 16.311Z" fill="#262626"/>
<path d="M137.688 41.0317L135.887 23.5739L154.607 15.4015L156.072 32.2011L137.688 41.0317ZM136.758 24.1222L138.371 39.7618L155.214 31.6726L153.902 16.6379L136.758 24.1222Z" fill="#262626"/>
<path d="M120.991 49.9266L118.832 31.7919L136.666 23.2136L138.465 40.6464L120.991 49.9266ZM119.709 32.311L121.649 48.6155L137.598 40.1471L135.983 24.4834L119.709 32.311Z" fill="#262626"/>
<path d="M105.144 58.9664L102.609 40.1368L119.6 31.4049L121.754 49.5104L105.144 58.9664ZM103.495 40.6353L105.781 57.6288L120.882 49.0317L118.938 32.6979L103.495 40.6353Z" fill="#262626"/>
<path d="M90.0676 67.8776L87.1523 48.3633L103.374 39.7344L105.904 58.528L90.0676 67.8776ZM88.0442 48.8498L90.6859 66.5306L105.024 58.0664L102.733 41.0368L88.0442 48.8498Z" fill="#262626"/>
<path d="M75.6277 76.4002L72.3516 56.2346L87.911 47.9592L90.8205 67.4323L75.6277 76.4002ZM73.2507 56.7159L76.2315 75.0617L89.9319 66.9759L87.2854 49.2539L73.2507 56.7159Z" fill="#262626"/>
<path d="M61.6786 84.2998L58.0859 63.5362L73.108 55.8408L76.3769 75.9626L61.6786 84.2998ZM58.9924 64.0235L62.2742 82.9887L75.4801 75.4984L72.4929 57.1089L58.9924 64.0235Z" fill="#262626"/>
<path d="M48.0644 91.3851L44.2266 70.0827L58.8447 63.1655L62.4301 83.8853L48.0644 91.3851ZM45.1419 70.5889L48.6609 90.1187L61.5244 83.404L58.2353 64.395L45.1419 70.5889Z" fill="#262626"/>
<path d="M34.6487 97.5078L30.6562 75.7266L44.992 69.7472L48.8225 91.0085L34.6487 97.5078ZM31.5797 76.2629L35.2508 96.2963L47.9064 90.4945L44.3809 70.9235L31.5797 76.2629Z" fill="#262626"/>
<path d="M21.3091 102.555L17.2656 80.3504L31.4273 75.4358L35.4125 97.1809L21.3091 102.555ZM18.1947 80.9295L21.9233 101.407L34.485 96.6224L30.8066 76.5529L18.1947 80.9295Z" fill="#262626"/>
<path d="M7.96496 106.446L3.97656 83.8673L18.0468 80.1136L22.0846 102.289L7.96496 106.446ZM4.91296 84.5014L8.59948 105.368L21.1498 101.673L17.4155 81.1664L4.91296 84.5014Z" fill="#262626"/>
<path d="M-5.43748 109.123L-9.26562 86.2088L4.7674 83.6906L8.75175 106.248L-5.43748 109.123ZM-8.32681 86.9107L-4.78354 108.118L7.80806 105.566L4.11832 84.6773L-8.32681 86.9107Z" fill="#262626"/>
<path d="M-14.1575 132.231L-19.0742 109.7L-4.79758 108.156L0.424248 130.378L-14.1575 132.231ZM-18.0787 110.454L-13.5335 131.287L-0.58338 129.642L-5.4151 109.084L-18.0787 110.454Z" fill="#262626"/>
<path d="M-0.376512 130.516L-5.60156 108.284L8.58038 105.41L14.0078 127.299L-0.376512 130.516ZM-4.60932 108.956L0.219164 129.505L13.0091 126.645L7.98957 106.404L-4.60932 108.956Z" fill="#262626"/>
<path d="M13.2252 127.511L7.79297 105.607L21.9053 101.452L27.4266 122.972L13.2252 127.511ZM8.77874 106.207L13.7934 126.434L26.4376 122.392L21.3364 102.509L8.77874 106.207Z" fill="#262626"/>
<path d="M26.6597 123.256L21.1328 101.712L35.2282 96.3418L40.7268 117.452L26.6597 123.256ZM22.1097 102.251L27.2052 122.109L39.7515 116.934L34.6794 97.4632L22.1097 102.251Z" fill="#262626"/>
<path d="M39.9755 117.797L34.4688 96.6558L48.6337 90.1616L53.9931 110.81L39.9755 117.797ZM35.4367 97.1475L40.5007 116.587L53.0324 110.342L48.1012 91.3414L35.4367 97.1475Z" fill="#262626"/>
<path d="M53.2558 111.209L47.8867 90.5237L62.2427 83.0299L67.3544 103.157L53.2558 111.209ZM48.845 90.9793L53.7665 109.943L66.4059 102.724L61.7166 84.2603L48.845 90.9793Z" fill="#262626"/>
<path d="M66.6293 103.595L61.5078 83.4263L76.1964 75.0952L80.9763 94.6413L66.6293 103.595ZM62.4563 83.8622L67.1351 102.285L80.0391 94.2311L75.6711 76.3658L62.4563 83.8622Z" fill="#262626"/>
<path d="M80.2545 95.1062L75.4648 75.5173L90.6479 66.5563L95.0418 85.4718L80.2545 95.1062ZM76.4053 75.9445L80.7635 93.7669L94.1135 85.0685L90.1154 67.8527L76.4053 75.9445Z" fill="#262626"/>
<path d="M94.3168 85.9437L89.9141 66.9888L105.741 57.6451L109.731 75.8974L94.3168 85.9437ZM90.848 67.4195L94.8372 84.5966L108.81 75.4915L105.196 58.9502L90.848 67.4195Z" fill="#262626"/>
<path d="M109 76.3615L105.004 58.075L121.606 48.6233L125.198 66.2148L109 76.3615ZM105.931 58.5203L109.539 75.0274L124.281 65.7901L121.041 49.918L105.931 58.5203Z" fill="#262626"/>
<path d="M124.456 66.6558L120.859 49.0368L138.325 39.7627L141.543 56.7211L124.456 66.6558ZM121.782 49.5053L125.017 65.35L140.631 56.2706L137.74 41.0317L121.782 49.5053Z" fill="#262626"/>
<path d="M140.795 57.1269L137.574 40.1471L155.952 31.3208L158.825 47.7009L140.795 57.1269ZM138.494 40.6464L141.381 55.8631L157.917 47.2179L155.344 32.5538L138.494 40.6464Z" fill="#262626"/>
<path d="M158.064 48.0664L155.188 31.67L174.485 23.5439L177.035 39.4118L158.064 48.0664ZM156.104 32.2054L158.674 46.8523L176.131 38.8901L173.854 24.7314L156.104 32.2054Z" fill="#262626"/>
<path d="M176.267 39.7301L173.715 23.8477L193.903 16.6422L196.147 32.0716L176.267 39.7301ZM174.628 24.4277L176.902 38.5718L195.246 31.5053L193.249 17.7799L174.628 24.4277Z" fill="#262626"/>
<path d="M195.367 32.3393L193.121 16.8987L214.146 10.7983L216.09 25.8588L195.367 32.3393ZM194.032 17.5233L196.027 31.2376L215.195 25.2428L213.47 11.8837L194.032 17.5233Z" fill="#262626"/>
<path d="M215.3 26.0724L213.355 11.0034L235.144 6.16513L236.786 20.9159L215.3 26.0724ZM214.259 11.6786L215.983 25.0291L235.896 20.2501L234.443 7.19816L214.259 11.6786Z" fill="#262626"/>
<path d="M235.992 21.0763L234.348 6.31701L256.811 2.87042L258.146 17.3655L235.992 21.0763ZM235.244 7.04545L236.697 20.0888L257.268 16.6439L256.089 3.84854L235.244 7.04545Z" fill="#262626"/>
<path d="M257.34 17.471L256.004 2.96738L279.047 1.01886L280.065 15.2994L257.34 17.471ZM256.889 3.75245L258.068 16.5384L279.197 14.5186L278.301 1.94121L256.889 3.75245Z" fill="#262626"/>
<path d="M279.257 15.3474L278.238 1.05832L301.758 0.693665L302.449 14.794L279.257 15.3474ZM279.111 1.90259L280.007 14.4706L301.596 13.9549L300.99 1.56282L279.111 1.90259Z" fill="#262626"/>
<path d="M325.183 15.9086L301.636 14.7854L300.945 0.675629L324.835 1.96349L325.183 15.9086ZM302.406 13.9635L324.351 15.0111L324.046 2.7803L301.801 1.58168L302.406 13.9635Z" fill="#262626"/>
<path d="M326.59 29.2839L303.406 28.2406L301.555 13.9223L325.133 15.0471L326.59 29.2839ZM304.116 27.4144L325.683 28.3839L324.402 15.8717L302.489 14.8258L304.116 27.4144Z" fill="#262626"/>
<path d="M281.385 28.8995L279.156 14.4912L302.374 13.9377L304.224 28.244L281.385 28.8995ZM280.106 15.3268L282.07 28.021L303.299 27.4118L301.669 14.812L280.106 15.3268Z" fill="#262626"/>
<path d="M259.812 31.1424L257.223 16.6199L279.968 14.4457L282.195 28.8429L259.812 31.1424ZM258.183 17.3895L260.469 30.2123L281.257 28.0776L279.292 15.3723L258.183 17.3895Z" fill="#262626"/>
<path d="M238.791 34.9064L235.855 20.2286L258.028 16.5161L260.615 31.0283L238.791 34.9064ZM236.825 20.9365L239.422 33.9249L259.667 30.3273L257.379 17.4942L236.825 20.9365Z" fill="#262626"/>
<path d="M218.425 40.1059L215.156 25.2264L236.654 20.0673L239.587 34.7348L218.425 40.1059ZM216.131 25.8734L219.03 39.0703L238.633 34.0947L236.033 21.0969L216.131 25.8734Z" fill="#262626"/>
<path d="M198.805 46.6378L195.211 31.4941L215.941 25.0102L219.207 39.8794L198.805 46.6378ZM196.185 32.0836L199.381 45.5482L218.249 39.2976L215.347 26.0904L196.185 32.0836Z" fill="#262626"/>
<path d="M180.017 54.3676L176.098 38.8815L195.979 31.2222L199.571 46.3556L180.017 54.3676ZM177.071 39.4195L180.565 53.223L198.611 45.8296L195.413 32.3539L177.071 39.4195Z" fill="#262626"/>
<path d="M162.137 63.1252L157.883 47.2136L176.854 38.5606L180.77 54.0338L162.137 63.1252ZM158.855 47.7052L162.656 61.9266L179.811 53.5568L176.314 39.7404L158.855 47.7052Z" fill="#262626"/>
<path d="M145.212 72.6953L140.602 56.2706L158.626 46.8472L162.875 62.7416L145.212 72.6953ZM141.571 56.7202L145.704 71.4452L161.917 62.3101L158.111 48.0724L141.571 56.7202Z" fill="#262626"/>
<path d="M129.251 82.8086L124.254 65.7953L141.333 55.8639L145.938 72.268L129.251 82.8086ZM125.223 66.2105L129.719 81.5147L144.983 71.8725L140.844 57.1269L125.223 66.2105Z" fill="#262626"/>
<path d="M114.197 93.1517L108.781 75.5001L124.97 65.3577L129.96 82.3452L114.197 93.1517ZM109.752 75.8888L114.641 91.8261L129.005 81.9772L124.503 66.6473L109.752 75.8888Z" fill="#262626"/>
<path d="M99.9334 103.383L94.0859 85.084L109.492 75.0436L114.897 92.6635L99.9334 103.383ZM95.0604 85.4563L100.361 102.042L113.94 92.3152L109.04 76.3461L95.0604 85.4563Z" fill="#262626"/>
<path d="M86.2734 113.168L80.0156 94.2526L94.7949 84.6232L100.63 102.885L86.2734 113.168ZM80.9957 94.6206L86.6894 111.834L99.6654 102.54L94.353 85.9171L80.9957 94.6206Z" fill="#262626"/>
<path d="M72.9868 122.223L66.3867 102.751L80.7257 93.8021L86.9705 112.678L72.9868 122.223ZM67.3749 103.129L73.4045 120.917L85.9952 112.322L80.2878 95.0702L67.3749 103.129Z" fill="#262626"/>
<path d="M59.849 130.337L53.0117 110.374L67.1022 102.325L73.6902 121.76L59.849 130.337ZM54.0104 110.778L60.2787 129.076L72.7004 121.38L66.6579 103.554L54.0104 110.778Z" fill="#262626"/>
<path d="M46.6778 137.364L39.7305 116.97L53.7408 109.987L60.5668 129.918L46.6778 137.364ZM40.7421 117.414L47.1286 136.161L59.5616 129.496L53.2819 111.165L40.7421 117.414Z" fill="#262626"/>
<path d="M33.341 143.212L26.418 122.433L40.4761 116.633L47.4145 137L33.341 143.212ZM27.4426 122.931L33.8201 142.071L46.3923 136.524L39.9978 117.751L27.4426 122.931Z" fill="#262626"/>
<path d="M19.7576 147.818L12.9883 126.69L27.1816 122.153L34.0989 142.914L19.7576 147.818ZM14.0234 127.256L20.2682 146.743L33.0589 142.368L26.6757 123.211L14.0234 127.256Z" fill="#262626"/>
<path d="M5.89982 151.142L-0.601562 129.689L13.7762 126.474L20.5423 147.593L5.89982 151.142ZM0.443287 130.332L6.44369 150.13L19.4877 146.967L13.2397 127.47L0.443287 130.332Z" fill="#262626"/>
<path d="M-8.23635 153.151L-14.3711 131.395L0.203377 129.543L6.70394 150.993L-8.23635 153.151ZM-13.3198 132.125L-7.65929 152.202L5.63886 150.28L-0.362339 130.479L-13.3198 132.125Z" fill="#262626"/>
<path d="M-1.30408 173.229L-8.50391 152.325L6.42749 150.166L14.0635 170.758L-1.30408 173.229ZM-7.39916 153.03L-0.771535 172.276L12.9394 170.071L5.90708 151.108L-7.39916 153.03Z" fill="#262626"/>
<path d="M13.2563 170.92L5.62109 150.33L20.2547 146.782L28.229 167.038L13.2563 170.92ZM6.71775 150.943L13.7508 169.908L27.117 166.444L19.7707 147.78L6.71775 150.943Z" fill="#262626"/>
<path d="M27.4447 167.276L19.4688 147.016L33.802 142.113L41.9982 162.017L27.4447 167.276ZM20.5549 147.546L27.8996 166.205L40.9039 161.505L33.3529 143.169L20.5549 147.546Z" fill="#262626"/>
<path d="M41.2439 162.327L33.043 142.413L47.11 136.206L55.3943 155.733L41.2439 162.327ZM34.1145 142.87L41.6607 161.195L54.3212 155.294L46.694 137.318L34.1145 142.87Z" fill="#262626"/>
<path d="M54.6682 156.109L46.375 136.565L60.2575 129.123L68.4787 148.234L54.6682 156.109ZM47.4304 136.96L55.0486 154.917L67.4274 147.858L59.8698 130.29L47.4304 136.96Z" fill="#262626"/>
<path d="M67.7763 148.67L59.543 129.532L73.3769 120.961L81.382 139.605L67.7763 148.67ZM60.583 129.882L68.1284 147.421L80.3517 139.277L73.0111 122.18L60.583 129.882Z" fill="#262626"/>
<path d="M80.6986 140.089L72.6797 121.412L86.6561 111.871L94.3132 129.981L80.6986 140.089ZM73.7051 121.731L81.032 138.793L93.3015 129.684L86.3024 113.132L73.7051 121.731Z" fill="#262626"/>
<path d="M93.6451 130.494L85.9727 112.348L100.324 102.07L107.551 119.585L93.6451 130.494ZM86.9884 112.654L93.9721 129.17L106.549 119.301L99.9701 103.356L86.9884 112.654Z" fill="#262626"/>
<path d="M106.882 120.108L99.6406 102.558L114.598 91.8433L121.371 108.736L106.882 120.108ZM100.652 102.868L107.217 118.778L120.377 108.45L114.238 93.1363L100.652 102.868Z" fill="#262626"/>
<path d="M120.696 109.249L113.91 92.3246L129.669 81.5207L136.011 97.821L120.696 109.249ZM114.923 92.6541L121.049 107.938L135.018 97.5164L129.292 82.8025L114.923 92.6541Z" fill="#262626"/>
<path d="M135.326 98.3066L128.973 81.9823L145.655 71.4443L151.607 87.2272L151.326 87.4194L135.326 98.3066ZM129.988 82.3401L135.704 97.0299L150.609 86.8883L145.256 72.6962L129.988 82.3401Z" fill="#262626"/>
<path d="M150.904 87.6726L144.945 71.8725L162.607 61.9197L168.2 77.2873L167.896 77.4692L150.904 87.6726ZM145.966 72.268L151.312 86.443L167.192 76.9064L162.18 63.132L145.966 72.268Z" fill="#262626"/>
<path d="M167.477 77.6863L161.879 62.304L180.515 53.2118L185.762 68.2672L167.477 77.6863ZM162.908 62.7468L167.915 76.5065L184.749 67.8356L180.059 54.3787L162.908 62.7468Z" fill="#262626"/>
<path d="M185.024 68.6155L179.773 53.5473L199.334 45.5327L204.238 60.3693L185.024 68.6155ZM180.809 54.0441L185.494 67.4881L203.218 59.8828L198.848 46.6533L180.809 54.0441Z" fill="#262626"/>
<path d="M203.477 60.6636L198.57 45.815L218.986 39.0522L223.533 53.7446L203.477 60.6636ZM199.61 46.3701L203.978 59.5876L222.51 53.1955L218.465 40.1239L199.61 46.3701Z" fill="#262626"/>
<path d="M222.754 53.9823L218.203 39.2788L239.383 33.9034L243.56 48.5083L222.754 53.9823ZM219.246 39.8974L223.288 52.9587L242.538 47.8948L238.83 34.927L219.246 39.8974Z" fill="#262626"/>
<path d="M242.765 48.6893L238.586 34.0724L260.434 30.1908L264.222 44.7528L242.765 48.6893ZM239.628 34.758L243.333 47.7146L263.203 44.069L259.847 31.1647L239.628 34.758Z" fill="#262626"/>
<path d="M263.411 44.8729L259.621 30.2998L282.033 27.9978L285.411 42.5434L263.411 44.8729ZM260.657 31.0548L264.01 43.9471L284.403 41.7867L281.416 28.9218L260.657 31.0548Z" fill="#262626"/>
<path d="M284.592 42.6044L281.211 28.0458L304.083 27.3895L307.032 41.9394L284.592 42.6044ZM282.237 28.8755L285.222 41.7284L306.036 41.1106L303.434 28.2663L282.237 28.8755Z" fill="#262626"/>
<path d="M328.978 42.9819L306.206 41.9386L303.254 27.3749L326.474 28.4199L328.978 42.9819ZM306.865 41.1106L327.999 42.0784L325.795 29.2479L304.265 28.2801L306.865 41.1106Z" fill="#262626"/>
<path d="M332.278 57.0514L309.969 55.9283L305.996 41.0703L328.811 42.1154L332.278 57.0514ZM310.588 55.1012L331.233 56.1402L328.171 42.945L307.08 41.9789L310.588 55.1012Z" fill="#262626"/>
<path d="M288.816 56.5186L284.359 41.7524L306.839 41.0866L310.808 55.93L288.816 56.5186ZM285.458 42.5787L289.402 55.6443L309.745 55.1003L306.232 41.9626L285.458 42.5787Z" fill="#262626"/>
<path d="M268.079 58.7185L263.16 44.039L285.197 41.7044L289.65 56.456L268.079 58.7185ZM264.268 44.7829L268.63 57.7979L288.573 55.7061L284.626 42.6267L264.268 44.7829Z" fill="#262626"/>
<path d="M247.852 62.4817L242.492 47.8691L263.979 43.9266L268.894 58.5941L247.852 62.4817ZM243.605 48.5349L248.366 61.5156L267.81 57.9223L263.444 44.8935L243.605 48.5349Z" fill="#262626"/>
<path d="M228.243 67.7507L222.465 53.175L243.297 47.6949L248.652 62.2964L228.243 67.7507ZM223.578 53.7661L228.72 66.7382L247.567 61.7009L242.801 48.7082L223.578 53.7661Z" fill="#262626"/>
<path d="M209.346 74.4508L203.176 59.8657L223.253 52.9407L229.026 67.5061L209.346 74.4508ZM204.282 60.3865L209.786 73.3912L227.941 66.9836L222.795 54.0004L204.282 60.3865Z" fill="#262626"/>
<path d="M191.255 82.4885L184.711 67.8244L203.938 59.5731L210.105 74.147L191.255 82.4885ZM185.81 68.2783L191.657 81.3808L209.027 73.6949L203.52 60.679L185.81 68.2783Z" fill="#262626"/>
<path d="M174.062 91.7361L167.156 76.8995L185.45 67.4761L191.988 82.129L174.062 91.7361ZM168.242 77.2933L174.426 90.5795L190.921 81.7395L185.068 68.6267L168.242 77.2933Z" fill="#262626"/>
<path d="M157.845 102.018L150.574 86.8858L167.872 76.4988L174.772 91.3234L157.845 102.018ZM151.647 87.2281L158.175 100.812L173.716 90.9922L167.527 77.694L151.647 87.2281Z" fill="#262626"/>
<path d="M142.653 113.081L134.988 97.519L151.27 86.4405L158.533 101.556L142.653 113.081ZM136.049 97.8176L142.947 111.828L157.489 101.274L150.955 87.6734L136.049 97.8176Z" fill="#262626"/>
<path d="M128.452 124.571L120.348 108.461L135.659 97.0368L143.313 112.578L128.452 124.571ZM121.4 108.725L128.72 123.277L142.281 112.332L135.371 98.3006L121.4 108.725Z" fill="#262626"/>
<path d="M115.109 136.03L106.527 119.32L121.012 107.951L129.103 124.034L115.109 136.03ZM107.575 119.565L115.356 134.717L128.074 123.813L120.741 109.234L107.575 119.565Z" fill="#262626"/>
<path d="M102.317 146.996L93.2852 129.71L107.185 118.804L115.75 135.482L102.317 146.996ZM94.3356 129.953L102.556 145.685L114.715 135.265L106.918 120.082L94.3356 129.953Z" fill="#262626"/>
<path d="M89.7024 157.095L80.3359 139.311L93.9449 129.207L102.959 146.458L89.7024 157.095ZM81.3978 139.57L89.9549 155.817L101.91 146.223L93.6721 130.457L81.3978 139.57Z" fill="#262626"/>
<path d="M76.9431 166.112L67.4141 147.898L81.0141 138.837L90.3659 156.591L76.9431 166.112ZM68.4937 148.193L77.2248 164.88L89.2952 156.319L80.7227 140.043L68.4937 148.193Z" fill="#262626"/>
<path d="M63.8183 173.938L54.3086 155.339L68.1134 147.467L77.632 165.66L63.8183 173.938ZM55.4077 155.687L64.138 172.76L76.5345 165.331L67.7921 148.623L55.4077 155.687Z" fill="#262626"/>
<path d="M50.2221 180.515L40.8945 161.553L55.0368 154.961L64.5408 173.547L50.2221 180.515ZM42.0122 161.969L50.5847 179.396L63.4167 173.152L54.6807 156.065L42.0122 161.969Z" fill="#262626"/>
<path d="M36.119 185.808L27.1055 166.493L41.6508 161.237L50.9768 180.194L36.119 185.808ZM28.2401 166.989L36.5245 184.743L49.8283 179.716L41.2534 162.285L28.2401 166.989Z" fill="#262626"/>
<path d="M21.5208 189.782L12.9297 170.122L27.891 166.243L36.9046 185.56L21.5208 189.782ZM14.0773 170.707L21.9716 188.772L35.7383 184.993L27.454 167.24L14.0773 170.707Z" fill="#262626"/>
<path d="M6.47035 192.406L-1.61328 172.41L13.7438 169.941L22.3373 189.607L6.47035 192.406ZM-0.458361 173.092L6.96322 191.449L21.1557 188.946L13.2639 170.887L-0.458361 173.092Z" fill="#262626"/>
<path d="M-8.97618 193.653L-16.4844 173.335L-0.776015 172.305L-0.662708 172.582L7.31245 192.308L-8.97618 193.653ZM-15.3262 174.12L-8.44202 192.748L6.12274 191.547L-1.2948 173.199L-15.3262 174.12Z" fill="#262626"/>
<path d="M-1.18531 212.222L-9.30859 192.82L6.96305 191.479L15.7217 210.543L-1.18531 212.222ZM-8.1043 193.581L-0.681097 211.31L14.4826 209.803L6.47584 192.377L-8.1043 193.581Z" fill="#262626"/>
<path d="M14.8717 210.653L6.11719 191.6L21.9696 188.802L31.3036 207.503L14.8717 210.653ZM7.31986 192.256L15.3306 209.692L30.071 206.867L21.5269 189.751L7.31986 192.256Z" fill="#262626"/>
<path d="M30.4823 207.69L21.1523 188.998L36.5232 184.778L46.3631 203.103L30.4823 207.69ZM22.3469 189.556L30.8943 206.681L45.1426 202.567L36.1258 185.774L22.3469 189.556Z" fill="#262626"/>
<path d="M45.5671 203.364L35.7305 185.044L50.5769 179.433L60.8311 197.38L45.5671 203.364ZM36.9113 185.508L45.9313 202.306L59.6317 196.935L50.2264 180.476L36.9113 185.508Z" fill="#262626"/>
<path d="M60.0746 197.712L49.8203 179.766L64.1285 172.803L74.6766 190.369L60.0746 197.712ZM50.9825 180.144L60.3878 196.604L73.5022 190.01L63.825 173.896L50.9825 180.144Z" fill="#262626"/>
<path d="M73.9575 190.768L63.4062 173.199L77.2118 164.925L87.8926 182.105L73.9575 190.768ZM64.5466 173.5L74.2206 189.61L86.7466 181.822L76.9512 166.066L64.5466 173.5Z" fill="#262626"/>
<path d="M87.2123 182.568L76.5234 165.376L89.9389 155.86L100.545 172.632L87.2123 182.568ZM77.6411 165.616L87.4292 181.359L99.4332 172.413L89.718 157.051L77.6411 165.616Z" fill="#262626"/>
<path d="M99.9021 173.152L89.2812 156.359L102.534 145.724L112.84 162.028L99.9021 173.152ZM90.3803 156.553L100.081 171.893L111.756 161.855L102.34 146.958L90.3803 156.553Z" fill="#262626"/>
<path d="M112.219 162.586L101.895 146.253L115.325 134.743L125.166 150.497L112.219 162.586ZM102.979 146.428L112.377 161.296L124.102 150.348L115.141 136.003L102.979 146.428Z" fill="#262626"/>
<path d="M124.553 151.07L114.691 135.286L128.682 123.291L138.034 138.479L124.553 151.07ZM115.773 135.461L124.715 149.775L136.974 138.327L128.495 124.556L115.773 135.461Z" fill="#262626"/>
<path d="M137.41 139.038L128.043 123.824L142.902 111.832L151.822 126.561L137.41 139.038ZM129.132 124.023L137.595 137.769L150.75 126.38L142.694 113.078L129.132 124.023Z" fill="#262626"/>
<path d="M151.176 127.082L142.246 112.335L158.129 100.809L166.666 115.25L151.176 127.082ZM143.351 112.573L151.396 125.857L165.577 115.024L157.891 102.022L143.351 112.573Z" fill="#262626"/>
<path d="M165.99 115.727L157.445 101.271L174.381 90.5709L182.546 104.889L165.99 115.727ZM158.571 101.559L166.249 114.549L181.438 104.606L174.104 91.7446L158.571 101.559Z" fill="#262626"/>
<path d="M181.844 105.313L173.672 90.9836L191.614 81.368L199.391 95.6854L181.844 105.313ZM174.817 91.3319L182.145 104.182L198.268 95.3354L191.296 82.5014L174.817 91.3319Z" fill="#262626"/>
<path d="M198.658 96.0527L190.875 81.7266L209.746 73.3757L217.11 87.7721L198.658 96.0527ZM192.035 82.1419L199.002 94.9664L215.972 87.3491L209.382 74.4654L192.035 82.1419Z" fill="#262626"/>
<path d="M216.349 88.0818L208.98 73.6751L228.688 66.721L235.608 81.247L216.349 88.0818ZM210.152 74.1668L216.736 87.0402L234.462 80.7476L228.279 67.7687L210.152 74.1668Z" fill="#262626"/>
<path d="M234.816 81.4967L227.891 66.9605L248.334 61.4967L254.783 76.1822L234.816 81.4967ZM229.069 67.5293L235.247 80.4971L253.636 75.6014L247.884 62.5006L229.069 67.5293Z" fill="#262626"/>
<path d="M253.974 76.3701L247.52 61.6717L268.599 57.7773L274.55 72.6352L253.974 76.3701ZM248.7 62.3255L254.447 75.4134L273.407 71.9737L268.107 58.7391L248.7 62.3255Z" fill="#262626"/>
<path d="M273.722 72.7614L267.766 57.8888L289.376 55.6219L294.807 70.6575L273.722 72.7614ZM268.939 58.6275L274.235 71.8476L293.67 69.9085L288.841 56.54L268.939 58.6275Z" fill="#262626"/>
<path d="M293.963 70.7185L288.527 55.6674L310.565 55.078L315.454 70.2869L293.963 70.7185ZM289.692 56.4954L294.516 69.8484L314.329 69.4503L309.99 55.9514L289.692 56.4954Z" fill="#262626"/>
<path d="M336.388 71.5533L314.597 70.2818L309.703 55.0574L332.06 56.1831L336.388 71.5533ZM315.187 69.4564L335.284 70.6292L331.449 57.0094L310.853 55.9729L315.187 69.4564Z" fill="#262626"/>
<path d="M341.203 86.558L319.983 85.0763L314.289 69.4032L336.131 70.6782L341.203 86.558ZM320.552 84.2569L340.047 85.6177L335.54 71.5036L315.493 70.3341L320.552 84.2569Z" fill="#262626"/>
<path d="M299.921 85.2967L293.629 69.8673L315.168 69.4341L320.855 85.09L299.921 85.2967ZM294.85 70.7005L300.45 84.4345L319.681 84.244L314.616 70.3041L294.85 70.7005Z" fill="#262626"/>
<path d="M280.235 87.1071L273.363 71.9351L294.494 69.827L300.78 85.2419L280.235 87.1071ZM274.596 72.6739L280.723 86.202L299.591 84.4894L293.985 70.7408L274.596 72.6739Z" fill="#262626"/>
<path d="M261.019 90.4722L253.59 75.5696L274.209 71.8279L281.074 86.9861L261.019 90.4722ZM254.828 76.2139L261.463 89.525L279.878 86.3229L273.745 72.7819L254.828 76.2139Z" fill="#262626"/>
<path d="M242.375 95.35L234.414 80.7193L254.42 75.3937L261.842 90.2835L242.375 95.35ZM235.651 81.2745L242.772 94.3633L260.643 89.7129L254.002 76.3899L235.651 81.2745Z" fill="#262626"/>
<path d="M224.39 101.694L215.926 87.3276L235.218 80.4799L243.172 95.0985L224.39 101.694ZM217.155 87.7944L224.739 100.666L241.975 94.6146L234.847 81.5138L217.155 87.7944Z" fill="#262626"/>
<path d="M207.155 109.444L198.219 95.3174L216.7 87.0231L225.157 101.379L207.155 109.444ZM199.437 95.7026L207.455 108.378L223.968 100.98L216.378 88.0981L199.437 95.7026Z" fill="#262626"/>
<path d="M190.768 118.533L181.395 104.595L198.966 94.9535L207.896 109.071L190.768 118.533ZM182.596 104.901L191.017 117.427L206.719 108.753L198.695 96.0681L182.596 104.901Z" fill="#262626"/>
<path d="M175.306 128.868L165.531 115.018L182.102 104.171L191.469 118.1L175.306 128.868ZM166.709 115.256L175.506 127.72L190.311 117.858L181.882 105.323L166.709 115.256Z" fill="#262626"/>
<path d="M160.87 140.308L150.711 126.381L166.208 114.543L175.974 128.381L160.87 140.308ZM151.863 126.559L161.023 139.117L174.841 128.207L166.036 115.732L151.863 126.559Z" fill="#262626"/>
<path d="M147.515 152.585L136.941 138.337L151.354 125.859L161.502 139.77L147.515 152.585ZM138.068 138.47L147.627 151.349L160.392 139.654L151.222 127.081L138.068 138.47Z" fill="#262626"/>
<path d="M135.155 165.147L124.078 150.371L137.558 137.781L148.116 152.008L135.155 165.147ZM125.191 150.475L135.237 163.877L147.025 151.926L137.451 139.025L125.191 150.475Z" fill="#262626"/>
<path d="M123.275 177.181L111.738 161.89L124.684 149.803L135.74 164.551L123.275 177.181ZM112.853 161.992L123.356 175.913L134.646 164.473L124.579 151.044L112.853 161.992Z" fill="#262626"/>
<path d="M111.157 188.163L99.4258 172.456L112.361 161.336L123.879 176.603L111.157 188.163ZM100.558 172.589L111.27 186.932L122.758 176.491L112.237 162.547L100.558 172.589Z" fill="#262626"/>
<path d="M98.3804 197.966L86.7422 181.87L100.069 171.938L111.789 187.631L98.3804 197.966ZM87.8979 182.058L98.5431 196.779L110.631 187.464L99.9092 173.107L87.8979 182.058Z" fill="#262626"/>
<path d="M84.8436 206.552L73.5 190.059L87.4246 181.402L99.0596 197.492L84.8436 206.552ZM74.6808 190.319L85.0613 205.412L97.8658 197.253L87.2174 182.525L74.6808 190.319Z" fill="#262626"/>
<path d="M70.5475 213.889L59.6328 196.985L74.2218 189.649L85.5663 206.143L70.5475 213.889ZM60.8355 197.33L70.821 212.792L84.3426 205.819L73.9629 190.728L60.8355 197.33Z" fill="#262626"/>
<path d="M55.5373 219.932L45.1406 202.616L60.3893 196.639L71.3072 213.547L55.5373 219.932ZM46.3627 203.052L55.8659 218.88L70.06 213.134L60.0777 197.676L46.3627 203.052Z" fill="#262626"/>
<path d="M39.8835 224.641L30.0703 206.919L45.9324 202.338L56.334 219.661L39.8835 224.641ZM31.3029 207.451L40.2639 223.633L55.0682 219.151L45.5699 203.33L31.3029 207.451Z" fill="#262626"/>
<path d="M23.6632 227.973L14.4805 209.856L30.8929 206.71L40.7118 224.442L23.6632 227.973ZM15.7212 210.489L24.0929 227.009L39.4363 223.832L30.481 207.66L15.7212 210.489Z" fill="#262626"/>
<path d="M6.95545 229.889L-1.55469 211.397L15.3304 209.72L24.518 227.848L6.95545 229.889ZM-0.313976 212.136L7.43296 228.971L23.2376 227.134L14.8715 210.626L-0.313976 212.136Z" fill="#262626"/>
<path d="M-10.151 230.358L-17.957 211.511L-0.682611 211.335L7.834 229.841L-10.151 230.358ZM-16.7228 212.357L-9.62898 229.484L6.55525 229.019L-1.18521 212.198L-16.7228 212.357Z" fill="#262626"/>
<path d="M-2.58321 247.504L-10.5195 229.509L7.43553 228.994L16.0938 246.632L-2.58321 247.504ZM-9.26263 230.332L-2.07899 246.62L14.7899 245.834L6.95155 229.865L-9.26263 230.332Z" fill="#262626"/>
<path d="M15.2135 246.696L6.5625 229.073L24.0975 227.035L33.4477 244.274L15.2135 246.696ZM7.82668 229.788L15.6716 245.771L32.1382 243.583L23.6589 227.948L7.82668 229.788Z" fill="#262626"/>
<path d="M32.589 244.412L23.2461 227.186L40.2696 223.66L50.2851 240.478L32.589 244.412ZM24.5127 227.797L32.9986 243.444L48.9797 239.89L39.8811 224.614L24.5127 227.797Z" fill="#262626"/>
<path d="M49.4504 240.688L39.4414 223.882L55.8676 218.91L66.5177 235.283L49.4504 240.688ZM40.7032 224.393L49.8082 239.679L65.2203 234.799L55.531 219.904L40.7032 224.393Z" fill="#262626"/>
<path d="M65.7177 235.564L55.0742 219.201L70.8222 212.825L82.0679 228.738L65.7177 235.564ZM56.3238 219.612L66.0188 234.517L80.7827 228.352L70.5398 213.856L56.3238 219.612Z" fill="#262626"/>
<path d="M81.3064 229.088L70.0664 213.182L85.0658 205.447L96.8537 220.893L81.3064 229.088ZM71.3007 213.499L81.5492 228.002L95.5895 220.602L84.8416 206.516L71.3007 213.499Z" fill="#262626"/>
<path d="M96.1276 221.31L84.3438 205.868L98.5443 196.819L110.794 211.805L96.1276 221.31ZM85.5578 206.095L96.3106 220.186L109.556 211.6L98.3784 197.926L85.5578 206.095Z" fill="#262626"/>
<path d="M110.115 212.284L97.8672 197.3L111.265 186.975L123.835 201.522L110.115 212.284ZM99.0561 197.444L110.237 211.121L122.63 201.4L111.156 188.119L99.0561 197.444Z" fill="#262626"/>
<path d="M123.207 202.062L110.633 187.51L123.348 175.955L135.956 190.094L123.207 202.062ZM111.795 187.584L123.266 200.861L134.795 190.039L123.29 177.139L111.795 187.584Z" fill="#262626"/>
<path d="M135.369 190.686L122.746 176.531L135.208 163.903L147.411 177.567L135.369 190.686ZM123.888 176.561L135.377 189.446L146.289 177.559L135.18 165.121L123.888 176.561Z" fill="#262626"/>
<path d="M146.848 178.182L134.625 164.497L147.586 151.358L159.306 164.602L146.848 178.182ZM135.767 164.527L146.856 176.944L158.187 164.591L147.555 152.576L135.767 164.527Z" fill="#262626"/>
<path d="M158.722 165.195L146.988 151.934L160.982 139.114L172.315 152.335L158.722 165.195ZM148.155 151.999L158.772 163.997L171.166 152.271L160.913 140.31L148.155 151.999Z" fill="#262626"/>
<path d="M171.686 152.881L160.344 139.651L175.467 127.711L186.383 141.155L171.686 152.881ZM161.544 139.773L171.789 151.725L185.206 141.02L175.345 128.877L161.544 139.773Z" fill="#262626"/>
<path d="M185.715 141.648L174.793 128.196L190.98 117.413L201.429 131.186L185.715 141.648ZM176.02 128.392L185.875 140.529L200.228 130.972L190.802 118.547L176.02 128.392Z" fill="#262626"/>
<path d="M200.72 131.621L190.266 117.841L207.424 108.362L217.365 122.5L200.72 131.621ZM191.514 118.119L200.937 130.537L216.147 122.202L207.187 109.46L191.514 118.119Z" fill="#262626"/>
<path d="M216.624 122.875L206.676 108.73L224.713 100.649L234.114 115.163L216.624 122.875ZM207.942 109.093L216.896 121.827L232.883 114.778L224.42 101.711L207.942 109.093Z" fill="#262626"/>
<path d="M233.333 115.477L223.926 100.952L242.748 94.3435L251.579 109.229L233.333 115.477ZM225.204 101.408L233.66 114.464L250.34 108.752L242.4 95.3697L225.204 101.408Z" fill="#262626"/>
<path d="M250.771 109.478L241.934 94.582L261.443 89.5052L269.681 104.749L250.771 109.478ZM243.216 95.1312L251.149 108.502L268.44 104.177L261.044 90.492L243.216 95.1312Z" fill="#262626"/>
<path d="M268.845 104.931L260.602 89.6751L280.702 86.1813L288.325 101.764L268.845 104.931ZM261.884 90.322L269.273 103.995L287.088 101.098L280.254 87.1286L261.884 90.322Z" fill="#262626"/>
<path d="M287.47 101.879L279.84 86.2809L300.432 84.4113L307.421 100.313L287.47 101.879ZM281.115 87.0273L287.943 100.982L306.193 99.5507L299.937 85.319L281.115 87.0273Z" fill="#262626"/>
<path d="M326.873 100.432L306.547 100.361L299.551 84.4422L320.535 84.2354L326.873 100.432ZM307.065 99.5044L325.66 99.5687L319.997 85.0986L300.817 85.289L307.065 99.5044Z" fill="#262626"/>
<path d="M333.355 116.399L313.683 116.017L306.16 99.5009L326.533 99.5722L333.355 116.399ZM314.195 115.17L332.116 115.518L325.999 100.428L307.452 100.364L314.195 115.17Z" fill="#262626"/>
<path d="M295.255 117.21L287.055 101.052L307.052 99.4838L314.567 115.983L295.255 117.21ZM288.359 101.809L295.723 116.319L313.314 115.203L306.563 100.381L288.359 101.809Z" fill="#262626"/>
<path d="M277.268 119.906L268.406 104.135L287.93 100.96L296.122 117.104L277.268 119.906ZM269.716 104.791L277.688 118.978L294.858 116.425L287.487 101.9L269.716 104.791Z" fill="#262626"/>
<path d="M259.809 124.071L250.305 108.714L269.256 103.974L278.11 119.732L259.809 124.071ZM251.615 109.267L260.179 123.104L276.843 119.153L268.864 104.953L251.615 109.267Z" fill="#262626"/>
<path d="M242.971 129.659L232.844 114.742L251.129 108.481L260.627 123.827L242.971 129.659ZM234.149 115.197L243.287 128.656L259.36 123.346L250.79 109.498L234.149 115.197Z" fill="#262626"/>
<path d="M226.839 136.625L216.109 122.171L233.636 114.442L243.757 129.349L226.839 136.625ZM217.406 122.531L227.099 135.588L242.499 128.965L233.355 115.498L217.406 122.531Z" fill="#262626"/>
<path d="M211.499 144.917L200.191 130.947L216.871 121.808L227.593 136.253L211.499 144.917ZM201.472 131.211L211.699 143.846L226.348 135.962L216.649 122.895L201.472 131.211Z" fill="#262626"/>
<path d="M197.026 154.472L185.168 141.001L200.911 130.518L212.213 144.481L197.026 154.472ZM186.427 141.175L197.163 153.371L210.983 144.28L200.751 131.638L186.427 141.175Z" fill="#262626"/>
<path d="M183.495 165.233L171.121 152.258L185.844 140.513L197.696 153.979L183.495 165.233ZM172.356 152.348L183.569 164.104L196.489 153.865L185.748 141.662L172.356 152.348Z" fill="#262626"/>
<path d="M170.986 177.133L158.145 164.591L171.754 151.715L184.124 164.684L170.986 177.133ZM159.349 164.602L170.994 175.975L182.944 164.653L171.727 152.892L159.349 164.602Z" fill="#262626"/>
<path d="M159.556 190.106L146.266 177.586L158.729 163.999L171.563 176.531L159.556 190.106ZM147.436 177.54L159.506 188.909L170.415 176.577L158.762 165.195L147.436 177.54Z" fill="#262626"/>
<path d="M148.092 203.063L134.793 190.083L146.829 176.97L160.109 189.479L148.092 203.063ZM135.954 190.049L148.051 201.857L158.951 189.535L146.871 178.156L135.954 190.049Z" fill="#262626"/>
<path d="M135.511 214.933L122.641 201.443L135.377 189.487L148.672 202.464L135.511 214.933ZM123.825 201.479L135.541 213.757L147.468 202.455L135.367 190.644L123.825 201.479Z" fill="#262626"/>
<path d="M121.917 225.666L109.57 211.644L123.271 200.898L136.145 214.391L121.917 225.666ZM110.781 211.762L122.014 224.518L134.907 214.3L123.195 202.024L110.781 211.762Z" fill="#262626"/>
<path d="M107.382 235.191L95.6055 220.645L110.249 211.154L122.601 225.182L107.382 235.191ZM96.8389 220.85L107.546 234.075L121.337 225.003L110.109 212.252L96.8389 220.85Z" fill="#262626"/>
<path d="M91.9777 243.449L80.8008 228.396L96.323 220.215L108.105 234.768L91.9777 243.449ZM82.0528 228.694L92.2035 242.366L106.82 234.499L96.119 221.281L82.0528 228.694Z" fill="#262626"/>
<path d="M75.7888 250.381L65.2383 234.844L81.5593 228.03L92.7419 243.092L75.7888 250.381ZM66.5033 235.237L76.0736 249.332L91.4397 242.725L81.2955 229.062L66.5033 235.237Z" fill="#262626"/>
<path d="M58.8975 255.933L48.9961 239.938L66.0326 234.542L76.5895 250.089L58.8975 255.933ZM50.2684 240.43L59.239 254.922L75.2751 249.624L65.7113 235.539L50.2684 240.43Z" fill="#262626"/>
<path d="M41.3844 260.059L32.1523 243.632L49.816 239.704L59.7239 255.711L41.3844 260.059ZM33.4279 244.225L41.7794 259.086L58.4055 255.144L49.4413 240.663L33.4279 244.225Z" fill="#262626"/>
<path d="M23.3472 262.716L14.8047 245.885L33.0034 243.467L42.2419 259.907L23.3472 262.716ZM16.0778 246.581L23.7931 261.783L40.9243 259.237L32.5785 244.389L16.0778 246.581Z" fill="#262626"/>
<path d="M4.87502 263.866L-2.96094 246.662L15.6796 245.792L24.2286 262.637L4.87502 263.866ZM-1.69756 247.462L5.36791 262.975L22.9159 261.861L15.2078 246.674L-1.69756 247.462Z" fill="#262626"/>
<path d="M5.76918 263.862L-13.9462 263.478L-21.0586 245.933L-2.07326 246.643L5.76918 263.862ZM-13.4096 262.631L4.46777 262.979L-2.59123 247.483L-19.8122 246.838L-13.4096 262.631Z" fill="#262626"/>
<path d="M12.8967 279.514L-7.47662 279.442L-14.2969 262.615L5.37478 262.997L12.8967 279.514ZM-6.94166 278.586L11.6058 278.651L4.86329 263.845L-13.0578 263.496L-6.94166 278.586Z" fill="#262626"/>
<path d="M12.006 279.531L4.49219 263.031L23.8037 261.804L32.0039 277.962L12.006 279.531ZM5.74504 263.81L12.4957 278.632L30.6992 277.205L23.3351 262.694L5.74504 263.81Z" fill="#262626"/>
<path d="M31.1296 278.054L22.9375 261.911L41.7925 259.109L50.6531 274.88L31.1296 278.054ZM24.2009 262.589L31.5723 277.114L49.3428 274.224L41.3717 260.037L24.2009 262.589Z" fill="#262626"/>
<path d="M49.8025 275.042L40.9492 259.284L59.2507 254.944L68.7547 270.3L49.8025 275.042ZM42.2166 259.861L50.1942 274.061L67.4436 269.747L58.88 255.911L42.2166 259.861Z" fill="#262626"/>
<path d="M67.9311 270.532L58.4336 255.187L76.0884 249.354L86.2164 264.271L67.9311 270.532ZM59.6994 255.668L68.2694 269.515L84.9101 263.817L75.772 250.359L59.6994 255.668Z" fill="#262626"/>
<path d="M85.4223 264.572L75.3008 249.664L92.2191 242.389L102.949 256.843L85.4223 264.572ZM76.5593 250.049L85.7039 263.517L101.653 256.484L91.9601 243.426L76.5593 250.049Z" fill="#262626"/>
<path d="M102.192 257.207L91.4688 242.762L107.564 234.098L118.871 248.068L102.192 257.207ZM92.7143 243.054L102.414 256.119L117.59 247.804L107.362 235.169L92.7143 243.054Z" fill="#262626"/>
<path d="M118.15 248.495L106.848 234.533L122.036 224.542L133.894 238.012L118.15 248.495ZM108.078 234.734L118.31 247.376L132.635 237.838L121.899 225.642L108.078 234.734Z" fill="#262626"/>
<path d="M133.217 238.5L121.363 225.036L135.565 213.781L147.939 226.756L133.217 238.5ZM122.572 225.149L133.312 237.351L146.705 226.667L135.492 214.91L122.572 225.149Z" fill="#262626"/>
<path d="M147.307 227.299L134.938 214.329L148.075 201.881L160.916 214.422L147.307 227.299ZM136.118 214.361L147.336 226.123L159.712 214.413L148.067 203.039L136.118 214.361Z" fill="#262626"/>
<path d="M160.329 215.016L147.496 202.482L159.503 188.909L172.794 201.428L160.329 215.016ZM148.645 202.438L160.297 213.82L171.624 201.473L159.555 190.106L148.645 202.438Z" fill="#262626"/>
<path d="M172.229 202.044L158.949 189.535L170.967 175.951L184.266 188.932L172.229 202.044ZM160.108 189.479L172.188 200.857L183.105 188.965L171.008 177.158L160.108 189.479Z" fill="#262626"/>
<path d="M183.682 189.527L170.387 176.549L183.547 164.08L196.417 177.571L183.682 189.527ZM171.591 176.559L183.692 188.37L195.233 177.535L183.518 165.257L171.591 176.559Z" fill="#262626"/>
<path d="M195.787 178.116L182.914 164.623L197.141 153.347L209.488 167.37L195.787 178.116ZM184.152 164.714L195.863 176.99L208.277 167.253L197.045 154.496L184.152 164.714Z" fill="#262626"/>
<path d="M208.812 167.86L196.461 153.833L211.679 143.823L223.456 158.368L208.812 167.86ZM197.725 154.011L208.952 166.762L222.222 158.162L211.515 144.939L197.725 154.011Z" fill="#262626"/>
<path d="M222.736 158.798L210.953 144.246L227.081 135.564L238.258 150.618L222.736 158.798ZM212.238 144.516L222.94 157.733L237.006 150.319L226.855 136.648L212.238 144.516Z" fill="#262626"/>
<path d="M237.499 150.985L226.316 135.924L243.27 128.633L253.82 144.17L237.499 150.985ZM227.619 136.289L237.763 149.953L252.555 143.777L242.985 129.682L227.619 136.289Z" fill="#262626"/>
<path d="M253.03 144.472L242.473 128.925L260.165 123.081L270.065 139.077L253.03 144.472ZM243.786 129.389L253.35 143.475L268.793 138.585L259.823 124.093L243.786 129.389Z" fill="#262626"/>
<path d="M269.243 139.31L259.336 123.304L277.675 118.955L286.907 135.382L269.243 139.31ZM260.654 123.87L269.617 138.35L285.63 134.79L277.28 119.929L260.654 123.87Z" fill="#262626"/>
<path d="M286.054 135.547L276.816 119.107L295.711 116.299L304.254 133.129L286.054 135.547ZM278.135 119.777L286.48 134.626L302.982 132.434L295.266 117.232L278.135 119.777Z" fill="#262626"/>
<path d="M303.383 133.222L294.832 116.377L314.187 115.147L322.022 132.351L303.383 133.222ZM296.146 117.153L303.855 132.34L320.76 131.552L313.695 116.039L296.146 117.153Z" fill="#262626"/>
<path d="M340.116 133.081L321.131 132.372L313.289 115.153L333.004 115.535L340.116 133.081ZM321.647 131.532L338.868 132.176L332.466 116.383L314.589 116.035L321.647 131.532Z" fill="#262626"/>
<path d="M311.623 150.019L302.965 132.382L321.641 131.509L329.577 149.504L311.623 150.019ZM304.269 133.18L312.107 149.147L328.32 148.681L321.137 132.393L304.269 133.18Z" fill="#262626"/>
<path d="M294.96 151.98L285.609 134.741L303.844 132.319L312.495 149.941L294.96 151.98ZM286.918 135.431L295.397 151.067L311.23 149.225L303.386 133.243L286.918 135.431Z" fill="#262626"/>
<path d="M278.79 155.355L268.773 138.537L286.47 134.603L295.813 151.829L278.79 155.355ZM270.08 139.124L279.179 154.4L294.547 151.218L286.061 135.57L270.08 139.124Z" fill="#262626"/>
<path d="M263.189 160.104L252.539 143.732L269.606 138.326L279.616 155.133L263.189 160.104ZM253.836 144.216L263.526 159.11L278.354 154.621L269.249 139.335L253.836 144.216Z" fill="#262626"/>
<path d="M248.235 166.189L236.988 150.276L253.338 143.449L263.981 159.812L248.235 166.189ZM238.273 150.662L248.516 165.158L262.732 159.401L253.037 144.498L238.273 150.662Z" fill="#262626"/>
<path d="M233.995 173.566L222.207 158.119L237.754 149.926L248.996 165.831L233.995 173.566ZM223.471 158.411L234.219 172.497L247.759 165.515L237.51 151.012L223.471 158.411Z" fill="#262626"/>
<path d="M220.513 182.196L208.262 167.209L222.929 157.703L234.713 173.146L220.513 182.196ZM209.5 167.413L220.679 181.088L233.5 172.917L222.747 158.827L209.5 167.413Z" fill="#262626"/>
<path d="M207.793 192.04L195.223 177.492L208.942 166.73L221.191 181.714L207.793 192.04ZM196.427 177.614L207.902 190.895L220.002 181.57L208.821 167.894L196.427 177.614Z" fill="#262626"/>
<path d="M195.713 203.059L183.105 188.921L195.854 176.953L208.429 191.504L195.713 203.059ZM184.267 188.976L195.772 201.876L207.266 191.43L195.795 178.153L184.267 188.976Z" fill="#262626"/>
<path d="M183.851 215.11L171.648 201.446L183.691 188.328L196.314 202.482L183.851 215.11ZM172.77 201.454L183.879 213.894L195.172 202.452L183.682 189.568L172.77 201.454Z" fill="#262626"/>
<path d="M171.475 227.655L159.754 214.412L172.214 200.831L184.436 214.517L171.475 227.655ZM160.873 214.422L171.506 226.437L183.294 214.487L172.205 202.069L160.873 214.422Z" fill="#262626"/>
<path d="M158.079 239.901L146.746 226.68L160.338 213.819L172.073 227.079L158.079 239.901ZM147.894 226.743L158.147 238.704L170.906 227.013L160.288 215.016L147.894 226.743Z" fill="#262626"/>
<path d="M143.591 251.303L132.676 237.859L147.373 226.133L158.715 239.364L143.591 251.303ZM133.853 237.992L143.713 250.137L157.515 239.241L147.27 227.289L133.853 237.992Z" fill="#262626"/>
<path d="M128.079 261.6L117.629 247.829L133.344 237.366L144.265 250.819L128.079 261.6ZM118.83 248.042L128.257 260.468L143.038 250.622L133.183 238.485L118.83 248.042Z" fill="#262626"/>
<path d="M111.632 270.652L101.691 256.514L118.336 247.393L128.791 261.173L111.632 270.652ZM102.91 256.813L111.87 269.554L127.542 260.895L118.119 248.478L102.91 256.813Z" fill="#262626"/>
<path d="M94.3449 278.366L84.9453 263.852L102.435 256.139L112.383 270.285L94.3449 278.366ZM86.1763 264.237L94.6387 277.303L111.116 269.921L102.163 257.188L86.1763 264.237Z" fill="#262626"/>
<path d="M76.3111 284.67L67.4805 269.784L85.7261 263.537L95.133 278.062L76.3111 284.67ZM68.7196 270.262L76.6591 283.645L93.8558 277.606L85.4007 264.551L68.7196 270.262Z" fill="#262626"/>
<path d="M57.6171 289.509L49.3789 274.265L68.289 269.535L77.1261 284.432L57.6171 289.509ZM50.6204 274.837L58.0177 288.522L75.8449 283.882L67.9118 270.511L50.6204 274.837Z" fill="#262626"/>
<path d="M38.3536 292.833L30.7305 277.25L50.2095 274.083L58.455 289.339L38.3536 292.833ZM31.9687 277.917L38.8028 291.886L57.173 288.692L49.783 275.019L31.9687 277.917Z" fill="#262626"/>
<path d="M18.6261 294.602L11.6367 278.7L31.5876 277.135L39.218 292.734L18.6261 294.602ZM12.8653 279.464L19.1214 293.696L37.9433 291.987L31.1158 278.033L12.8653 279.464Z" fill="#262626"/>
<path d="M-1.47771 294.778L-7.81641 278.583L12.5092 278.654L19.5059 294.572L-1.47771 294.778ZM-6.60322 279.446L-0.939506 293.915L18.2401 293.725L11.9912 279.51L-6.60322 279.446Z" fill="#262626"/>
<path d="M4.76904 309.611L-17.0724 308.336L-22.1445 292.457L-0.923811 293.937L4.76904 309.611ZM-16.4816 307.511L3.56394 308.68L-1.49358 294.757L-20.9896 293.397L-16.4816 307.511Z" fill="#262626"/>
<path d="M3.89341 309.581L-1.79297 293.924L19.1404 293.718L25.4322 309.147L3.89341 309.581ZM-0.618623 294.77L4.44537 308.711L24.2109 308.314L18.6111 294.58L-0.618623 294.77Z" fill="#262626"/>
<path d="M24.5673 309.188L18.2812 293.773L38.827 291.907L45.6982 307.079L24.5673 309.188ZM19.4702 294.525L25.0764 308.274L44.4656 306.34L38.339 292.812L19.4702 294.525Z" fill="#262626"/>
<path d="M44.8491 307.187L37.9844 292.028L58.0405 288.542L65.4685 303.445L44.8491 307.187ZM39.1806 292.691L45.3137 306.232L64.2302 302.8L57.5961 289.489L39.1806 292.691Z" fill="#262626"/>
<path d="M64.6403 303.62L57.2188 288.73L76.6856 283.665L84.6471 298.295L64.6403 303.62ZM58.4182 289.302L65.0588 302.625L83.4104 297.74L76.2883 284.651L58.4182 289.302Z" fill="#262626"/>
<path d="M83.8416 298.535L75.8867 283.917L94.6689 277.321L103.134 291.687L83.8416 298.535ZM77.0837 284.399L84.2123 297.499L101.904 291.219L94.3201 278.348L77.0837 284.399Z" fill="#262626"/>
<path d="M102.361 291.992L93.9023 277.635L111.904 269.571L120.841 283.698L102.361 291.992ZM95.0912 278.034L102.682 290.916L119.623 283.312L111.605 270.637L95.0912 278.034Z" fill="#262626"/>
<path d="M120.094 284.061L111.164 269.943L128.293 260.481L137.666 274.42L120.094 284.061ZM112.34 270.262L120.365 282.946L136.465 274.112L128.043 261.586L112.34 270.262Z" fill="#262626"/>
<path d="M136.956 274.842L127.59 260.912L143.752 250.146L153.527 263.994L136.956 274.842ZM128.747 261.155L137.176 273.69L152.349 263.757L143.552 251.294L128.747 261.155Z" fill="#262626"/>
<path d="M152.852 264.469L143.086 250.632L158.192 238.706L168.35 252.632L152.852 264.469ZM144.219 250.808L153.025 263.282L167.198 252.456L158.039 239.898L144.219 250.808Z" fill="#262626"/>
<path d="M167.706 253.155L157.559 239.243L171.545 226.427L182.119 240.677L167.706 253.155ZM158.668 239.361L167.837 251.933L180.992 240.545L171.433 227.665L158.668 239.361Z" fill="#262626"/>
<path d="M181.503 241.232L170.945 227.005L183.907 213.866L194.983 228.642L181.503 241.232ZM172.036 227.087L181.611 239.989L193.87 228.538L183.824 215.137L172.036 227.087Z" fill="#262626"/>
<path d="M194.376 229.211L183.32 214.463L195.785 201.833L207.321 217.124L194.376 229.211ZM184.414 214.542L194.48 227.97L206.207 217.02L195.704 203.101L184.414 214.542Z" fill="#262626"/>
<path d="M206.701 217.678L195.184 202.411L207.906 190.85L219.637 206.558L206.701 217.678ZM196.304 202.524L206.824 216.468L218.505 206.426L207.793 192.083L196.304 202.524Z" fill="#262626"/>
<path d="M218.99 207.076L207.27 191.383L220.679 181.049L232.317 197.145L218.99 207.076ZM208.428 191.551L219.15 205.908L231.161 196.956L220.516 182.234L208.428 191.551Z" fill="#262626"/>
<path d="M231.635 197.612L220 181.522L234.216 172.463L245.559 188.956L231.635 197.612ZM221.193 181.762L231.841 196.489L244.377 188.695L233.997 173.601L221.193 181.762Z" fill="#262626"/>
<path d="M244.84 189.364L233.496 172.869L248.515 165.125L259.43 182.029L244.84 189.364ZM234.72 173.194L245.099 188.286L258.227 181.684L248.241 166.222L234.72 173.194Z" fill="#262626"/>
<path d="M258.672 182.375L247.754 165.467L263.523 159.082L273.92 176.398L258.672 182.375ZM249.001 165.88L258.983 181.338L272.698 175.962L263.194 160.132L249.001 165.88Z" fill="#262626"/>
<path d="M273.128 176.676L262.727 159.352L279.177 154.373L288.99 172.095L273.128 176.676ZM263.991 159.861L273.49 175.682L287.757 171.562L278.796 155.38L263.991 159.861Z" fill="#262626"/>
<path d="M288.167 172.304L278.348 154.572L295.396 151.041L304.579 169.158L288.167 172.304ZM279.624 155.182L288.579 171.354L303.338 168.524L294.967 152.005L279.624 155.182Z" fill="#262626"/>
<path d="M303.731 169.295L294.543 151.166L312.106 149.124L320.616 167.618L303.731 169.295ZM295.823 151.88L304.189 168.388L319.374 166.878L311.628 150.042L295.823 151.88Z" fill="#262626"/>
<path d="M319.743 167.679L311.227 149.173L329.211 148.657L337.018 167.503L319.743 167.679ZM312.506 149.994L320.247 166.816L335.784 166.657L328.69 149.529L312.506 149.994Z" fill="#262626"/>
<path d="M312.102 187.536L303.344 168.471L320.251 166.791L328.375 186.193L312.102 187.536ZM304.583 169.211L312.59 186.637L327.171 185.434L319.747 167.704L304.583 169.211Z" fill="#262626"/>
<path d="M297.092 190.212L287.758 171.512L304.19 168.361L312.944 187.415L297.092 190.212ZM288.99 172.147L297.535 189.263L311.742 186.758L303.731 169.322L288.99 172.147Z" fill="#262626"/>
<path d="M282.539 194.236L272.699 175.912L288.58 171.325L297.91 190.016L282.539 194.236ZM273.92 176.448L282.936 193.241L296.715 189.459L288.167 172.334L273.92 176.448Z" fill="#262626"/>
<path d="M268.484 199.581L258.23 181.635L273.494 175.651L283.33 193.971L268.484 199.581ZM259.431 182.078L268.835 198.537L282.15 193.507L273.13 176.709L259.431 182.078Z" fill="#262626"/>
<path d="M254.932 206.211L244.383 188.645L258.986 181.302L269.239 199.248L254.932 206.211ZM245.557 189.004L255.235 205.118L268.077 198.869L258.672 182.409L245.557 189.004Z" fill="#262626"/>
<path d="M241.848 214.089L231.168 196.909L245.102 188.246L255.654 205.816L241.848 214.089ZM232.312 197.192L242.108 212.947L254.513 205.514L244.838 189.404L232.312 197.192Z" fill="#262626"/>
<path d="M229.122 223.153L218.516 206.382L231.849 196.445L242.537 213.637L229.122 223.153ZM219.629 206.602L229.344 221.963L241.421 213.398L231.633 197.655L219.629 206.602Z" fill="#262626"/>
<path d="M216.529 233.291L206.223 216.987L219.161 205.863L229.781 222.656L216.529 233.291ZM207.306 217.159L216.723 232.057L228.683 222.461L218.983 207.121L207.306 217.159Z" fill="#262626"/>
<path d="M203.737 244.27L193.895 228.517L206.841 216.428L217.166 232.761L203.737 244.27ZM194.958 228.665L203.92 243.01L216.081 232.587L206.683 217.719L194.958 228.665Z" fill="#262626"/>
<path d="M190.378 255.723L181.027 240.535L194.508 227.943L204.369 243.727L190.378 255.723ZM182.088 240.687L190.566 254.458L203.289 243.552L194.347 229.238L182.088 240.687Z" fill="#262626"/>
<path d="M176.158 267.182L167.238 252.454L181.651 239.977L191.017 255.191L176.158 267.182ZM168.31 252.634L176.365 265.937L189.928 254.99L181.466 241.245L168.31 252.634Z" fill="#262626"/>
<path d="M160.932 278.205L152.395 263.762L167.884 251.932L176.815 266.679L160.932 278.205ZM153.484 263.989L161.171 276.992L175.71 266.44L167.665 253.157L153.484 263.989Z" fill="#262626"/>
<path d="M144.676 288.443L136.512 274.125L153.067 263.286L161.612 277.743L144.676 288.443ZM137.621 274.408L144.954 287.269L160.487 277.454L152.808 264.463L137.621 274.408Z" fill="#262626"/>
<path d="M127.445 297.646L119.668 283.329L137.217 273.701L145.388 288.03L127.445 297.646ZM120.792 283.679L127.765 296.513L144.243 287.682L136.916 274.832L120.792 283.679Z" fill="#262626"/>
<path d="M109.316 305.638L101.953 291.242L120.404 282.962L128.187 297.288L109.316 305.638ZM103.09 291.665L109.681 304.547L127.028 296.873L120.061 284.048L103.09 291.665Z" fill="#262626"/>
<path d="M90.3768 312.294L83.457 297.768L102.715 290.932L110.083 305.338L90.3768 312.294ZM84.6014 298.267L90.7847 311.246L108.912 304.847L102.327 291.974L84.6014 298.267Z" fill="#262626"/>
<path d="M70.7269 317.518L64.2773 302.833L84.2452 297.519L91.1707 312.055L70.7269 317.518ZM65.4258 303.412L71.1785 316.512L89.9939 311.485L83.8163 298.517L65.4258 303.412Z" fill="#262626"/>
<path d="M50.4597 321.236L44.5078 306.379L65.0843 302.644L71.5387 317.342L50.4597 321.236ZM45.653 307.041L50.9533 320.275L70.3604 316.688L64.6125 303.601L45.653 307.041Z" fill="#262626"/>
<path d="M29.6854 323.391L24.2539 308.356L45.3395 306.253L51.2954 321.125L29.6854 323.391ZM25.391 309.105L30.2203 322.473L50.1218 320.385L44.8264 307.166L25.391 309.105Z" fill="#262626"/>
<path d="M8.49936 323.936L3.60938 308.728L25.1004 308.296L30.5367 323.346L8.49936 323.936ZM4.73273 309.563L9.07237 323.062L29.3704 322.517L24.546 309.164L4.73273 309.563Z" fill="#262626"/>
<path d="M9.35802 323.957L-12.999 322.832L-17.3281 307.461L4.46317 308.733L9.35802 323.957ZM-12.3871 322.004L8.20876 323.041L3.87317 309.557L-16.2234 308.384L-12.3871 322.004Z" fill="#262626"/>
<path d="M13.0658 337.943L-9.7501 336.898L-13.2148 321.962L9.09362 323.085L13.0658 337.943ZM-9.10828 336.07L11.9821 337.036L8.47448 323.913L-12.17 322.874L-9.10828 336.07Z" fill="#262626"/>
<path d="M12.2213 337.928L8.25391 323.085L30.2459 322.494L34.7021 337.261L12.2213 337.928ZM9.31575 323.914L12.8283 337.051L33.603 336.435L29.6592 323.369L9.31575 323.914Z" fill="#262626"/>
<path d="M33.8631 337.31L29.4102 322.558L50.9789 320.295L55.8988 334.976L33.8631 337.31ZM30.4874 323.307L34.4345 336.387L54.7917 334.231L50.4293 321.215L30.4874 323.307Z" fill="#262626"/>
<path d="M55.0799 335.088L50.1641 320.42L71.2059 316.532L76.5661 331.145L55.0799 335.088ZM51.2486 321.091L55.6149 334.12L75.4541 330.479L70.6928 317.498L51.2486 321.091Z" fill="#262626"/>
<path d="M75.7616 331.318L70.4062 316.717L90.8176 311.263L96.5947 325.839L75.7616 331.318ZM71.4924 317.312L76.2585 330.305L95.4818 325.248L90.3401 312.275L71.4924 317.312Z" fill="#262626"/>
<path d="M95.8073 326.074L90.0352 311.508L109.714 304.562L115.884 319.148L95.8073 326.074ZM91.1197 312.03L96.2654 325.013L114.778 318.628L109.275 305.623L91.1197 312.03Z" fill="#262626"/>
<path d="M115.123 319.442L108.957 304.867L127.806 296.526L134.35 311.19L115.123 319.442ZM110.035 305.319L115.543 318.336L133.252 310.736L127.404 297.634L110.035 305.319Z" fill="#262626"/>
<path d="M133.609 311.538L127.07 296.886L144.996 287.279L151.902 302.115L133.609 311.538ZM128.139 297.274L133.992 310.387L150.817 301.72L144.633 288.434L128.139 297.274Z" fill="#262626"/>
<path d="M151.189 302.515L144.289 287.69L161.216 276.995L168.487 292.128L151.189 302.515ZM145.345 288.022L151.535 301.321L167.414 291.786L160.888 278.203L145.345 288.022Z" fill="#262626"/>
<path d="M167.791 292.573L160.527 277.458L176.407 265.932L184.072 281.494L167.791 292.573ZM161.571 277.739L168.105 291.34L183.011 281.196L176.112 267.187L161.571 277.739Z" fill="#262626"/>
<path d="M183.396 281.978L175.742 266.438L190.603 254.444L198.708 270.554L183.396 281.978ZM176.776 266.682L183.685 280.713L197.657 270.29L190.336 255.738L176.776 266.682Z" fill="#262626"/>
<path d="M198.048 271.062L189.957 254.98L203.952 242.983L212.533 259.695L198.048 271.062ZM190.986 255.201L198.319 269.78L211.484 259.449L203.705 244.298L190.986 255.201Z" fill="#262626"/>
<path d="M211.877 260.21L203.312 243.532L216.745 232.019L225.776 249.304L211.877 260.21ZM204.346 243.749L212.142 258.933L224.725 249.061L216.505 233.328L204.346 243.749Z" fill="#262626"/>
<path d="M225.112 249.808L216.098 232.556L229.355 221.92L238.721 239.703L225.112 249.808ZM217.146 232.791L225.384 248.558L237.659 239.445L229.102 223.199L217.146 232.791Z" fill="#262626"/>
<path d="M238.047 240.177L228.695 222.422L242.117 212.902L251.647 231.116L238.047 240.177ZM229.765 222.695L238.338 238.971L250.568 230.821L241.836 214.133L229.765 222.695Z" fill="#262626"/>
<path d="M250.945 231.546L241.426 213.353L255.239 205.076L264.749 223.675L250.945 231.546ZM242.523 213.682L251.266 230.391L263.652 223.327L254.921 206.253L242.523 213.682Z" fill="#262626"/>
<path d="M264.024 224.052L254.52 205.466L268.837 198.5L278.165 217.461L264.024 224.052ZM255.644 205.864L264.38 222.95L277.047 217.045L268.475 199.618L255.644 205.864Z" fill="#262626"/>
<path d="M277.408 217.777L268.082 198.82L282.94 193.206L291.952 212.521L277.408 217.777ZM269.23 199.298L277.805 216.728L290.819 212.025L282.535 194.27L269.23 199.298Z" fill="#262626"/>
<path d="M291.165 212.772L282.152 193.455L297.536 189.232L306.126 208.893L291.165 212.772ZM283.319 194.022L291.603 211.775L304.979 208.306L297.085 190.242L283.319 194.022Z" fill="#262626"/>
<path d="M305.315 209.073L296.723 189.406L312.589 186.608L320.672 206.603L305.315 209.073ZM297.904 190.069L305.795 208.128L319.518 205.921L312.096 187.565L297.904 190.069Z" fill="#262626"/>
<path d="M319.835 206.708L319.721 206.431L311.746 186.706L328.034 185.362L335.542 205.679L319.835 206.708ZM312.936 187.467L320.353 205.815L334.385 204.894L327.501 186.266L312.936 187.467Z" fill="#262626"/>
<path d="M312.629 228.848L304.992 208.257L320.361 205.785L327.56 226.691L312.629 228.848ZM306.116 208.944L313.149 227.907L326.456 225.985L319.828 206.739L306.116 208.944Z" fill="#262626"/>
<path d="M298.807 232.232L290.832 211.976L305.804 208.095L313.44 228.684L298.807 232.232ZM291.943 212.571L299.29 231.235L312.342 228.071L305.309 209.106L291.943 212.571Z" fill="#262626"/>
<path d="M285.259 236.901L277.062 216.998L291.616 211.739L299.592 231.998L285.259 236.901ZM278.156 217.509L285.708 235.845L298.506 231.468L291.16 212.808L278.156 217.509Z" fill="#262626"/>
<path d="M271.951 242.808L263.668 223.282L277.818 216.688L286.019 236.602L271.951 242.808ZM264.741 223.72L272.368 241.695L284.948 236.144L277.401 217.818L264.741 223.72Z" fill="#262626"/>
<path d="M258.802 249.891L250.582 230.781L264.393 222.905L272.685 242.449L258.802 249.891ZM251.633 231.156L259.19 248.723L271.63 242.054L264.012 224.097L251.633 231.156Z" fill="#262626"/>
<path d="M245.686 258.053L237.68 239.411L251.285 230.345L259.518 249.484L245.686 258.053ZM238.709 239.737L246.051 256.833L258.478 249.132L250.933 231.593L238.709 239.737Z" fill="#262626"/>
<path d="M232.403 267.144L224.746 249.035L238.361 238.927L246.38 257.605L232.403 267.144ZM225.758 249.331L232.757 265.882L245.354 257.284L238.026 240.222L225.758 249.331Z" fill="#262626"/>
<path d="M218.735 276.946L211.508 259.43L225.413 248.521L233.085 266.666L218.735 276.946ZM212.509 259.713L219.088 275.658L232.07 266.359L225.086 249.844L212.509 259.713Z" fill="#262626"/>
<path d="M204.462 287.171L197.688 270.278L212.177 258.906L219.418 276.457L204.462 287.171ZM198.681 270.565L204.822 285.878L218.406 276.147L211.842 260.237L198.681 270.565Z" fill="#262626"/>
<path d="M189.39 297.493L183.047 281.192L198.362 269.766L205.149 286.69L189.39 297.493ZM184.042 281.498L189.768 296.212L204.137 286.361L198.01 271.077L184.042 281.498Z" fill="#262626"/>
<path d="M173.404 307.57L167.453 291.787L167.734 291.595L183.735 280.706L190.089 297.031L173.404 307.57ZM168.452 292.126L173.804 306.318L189.073 296.674L183.356 281.984L168.452 292.126Z" fill="#262626"/>
<path d="M156.452 317.093L150.859 301.726L168.156 291.342L174.114 307.143L156.452 317.093ZM151.866 302.109L156.878 315.883L173.093 306.747L167.748 292.572L151.866 302.109Z" fill="#262626"/>
<path d="M138.545 325.802L133.297 310.747L151.582 301.327L157.18 316.709L138.545 325.802ZM134.31 311.179L139 324.636L156.151 316.267L151.143 302.508L134.31 311.179Z" fill="#262626"/>
<path d="M119.727 333.48L114.824 318.644L134.036 310.399L139.288 325.466L119.727 333.48ZM115.844 319.132L120.214 332.36L138.253 324.97L133.567 311.526L115.844 319.132Z" fill="#262626"/>
<path d="M100.076 339.961L95.5273 325.269L115.585 318.35L120.49 333.198L100.076 339.961ZM96.5503 325.818L100.596 338.89L119.45 332.643L115.082 319.426L96.5503 325.818Z" fill="#262626"/>
<path d="M79.6762 345.11L75.5 330.505L96.3055 325.032L100.857 339.736L79.6762 345.11ZM76.5206 331.119L80.2289 344.088L99.8132 339.116L95.7706 326.055L76.5206 331.119Z" fill="#262626"/>
<path d="M58.6267 348.823L54.8398 334.262L76.2953 330.324L80.4747 344.941L58.6267 348.823ZM55.858 334.946L59.2127 347.849L79.4322 344.256L75.7271 331.298L55.858 334.946Z" fill="#262626"/>
<path d="M37.0258 351.016L33.6484 336.47L55.6494 334.141L59.4387 348.713L37.0258 351.016ZM34.6569 337.226L37.6433 350.091L58.4027 347.958L55.0496 335.067L34.6569 337.226Z" fill="#262626"/>
<path d="M14.9774 351.624L12.0273 337.075L34.4677 336.411L37.8483 350.97L14.9774 351.624ZM13.0228 337.904L15.6265 350.747L36.8221 350.139L33.8381 337.287L13.0228 337.904Z" fill="#262626"/>
<path d="M15.8067 351.638L-7.4147 350.594L-9.91797 336.032L12.8534 337.076L15.8067 351.638ZM-6.73566 349.766L14.795 350.733L12.1946 337.903L-8.93949 336.935L-6.73566 349.766Z" fill="#262626"/>
<path d="M17.5047 365.091L-6.07363 363.967L-7.53125 349.731L15.6529 350.773L17.5047 365.091ZM-5.3428 363.142L16.5707 364.188L14.9431 351.598L-6.62479 350.63L-5.3428 363.142Z" fill="#262626"/>
<path d="M16.6861 365.077L14.8359 350.77L37.6737 350.114L39.9026 364.522L16.6861 365.077ZM15.7602 351.601L17.3894 364.202L38.9516 363.685L36.9882 350.992L15.7602 351.601Z" fill="#262626"/>
<path d="M39.0906 364.568L36.8633 350.172L59.247 347.871L61.8369 362.395L39.0906 364.568ZM37.8029 350.937L39.768 363.641L60.877 361.625L58.5907 348.801L37.8029 350.937Z" fill="#262626"/>
<path d="M61.0328 362.498L58.4453 347.985L80.269 344.108L83.2052 358.784L61.0328 362.498ZM59.393 348.687L61.6818 361.521L82.2349 358.077L79.6369 345.09L59.393 348.687Z" fill="#262626"/>
<path d="M82.4104 358.946L79.4766 344.279L100.638 338.908L103.907 353.787L82.4104 358.946ZM80.4316 344.919L83.032 357.916L102.934 353.14L100.035 339.943L80.4316 344.919Z" fill="#262626"/>
<path d="M103.121 354.004L99.8555 339.135L120.256 332.376L123.851 347.52L103.121 354.004ZM100.813 339.717L103.715 352.924L122.876 346.932L119.681 333.466L100.813 339.717Z" fill="#262626"/>
<path d="M123.081 347.792L119.488 332.657L139.043 324.646L142.961 340.132L123.081 347.792ZM120.448 333.183L123.647 346.66L141.988 339.594L138.495 325.791L120.448 333.183Z" fill="#262626"/>
<path d="M142.205 340.453L138.289 324.98L156.922 315.889L161.175 331.8L142.205 340.453ZM139.247 325.457L142.743 339.273L160.202 331.309L156.4 317.087L139.247 325.457Z" fill="#262626"/>
<path d="M160.433 332.167L156.184 316.272L173.846 306.319L178.456 322.744L160.433 332.167ZM157.14 316.704L160.947 330.942L177.487 322.294L173.354 307.569L157.14 316.704Z" fill="#262626"/>
<path d="M177.729 323.151L173.125 306.747L189.813 296.206L194.809 313.219L177.729 323.151ZM174.079 307.142L178.218 321.888L193.84 312.804L189.344 297.5L174.079 307.142Z" fill="#262626"/>
<path d="M194.091 313.657L189.102 296.669L204.865 285.862L210.279 303.513L194.091 313.657ZM190.057 297.036L194.56 312.366L209.31 303.123L204.421 287.187L190.057 297.036Z" fill="#262626"/>
<path d="M209.565 303.969L204.16 286.35L219.123 275.631L224.971 293.93L209.565 303.969ZM205.118 286.699L210.017 302.668L223.997 293.558L218.697 276.972L205.118 286.699Z" fill="#262626"/>
<path d="M224.265 294.391L218.43 276.129L232.786 265.846L239.044 284.761L224.265 294.391ZM219.394 276.475L224.706 293.098L238.064 284.392L232.37 267.179L219.394 276.475Z" fill="#262626"/>
<path d="M238.335 285.211L232.09 266.335L246.074 256.79L252.674 276.263L238.335 285.211ZM233.065 266.69L238.773 283.942L251.686 275.883L245.657 258.095L233.065 266.69Z" fill="#262626"/>
<path d="M251.959 276.688L245.371 257.254L259.212 248.678L266.05 268.641L251.959 276.688ZM246.361 257.634L252.403 275.46L265.051 268.236L258.782 249.938L246.361 257.634Z" fill="#262626"/>
<path d="M265.32 269.026L258.492 249.097L272.381 241.65L279.328 262.045L265.32 269.026ZM259.498 249.519L265.779 267.85L278.318 261.6L271.931 242.853L259.498 249.519Z" fill="#262626"/>
<path d="M278.583 262.381L271.645 242.013L285.72 235.803L292.642 256.582L278.583 262.381ZM272.668 242.49L279.062 261.263L291.617 256.083L285.241 236.943L272.668 242.49Z" fill="#262626"/>
<path d="M291.877 256.861L284.961 236.1L299.302 231.195L306.072 252.324L291.877 256.861ZM286.002 236.646L292.384 255.804L305.037 251.759L298.792 232.271L286.002 236.646Z" fill="#262626"/>
<path d="M305.286 252.54L298.52 231.421L313.161 227.871L319.663 249.325L305.286 252.54ZM299.573 232.046L305.821 251.543L318.619 248.681L312.617 228.883L299.573 232.046Z" fill="#262626"/>
<path d="M318.857 249.472L312.355 228.021L327.297 225.863L333.431 247.62L318.857 249.472ZM313.421 228.733L319.423 248.535L332.38 246.889L326.72 226.812L313.421 228.733Z" fill="#262626"/>
<path d="M323.858 270.858L318.637 248.636L333.219 246.784L338.134 269.315L323.858 270.858ZM319.644 249.371L324.474 269.93L337.138 268.56L332.594 247.726L319.644 249.371Z" fill="#262626"/>
<path d="M310.482 273.604L305.055 251.714L319.439 248.498L324.663 270.729L310.482 273.604ZM306.053 252.368L311.073 272.61L323.67 270.058L318.842 249.508L306.053 252.368Z" fill="#262626"/>
<path d="M297.159 277.562L291.637 256.042L305.839 251.503L311.271 273.406L297.159 277.562ZM292.624 256.622L297.726 276.505L310.285 272.807L305.27 252.58L292.624 256.622Z" fill="#262626"/>
<path d="M283.835 282.673L278.336 261.563L292.403 255.758L297.931 277.302L283.835 282.673ZM279.311 262.081L284.384 281.551L296.954 276.763L291.857 256.904L279.311 262.081Z" fill="#262626"/>
<path d="M270.429 288.851L265.07 268.203L279.087 261.217L284.595 282.358L270.429 288.851ZM266.032 268.673L270.962 287.671L283.628 281.866L278.563 262.427L266.032 268.673Z" fill="#262626"/>
<path d="M256.819 295.985L251.707 275.858L265.806 267.805L271.174 288.489L256.819 295.985ZM252.655 276.29L257.343 294.754L270.215 288.034L265.294 269.071L252.655 276.29Z" fill="#262626"/>
<path d="M242.866 303.919L238.086 284.372L252.435 275.419L257.556 295.588L242.866 303.919ZM239.023 284.782L243.39 302.648L256.607 295.152L251.928 276.729L239.023 284.782Z" fill="#262626"/>
<path d="M228.414 312.458L224.02 293.543L238.807 283.907L243.596 303.497L228.414 312.458ZM224.948 293.945L228.947 311.161L242.655 303.069L238.297 285.246L224.948 293.945Z" fill="#262626"/>
<path d="M213.321 321.369L209.332 303.115L224.745 293.071L229.149 312.025L213.321 321.369ZM210.252 303.522L213.867 320.064L228.215 311.594L224.225 294.416L210.252 303.522Z" fill="#262626"/>
<path d="M197.459 330.39L193.867 312.799L210.064 302.651L214.06 320.94L197.459 330.39ZM194.783 313.224L198.024 329.096L213.133 320.494L209.525 303.986L194.783 313.224Z" fill="#262626"/>
<path d="M180.734 339.253L177.516 322.294L194.602 312.359L198.199 329.978L180.734 339.253ZM178.427 322.743L181.32 337.982L197.277 329.508L194.042 313.664L178.427 322.743Z" fill="#262626"/>
<path d="M163.111 347.694L160.238 331.314L178.267 321.888L181.489 338.867L163.111 347.694ZM161.146 331.796L163.718 346.46L180.57 338.367L177.681 323.151L161.146 331.796Z" fill="#262626"/>
<path d="M144.574 355.471L142.023 339.603L160.995 330.948L163.871 347.344L144.574 355.471ZM142.927 340.124L145.204 354.282L162.954 346.808L160.385 332.161L142.927 340.124Z" fill="#262626"/>
<path d="M125.158 362.372L122.914 346.943L142.794 339.284L145.346 355.167L125.158 362.372ZM123.815 347.509L125.811 361.235L144.433 354.587L142.158 340.443L123.815 347.509Z" fill="#262626"/>
<path d="M104.917 368.216L102.973 353.156L123.696 346.674L125.942 362.115L104.917 368.216ZM103.869 353.771L105.594 367.13L125.033 361.49L123.038 347.776L103.869 353.771Z" fill="#262626"/>
<path d="M83.9164 372.849L82.2734 358.098L103.76 352.942L105.704 368.012L83.9164 372.849ZM83.1629 358.765L84.6164 371.817L104.8 367.336L103.077 353.985L83.1629 358.765Z" fill="#262626"/>
<path d="M62.2534 376.144L60.918 361.649L83.0727 357.937L84.7164 372.698L62.2534 376.144ZM61.7961 362.37L62.9753 375.165L83.8197 371.969L82.3669 358.925L61.7961 362.37Z" fill="#262626"/>
<path d="M40.015 377.996L38.9961 363.714L61.7214 361.544L63.0576 376.047L40.015 377.996ZM39.8645 364.494L40.7612 377.073L62.173 375.262L60.9946 362.476L39.8645 364.494Z" fill="#262626"/>
<path d="M17.3028 378.321L16.6133 364.221L39.8031 363.665L40.8229 377.955L17.3028 378.321ZM17.4655 365.059L18.0709 377.451L39.9504 377.111L39.0545 364.542L17.4655 365.059Z" fill="#262626"/>
<path d="M18.1121 378.338L-5.77699 377.049L-6.125 363.105L17.4217 364.228L18.1121 378.338ZM-4.98708 376.233L17.2574 377.433L16.6529 365.05L-5.2922 364.003L-4.98708 376.233Z" fill="#262626"/>
<path d="M17.5891 391.395L-6.57031 389.863L-5.75693 376.191L18.1087 377.478L17.5891 391.395ZM-5.71242 389.058L16.8129 390.486L17.2678 378.293L-5.0002 377.091L-5.71242 389.058Z" fill="#262626"/>
<path d="M16.7773 391.372L17.2969 377.463L40.7975 377.098L40.5637 391.283L16.7773 391.372ZM18.0747 378.309L17.6199 390.511L39.7681 390.428L39.9736 377.969L18.0747 378.309Z" fill="#262626"/>
<path d="M39.7539 391.314L39.9878 377.138L63.0166 375.19L63.0619 389.681L39.7539 391.314ZM40.7842 377.931L40.5786 390.396L62.2485 388.878L62.2097 376.118L40.7842 377.931Z" fill="#262626"/>
<path d="M62.2516 389.767L62.207 375.284L84.6604 371.84L84.9784 386.68L62.2516 389.767ZM63.018 376.026L63.0576 388.792L84.1529 385.928L83.8713 372.826L63.018 376.026Z" fill="#262626"/>
<path d="M84.1743 386.819L83.8555 371.986L105.639 367.15L106.229 382.395L84.1743 386.819ZM84.681 372.68L84.9618 385.789L105.393 381.69L104.869 368.198L84.681 372.68Z" fill="#262626"/>
<path d="M105.426 382.587L104.836 367.351L125.86 361.25L126.729 376.958L105.426 382.587ZM105.67 367.997L106.194 381.499L125.881 376.297L125.11 362.357L105.67 367.997Z" fill="#262626"/>
<path d="M125.931 377.198L125.062 361.502L145.253 354.294L146.413 370.526L125.931 377.198ZM125.907 362.105L126.679 376.057L145.557 369.907L144.525 355.459L125.907 362.105Z" fill="#262626"/>
<path d="M145.62 370.813L144.461 354.595L163.764 346.467L165.232 363.284L145.62 370.813ZM145.313 355.159L146.347 369.621L164.369 362.703L163.058 347.687L145.313 355.159Z" fill="#262626"/>
<path d="M164.451 363.611L162.984 346.812L181.37 337.982L183.171 355.44L164.451 363.611ZM163.843 347.341L165.156 362.375L182.3 354.891L180.688 339.251L163.843 347.341Z" fill="#262626"/>
<path d="M182.392 355.801L180.594 338.368L198.068 329.089L200.226 347.224L182.392 355.801ZM181.461 338.867L183.075 354.53L199.349 346.703L197.409 330.398L181.461 338.867Z" fill="#262626"/>
<path d="M199.458 347.61L197.305 329.504L213.914 320.048L216.449 338.877L199.458 347.61ZM198.177 329.982L200.12 346.316L215.563 338.378L213.277 321.385L198.177 329.982Z" fill="#262626"/>
<path d="M215.682 339.278L213.152 320.486L228.989 311.136L231.903 330.65L215.682 339.278ZM214.033 320.948L216.324 337.977L231.012 330.166L228.371 312.485L214.033 320.948Z" fill="#262626"/>
<path d="M231.147 331.055L228.238 311.581L243.43 302.614L246.707 322.779L231.147 331.055ZM229.127 312.039L231.773 329.761L245.808 322.298L242.827 303.953L229.127 312.039Z" fill="#262626"/>
<path d="M245.949 323.172L242.68 303.051L257.379 294.714L260.971 315.478L245.949 323.172ZM243.576 303.515L246.564 321.904L260.065 314.99L256.783 296.024L243.576 303.515Z" fill="#262626"/>
<path d="M260.214 315.848L256.629 295.128L270.993 287.628L274.831 308.931L260.214 315.848ZM257.535 295.611L260.825 314.62L273.916 308.425L270.397 288.894L257.535 295.611Z" fill="#262626"/>
<path d="M274.069 309.267L270.238 288.004L284.414 281.507L288.406 303.289L274.069 309.267ZM271.154 288.519L274.68 308.091L287.481 302.751L283.81 282.718L271.154 288.519Z" fill="#262626"/>
<path d="M287.63 303.578L283.645 281.833L297.748 276.459L301.791 298.663L287.63 303.578ZM284.571 282.391L288.25 302.461L300.862 298.085L297.134 277.607L284.571 282.391Z" fill="#262626"/>
<path d="M301.01 298.901L296.973 276.725L311.092 272.567L315.08 295.146L301.01 298.901ZM297.908 277.34L301.643 297.847L314.143 294.511L310.458 273.645L297.908 277.34Z" fill="#262626"/>
<path d="M314.288 295.323L310.305 272.766L324.493 269.89L328.322 292.804L314.288 295.323ZM311.248 273.448L314.938 294.337L327.383 292.102L323.839 270.896L311.248 273.448Z" fill="#262626"/>
<path d="M316.625 317.595L314.168 294.475L328.21 291.954L330.549 315.447L316.625 317.595ZM315.058 295.185L317.336 316.618L329.662 314.716L327.495 292.953L315.058 295.185Z" fill="#262626"/>
<path d="M303.369 320.773L300.887 298.051L314.964 294.295L317.425 317.442L303.369 320.773ZM301.771 298.699L304.069 319.727L316.539 316.773L314.263 295.366L301.771 298.699Z" fill="#262626"/>
<path d="M289.913 324.995L287.5 302.72L301.671 297.802L304.158 320.559L289.913 324.995ZM288.379 303.319L290.607 323.885L303.275 319.94L300.982 298.946L288.379 303.319Z" fill="#262626"/>
<path d="M276.188 330.171L273.934 308.4L288.281 302.416L290.698 324.731L276.188 330.171ZM274.806 308.958L276.88 329L289.821 324.149L287.597 303.623L274.806 308.958Z" fill="#262626"/>
<path d="M262.103 336.18L260.086 314.969L274.714 308.047L276.972 329.864L262.103 336.18ZM260.95 315.5L262.8 334.96L276.101 329.308L274.031 309.31L260.95 315.5Z" fill="#262626"/>
<path d="M247.546 342.876L245.828 322.281L260.861 314.581L262.882 335.838L247.546 342.876ZM246.683 322.795L248.254 341.616L262.017 335.302L260.172 315.888L246.683 322.795Z" fill="#262626"/>
<path d="M232.419 350.084L231.035 330.153L246.607 321.872L248.329 342.513L232.419 350.084ZM231.883 330.662L233.142 348.801L247.473 341.98L245.906 323.205L231.883 330.662Z" fill="#262626"/>
<path d="M216.617 357.606L215.586 338.37L231.819 329.736L233.206 349.709L216.617 357.606ZM216.424 338.885L217.358 356.313L232.356 349.175L231.1 331.079L216.424 338.885Z" fill="#262626"/>
<path d="M200.053 365.224L199.371 346.698L216.373 337.96L217.405 357.233L217.147 357.353L200.053 365.224ZM200.201 347.227L200.816 363.938L216.567 356.686L215.634 339.295L200.201 347.227Z" fill="#262626"/>
<path d="M182.67 372.714L182.324 354.892L200.169 346.308L200.852 364.865L182.67 372.714ZM183.145 355.44L183.456 371.448L200.021 364.297L199.408 347.617L183.145 355.44Z" fill="#262626"/>
<path d="M164.426 379.851L164.395 362.706L164.646 362.597L183.125 354.531L183.471 372.378L164.426 379.851ZM165.205 363.281L165.234 378.619L182.65 371.785L182.339 355.801L165.205 363.281Z" fill="#262626"/>
<path d="M145.324 386.42L145.584 369.914L165.205 362.383L165.236 379.547L145.324 386.42ZM146.384 370.519L146.153 385.231L164.426 378.922L164.398 363.604L146.384 370.519Z" fill="#262626"/>
<path d="M125.379 392.223L125.91 376.307L146.398 369.633L146.138 386.154L125.379 392.223ZM126.698 376.947L126.225 391.085L145.338 385.496L145.569 370.8L126.698 376.947Z" fill="#262626"/>
<path d="M104.633 397.082L105.42 381.703L126.727 376.073L126.195 392.001L104.633 397.082ZM106.196 382.382L105.499 395.999L125.408 391.307L125.879 377.181L106.196 382.382Z" fill="#262626"/>
<path d="M83.1523 400.838L84.1859 385.944L106.243 381.52L105.454 396.909L83.1523 400.838ZM84.9482 386.664L84.0345 399.812L104.682 396.173L105.378 382.566L84.9482 386.664Z" fill="#262626"/>
<path d="M61.0039 403.356L62.2802 388.897L85.0047 385.811L83.9696 400.712L61.0039 403.356ZM63.0264 389.662L61.9015 402.39L83.212 399.938L84.1241 386.797L63.0264 389.662Z" fill="#262626"/>
<path d="M38.2852 404.521L39.8027 390.451L63.1026 388.819L61.8246 403.284L38.2852 404.521ZM40.5302 391.26L39.1981 403.614L61.0857 402.463L62.209 389.741L40.5302 391.26Z" fill="#262626"/>
<path d="M39.1006 404.5L15.082 404.232L16.8448 390.513L40.6189 390.424L39.1006 404.5ZM16.0087 403.385L38.3803 403.634L39.7125 391.286L17.5521 391.368L16.0087 403.385Z" fill="#262626"/>
<path d="M15.8941 404.265L-8.5 402.41L-6.48881 389.009L17.656 390.541L15.8941 404.265ZM-7.56199 401.621L15.194 403.352L16.7366 391.342L-5.80412 389.912L-7.56199 401.621Z" fill="#262626"/>
<path d="M102.523 411.656L104.709 396.185L126.278 391.103L124.326 407.187L102.523 411.656ZM105.427 396.896L103.494 410.583L123.598 406.462L125.329 392.205L105.427 396.896Z" fill="#262626"/>
<path d="M123.484 407.389L125.436 391.317L146.205 385.245L144.503 401.981L123.484 407.389ZM126.169 391.991L124.437 406.261L143.759 401.288L145.272 386.407L126.169 391.991Z" fill="#262626"/>
<path d="M143.664 402.223L145.364 385.504L165.288 378.626L163.858 396.052L143.664 402.223ZM146.114 386.148L144.599 401.045L163.099 395.39L164.376 379.843L146.114 386.148Z" fill="#262626"/>
<path d="M163.023 396.332L164.452 378.927L183.508 371.449L182.371 389.594L163.023 396.332ZM165.213 379.544L163.936 395.11L181.599 388.959L182.617 372.712L165.213 379.544Z" fill="#262626"/>
<path d="M181.539 389.904L182.674 371.786L200.869 363.931L200.044 382.813L181.539 389.904ZM183.449 372.377L182.429 388.65L199.26 382.2L200.002 365.231L183.449 372.377Z" fill="#262626"/>
<path d="M199.219 383.143L200.043 364.294L217.409 356.298L216.91 375.913L199.219 383.143ZM200.828 364.868L200.085 381.869L216.114 375.318L216.565 357.621L200.828 364.868Z" fill="#262626"/>
<path d="M216.094 376.256L216.592 356.68L233.193 348.777L233.019 369.109L216.094 376.256ZM217.387 357.24L216.935 374.976L232.214 368.525L232.372 350.106L217.387 357.24Z" fill="#262626"/>
<path d="M232.207 369.453L232.381 349.164L248.305 341.586L248.44 362.599L232.207 369.453ZM233.186 349.721L233.028 368.183L247.627 362.019L247.503 342.908L233.186 349.721Z" fill="#262626"/>
<path d="M247.631 362.931L247.496 341.965L262.845 334.922L263.256 356.568L247.631 362.931ZM248.309 342.527L248.433 361.686L262.436 355.983L262.06 336.218L248.309 342.527Z" fill="#262626"/>
<path d="M262.453 356.879L262.043 335.282L276.926 328.959L277.562 351.181L262.453 356.879ZM262.864 335.858L263.241 355.673L276.736 350.583L276.151 330.212L262.864 335.858Z" fill="#262626"/>
<path d="M276.76 351.461L276.125 329.285L290.648 323.841L291.441 346.58L276.76 351.461ZM276.951 329.886L277.536 350.304L290.61 345.958L289.88 325.04L276.951 329.886Z" fill="#262626"/>
<path d="M290.64 346.818L289.848 324.123L304.103 319.683L304.977 342.882L290.64 346.818ZM290.68 324.758L291.411 345.72L304.142 342.226L303.337 320.817L290.68 324.758Z" fill="#262626"/>
<path d="M304.172 343.07L303.301 319.91L317.368 316.576L318.235 340.18L304.172 343.07ZM304.137 320.59L304.944 342.038L317.399 339.478L316.596 317.639L304.137 320.59Z" fill="#262626"/>
<path d="M317.428 340.31L316.562 316.738L330.494 314.588L331.266 338.549L317.428 340.31ZM317.399 317.476L318.202 339.348L330.43 337.792L329.715 315.575L317.399 317.476Z" fill="#262626"/>
<path d="M316.645 363.36L317.424 339.447L331.272 337.684L330.417 362.002L316.645 363.36ZM318.209 340.211L317.485 362.415L329.635 361.218L330.427 338.656L318.209 340.211Z" fill="#262626"/>
<path d="M303.383 365.683L304.168 342.197L318.241 339.305L317.46 363.254L303.383 365.683ZM304.954 342.91L304.228 364.668L316.675 362.52L317.398 340.352L304.954 342.91Z" fill="#262626"/>
<path d="M289.766 368.94L290.632 345.933L304.981 341.993L304.195 365.521L289.766 368.94ZM291.416 346.604L290.616 367.859L303.409 364.83L304.135 343.113L291.416 346.604Z" fill="#262626"/>
<path d="M275.742 373.033L276.759 350.562L291.454 345.677L290.586 368.731L275.742 373.033ZM277.54 351.202L276.604 371.893L289.801 368.069L290.599 346.86L277.54 351.202Z" fill="#262626"/>
<path d="M261.234 377.844L262.459 355.967L277.581 350.264L276.562 372.783L261.234 377.844ZM263.235 356.585L262.112 376.656L275.782 372.143L276.715 351.501L263.235 356.585Z" fill="#262626"/>
<path d="M246.172 383.238L247.648 362.005L263.288 355.636L262.061 377.564L246.172 383.238ZM248.418 362.612L247.068 382.013L261.285 376.935L262.405 356.915L248.418 362.612Z" fill="#262626"/>
<path d="M230.477 389.059L232.236 368.517L248.483 361.657L247.003 382.939L230.477 389.059ZM232.996 369.118L231.396 387.809L246.234 382.313L247.58 362.96L232.996 369.118Z" fill="#262626"/>
<path d="M214.082 395.132L216.139 375.313L233.079 368.16L231.316 388.748L214.082 395.132ZM216.89 375.919L215.027 393.873L230.558 388.12L232.154 369.474L216.89 375.919Z" fill="#262626"/>
<path d="M196.934 401.27L199.286 382.197L216.99 374.962L214.93 394.82L196.934 401.27ZM200.025 382.814L197.904 400.016L214.182 394.183L216.04 376.269L200.025 382.814Z" fill="#262626"/>
<path d="M178.984 407.281L181.624 388.96L200.143 381.864L197.786 400.97L178.984 407.281ZM182.35 389.594L179.98 406.046L197.05 400.317L199.167 383.149L182.35 389.594Z" fill="#262626"/>
<path d="M160.215 412.97L163.124 395.394L182.485 388.653L179.842 407.001L160.215 412.97ZM163.836 396.049L161.235 411.766L179.119 406.326L181.486 389.901L163.836 396.049Z" fill="#262626"/>
<path d="M140.629 418.146L143.787 401.294L163.994 395.119L161.082 412.716L140.629 418.146ZM144.484 401.974L141.671 416.984L160.374 412.019L162.971 396.323L144.484 401.974Z" fill="#262626"/>
<path d="M193.168 419.509L197.07 400.315L215.083 393.86L211.442 413.857L193.168 419.509ZM197.764 400.971L194.246 418.282L210.742 413.179L214.026 395.145L197.764 400.971Z" fill="#262626"/>
<path d="M210.566 414.133L214.2 394.178L231.45 387.789L228.076 408.527L210.566 414.133ZM214.907 394.825L211.615 412.901L227.364 407.858L230.42 389.079L214.907 394.825Z" fill="#262626"/>
<path d="M227.211 408.804L230.578 388.112L247.121 381.985L244.001 403.429L227.211 408.804ZM231.294 388.756L228.231 407.58L243.279 402.764L246.116 383.266L231.294 388.756Z" fill="#262626"/>
<path d="M243.145 403.696L246.256 382.302L262.163 376.622L259.274 398.724L243.145 403.696ZM246.982 382.949L244.138 402.496L258.544 398.055L261.182 377.876L246.982 382.949Z" fill="#262626"/>
<path d="M258.426 398.971L261.308 376.922L276.653 371.856L273.955 394.562L258.426 398.971ZM262.04 377.579L259.395 397.809L273.22 393.882L275.695 373.071L262.04 377.579Z" fill="#262626"/>
<path d="M273.113 394.78L275.806 372.124L290.665 367.818L288.106 391.073L273.113 394.78ZM276.541 372.801L274.061 393.664L287.367 390.375L289.722 368.981L276.541 372.801Z" fill="#262626"/>
<path d="M287.27 391.254L289.823 368.048L304.268 364.626L301.789 388.372L287.27 391.254ZM290.559 368.752L288.2 390.196L301.05 387.646L303.338 365.725L290.559 368.752Z" fill="#262626"/>
<path d="M300.961 388.505L303.436 364.805L317.526 362.374L315.058 386.553L300.961 388.505ZM304.172 365.547L301.88 387.514L314.321 385.79L316.607 363.401L304.172 365.547Z" fill="#262626"/>
<path d="M314.234 386.632L316.699 362.493L330.483 361.133L327.953 385.694L314.234 386.632ZM317.432 363.282L315.143 385.71L327.223 384.885L329.57 362.086L317.432 363.282Z" fill="#262626"/>
<path d="M310.168 410.015L314.348 385.764L328.079 384.825L323.838 409.511L310.168 410.015ZM315.031 386.577L311.145 409.121L323.159 408.678L327.098 385.752L315.031 386.577Z" fill="#262626"/>
<path d="M296.883 411.424L301.074 387.624L315.185 385.67L310.997 409.965L296.883 411.424ZM301.761 388.395L297.875 410.459L310.31 409.173L314.189 386.673L301.761 388.395Z" fill="#262626"/>
<path d="M283.125 413.65L287.389 390.357L301.923 387.472L297.723 411.32L283.125 413.65ZM288.077 391.093L284.138 412.621L297.034 410.564L300.912 388.547L288.077 391.093Z" fill="#262626"/>
<path d="M268.852 416.598L273.241 393.867L288.251 390.157L283.98 413.502L268.852 416.598ZM273.93 394.577L269.888 415.512L283.289 412.769L287.22 391.293L273.93 394.577Z" fill="#262626"/>
<path d="M254.004 420.157L258.564 398.043L274.112 393.628L269.712 416.413L254.004 420.157ZM259.25 398.737L255.067 419.025L269.024 415.698L273.056 394.817L259.25 398.737Z" fill="#262626"/>
</g>
</g>
<defs>
<clipPath id="clip0_482_56277">
<rect width="607" height="429" fill="white" transform="translate(-144 -25)"/>
</clipPath>
</defs>
</svg>
