<svg width="286" height="184" viewBox="0 0 286 184" fill="none" xmlns="http://www.w3.org/2000/svg">
<path fill-rule="evenodd" clip-rule="evenodd" d="M187.549 111.345L187.549 63.4629L214.691 38.5202C217.672 40.2417 222.439 42.5765 222.439 54.2834L222.438 111.345C222.438 116.415 212.847 120.525 204.067 120.525C195.286 120.525 187.549 116.415 187.549 111.345Z" fill="url(#paint0_linear_56_183)"/>
<path d="M95.1838 54.2828C95.1838 38.5202 95.1838 35.7054 106.755 35.2136L203.449 35.8315C207.665 35.8315 211.709 36.7988 214.691 38.5202L187.549 63.4629L106.756 63.4629C97.9752 63.4629 95.1838 59.353 95.1838 54.2834L95.1838 54.2828Z" fill="url(#paint1_linear_56_183)"/>
<path d="M99.7672 35.905C97.9925 36.5369 96.8391 37.5042 96.0872 38.9261C95.3417 40.3362 94.9786 42.2165 94.7975 44.709C94.6161 47.2054 94.6161 50.3444 94.6161 54.2818L94.6161 54.2836C94.6161 56.8427 95.3177 59.2101 97.1956 60.9476C99.1007 62.7102 102.181 63.7906 106.756 63.7906L186.981 63.7906L186.981 111.345C186.981 116.612 195.001 120.853 204.067 120.853C208.602 120.853 213.319 119.794 216.906 118.089C220.493 116.385 223.006 114.004 223.006 111.345L223.006 54.2833C223.006 48.4083 221.812 44.8517 220.21 42.5358C218.6 40.2062 216.587 39.1514 215.092 38.2883C212.004 36.5055 207.816 35.5036 203.449 35.5036L106.762 34.8857C106.746 34.8856 106.73 34.8859 106.714 34.8866C103.798 35.0106 101.514 35.283 99.7672 35.905ZM214.794 39.0414C216.182 39.8398 217.806 40.8258 219.156 42.7788C220.683 44.9874 221.871 48.4517 221.871 54.2833L221.87 111.345C221.87 113.756 219.588 115.966 216.184 117.583C212.781 119.201 208.312 120.197 204.066 120.197C195.571 120.197 188.117 116.218 188.117 111.345L188.117 63.557L214.794 39.0414ZM97.1736 39.1175C97.8682 37.8039 98.8841 36.9899 100.364 36.4631C101.868 35.9275 103.919 35.6633 106.78 35.541L203.442 36.1592L203.449 36.1592C207.364 36.1592 211.125 37.0242 213.966 38.5705L187.236 63.1347L106.756 63.135C102.55 63.135 99.8449 62.1604 98.1591 60.6008C96.4464 59.0161 95.7517 56.7943 95.7516 54.2842L95.7516 54.283C95.7516 50.3397 95.7518 47.2159 95.932 44.7362C96.1125 42.2525 96.4728 40.4429 97.1736 39.1175Z" fill="black"/>
<path d="M111.083 32.741C102.303 32.7411 95.1846 36.8507 95.1845 41.9202C95.1845 46.9897 102.303 51.0997 111.084 51.0997L191.877 51.0997L191.877 97.7457C191.877 102.815 198.996 106.925 207.776 106.925C216.557 106.925 223.675 102.815 223.675 97.746L223.676 41.9202C223.676 39.4857 222 37.1509 219.019 35.4295C216.037 33.708 211.993 32.7407 207.776 32.7407L111.083 32.741Z" fill="white"/>
<path d="M111.083 32.4131C101.989 32.4133 94.6168 36.6696 94.6167 41.9201C94.6167 47.1707 101.989 51.4274 111.084 51.4274L191.309 51.4274L191.309 97.7456C191.309 102.996 198.682 107.253 207.776 107.253C216.871 107.253 224.243 102.996 224.243 97.7459L224.243 41.9201C224.243 39.3987 222.508 36.9805 219.42 35.1976C216.332 33.4147 212.144 32.4128 207.776 32.4128L111.083 32.4131ZM218.617 35.6612C221.492 37.3212 223.108 39.5726 223.108 41.9201L223.107 97.7459C223.107 102.634 216.243 106.597 207.776 106.597C199.309 106.597 192.445 102.634 192.445 97.7456L192.445 51.0996C192.445 50.9186 192.191 50.7718 191.877 50.7718L111.084 50.7718C102.617 50.7718 95.7522 46.8086 95.7522 41.9201C95.7523 37.0318 102.616 33.0689 111.083 33.0687L207.776 33.0684C211.842 33.0684 215.742 34.0013 218.617 35.6612Z" fill="black"/>
<path d="M56.3748 156.103V139.932H183.602V156.103C183.602 162.59 178.344 167.848 171.857 167.848H68.1199C61.6332 167.848 56.3748 162.59 56.3748 156.103Z" fill="url(#paint2_linear_56_183)"/>
<path d="M183.139 140.396H56.8391V156.103C56.8391 162.333 61.89 167.384 68.1206 167.384H171.858C178.089 167.384 183.139 162.333 183.139 156.103V140.396ZM184.067 156.103C184.067 162.845 178.601 168.311 171.858 168.312H68.1206C61.3779 168.312 55.9119 162.845 55.9119 156.103V139.932C55.9119 139.676 56.1194 139.469 56.3755 139.469H183.603C183.859 139.469 184.067 139.676 184.067 139.932V156.103Z" fill="black"/>
<path d="M55.7443 86.0735C55.7445 81.0041 62.8626 76.8944 71.6431 76.8943C80.4239 76.8943 87.5425 81.0042 87.5424 86.0738L87.5424 132.72H168.336C177.116 132.72 184.235 136.83 184.235 141.899C184.235 146.969 177.117 151.078 168.336 151.078L71.6431 151.079C67.4265 151.079 63.3825 150.111 60.4009 148.39C57.4192 146.669 55.7438 144.334 55.7438 141.899L55.7443 86.0735Z" fill="white"/>
<path d="M55.1765 86.0735C55.1768 80.823 62.549 76.5665 71.6431 76.5665C80.7374 76.5665 88.1102 80.8232 88.1102 86.0738L88.1102 132.392L168.336 132.392C177.43 132.392 184.803 136.649 184.803 141.899C184.803 147.15 177.43 151.406 168.336 151.406L71.6431 151.407C67.2758 151.407 63.0874 150.405 59.9993 148.622C56.9113 146.839 55.176 144.421 55.176 141.899L55.1765 86.0735ZM60.8023 148.158C63.6775 149.818 67.5771 150.751 71.6431 150.751L168.336 150.751C176.803 150.751 183.667 146.788 183.667 141.899C183.667 137.011 176.803 133.048 168.336 133.048L87.5424 133.048C87.2289 133.048 86.9747 132.901 86.9747 132.72L86.9747 86.0738C86.9746 81.1853 80.1102 77.2221 71.6431 77.2221C63.1762 77.2221 56.3123 81.1851 56.312 86.0735L56.3115 141.899C56.3115 144.247 57.9272 146.498 60.8023 148.158Z" fill="black"/>
<defs>
<linearGradient id="paint0_linear_56_183" x1="162.446" y1="16.0249" x2="205.834" y2="120.307" gradientUnits="userSpaceOnUse">
<stop stop-color="#FFBC0A"/>
<stop offset="0.173077" stop-color="#EC7D10"/>
<stop offset="0.332086" stop-color="#FC2F00"/>
<stop offset="0.539557" stop-color="#EC0868"/>
<stop offset="0.727192" stop-color="#C200FB"/>
<stop offset="1" stop-color="#534EFF"/>
</linearGradient>
<linearGradient id="paint1_linear_56_183" x1="162.446" y1="16.0249" x2="205.834" y2="120.307" gradientUnits="userSpaceOnUse">
<stop stop-color="#534EFF"/>
<stop offset="0.272808" stop-color="#C200FB"/>
<stop offset="0.460443" stop-color="#EC0868"/>
<stop offset="0.667914" stop-color="#FC2F00"/>
<stop offset="0.826923" stop-color="#EC7D10"/>
<stop offset="1" stop-color="#FFBC0A"/>
</linearGradient>
<linearGradient id="paint2_linear_56_183" x1="134.856" y1="100.43" x2="107.074" y2="101.068" gradientUnits="userSpaceOnUse">
<stop stop-color="#534EFF"/>
<stop offset="0.272808" stop-color="#C200FB"/>
<stop offset="0.460443" stop-color="#EC0868"/>
<stop offset="0.667914" stop-color="#FC2F00"/>
<stop offset="0.826923" stop-color="#EC7D10"/>
<stop offset="1" stop-color="#FFBC0A"/>
</linearGradient>
</defs>
</svg>
