<svg width="161" height="150" viewBox="0 0 161 150" fill="none" xmlns="http://www.w3.org/2000/svg">
<g clip-path="url(#clip0_129_486)">
<path d="M116.463 17.372L114.605 16.4427C109.89 14.3381 104.587 14.1194 98.711 15.8004C95.4721 16.7297 92.0419 18.2466 88.4341 20.3239C77.4328 26.6786 68.0851 36.4773 60.4047 49.7335C59.4754 51.3461 58.6009 52.945 57.781 54.544C55.977 58.0699 54.4463 61.5821 53.189 65.0669C50.3191 73.007 48.8843 80.8377 48.8843 88.5454C48.8843 93.0006 49.4035 96.9638 50.4558 100.449C50.9751 102.184 51.6172 103.783 52.3962 105.273C52.8062 106.052 53.2435 106.803 53.7218 107.514C54.2685 108.32 54.8425 109.086 55.4438 109.783C56.5917 111.122 57.8627 112.27 59.243 113.213C59.817 113.609 60.4047 113.965 61.0197 114.293L61.4024 114.484C63.015 115.29 64.7507 115.864 66.6093 116.192V138.413C66.6093 141.857 67.675 144.181 69.8069 145.397C71.9525 146.627 74.5219 146.368 77.5148 144.632C78.6081 146.19 80.1115 147.078 82.0248 147.283C83.9244 147.475 86.0698 146.899 88.4341 145.533C90.7983 144.166 92.9302 142.28 94.8435 139.875C96.7568 137.47 98.2464 134.859 99.3397 132.031C102.346 130.296 104.915 127.59 107.047 123.9C109.179 120.224 110.259 116.657 110.259 113.213V90.9917C115.616 83.8169 119.907 76.0272 123.146 67.5815C126.371 59.1495 127.984 50.9088 127.984 42.8731C127.984 30.2592 124.144 21.7452 116.463 17.372ZM99.3397 119.513L77.5148 132.113V126.483L94.1191 116.903L99.3397 113.883V119.513ZM99.3397 107.623L88.2973 113.992L77.5148 120.224V114.265L82.7761 111.231L93.8049 104.863L99.3397 101.665V107.623ZM101.663 60.4203L92.5203 76.1912V93.0826L84.3342 97.8111V80.9061L82.9266 80.0997L75.2053 75.6992C74.3854 75.2346 73.9753 74.3736 73.9753 73.1163C73.9753 71.859 74.3854 70.5334 75.2053 69.1258C75.465 68.6885 75.7244 68.292 75.9977 67.9367C76.6264 67.1167 77.3097 66.5019 78.0613 66.0646C78.5259 65.8049 78.9496 65.6273 79.3596 65.5589H79.3733C79.9336 65.4633 80.453 65.5453 80.9313 65.8186L87.9831 69.8364L88.4341 70.0961L95.9368 57.1542C96.7568 55.7466 97.6999 54.7217 98.7932 54.093C99.8865 53.4644 100.843 53.3824 101.663 53.847C102.483 54.3117 102.893 55.1726 102.893 56.4299C102.893 57.6872 102.483 59.0127 101.663 60.4203Z" fill="white" stroke="black"/>
<path d="M87.9831 69.8364C87.9831 69.8364 87.983 69.8501 87.9557 69.8637L79.3733 65.5589C79.9336 65.4632 80.4531 65.5452 80.9314 65.8185L87.9831 69.8364Z" stroke="black"/>
<path d="M99.3397 101.665V107.623L93.8049 104.863L99.3397 101.665Z" fill="url(#paint0_linear_129_486)" stroke="black"/>
<path d="M99.3398 113.882V119.513L94.1191 116.903L99.3398 113.882Z" fill="url(#paint1_linear_129_486)" stroke="black"/>
<path d="M99.3397 119.513L77.5148 132.113V126.483L94.119 116.903L99.3397 119.513Z" fill="url(#paint2_linear_129_486)" stroke="black"/>
<path d="M99.3397 107.623L88.2973 113.992L77.5148 120.224V114.265L82.7761 111.231L93.8049 104.863L99.3397 107.623Z" fill="url(#paint3_linear_129_486)" stroke="black"/>
<path d="M92.5203 93.0825L84.3342 97.811V88.9963L92.5203 93.0825Z" fill="url(#paint4_linear_129_486)" stroke="black"/>
<path d="M92.5203 76.1911V93.0825L84.3343 88.9964V80.906L82.9267 80.0997L75.2054 75.6992C74.3855 75.2345 73.9753 74.3735 73.9753 73.1163C73.9753 71.859 74.3855 70.5333 75.2054 69.1257C75.4651 68.6884 75.7245 68.2921 75.9978 67.9368L86.0016 72.9386L92.5203 76.1911Z" fill="url(#paint5_linear_129_486)" stroke="black"/>
<path d="M102.893 56.4299C102.893 57.6735 102.483 59.0128 101.663 60.4204L92.5204 76.1912L86.0016 72.9386L75.9978 67.9368C76.6264 67.1169 77.3098 66.5019 78.0614 66.0646C78.526 65.8049 78.9497 65.6272 79.3597 65.5589H79.3733L87.9557 69.8638L88.4342 70.0961L95.9369 57.1542C96.7569 55.7466 97.7 54.7216 98.7933 54.093C99.8866 53.4643 100.843 53.3823 101.663 53.847C102.483 54.3116 102.893 55.1726 102.893 56.4299Z" fill="url(#paint6_linear_129_486)" stroke="black"/>
<path d="M150.637 45.666L150.677 46.0058C151.284 51.0704 154.975 53.2016 159.665 51.1947L159.979 51.06L159.665 51.2887C154.975 54.6966 151.284 61.0902 150.677 66.8553L150.637 67.2421L150.596 66.9023C149.989 61.8377 146.298 59.7065 141.609 61.7134L141.294 61.8481L141.609 61.6194C146.298 58.2115 149.989 51.8179 150.596 46.0528L150.637 45.666Z" fill="white"/>
<path fill-rule="evenodd" clip-rule="evenodd" d="M150.677 45.9094C151.284 50.974 154.975 53.1053 159.665 51.0984L159.979 50.9637L159.665 51.1924C154.975 54.6004 151.284 60.9937 150.677 66.7588L150.637 67.1458L150.596 66.8059C149.989 61.7413 146.298 59.6102 141.609 61.6171L141.294 61.7516L141.609 61.5231C146.298 58.1152 149.989 51.7216 150.596 45.9565L150.637 45.5697L150.677 45.9094ZM150.637 46.4298C149.889 51.9409 146.438 57.9183 142.039 61.3216C146.438 59.6456 149.889 61.6381 150.637 66.2855C151.385 60.7745 154.836 54.7971 159.234 51.3938C154.836 53.0697 151.385 51.0772 150.637 46.4298Z" fill="black"/>
<path d="M150.637 67.1458L150.596 66.8059C149.989 61.7413 146.298 59.6102 141.609 61.6171L141.294 61.7516C141.294 61.7516 142.552 61.1029 143.98 61.7516C145.408 62.4004 145.709 65.2227 145.709 65.2227L150.637 67.1458Z" fill="url(#paint7_linear_129_486)"/>
<path d="M141.294 61.7516L141.609 61.5231C146.298 58.1152 149.989 51.7216 150.596 45.9565L150.637 45.5697L144.627 43.1658L144.586 43.5526C143.98 49.3177 140.288 55.7113 135.599 59.1193L135.284 59.3478L140.92 61.5647L141.294 61.7516Z" fill="url(#paint8_linear_129_486)"/>
<path d="M150.803 45.442L150.856 45.8879C151.155 48.3816 152.208 50.1209 153.73 50.9996C155.252 51.8783 157.285 51.9208 159.594 50.9327L159.908 50.7979L160.085 51.1094L159.771 51.3382C155.123 54.7161 151.458 61.0635 150.857 66.7777L150.791 67.3997L145.541 65.3508L145.53 65.2419L145.529 65.2417C145.529 65.2414 145.529 65.241 145.529 65.2405C145.529 65.2394 145.529 65.2375 145.529 65.2351C145.528 65.2302 145.527 65.2227 145.526 65.2128C145.524 65.193 145.52 65.1634 145.515 65.1253C145.504 65.0491 145.487 64.9388 145.462 64.8042C145.413 64.5347 145.332 64.1697 145.208 63.7859C145.084 63.4012 144.919 63.0034 144.701 62.6653C144.483 62.3264 144.22 62.0586 143.905 61.9157C143.232 61.6097 142.598 61.6094 142.131 61.6863C141.897 61.7247 141.706 61.7823 141.574 61.8299C141.558 61.8357 141.543 61.8417 141.529 61.8471L141.288 61.9503L140.846 61.7291L134.912 59.3953L135.493 58.9734C140.141 55.5955 143.806 49.2481 144.407 43.5338L144.473 42.9099L150.803 45.442ZM147.543 61.7159C146.33 61.0157 144.793 60.8464 143.051 61.3066C143.366 61.3438 143.706 61.4289 144.055 61.5876C144.454 61.7691 144.764 62.0973 145.004 62.4701C145.244 62.8436 145.422 63.2732 145.551 63.6752C145.681 64.078 145.765 64.4591 145.817 64.7391C145.843 64.8792 145.86 64.9945 145.872 65.0751C145.872 65.0815 145.873 65.0877 145.874 65.0937L150.422 66.8685L150.417 66.8274C150.118 64.3337 149.065 62.5945 147.543 61.7159ZM150.659 47.4138C149.72 52.3726 146.727 57.5564 142.902 60.8489C144.768 60.3377 146.451 60.4994 147.797 61.2762C149.142 62.053 150.124 63.4296 150.614 65.3014C151.553 60.3427 154.546 55.1589 158.371 51.8664C156.505 52.3775 154.822 52.216 153.476 51.4392C152.131 50.6623 151.149 49.2856 150.659 47.4138ZM144.847 43.4841L144.774 43.4928L144.766 43.5716C144.154 49.3874 140.436 55.8272 135.705 59.2652L135.656 59.3004L140.986 61.397L140.994 61.3999L141.001 61.4034L141.277 61.5413L141.503 61.3772C146.151 57.9993 149.815 51.6519 150.417 45.9376L150.443 45.6864L144.842 43.446L144.847 43.4841Z" fill="black"/>
<path d="M123.819 127.846L123.86 128.186C124.467 133.251 128.158 135.382 132.847 133.375L133.162 133.24L132.847 133.469C128.158 136.877 124.467 143.271 123.86 149.036L123.819 149.423L123.779 149.083C123.172 144.018 119.481 141.887 114.791 143.894L114.477 144.028L114.791 143.8C119.481 140.392 123.172 133.998 123.779 128.233L123.819 127.846Z" fill="white"/>
<path fill-rule="evenodd" clip-rule="evenodd" d="M123.86 128.09C124.467 133.154 128.158 135.286 132.847 133.279L133.162 133.144L132.847 133.373C128.158 136.781 124.467 143.174 123.86 148.939L123.819 149.326L123.779 148.986C123.172 143.922 119.481 141.791 114.791 143.798L114.477 143.932L114.791 143.704C119.481 140.296 123.172 133.902 123.779 128.137L123.819 127.75L123.86 128.09ZM123.819 128.61C123.071 134.121 119.62 140.099 115.221 143.502C119.62 141.826 123.071 143.819 123.819 148.466C124.567 142.955 128.018 136.978 132.417 133.574C128.018 135.25 124.567 133.258 123.819 128.61Z" fill="black"/>
<path d="M123.819 149.326L123.779 148.986C123.172 143.922 119.481 141.791 114.791 143.798L114.477 143.932C114.477 143.932 115.735 143.283 117.163 143.932C118.59 144.581 118.891 147.403 118.891 147.403L123.819 149.326Z" fill="url(#paint9_linear_129_486)"/>
<path d="M114.477 143.932L114.791 143.704C119.481 140.296 123.172 133.902 123.779 128.137L123.819 127.75L117.81 125.346L117.769 125.733C117.162 131.498 113.471 137.892 108.782 141.3L108.467 141.528L114.103 143.745L114.477 143.932Z" fill="url(#paint10_linear_129_486)"/>
<path d="M123.986 127.622L124.039 128.068C124.338 130.562 125.391 132.301 126.913 133.18C128.435 134.059 130.467 134.101 132.776 133.113L133.091 132.978L133.268 133.29L132.953 133.519C128.305 136.897 124.641 143.244 124.039 148.958L123.974 149.58L118.724 147.531L118.712 147.422L118.712 147.422C118.712 147.422 118.712 147.421 118.712 147.421C118.712 147.42 118.712 147.418 118.711 147.416C118.711 147.411 118.71 147.403 118.709 147.393C118.706 147.373 118.703 147.344 118.697 147.306C118.686 147.23 118.67 147.119 118.645 146.985C118.595 146.715 118.515 146.35 118.391 145.966C118.267 145.582 118.101 145.184 117.884 144.846C117.665 144.507 117.403 144.239 117.088 144.096C116.415 143.79 115.781 143.79 115.313 143.867C115.08 143.905 114.889 143.963 114.757 144.01C114.741 144.016 114.726 144.022 114.712 144.028L114.471 144.131L114.028 143.91L108.095 141.576L108.676 141.154C113.324 137.776 116.988 131.428 117.59 125.714L117.655 125.09L123.986 127.622ZM120.726 143.896C119.513 143.196 117.976 143.027 116.233 143.487C116.549 143.524 116.888 143.609 117.237 143.768C117.637 143.949 117.947 144.278 118.187 144.651C118.427 145.024 118.604 145.454 118.734 145.856C118.864 146.258 118.948 146.64 118.999 146.919C119.025 147.06 119.043 147.175 119.054 147.256C119.055 147.262 119.056 147.268 119.057 147.274L123.604 149.049L123.6 149.008C123.301 146.514 122.248 144.775 120.726 143.896ZM123.842 129.594C122.903 134.553 119.91 139.737 116.085 143.029C117.951 142.518 119.634 142.68 120.98 143.457C122.325 144.233 123.306 145.61 123.797 147.482C124.736 142.523 127.729 137.339 131.554 134.047C129.687 134.558 128.004 134.396 126.659 133.62C125.313 132.843 124.332 131.466 123.842 129.594ZM118.029 125.665L117.957 125.673L117.948 125.752C117.336 131.568 113.618 138.008 108.888 141.446L108.839 141.481L114.169 143.577L114.176 143.58L114.183 143.584L114.459 143.722L114.685 143.558C119.333 140.18 122.998 133.832 123.599 128.118L123.626 127.867L118.025 125.626L118.029 125.665Z" fill="black"/>
<path d="M17.0927 25.1208L17.1334 25.4607C17.7401 30.5253 21.4314 32.6564 26.1208 30.6495L26.4354 30.5149L26.1208 30.7435C21.4314 34.1515 17.7401 40.545 17.1334 46.3101L17.0927 46.6969L17.052 46.3571C16.4453 41.2925 12.754 39.1613 8.06464 41.1682L7.75 41.3029L8.06464 41.0742C12.754 37.6663 16.4453 31.2728 17.052 25.5077L17.0927 25.1208Z" fill="white"/>
<path fill-rule="evenodd" clip-rule="evenodd" d="M17.1334 25.3642C17.7401 30.4288 21.4314 32.5601 26.1208 30.5532L26.4354 30.4185L26.1208 30.6472C21.4314 34.0552 17.7401 40.4486 17.1334 46.2137L17.0927 46.6006L17.052 46.2607C16.4453 41.1962 12.754 39.0651 8.06461 41.072L7.75004 41.2065L8.06461 40.9779C12.754 37.57 16.4453 31.1764 17.052 25.4113L17.0927 25.0245L17.1334 25.3642ZM17.0927 25.8847C16.3447 31.3958 12.8937 37.3731 8.4949 40.7764C12.8936 39.1005 16.3447 41.093 17.0927 45.7403C17.8407 40.2293 21.2917 34.252 25.6904 30.8487C21.2917 32.5245 17.8407 30.532 17.0927 25.8847Z" fill="black"/>
<path d="M17.0927 46.6006L17.052 46.2607C16.4453 41.1962 12.754 39.0651 8.06461 41.072L7.75004 41.2065C7.75004 41.2065 9.00831 40.5577 10.4361 41.2065C11.8639 41.8552 12.1648 44.6776 12.1648 44.6776L17.0927 46.6006Z" fill="url(#paint11_linear_129_486)"/>
<path d="M7.75004 41.2065L8.06461 40.9779C12.754 37.57 16.4453 31.1764 17.052 25.4113L17.0927 25.0245L11.0831 22.6206L11.0424 23.0075C10.4357 28.7726 6.74443 35.1662 2.05504 38.5741L1.74048 38.8026L7.37608 41.0195L7.75004 41.2065Z" fill="url(#paint12_linear_129_486)"/>
<path d="M17.259 24.8969L17.3124 25.3428C17.6111 27.8365 18.6643 29.5757 20.1862 30.4544C21.7081 31.3331 23.7408 31.3756 26.0498 30.3875L26.3644 30.2528L26.5414 30.5643L26.2268 30.793C21.5787 34.171 17.9141 40.5183 17.3128 46.2326L17.2473 46.8545L11.9972 44.8057L11.9856 44.6967L11.9855 44.6965C11.9855 44.6963 11.9854 44.6959 11.9854 44.6953C11.9853 44.6942 11.9851 44.6924 11.9848 44.6899C11.9842 44.685 11.9834 44.6775 11.9822 44.6676C11.9798 44.6478 11.9759 44.6182 11.9706 44.5802C11.9599 44.5039 11.943 44.3936 11.9183 44.259C11.8687 43.9895 11.788 43.6245 11.6643 43.2407C11.5402 42.856 11.3746 42.4583 11.157 42.1201C10.9389 41.7813 10.6759 41.5135 10.3615 41.3706C9.68799 41.0645 9.05437 41.0642 8.58693 41.1411C8.35317 41.1796 8.16204 41.2372 8.03023 41.2848C8.01423 41.2906 7.99923 41.2965 7.98504 41.3019L7.74418 41.4051L7.3018 41.184L1.36853 38.8501L1.94906 38.4282C6.59711 35.0503 10.2617 28.7029 10.8631 22.9886L10.9288 22.3647L17.259 24.8969ZM13.9992 41.1707C12.7864 40.4705 11.2493 40.3013 9.50656 40.7614C9.82201 40.7986 10.1616 40.8838 10.5107 41.0424C10.9101 41.2239 11.2202 41.5522 11.4601 41.9249C11.7005 42.2985 11.8778 42.728 12.0075 43.13C12.1374 43.5329 12.2214 43.914 12.2728 44.1939C12.2986 44.334 12.3163 44.4493 12.3277 44.5299C12.3285 44.5363 12.3293 44.5425 12.3301 44.5485L16.8778 46.3233L16.873 46.2822C16.5742 43.7885 15.5211 42.0494 13.9992 41.1707ZM17.115 26.8686C16.1761 31.8275 13.1832 37.0112 9.3582 40.3038C11.2245 39.7926 12.9075 39.9542 14.2529 40.731C15.5984 41.5078 16.5798 42.8845 17.0703 44.7562C18.0093 39.7975 21.0021 34.6137 24.827 31.3212C22.9607 31.8324 21.2778 31.6708 19.9323 30.894C18.5869 30.1172 17.6054 28.7405 17.115 26.8686ZM11.3029 22.9389L11.23 22.9476L11.2218 23.0264C10.6097 28.8423 6.89174 35.2821 2.16104 38.72L2.11245 38.7552L7.44206 40.8518L7.44958 40.8547L7.45674 40.8582L7.73256 40.9962L7.95863 40.8321C12.6067 37.4542 16.2713 31.1067 16.8726 25.3924L16.899 25.1412L11.2983 22.9008L11.3029 22.9389Z" fill="black"/>
<path d="M114.605 16.4426C109.89 14.338 104.588 14.1194 98.7111 15.8003C95.4722 16.7296 92.042 18.2465 88.4342 20.3238C77.4329 26.6786 68.0852 36.4772 60.4048 49.7334C59.4755 51.346 58.601 52.945 57.7811 54.5439C55.9771 58.0698 54.4464 61.582 53.1891 65.0669C50.3192 73.0069 48.8844 80.8376 48.8844 88.5454C48.8844 93.0005 49.4036 96.9637 50.4559 100.449C50.9752 102.184 51.6173 103.783 52.3963 105.273C52.8063 106.052 53.2436 106.803 53.7219 107.514C54.2686 108.32 54.8426 109.086 55.4439 109.783C56.5918 111.122 57.8628 112.27 59.2431 113.213C59.817 113.609 60.4048 113.964 61.0198 114.292L59.0655 113.322L53.8451 110.698L39.2771 103.401L34.4939 101.009C31.2959 99.5193 28.5898 97.1277 26.3895 93.8479C23.1643 89.0237 21.552 82.7099 21.552 74.8792C21.552 62.2653 25.3921 49.3234 33.0725 36.0672C40.7529 22.811 50.1005 13.0124 61.1018 6.65759C72.1031 0.302818 81.4371 -0.681188 89.1311 3.70566L114.605 16.4426Z" fill="url(#paint13_linear_129_486)" stroke="black"/>
<path d="M69.8069 145.397L42.4746 131.73C40.3427 130.514 39.277 128.191 39.277 124.747V103.4L53.845 110.698L59.0655 113.322L61.0197 114.292L61.4024 114.484C63.015 115.29 64.7507 115.864 66.6093 116.192V138.412C66.6093 141.856 67.675 144.181 69.8069 145.397Z" fill="url(#paint14_linear_129_486)" stroke="black"/>
</g>
<defs>
<linearGradient id="paint0_linear_129_486" x1="94.2657" y1="102.304" x2="94.8721" y2="107.92" gradientUnits="userSpaceOnUse">
<stop stop-color="#534EFF"/>
<stop offset="0.272808" stop-color="#C200FB"/>
<stop offset="0.460443" stop-color="#EC0868"/>
<stop offset="0.667914" stop-color="#FC2F00"/>
<stop offset="0.826923" stop-color="#EC7D10"/>
<stop offset="1" stop-color="#FFBC0A"/>
</linearGradient>
<linearGradient id="paint1_linear_129_486" x1="94.5538" y1="114.487" x2="95.1278" y2="119.793" gradientUnits="userSpaceOnUse">
<stop stop-color="#534EFF"/>
<stop offset="0.272808" stop-color="#C200FB"/>
<stop offset="0.460443" stop-color="#EC0868"/>
<stop offset="0.667914" stop-color="#FC2F00"/>
<stop offset="0.826923" stop-color="#EC7D10"/>
<stop offset="1" stop-color="#FFBC0A"/>
</linearGradient>
<linearGradient id="paint2_linear_129_486" x1="79.3318" y1="118.536" x2="80.3406" y2="132.968" gradientUnits="userSpaceOnUse">
<stop stop-color="#534EFF"/>
<stop offset="0.272808" stop-color="#C200FB"/>
<stop offset="0.460443" stop-color="#EC0868"/>
<stop offset="0.667914" stop-color="#FC2F00"/>
<stop offset="0.826923" stop-color="#EC7D10"/>
<stop offset="1" stop-color="#FFBC0A"/>
</linearGradient>
<linearGradient id="paint3_linear_129_486" x1="79.3318" y1="106.512" x2="80.3606" y2="121.086" gradientUnits="userSpaceOnUse">
<stop stop-color="#534EFF"/>
<stop offset="0.272808" stop-color="#C200FB"/>
<stop offset="0.460443" stop-color="#EC0868"/>
<stop offset="0.667914" stop-color="#FC2F00"/>
<stop offset="0.826923" stop-color="#EC7D10"/>
<stop offset="1" stop-color="#FFBC0A"/>
</linearGradient>
<linearGradient id="paint4_linear_129_486" x1="85.0157" y1="89.9427" x2="85.913" y2="98.2506" gradientUnits="userSpaceOnUse">
<stop stop-color="#534EFF"/>
<stop offset="0.272808" stop-color="#C200FB"/>
<stop offset="0.460443" stop-color="#EC0868"/>
<stop offset="0.667914" stop-color="#FC2F00"/>
<stop offset="0.826923" stop-color="#EC7D10"/>
<stop offset="1" stop-color="#FFBC0A"/>
</linearGradient>
<linearGradient id="paint5_linear_129_486" x1="75.5193" y1="70.6364" x2="78.7208" y2="94.1775" gradientUnits="userSpaceOnUse">
<stop stop-color="#534EFF"/>
<stop offset="0.272808" stop-color="#C200FB"/>
<stop offset="0.460443" stop-color="#EC0868"/>
<stop offset="0.667914" stop-color="#FC2F00"/>
<stop offset="0.826923" stop-color="#EC7D10"/>
<stop offset="1" stop-color="#FFBC0A"/>
</linearGradient>
<linearGradient id="paint6_linear_129_486" x1="78.2369" y1="55.9815" x2="80.0467" y2="77.4163" gradientUnits="userSpaceOnUse">
<stop stop-color="#534EFF"/>
<stop offset="0.272808" stop-color="#C200FB"/>
<stop offset="0.460443" stop-color="#EC0868"/>
<stop offset="0.667914" stop-color="#FC2F00"/>
<stop offset="0.826923" stop-color="#EC7D10"/>
<stop offset="1" stop-color="#FFBC0A"/>
</linearGradient>
<linearGradient id="paint7_linear_129_486" x1="137.34" y1="45.7403" x2="139.546" y2="68.3904" gradientUnits="userSpaceOnUse">
<stop offset="0.216346" stop-color="#08EC72"/>
<stop offset="0.466346" stop-color="#1098EC"/>
<stop offset="0.620192" stop-color="#0093FC"/>
<stop offset="0.802885" stop-color="#C200FB"/>
<stop offset="1" stop-color="#534EFF"/>
</linearGradient>
<linearGradient id="paint8_linear_129_486" x1="137.34" y1="45.7403" x2="139.546" y2="68.3904" gradientUnits="userSpaceOnUse">
<stop offset="0.216346" stop-color="#08EC72"/>
<stop offset="0.466346" stop-color="#1098EC"/>
<stop offset="0.620192" stop-color="#0093FC"/>
<stop offset="0.802885" stop-color="#C200FB"/>
<stop offset="1" stop-color="#534EFF"/>
</linearGradient>
<linearGradient id="paint9_linear_129_486" x1="110.523" y1="127.921" x2="112.729" y2="150.571" gradientUnits="userSpaceOnUse">
<stop offset="0.216346" stop-color="#08EC72"/>
<stop offset="0.466346" stop-color="#1098EC"/>
<stop offset="0.620192" stop-color="#0093FC"/>
<stop offset="0.802885" stop-color="#C200FB"/>
<stop offset="1" stop-color="#534EFF"/>
</linearGradient>
<linearGradient id="paint10_linear_129_486" x1="110.523" y1="127.921" x2="112.729" y2="150.571" gradientUnits="userSpaceOnUse">
<stop offset="0.216346" stop-color="#08EC72"/>
<stop offset="0.466346" stop-color="#1098EC"/>
<stop offset="0.620192" stop-color="#0093FC"/>
<stop offset="0.802885" stop-color="#C200FB"/>
<stop offset="1" stop-color="#534EFF"/>
</linearGradient>
<linearGradient id="paint11_linear_129_486" x1="3.79643" y1="25.1951" x2="6.00242" y2="47.8452" gradientUnits="userSpaceOnUse">
<stop offset="0.216346" stop-color="#08EC72"/>
<stop offset="0.466346" stop-color="#1098EC"/>
<stop offset="0.620192" stop-color="#0093FC"/>
<stop offset="0.802885" stop-color="#C200FB"/>
<stop offset="1" stop-color="#534EFF"/>
</linearGradient>
<linearGradient id="paint12_linear_129_486" x1="3.79643" y1="25.1951" x2="6.00242" y2="47.8452" gradientUnits="userSpaceOnUse">
<stop offset="0.216346" stop-color="#08EC72"/>
<stop offset="0.466346" stop-color="#1098EC"/>
<stop offset="0.620192" stop-color="#0093FC"/>
<stop offset="0.802885" stop-color="#C200FB"/>
<stop offset="1" stop-color="#534EFF"/>
</linearGradient>
<linearGradient id="paint13_linear_129_486" x1="29.299" y1="13.1795" x2="42.2923" y2="119.6" gradientUnits="userSpaceOnUse">
<stop stop-color="#534EFF"/>
<stop offset="0.272808" stop-color="#C200FB"/>
<stop offset="0.460443" stop-color="#EC0868"/>
<stop offset="0.667914" stop-color="#FC2F00"/>
<stop offset="0.826923" stop-color="#EC7D10"/>
<stop offset="1" stop-color="#FFBC0A"/>
</linearGradient>
<linearGradient id="paint14_linear_129_486" x1="41.8187" y1="107.909" x2="47.2403" y2="147.205" gradientUnits="userSpaceOnUse">
<stop stop-color="#534EFF"/>
<stop offset="0.272808" stop-color="#C200FB"/>
<stop offset="0.460443" stop-color="#EC0868"/>
<stop offset="0.667914" stop-color="#FC2F00"/>
<stop offset="0.826923" stop-color="#EC7D10"/>
<stop offset="1" stop-color="#FFBC0A"/>
</linearGradient>
<clipPath id="clip0_129_486">
<rect width="159.184" height="150" fill="white" transform="translate(0.908203)"/>
</clipPath>
</defs>
</svg>
