<svg width="76" height="75" viewBox="0 0 76 75" fill="none" xmlns="http://www.w3.org/2000/svg">
<path fill-rule="evenodd" clip-rule="evenodd" d="M43.4031 2.53754C42.5149 2.86888 41.9914 3.33881 41.5846 4.1704L41.196 4.96463L41.1274 6.1078C41.0448 7.48651 41.2084 8.48231 41.5537 8.69998L41.8086 8.86083L42.0649 8.69867L42.3213 8.53665L42.2694 6.99725L42.2176 5.45799L42.5158 4.78358C43.2374 3.15233 45.1095 3.08495 47.1523 4.61659C47.6343 4.97782 48.0745 5.27342 48.1307 5.27342C48.2882 5.27342 48.6933 4.83192 48.6933 4.66009C48.6933 4.36273 47.5814 3.49115 46.5693 2.99515C45.3725 2.40863 44.2023 2.23944 43.4031 2.53754ZM51.0371 4.33343C50.9162 4.37738 50.5408 4.51215 50.2027 4.63285L49.5881 4.85214L50.3047 5.74144C50.6987 6.23055 51.2652 7.09979 51.5633 7.67328C51.8614 8.24662 52.1245 8.7391 52.148 8.76766C52.1715 8.79623 52.705 8.53255 53.3334 8.18172C54.9186 7.29681 55.4483 7.05848 56.3328 6.83216L57.0998 6.63573L56.7418 6.41205C56.5449 6.28885 55.6698 5.77543 54.7972 5.27093L53.2106 4.35365L52.2337 4.30355C51.6964 4.27587 51.1579 4.28934 51.0371 4.33343ZM44.0791 8.00126C41.501 9.49437 39.338 10.7678 39.2725 10.8312C39.2069 10.8945 39.4899 11.3909 39.9012 11.9344C40.3125 12.4778 40.8805 13.3819 41.1633 13.9437L41.6776 14.965L41.9995 14.7577C42.1764 14.6437 44.3482 13.3793 46.8257 11.9478C49.3032 10.5165 51.3301 9.26512 51.3301 9.16712C51.3301 8.88309 49.9026 6.57801 49.3084 5.90257L48.7666 5.28661L44.0791 8.00126ZM56.7895 7.61966C55.9826 7.78592 55.0411 8.20765 53.6287 9.03543L52.4851 9.70575L52.5768 9.9432C52.9281 10.8527 53.1097 12.2174 53.0565 13.5498L52.9982 15.0146L52.6086 15.7689C51.738 17.4543 50.1123 18.0867 48.1492 17.5037C47.3442 17.2646 47.0571 16.8937 47.4532 16.6043L47.6937 16.4284L48.2852 16.6369C49.9751 17.2333 51.46 16.5347 52.0077 14.8859L52.2462 14.168L52.1659 12.7602C52.0843 11.3273 51.8555 10.2539 51.6317 10.2539C51.4984 10.2539 42.4065 15.4793 42.193 15.6788C42.1203 15.7468 42.1811 16.2633 42.3336 16.8715C42.6452 18.1142 42.6894 20.1489 42.4244 21.0435C42.1301 22.0369 41.3775 23.0174 40.6065 23.4113L39.917 23.7634L38.9952 23.7552C37.7986 23.7445 36.917 23.4417 36.8545 23.02C36.7924 22.6012 37.1277 22.4897 37.791 22.7086C40.58 23.6291 42.3258 21.3334 41.5955 17.7058C41.4597 17.0314 41.2979 16.4276 41.2363 16.3642C41.157 16.283 32.212 21.2906 31.5709 21.775C31.5394 21.7988 31.6363 22.2319 31.786 22.7377L32.0581 23.6572L32.0612 25.2685L32.0642 26.8799L31.729 27.6123C31.267 28.6216 30.479 29.3878 29.6047 29.6783L28.8806 29.9187L28.0829 29.8249C26.646 29.6562 25.9333 29.1795 26.4644 28.7427C26.5915 28.6381 26.916 28.6621 27.5264 28.8215C29.6306 29.3708 31.0544 28.2023 31.2274 25.784C31.2961 24.8242 31.1101 23.3888 30.817 22.6179L30.6881 22.2786L28.6726 23.4524C26.4846 24.7267 25.8639 25.1872 24.6852 26.4111C23.5509 27.5887 22.5868 28.974 21.8357 30.5055C20.5987 33.0278 20.2385 34.609 20.3053 37.2244L20.3486 38.9264L28.6982 34.1012C33.2905 31.4474 38.6299 28.3629 40.5635 27.2467C42.4971 26.1304 45.1667 24.5887 46.4961 23.8204C47.8254 23.0522 51.7015 20.8226 55.1097 18.8656L61.3061 15.3076L61.2576 12.8906L61.209 10.4736L60.8759 9.7412C60.1065 8.04916 58.5718 7.25243 56.7895 7.61966ZM32.4049 8.79505C31.4224 9.3139 30.8034 10.4272 30.6022 12.0368C30.4861 12.9658 30.7288 14.4713 31.0458 14.7882L31.2673 15.0097L31.5208 14.8497L31.7744 14.6897V12.9479V11.206L32.0753 10.6938C32.467 10.0271 33.2303 9.52147 33.8453 9.52147C34.5532 9.52147 35.6404 9.97484 36.678 10.7026L37.5825 11.3371L37.8279 11.1833C37.9628 11.0988 38.0939 10.891 38.1192 10.7216L38.1651 10.4136L37.2731 9.75687C35.606 8.52962 33.6421 8.14159 32.4049 8.79505ZM33.459 14.1403C30.9211 15.6198 28.7874 16.8529 28.7174 16.8805C28.6474 16.9081 28.9227 17.37 29.3291 17.907C29.7356 18.444 30.315 19.3312 30.6165 19.8786C30.9181 20.4261 31.1775 20.8923 31.193 20.9147C31.2084 20.9371 33.4073 19.6936 36.0791 18.1516L40.9373 15.3477L40.3456 14.2509C39.6815 13.0195 38.4806 11.4195 38.2347 11.4379C38.1459 11.4447 35.9968 12.6606 33.459 14.1403ZM22.1051 14.7751C21.288 15.1463 20.6199 15.9641 20.336 16.9408L20.0958 17.7669L20.1551 19.1222C20.2166 20.5282 20.3812 20.9472 20.872 20.9472C21.292 20.9472 21.4166 20.5583 21.2636 19.7242C20.9812 18.1853 21.4659 16.425 22.309 15.9269C23.2549 15.3682 24.7963 15.6999 26.1838 16.7607C26.6116 17.0877 27.0178 17.2844 27.2092 17.257L27.5264 17.2119V16.7821V16.3523L26.5076 15.6577C24.8968 14.5596 23.2892 14.2372 22.1051 14.7751ZM40.7832 28.1336L20.3486 39.9345V54.5009V69.0673L20.6012 69.8824C20.9344 70.9579 21.5914 71.8397 22.3609 72.244L22.9853 72.5721L23.9375 72.5727C24.465 72.573 25.2252 72.4583 25.6421 72.3155C26.056 72.1737 30.3077 69.7998 35.0904 67.04C39.8731 64.2802 46.3511 60.5422 49.486 58.7333L55.1858 55.4443L56.3332 54.3679C56.9643 53.776 57.8139 52.8531 58.2214 52.3172C59.1564 51.0873 60.5921 48.1867 61.024 46.6552L61.3543 45.4834L61.3962 35.8154C61.4193 30.498 61.3886 23.9392 61.3279 21.2401L61.2178 16.3327L40.7832 28.1336ZM24.5319 19.2798C20.901 21.3956 20.4036 21.7438 19.0783 23.0981C18.1183 24.0789 16.6096 26.1212 16.6171 26.4299C16.6199 26.5453 20.6047 28.9538 21.3066 29.2643C21.3573 29.2867 21.6976 28.8556 22.0628 28.3065C23.7752 25.7313 25.1838 24.4511 28.2588 22.6753C29.3867 22.0239 30.3304 21.4741 30.3557 21.4536C30.5659 21.284 28.0818 17.4151 27.7792 17.4406C27.7207 17.4455 26.2594 18.2732 24.5319 19.2798ZM54.9922 26.4706C54.3872 26.6915 50.3135 29.1105 49.884 29.5037C49.6122 29.7526 49.2677 30.2197 49.1182 30.542L48.8463 31.1279L48.8431 34.086L48.8398 37.0441L49.1829 37.443C49.7469 38.0987 50.1753 37.9892 52.7322 36.5357C55.1454 35.1637 55.9175 34.5524 56.2537 33.7481L56.457 33.2613V30.3338C56.457 27.2196 56.383 26.8069 55.7748 26.5298C55.3887 26.3538 55.3248 26.349 54.9922 26.4706ZM52.9275 28.6235C51.4185 29.4873 50.3951 30.1722 50.162 30.4741L49.792 30.9536L49.747 33.9338L49.702 36.914H50.0135C50.3496 36.914 54.2577 34.7235 54.823 34.2181C55.012 34.0492 55.2591 33.7331 55.3723 33.5156L55.5781 33.1199V30.265C55.5781 28.6947 55.5207 27.3744 55.4505 27.331C55.3804 27.2877 54.245 27.8692 52.9275 28.6235ZM15.6181 28.4546C15.3778 29.0387 15.0632 29.978 14.9187 30.542L14.6562 31.5674L14.646 33.8925L14.6357 36.2175L16.9795 37.5884L19.3232 38.9594L19.4075 36.7283C19.5119 33.9605 19.6864 33.2232 20.9409 30.249C20.999 30.1109 16.4775 27.3926 16.1894 27.3926C16.1154 27.3926 15.8582 27.8704 15.6181 28.4546ZM42.1748 33.8155C41.6108 34.1231 40.3934 34.8307 39.4695 35.3881L37.7896 36.4013L37.3742 37.2023L36.9586 38.0033L37.0033 41.0607L37.0478 44.1181L37.3937 44.3979C38.0063 44.8936 38.4661 44.7548 40.9525 43.3236C43.4565 41.8822 43.8739 41.5557 44.3136 40.6938L44.5918 40.1484V37.0596V33.971L44.2322 33.6115C43.7441 33.1235 43.3766 33.1598 42.1748 33.8155ZM41.1034 35.4386C38.5789 36.9022 38.334 37.0879 38.053 37.7516L37.8535 38.223V40.9422V43.6615L38.0791 43.7481C38.312 43.8375 42.489 41.5303 43.0786 40.9867C43.2534 40.8256 43.469 40.5181 43.5579 40.3037C43.7643 39.8055 43.7054 34.2485 43.4932 34.1831C43.4126 34.1584 42.3372 34.7232 41.1034 35.4386ZM14.6346 51.5088L14.7433 65.8447L15.0166 66.7328C15.3978 67.9721 15.9585 68.5255 18.1147 69.7907C19.142 70.3933 19.9817 70.8728 19.9808 70.8558C19.9799 70.8389 19.8658 70.4956 19.7271 70.0927L19.4749 69.3603L19.399 54.661L19.3232 39.9618L17.5654 38.9417C16.5986 38.3806 15.5192 37.7532 15.1667 37.5474L14.5259 37.1732L14.6346 51.5088ZM41.1312 38.0493C40.5727 39.0288 40.2251 39.3841 39.9066 39.3008C39.7329 39.2554 39.577 39.3411 39.4701 39.5409L39.3039 39.8516L39.7392 40.2871C39.9787 40.5266 40.2749 40.7226 40.3975 40.7226C40.6768 40.7226 42.3046 37.8587 42.1921 37.5653C42.0214 37.1206 41.5341 37.3428 41.1312 38.0493ZM54.4773 39.4208C53.6782 39.8445 51.2639 41.247 50.4101 41.7836C49.983 42.0521 49.5545 42.488 49.3115 42.9014L48.9131 43.5791L48.8644 46.2755C48.8105 49.2682 48.8709 49.8357 49.2875 50.2523C49.8088 50.7736 50.3328 50.615 52.8229 49.1821C54.118 48.4369 55.3569 47.6505 55.5761 47.4345C56.5073 46.517 56.704 45.3936 56.5327 41.9689L56.4242 39.7976L56.0811 39.4545C55.6563 39.0297 55.2317 39.0208 54.4773 39.4208ZM52.9913 41.2796C50.3598 42.8075 50.3335 42.8277 49.9916 43.5791L49.7252 44.165L49.722 46.6798C49.7187 49.2401 49.7671 49.6604 50.064 49.6552C50.4079 49.6492 54.9066 46.9334 55.1734 46.5707C55.6016 45.9886 55.6657 45.3968 55.6052 42.5903L55.5491 39.9902H55.3805C55.2878 39.9902 54.2127 40.5704 52.9913 41.2796ZM28.7817 41.5321C27.4581 42.2966 26.2456 43.0371 26.0876 43.1774C25.9295 43.3177 25.6455 43.7622 25.4562 44.165L25.1123 44.8974L25.1108 47.7246L25.1094 50.5516L25.3237 50.966C25.7987 51.8847 26.2297 51.7942 29.0589 50.1817C31.5088 48.7854 32.0618 48.354 32.4901 47.5048L32.7266 47.0359V43.9459V40.8558L32.3669 40.4963C32.1544 40.2836 31.8402 40.1377 31.5979 40.1393C31.3511 40.1409 30.233 40.6939 28.7817 41.5321ZM29.1891 42.3086C26.7644 43.7442 26.4682 43.974 26.1878 44.6364L25.9883 45.1078V47.827V50.5463L26.1958 50.626C26.3101 50.6698 27.4722 50.0909 28.7784 49.3396L31.1532 47.9736L31.5005 47.4635L31.8477 46.9535V43.9845V41.0156L31.5913 41.0269C31.4502 41.0332 30.3693 41.6099 29.1891 42.3086ZM40.5655 47.4394L38.0773 48.8778L37.6722 49.4368C37.0366 50.3132 36.9479 50.9075 37.0001 53.9396L37.0478 56.7153L37.4589 57.0685C37.6849 57.2629 38.012 57.4218 38.1857 57.4218C38.6102 57.4218 43.2459 54.7684 43.7328 54.2466C43.9452 54.0191 44.2411 53.6023 44.3904 53.3203L44.662 52.8076L44.7135 50.4723C44.775 47.6833 44.6712 46.6614 44.2868 46.277C43.7516 45.7418 43.2082 45.9115 40.5655 47.4394ZM41.0476 48.1692C38.602 49.6111 38.2048 49.9375 38.0006 50.6727C37.844 51.2367 37.7955 55.9284 37.9424 56.3112C37.9914 56.4386 38.0948 56.5429 38.1723 56.5429C38.3231 56.5429 42.1872 54.3439 42.8877 53.8595C43.1186 53.6997 43.4303 53.2987 43.5803 52.9686L43.8529 52.3681L43.8541 49.9511C43.8554 47.3012 43.797 46.8688 43.4394 46.8874C43.3079 46.8943 42.2315 47.4712 41.0476 48.1692ZM31.0117 53.0216C30.0871 53.4398 26.5506 55.5126 26.1572 55.867C25.9681 56.0373 25.672 56.4404 25.4993 56.7627L25.1853 57.3486L25.1346 59.828C25.0588 63.5301 25.2359 64.1894 26.306 64.1894H26.8317L29.1566 62.8432C31.739 61.3478 32.0305 61.1231 32.4831 60.2783L32.7972 59.6923L32.8478 57.2129C32.9045 54.4396 32.8251 53.6116 32.4622 53.1928C32.0874 52.7604 31.6925 52.7137 31.0117 53.0216ZM28.9949 55.1335L26.6546 56.5007L26.3215 57.1308L25.9883 57.7609V60.3109C25.9883 61.7937 26.052 62.98 26.1403 63.1453L26.2925 63.4294L26.7629 63.1899C27.0217 63.0583 28.1562 62.4054 29.2842 61.7393L31.335 60.528L31.6279 60.0369L31.9209 59.5459L31.9698 57.0048C32.0236 54.2157 31.9697 53.7581 31.5885 53.7629C31.4491 53.7649 30.2819 54.3815 28.9949 55.1335ZM29.1377 57.8194L28.5518 58.8112L28.1123 58.887L27.6728 58.9628V59.3118C27.6728 59.7161 28.3443 60.2879 28.6716 60.1623C28.9638 60.0502 30.4114 57.4595 30.3531 57.1532C30.3274 57.019 30.1754 56.8908 30.0151 56.8684L29.7236 56.8275L29.1377 57.8194Z" fill="url(#paint0_linear_129_186)"/>
<path fill-rule="evenodd" clip-rule="evenodd" d="M43.4031 2.55457C42.515 2.88591 41.9914 3.35583 41.5847 4.18743L41.196 4.98166L41.1275 6.12483C41.0449 7.50354 41.2085 8.49934 41.5537 8.71701L41.8086 8.87785L42.065 8.7157L42.3213 8.55368L42.2695 7.01428L42.2176 5.47502L42.5159 4.80061C43.2374 3.16936 45.1095 3.10198 47.1524 4.63362C47.6343 4.99485 48.0745 5.29045 48.1308 5.29045C48.2882 5.29045 48.6934 4.84895 48.6934 4.67712C48.6934 4.37976 47.5814 3.50818 46.5694 3.01218C45.3726 2.42566 44.2023 2.25647 43.4031 2.55457ZM56.7896 7.63669C55.9826 7.80295 55.0412 8.22468 53.6288 9.05246L52.4852 9.72278L52.5768 9.96023C52.9281 10.8697 53.1098 12.2344 53.0566 13.5668L52.9983 15.0317L52.6086 15.7859C51.7381 17.4714 50.1124 18.1037 48.1492 17.5207C47.3443 17.2817 47.0572 16.9108 47.4533 16.6213L47.6938 16.4454L48.2853 16.654C49.9751 17.2503 51.4601 16.5517 52.0078 14.9029L52.2462 14.185L52.166 12.7773C52.0844 11.3444 51.8556 10.2709 51.6317 10.2709C51.4984 10.2709 42.4066 15.4963 42.193 15.6958C42.1203 15.7638 42.1811 16.2803 42.3336 16.8885C42.6452 18.1313 42.6894 20.1659 42.4245 21.0605C42.1302 22.054 41.3775 23.0344 40.6066 23.4283L39.9171 23.7804L38.9953 23.7722C37.7986 23.7615 36.9171 23.4588 36.8545 23.037C36.7924 22.6182 37.1277 22.5068 37.791 22.7256C40.5801 23.6461 42.3259 21.3504 41.5955 17.7229C41.4597 17.0485 41.298 16.4446 41.2363 16.3812C41.1571 16.3001 32.212 21.3076 31.571 21.7921C31.5395 21.8158 31.6363 22.2489 31.786 22.7548L32.0582 23.6742L32.0613 25.2856L32.0642 26.8969L31.729 27.6293C31.267 28.6386 30.4791 29.4048 29.6047 29.6953L28.8806 29.9357L28.0829 29.842C26.646 29.6732 25.9334 29.1965 26.4644 28.7597C26.5915 28.6551 26.916 28.6792 27.5264 28.8385C29.6306 29.3879 31.0545 28.2194 31.2275 25.801C31.2962 24.8413 31.1101 23.4059 30.817 22.6349L30.6881 22.2957L28.6726 23.4694C26.4846 24.7437 25.8639 25.2043 24.6852 26.4281C23.551 27.6057 22.5868 28.991 21.8358 30.5225C20.5987 33.0448 20.2385 34.626 20.3053 37.2415L20.3487 38.9435L28.6983 34.1183C33.2906 31.4644 38.6299 28.3799 40.5635 27.2637C42.4971 26.1475 45.1668 24.6057 46.4961 23.8374C47.8255 23.0693 51.7016 20.8396 55.1097 18.8826L61.3061 15.3246L61.2577 12.9076L61.209 10.4906L60.8759 9.75822C60.1066 8.06618 58.5719 7.26946 56.7896 7.63669ZM32.4049 8.81208C31.4224 9.33093 30.8034 10.4442 30.6023 12.0538C30.4861 12.9828 30.7288 14.4883 31.0458 14.8052L31.2673 15.0267L31.5209 14.8667L31.7744 14.7068V12.9649V11.2231L32.0753 10.7108C32.467 10.0442 33.2304 9.5385 33.8453 9.5385C34.5533 9.5385 35.6405 9.99187 36.678 10.7196L37.5826 11.3542L37.8279 11.2004C37.9628 11.1158 38.0939 10.908 38.1193 10.7386L38.1651 10.4306L37.2732 9.7739C35.606 8.54665 33.6421 8.15862 32.4049 8.81208ZM22.1052 14.7922C21.2881 15.1633 20.6199 15.9812 20.3361 16.9578L20.0958 17.784L20.1552 19.1392C20.2167 20.5452 20.3812 20.9643 20.872 20.9643C21.292 20.9643 21.4167 20.5754 21.2636 19.7413C20.9812 18.2023 21.4659 16.442 22.3091 15.944C23.2549 15.3853 24.7964 15.7169 26.1839 16.7778C26.6116 17.1047 27.0178 17.3014 27.2093 17.274L27.5264 17.2289V16.7991V16.3694L26.5076 15.6747C24.8969 14.5767 23.2892 14.2543 22.1052 14.7922ZM40.7832 28.1507L20.3487 39.9516V54.518V69.0844L20.6012 69.8994C20.9344 70.9749 21.5914 71.8567 22.3609 72.261L22.9854 72.5892L23.9375 72.5897C24.465 72.59 25.2253 72.4753 25.6422 72.3325C26.056 72.1907 30.3077 69.8168 35.0904 67.057C39.8731 64.2973 46.3511 60.5593 49.486 58.7503L55.1859 55.4613L56.3333 54.385C56.9644 53.793 57.814 52.8702 58.2215 52.3342C59.1565 51.1043 60.5922 48.2038 61.024 46.6723L61.3543 45.5004L61.3962 35.8324C61.4194 30.5151 61.3886 23.9562 61.328 21.2571L61.2178 16.3497L40.7832 28.1507ZM54.9922 26.4876C54.3873 26.7085 50.3135 29.1276 49.884 29.5207C49.6123 29.7696 49.2678 30.2367 49.1182 30.559L48.8463 31.1449L48.8431 34.103L48.8399 37.0611L49.183 37.46C49.7469 38.1157 50.1754 38.0063 52.7323 36.5527C55.1455 35.1807 55.9176 34.5694 56.2538 33.7651L56.4571 33.2783V30.3508C56.4571 27.2366 56.3831 26.8239 55.7749 26.5468C55.3888 26.3709 55.3249 26.366 54.9922 26.4876ZM52.9275 28.6405C51.4186 29.5043 50.3951 30.1893 50.1621 30.4912L49.792 30.9706L49.7471 33.9508L49.7021 36.9311H50.0135C50.3497 36.9311 54.2578 34.7405 54.823 34.2352C55.012 34.0663 55.2591 33.7502 55.3724 33.5326L55.5782 33.137V30.282C55.5782 28.7117 55.5207 27.3914 55.4506 27.3481C55.3804 27.3047 54.245 27.8862 52.9275 28.6405ZM42.1748 33.8325C41.6109 34.1401 40.3934 34.8478 39.4696 35.4051L37.7897 36.4184L37.3743 37.2193L36.9587 38.0203L37.0034 41.0777L37.0479 44.1352L37.3937 44.4149C38.0063 44.9106 38.4661 44.7718 40.9526 43.3406C43.4566 41.8992 43.8739 41.5727 44.3137 40.7108L44.5918 40.1654V37.0767V33.988L44.2322 33.6286C43.7441 33.1405 43.3766 33.1768 42.1748 33.8325ZM41.1035 35.4557C38.5789 36.9192 38.334 37.1049 38.0531 37.7687L37.8535 38.2401V40.9592V43.6786L38.0791 43.7651C38.312 43.8545 42.4891 41.5474 43.0787 41.0038C43.2534 40.8426 43.469 40.5352 43.5579 40.3207C43.7643 39.8225 43.7055 34.2655 43.4932 34.2002C43.4126 34.1754 42.3373 34.7402 41.1035 35.4557ZM41.1313 38.0663C40.5727 39.0459 40.2251 39.4011 39.9067 39.3179C39.7329 39.2725 39.5771 39.3582 39.4702 39.558L39.3039 39.8687L39.7392 40.3042C39.9787 40.5437 40.2749 40.7397 40.3975 40.7397C40.6769 40.7397 42.3046 37.8757 42.1921 37.5823C42.0215 37.1376 41.5341 37.3598 41.1313 38.0663ZM54.4773 39.4379C53.6783 39.8615 51.2639 41.2641 50.4102 41.8006C49.9831 42.0691 49.5546 42.5051 49.3116 42.9185L48.9131 43.5961L48.8645 46.2926C48.8106 49.2853 48.8709 49.8527 49.2875 50.2693C49.8089 50.7907 50.3329 50.632 52.8229 49.1991C54.118 48.454 55.357 47.6675 55.5761 47.4516C56.5073 46.534 56.7041 45.4106 56.5328 41.9859L56.4243 39.8146L56.0812 39.4715C55.6564 39.0467 55.2317 39.0378 54.4773 39.4379ZM52.9914 41.2966C50.3598 42.8246 50.3336 42.8448 49.9917 43.5961L49.7252 44.182L49.722 46.6969C49.7188 49.2571 49.7671 49.6774 50.0641 49.6723C50.408 49.6663 54.9067 46.9504 55.1734 46.5877C55.6016 46.0056 55.6658 45.4138 55.6053 42.6073L55.5492 40.0072H55.3806C55.2878 40.0072 54.2128 40.5875 52.9914 41.2966ZM28.7818 41.5491C27.4581 42.3136 26.2457 43.0541 26.0876 43.1944C25.9296 43.3348 25.6455 43.7792 25.4563 44.182L25.1123 44.9145L25.1109 47.7416L25.1094 50.5686L25.3237 50.983C25.7988 51.9018 26.2297 51.8112 29.0589 50.1987C31.5089 48.8024 32.0618 48.371 32.4902 47.5219L32.7266 47.053V43.9629V40.8728L32.367 40.5133C32.1544 40.3006 31.8402 40.1547 31.5979 40.1564C31.3511 40.158 30.233 40.7109 28.7818 41.5491ZM29.1891 42.3256C26.7644 43.7612 26.4682 43.991 26.1878 44.6534L25.9883 45.1248V47.844V50.5633L26.1959 50.643C26.3101 50.6868 27.4722 50.1079 28.7784 49.3566L31.1532 47.9906L31.5005 47.4806L31.8477 46.9705V44.0016V41.0326L31.5913 41.0439C31.4503 41.0502 30.3694 41.6269 29.1891 42.3256ZM40.5656 47.4564L38.0774 48.8949L37.6722 49.4539C37.0366 50.3303 36.948 50.9246 37.0001 53.9566L37.0479 56.7324L37.4589 57.0855C37.6849 57.2799 38.012 57.4389 38.1858 57.4389C38.6103 57.4389 43.2459 54.7854 43.7328 54.2637C43.9453 54.0362 44.2412 53.6193 44.3904 53.3373L44.662 52.8246L44.7136 50.4894C44.7751 47.7003 44.6712 46.6784 44.2869 46.294C43.7516 45.7588 43.2083 45.9286 40.5656 47.4564ZM41.0476 48.1862C38.6021 49.6282 38.2048 49.9545 38.0006 50.6897C37.844 51.2537 37.7955 55.9455 37.9425 56.3282C37.9914 56.4557 38.0948 56.56 38.1723 56.56C38.3232 56.56 42.1873 54.3609 42.8878 53.8765C43.1186 53.7167 43.4304 53.3158 43.5804 52.9856L43.853 52.3852L43.8541 49.9682C43.8555 47.3183 43.797 46.8858 43.4394 46.9044C43.3079 46.9113 42.2315 47.4882 41.0476 48.1862ZM31.0117 53.0386C30.0871 53.4568 26.5507 55.5296 26.1572 55.8841C25.9681 56.0543 25.672 56.4574 25.4993 56.7797L25.1853 57.3656L25.1346 59.845C25.0589 63.5471 25.236 64.2064 26.306 64.2064H26.8318L29.1566 62.8603C31.739 61.3648 32.0305 61.1401 32.4831 60.2953L32.7972 59.7094L32.8479 57.23C32.9046 54.4566 32.8252 53.6287 32.4622 53.2099C32.0875 52.7774 31.6926 52.7307 31.0117 53.0386ZM28.9949 55.1505L26.6547 56.5178L26.3216 57.1478L25.9883 57.778V60.328C25.9883 61.8107 26.052 62.9971 26.1404 63.1623L26.2926 63.4465L26.7629 63.207C27.0218 63.0753 28.1563 62.4224 29.2842 61.7563L31.335 60.5451L31.628 60.0539L31.9209 59.5629L31.9699 57.0218C32.0236 54.2328 31.9697 53.7752 31.5886 53.78C31.4491 53.7819 30.2819 54.3986 28.9949 55.1505ZM29.1377 57.8364L28.5518 58.8283L28.1123 58.904L27.6729 58.9799V59.3288C27.6729 59.7331 28.3444 60.305 28.6716 60.1793C28.9638 60.0672 30.4114 57.4765 30.3531 57.1702C30.3275 57.036 30.1754 56.9079 30.0152 56.8854L29.7237 56.8446L29.1377 57.8364Z" fill="white"/>
<path fill-rule="evenodd" clip-rule="evenodd" d="M43.2252 1.95934C42.3303 2.29391 41.7 2.87531 41.2594 3.77267L40.8451 4.61613L40.8473 6.6029L40.8493 8.58966L39.6363 9.2777L38.4234 9.96588L37.6945 9.38976C34.5319 6.88986 31.2955 7.50319 30.4512 10.7626C30.204 11.7167 30.1693 12.9049 30.3599 13.8908L30.4821 14.5227L29.9508 14.8542C29.6584 15.0366 29.0862 15.3713 28.679 15.5981L27.9387 16.0106L27.2141 15.4545C25.5627 14.1868 23.5597 13.6293 22.2318 14.0676C20.4268 14.6633 19.4408 16.94 19.8236 19.6283L19.9797 20.7243L19.177 21.4284C16.972 23.3626 15.0119 26.6077 14.0861 29.8568L13.7651 30.9833L13.7156 39.4062C13.6882 44.0387 13.7168 51.9854 13.779 57.0652L13.892 66.3014L14.4482 67.4267C14.7763 68.0907 15.1969 68.6986 15.4736 68.9091C16.5967 69.7637 22.2419 72.9395 22.9323 73.1052C24.5871 73.5022 25.8858 73.0895 29.4479 71.0355C49.2293 59.6288 55.4534 55.9878 56.2364 55.3646C57.9296 54.0174 59.6001 51.8522 60.6942 49.5868C61.4395 48.0436 61.8104 46.8983 62.1023 45.2383L62.3423 43.8739L62.2492 27.3212C62.1893 16.6775 62.1016 10.5354 62.0033 10.1156C61.7758 9.14352 61.0087 7.80641 60.4134 7.3444C59.5066 6.64054 53.9872 3.49875 53.2589 3.27184C52.3347 2.98385 50.8799 3.1028 49.7601 3.55778L48.8886 3.91198L48.3104 3.41232C47.9925 3.13751 47.2703 2.68473 46.7058 2.40641L45.6791 1.90016L44.7269 1.82707C44.1017 1.77902 43.586 1.82443 43.2252 1.95934ZM43.4992 2.79005C42.9464 2.95558 42.4276 3.45143 42.048 4.17667L41.7414 4.76261L41.6893 6.15421C41.6606 6.91959 41.6994 7.63766 41.7756 7.75001L41.9138 7.95421L44.7817 6.30377C46.3592 5.39616 47.7511 4.57921 47.8752 4.48825L48.1005 4.32316L47.1827 3.71115C45.7482 2.7546 44.5875 2.46427 43.4992 2.79005ZM51.2455 4.05656C51.0844 4.09274 50.643 4.22091 50.2646 4.34162L49.5769 4.5612L50.2933 5.45036C50.6875 5.93947 51.2538 6.80871 51.5519 7.38219C51.85 7.95553 52.115 8.44992 52.1408 8.48068C52.1664 8.51144 52.7666 8.20778 53.4744 7.80568C54.6691 7.12687 56.1195 6.52218 56.8119 6.41408C57.1314 6.36413 54.0776 4.51051 53.1019 4.16203C52.5701 3.97204 51.8143 3.92912 51.2455 4.05656ZM45.2719 7.07091C43.4366 8.13776 41.754 9.10954 41.5331 9.23039C40.4278 9.83478 39.1605 10.5797 39.1605 10.6249C39.1605 10.653 39.5067 11.1361 39.9299 11.6985C40.3529 12.261 40.9186 13.1491 41.1868 13.6721L41.6746 14.6232L45.2883 12.5392C47.2756 11.3929 49.4478 10.1395 50.1151 9.75377L51.3285 9.05255L51.2319 8.73864C50.9562 7.84362 49.093 5.12926 48.7553 5.13043C48.6747 5.13073 47.1072 6.00392 45.2719 7.07091ZM55.9621 7.61452C55.5754 7.76569 54.6335 8.23576 53.8692 8.65924L52.4793 9.42916L52.5682 9.65944C52.9167 10.5615 53.0982 11.9302 53.0452 13.2587L52.9869 14.7235L52.6016 15.4692C52.1459 16.3513 51.4081 17.0399 50.6513 17.2897C49.9509 17.521 48.3158 17.4082 47.6921 17.0856C47.1848 16.8233 47.1463 16.7469 47.355 16.4171L47.4885 16.2063L48.2429 16.3804C50.0275 16.7923 51.1049 16.4197 51.7495 15.1673L52.1244 14.4391L52.1768 13.2067C52.2256 12.0597 52.0205 10.5337 51.761 10.1138L51.6491 9.93263L46.9062 12.671C44.2977 14.1772 42.1391 15.4333 42.1094 15.4624C42.0797 15.4916 42.1774 15.9964 42.3265 16.5843C42.4974 17.258 42.5972 18.1677 42.5962 19.0448L42.5944 20.4364L42.1349 21.4154L41.6754 22.3944L41.0664 22.8354C40.2864 23.4006 39.1446 23.6491 38.2503 23.4487C37.1575 23.2038 36.8168 23.0305 36.8168 22.7193C36.8168 22.2703 37.0453 22.2269 38.0638 22.4822L39.0095 22.7195L39.5995 22.5606C40.967 22.1923 41.7143 20.9538 41.7198 19.0473C41.7228 18.0073 41.4206 16.171 41.227 16.0519C41.1781 16.0218 38.9957 17.2371 36.3773 18.7525L31.6166 21.5075L31.6387 21.7777C31.6507 21.9262 31.772 22.5422 31.9081 23.1464C32.0727 23.8774 32.1354 24.6489 32.0954 25.4519L32.0355 26.6587L31.5331 27.6435L31.0306 28.6283L30.3552 29.0452C29.4691 29.5922 28.3692 29.7118 27.2408 29.3837C26.3607 29.1279 26.0918 28.8282 26.4344 28.4855L26.639 28.2808L27.37 28.5066C29.5529 29.1808 31.0526 27.969 31.2192 25.3963C31.2882 24.3294 30.9165 22.121 30.6681 22.121C30.475 22.121 27.0183 24.135 26.2774 24.6792C25.3794 25.3385 23.9889 26.8147 23.1482 28.0006C22.2858 29.2173 21.1126 31.6631 20.6988 33.1073L20.3839 34.206L20.3039 36.4542L20.2239 38.7026L20.9499 38.2853C21.3491 38.0559 30.5903 32.7265 41.486 26.4423L61.2962 15.0165L61.2411 12.5995L61.1861 10.1825L60.8871 9.52218C60.4693 8.59962 59.856 7.91686 59.1616 7.60148C58.3761 7.24464 56.8935 7.25065 55.9621 7.61452ZM33.231 8.81818C32.5514 8.96818 31.9292 9.51032 31.5171 10.3116C31.1833 10.9611 31.0148 12.6716 31.2017 13.5165L31.3236 14.0672L34.4336 12.2778L37.5436 10.4884L37.2198 10.1437C36.8071 9.70456 34.9972 8.834 34.3265 8.75211C34.0446 8.71769 33.5516 8.74743 33.231 8.81818ZM33.7406 13.7127C31.2833 15.1302 29.1246 16.384 28.9434 16.4988L28.6139 16.7077L29.3297 17.62C29.7234 18.1217 30.295 18.9936 30.5998 19.5575C30.9047 20.1215 31.1673 20.6018 31.1833 20.625C31.1994 20.6483 33.3946 19.4068 36.0617 17.8662L40.9109 15.0653L40.5287 14.3086C39.9646 13.1913 38.5141 11.1448 38.2816 11.1378C38.2413 11.1366 36.1979 12.2953 33.7406 13.7127ZM22.0955 15.1333C21.3808 15.538 20.8862 16.3844 20.7016 17.5186C20.5633 18.3678 20.6612 20.0702 20.8481 20.0702C20.9806 20.0702 26.7154 16.7537 26.8972 16.5719C27.0871 16.3819 25.8042 15.4607 24.8361 15.0918C23.8041 14.6986 22.837 14.7133 22.0955 15.1333ZM56.5922 18.7397C54.1349 20.1693 44.9534 25.4781 36.1889 30.5373L20.2534 39.7356L20.2982 54.3291L20.3429 68.9228L20.595 69.6678C20.943 70.6964 21.6083 71.5633 22.3495 71.954L22.974 72.2833L23.9994 72.2824L25.0248 72.2815L25.9037 71.9154C26.8963 71.5021 54.2458 55.7506 55.288 54.9921C56.1854 54.3391 57.8809 52.5402 58.605 51.4731C59.6574 49.9221 60.4346 48.2342 61.0248 46.2177L61.3249 45.1923L61.3903 39.9189C61.4658 33.8141 61.2886 16.109 61.1522 16.1279C61.1014 16.1348 59.0494 17.3102 56.5922 18.7397ZM24.7318 18.9159C20.786 21.1992 20.258 21.5645 19.0178 22.8709C18.0621 23.8774 16.5971 25.8807 16.6057 26.169C16.6094 26.2929 21.1135 28.9325 21.3209 28.9325C21.3786 28.9325 21.7454 28.4531 22.1363 27.8673C23.0625 26.4788 24.4579 24.9288 25.5061 24.1243C25.9665 23.771 27.233 22.9681 28.3207 22.3403C29.4083 21.7123 30.3192 21.1819 30.3447 21.1617C30.5011 21.0375 28.9917 18.5507 28.147 17.541L27.808 17.136L24.7318 18.9159ZM54.9808 26.2276C54.4399 26.3783 50.2885 28.8184 49.7988 29.2734C49.5671 29.4887 49.2554 29.9286 49.1062 30.2509L48.8349 30.8368L48.8317 33.8144L48.8285 36.792L49.2738 37.2373L49.7191 37.6826L50.1293 37.6006C50.5996 37.5066 55.0343 34.9863 55.5288 34.5322C55.7094 34.3662 55.9895 33.9571 56.1514 33.6227L56.4457 33.0149V30.0047V26.9945L56.1562 26.6266C55.8184 26.1971 55.49 26.0856 54.9808 26.2276ZM15.5846 28.2753C14.8261 30.2423 14.6578 31.2042 14.6404 33.6717L14.6244 35.9206L16.8665 37.224C18.0996 37.9407 19.1707 38.5273 19.2469 38.5273C19.3267 38.5273 19.3851 37.6998 19.3851 36.5685V34.6097L19.7352 33.236C19.9277 32.4804 20.2573 31.4751 20.4677 31.0018C20.6779 30.5285 20.85 30.0662 20.85 29.9743C20.85 29.838 16.3302 27.1015 16.1049 27.1015C16.0677 27.1015 15.8336 27.6297 15.5846 28.2753ZM52.7119 28.4641L50.3698 29.8221L50.0411 30.4028L49.7122 30.9833L49.7097 33.7945C49.7083 35.5473 49.7635 36.6404 49.8565 36.6978C50.0207 36.7993 54.2617 34.4323 54.8116 33.9323C55.0006 33.7605 55.2477 33.4421 55.361 33.2245L55.5668 32.8289V29.9653V27.1015L55.3104 27.1038C55.1695 27.105 54.0001 27.7172 52.7119 28.4641ZM42.8743 33.1696C41.8353 33.6291 38.2635 35.7983 37.851 36.22C37.6072 36.4694 37.3037 36.9457 37.1767 37.2783L36.9457 37.8832L36.9911 40.8269L37.0365 43.7707L37.3156 44.0787C37.5017 44.2841 37.77 44.3859 38.1212 44.3843L38.6478 44.3818L41.1381 42.9451L43.6283 41.5084L44.1044 40.7201L44.5805 39.9318V36.8288V33.7258L44.3241 33.4227C43.9806 33.0168 43.4349 32.9216 42.8743 33.1696ZM40.9944 35.2229C39.5681 36.0565 38.5093 36.7779 38.2844 37.0693L37.9154 37.5474V40.4887V43.4299L38.1483 43.4751C38.3988 43.5236 42.5407 41.1842 43.0673 40.6968C43.242 40.535 43.4576 40.2271 43.5466 40.0126C43.753 39.5143 43.6942 33.9556 43.4818 33.896C43.4013 33.8733 42.282 34.4705 40.9944 35.2229ZM14.6369 51.1615L14.7237 65.2607L14.9336 66.1276C15.1556 67.0437 15.5207 67.7421 16.0085 68.1836C16.3819 68.5215 19.7248 70.4629 19.8014 70.3864C19.8328 70.3549 19.7704 70.1118 19.6629 69.8458L19.4672 69.3622L19.3895 54.5921L19.3119 39.8219L19.0189 39.6077C18.6228 39.3181 14.7348 37.0624 14.6319 37.0624C14.5868 37.0624 14.5891 43.4071 14.6369 51.1615ZM41.2438 37.5385C41.0874 37.8004 40.808 38.2916 40.623 38.6299L40.2864 39.2455L40.0261 39.106C39.6707 38.9159 39.6324 38.9256 39.4592 39.2491L39.308 39.5314L39.6931 39.9892C40.3012 40.7116 40.559 40.5574 41.4681 38.9276C41.9071 38.1407 42.2286 37.3992 42.1828 37.2797C42.0375 36.901 41.5432 37.0372 41.2438 37.5385ZM52.661 40.1761C50.1989 41.5856 49.5759 42.0568 49.153 42.8292L48.9017 43.288L48.8531 45.9845C48.8264 47.4676 48.8467 48.9049 48.8979 49.1787C49.0217 49.8383 49.4512 50.246 50.0223 50.246C50.5977 50.246 54.9832 47.7731 55.6728 47.0597C55.9399 46.7834 56.2424 46.2438 56.3686 45.8185L56.5922 45.0659L56.5913 42.712C56.5908 41.4175 56.5224 40.1131 56.4392 39.8132C56.275 39.2225 55.8293 38.8202 55.3387 38.8202C55.1685 38.8202 53.9635 39.4303 52.661 40.1761ZM52.9718 41.0005C50.332 42.5295 50.3219 42.5373 49.9803 43.288L49.7139 43.8739L49.7128 46.4374C49.7124 47.8473 49.7722 49.096 49.8457 49.2123L49.9794 49.4236L50.3782 49.242C51.4654 48.7466 54.8634 46.6665 55.1215 46.3382C55.2835 46.1324 55.4818 45.7252 55.5624 45.4333C55.7591 44.7208 55.5822 39.6971 55.3605 39.7044C55.2725 39.7073 54.1976 40.2906 52.9718 41.0005ZM30.8842 40.0605C30.6425 40.1724 29.458 40.8455 28.252 41.5563L26.0593 42.8485L25.6153 43.5688L25.1713 44.2892L25.1263 47.2589L25.0815 50.2284L25.3122 50.6746C25.5596 51.1532 26.0544 51.3572 26.6222 51.2147C27.1361 51.0858 31.2513 48.6769 31.7399 48.2191C31.9687 48.0045 32.2819 47.5844 32.4357 47.2856L32.7152 46.7421V43.6533V40.5647L32.3556 40.2052C31.9523 39.8018 31.5322 39.7605 30.8842 40.0605ZM29.2728 41.989C26.8179 43.4004 26.4663 43.6681 26.1778 44.3453L25.9769 44.8167V47.5359V50.2552L26.1934 50.3383C26.316 50.3853 27.4353 49.8316 28.7719 49.0629L31.1338 47.7044L31.4883 47.1687L31.8426 46.6331L31.8029 43.7276C31.7786 41.9563 31.7059 40.8032 31.6166 40.7737C31.536 40.7474 30.4813 41.2942 29.2728 41.989ZM40.5521 47.1556L38.0619 48.6007L37.6588 49.1527C37.0258 50.0191 36.9366 50.6176 36.9888 53.6485L37.0365 56.4243L37.4475 56.7775C37.6736 56.9718 38.0061 57.1308 38.1866 57.1308C38.7592 57.1308 43.1203 54.5685 43.8016 53.8317L44.4145 53.1688L44.5859 52.403C44.6941 51.9194 44.7382 50.6831 44.7055 49.0489L44.6537 46.4607L44.2986 46.0829C43.7027 45.4489 43.2895 45.5672 40.5521 47.1556ZM41.1344 47.8475C38.5742 49.3221 38.4722 49.4008 38.1177 50.1728L37.8486 50.7587L37.8454 53.2735C37.8422 55.7912 37.892 56.2519 38.1674 56.2519C38.4329 56.2519 42.7399 53.7082 43.1385 53.3157C43.7131 52.7502 43.8466 52.0324 43.8452 49.5136C43.8439 47.1348 43.7786 46.5839 43.4976 46.5839C43.4043 46.5839 42.3409 47.1526 41.1344 47.8475ZM28.8252 53.9254C26.2255 55.4121 25.9394 55.6302 25.4867 56.4716L25.1713 57.0575V60.1831V63.3085L25.598 63.6755L26.0247 64.0426L26.4665 63.9543C27.0038 63.8468 31.1591 61.4814 31.7399 60.9523C31.9687 60.7438 32.2977 60.3095 32.471 59.9872L32.7858 59.4013L32.8365 56.9219C32.9118 53.2437 32.7319 52.5898 31.645 52.5898H31.1607L28.8252 53.9254ZM29.2145 54.7172C26.8412 56.0997 26.3311 56.5207 26.1233 57.2689C26.0437 57.5554 25.9783 58.9189 25.9778 60.2989L25.9769 62.8078L26.174 62.9713L26.371 63.1349L28.7741 61.7557L31.1771 60.3766L31.5433 59.8276L31.9096 59.2784L31.9585 56.7256C32.0122 53.92 31.9586 53.4637 31.5772 53.4786C31.4377 53.484 30.3745 54.0414 29.2145 54.7172ZM29.6256 56.7807C29.5122 56.9173 29.2164 57.3955 28.9684 57.8433L28.5174 58.6574L28.0922 58.6631C27.7988 58.6671 27.6505 58.7524 27.6143 58.9382C27.5465 59.2857 28.1358 59.914 28.5293 59.9138L28.8334 59.9137L29.6121 58.5168C30.0404 57.7485 30.3693 57.0077 30.3429 56.8706C30.2771 56.5292 29.8762 56.4789 29.6256 56.7807Z" fill="black"/>
<defs>
<linearGradient id="paint0_linear_129_186" x1="18.4287" y1="9.92778" x2="28.2547" y2="75.3685" gradientUnits="userSpaceOnUse">
<stop stop-color="#534EFF"/>
<stop offset="0.272808" stop-color="#C200FB"/>
<stop offset="0.460443" stop-color="#EC0868"/>
<stop offset="0.667914" stop-color="#FC2F00"/>
<stop offset="0.826923" stop-color="#EC7D10"/>
<stop offset="1" stop-color="#FFBC0A"/>
</linearGradient>
</defs>
</svg>
