<svg width="56" height="28" viewBox="0 0 56 28" fill="none" xmlns="http://www.w3.org/2000/svg">
<path d="M0 0C1.83843 8.03602e-08 3.65893 0.361923 5.35742 1.06543C7.05598 1.769 8.59939 2.80057 9.89941 4.10059C11.1994 5.40061 12.231 6.94402 12.9346 8.64258C13.6381 10.3411 14 12.1616 14 14C14 15.8384 13.6381 17.6589 12.9346 19.3574C12.231 21.056 11.1994 22.5994 9.89941 23.8994C8.59939 25.1994 7.05598 26.231 5.35742 26.9346C3.65893 27.6381 1.83843 28 0 28V0ZM28 0C35.732 0 42 6.26801 42 14C42 21.732 35.732 28 28 28C20.268 28 14 21.732 14 14C14 6.26801 20.268 0 28 0ZM56 28C54.1616 28 52.3411 27.6381 50.6426 26.9346C48.944 26.231 47.4006 25.1994 46.1006 23.8994C44.8006 22.5994 43.769 21.056 43.0654 19.3574C42.3619 17.6589 42 15.8384 42 14C42 12.1616 42.3619 10.3411 43.0654 8.64258C43.769 6.94402 44.8006 5.40061 46.1006 4.10059C47.4006 2.80057 48.944 1.769 50.6426 1.06543C52.3411 0.361923 54.1616 8.03602e-08 56 0V28Z" fill="white"/>
</svg>
