<svg width="248" height="157" viewBox="0 0 248 157" fill="none" xmlns="http://www.w3.org/2000/svg">
<path d="M176.651 55.2128C199.45 68.3759 200.552 89.3974 179.953 103.319L179.541 103.597L179.847 103.918C189.931 114.514 186.889 127.759 171.752 136.498C153.203 147.208 123.004 147.208 104.455 136.498L40.7594 99.7235C19.506 87.4527 19.5058 67.4835 40.7594 55.2128C57.2227 45.7077 82.3033 43.362 103.018 49.1566L103.444 49.2758L103.859 49.1444C127.741 41.5996 157.145 43.9513 176.651 55.2128ZM106.752 71.8109C106.752 69.3059 103.245 67.2806 98.9057 67.2806L79.3076 67.2802C76.1344 67.2802 73.2703 68.3822 72.0547 70.077C70.8332 71.7705 71.5178 73.7212 73.758 75.0145L78.5558 77.7846C67.253 87.3323 68.8858 100.49 83.5574 108.96C87.7269 111.368 92.6154 113.218 98.0743 114.45L98.0743 114.451C101.978 115.339 106.381 114.29 108.086 112.102L108.243 111.887C109.815 109.565 107.854 106.922 103.803 106.018C100.369 105.239 97.2913 104.074 94.6559 102.553C86.15 97.6417 84.6511 90.2454 90.012 84.3988L93.3569 86.33C95.5974 87.6234 98.9764 88.0175 101.91 87.3119C104.844 86.6098 106.753 84.9576 106.753 83.1259L106.752 71.8109ZM143.652 74.2645C139.733 72.0019 135.178 70.2313 130.122 69.0013L129.104 68.7626C125.07 67.8496 120.514 68.9993 118.938 71.3314C117.361 73.659 119.35 76.2791 123.384 77.2006L123.388 77.2015C126.825 77.9779 129.908 79.1448 132.554 80.6722C141.059 85.5829 142.553 92.9813 137.197 98.8256L133.853 96.8949C131.682 95.6415 128.438 95.2349 125.577 95.849L125.3 95.912C122.365 96.614 120.457 98.2672 120.457 100.099L120.457 111.414C120.457 112.663 121.334 113.798 122.754 114.618C124.174 115.438 126.14 115.944 128.304 115.944L147.902 115.945C151.075 115.945 153.938 114.842 155.153 113.148L155.154 113.148C156.371 111.458 155.693 109.504 153.452 108.21L148.654 105.44C159.957 95.8925 158.324 82.7352 143.652 74.2645Z" fill="url(#paint0_linear_56_228)" stroke="black" stroke-width="1.5"/>
<path d="M177.842 40.6538C200.641 53.8169 201.743 74.8385 181.145 88.7598L180.732 89.0381L181.038 89.3594C191.123 99.9546 188.081 113.2 172.943 121.939C154.394 132.649 124.196 132.649 105.647 121.939L41.9508 85.1646C20.6974 72.8937 20.6972 52.9246 41.9508 40.6538C58.4141 31.1487 83.4947 28.803 104.209 34.5977L104.635 34.7168L105.051 34.5855C128.932 27.0406 158.337 29.3923 177.842 40.6538ZM107.944 57.252C107.944 54.7469 104.436 52.7217 100.097 52.7217L80.499 52.7212C77.3258 52.7212 74.4617 53.8232 73.2461 55.5181C72.0246 57.2115 72.7092 59.1622 74.9494 60.4556L79.7472 63.2256C68.4444 72.7734 70.0772 85.9307 84.7488 94.4014C88.9183 96.8086 93.8068 98.6591 99.2657 99.8911L99.2657 99.8921C103.169 100.78 107.573 99.7309 109.277 97.5435L109.434 97.3281C111.007 95.0065 109.046 92.363 104.995 91.4595C101.561 90.6801 98.4827 89.5152 95.8473 87.9937C87.3414 83.0828 85.8426 75.6864 91.2034 69.8398L94.5483 71.771C96.7888 73.0644 100.168 73.4586 103.101 72.7529C106.036 72.0509 107.945 70.3986 107.945 68.5669L107.944 57.252ZM144.844 59.7056C140.925 57.4429 136.369 55.6723 131.313 54.4424L130.296 54.2036C126.261 53.2906 121.706 54.4403 120.129 56.7725C118.552 59.1 120.542 61.7202 124.576 62.6416L124.579 62.6426C128.017 63.419 131.1 64.5859 133.745 66.1133C142.251 71.0239 143.745 78.4224 138.388 84.2666L135.044 82.3359C132.873 81.0825 129.63 80.6759 126.768 81.29L126.491 81.353C123.556 82.055 121.648 83.7082 121.648 85.54L121.649 96.855C121.649 98.1042 122.526 99.2393 123.946 100.059C125.366 100.879 127.332 101.385 129.495 101.385L149.093 101.386C152.266 101.386 155.129 100.284 156.345 98.5889L156.346 98.5894C157.562 96.8995 156.884 94.9454 154.643 93.6514L149.845 90.8814C161.148 81.3336 159.515 68.1762 144.844 59.7056Z" fill="white" stroke="black" stroke-width="1.5"/>
<defs>
<linearGradient id="paint0_linear_56_228" x1="108.554" y1="28.51" x2="64.9231" y2="117.011" gradientUnits="userSpaceOnUse">
<stop stop-color="#534EFF"/>
<stop offset="0.272808" stop-color="#C200FB"/>
<stop offset="0.460443" stop-color="#EC0868"/>
<stop offset="0.667914" stop-color="#FC2F00"/>
<stop offset="0.826923" stop-color="#EC7D10"/>
<stop offset="1" stop-color="#FFBC0A"/>
</linearGradient>
</defs>
</svg>
