<svg width="161" height="150" viewBox="0 0 161 150" fill="none" xmlns="http://www.w3.org/2000/svg">
<path d="M130.47 82.009V97.2228C130.47 98.6573 130.055 100.105 129.199 101.577C128.356 103.037 127.311 104.119 126.053 104.849L55.3692 145.658C54.1108 146.388 53.0664 146.502 52.2107 146.023C51.3675 145.533 50.9397 144.576 50.9397 143.142V127.928C50.9397 125.298 51.7199 122.567 53.2803 119.748C53.3558 119.584 53.4565 119.433 53.5446 119.27C55.2686 116.287 57.3575 114.098 59.7862 112.688L65.5244 109.379L67.9531 87.6969L59.7862 92.4159C58.5278 93.1331 57.4833 93.2591 56.6276 92.7683C55.7845 92.2901 55.3692 91.3336 55.3692 89.8865C55.3692 88.4394 55.7845 87.0049 56.6276 85.5452C57.4833 84.0855 58.5278 82.9905 59.7862 82.2732L90.3399 64.6306L121.636 46.56C122.769 45.9057 123.725 45.7422 124.518 46.0694L124.782 46.1954C125.638 46.6735 126.053 47.6422 126.053 49.0768C126.053 50.5114 125.638 51.9586 124.782 53.4184C123.939 54.8781 122.894 55.9728 121.636 56.7027L113.469 61.4216L114.526 69.6642L115.898 80.2974L121.636 76.9754C123.813 75.717 125.726 75.4151 127.337 76.0821L127.878 76.3462C129.614 77.3404 130.47 79.2279 130.47 82.009Z" fill="white" stroke="black"/>
<path d="M119.761 17.2149L116.112 38.2175C115.935 39.2871 115.558 40.3062 114.979 41.3004C114.853 41.5143 114.715 41.7408 114.564 41.9547C113.758 43.1376 112.84 44.0313 111.808 44.6228L89.4212 57.5464L69.7274 68.922C68.6955 69.5261 67.7769 69.6898 66.9589 69.4381L66.3549 69.1361C65.8893 68.7963 65.5747 68.2426 65.4111 67.4876L62.4161 53.6453L61.7744 50.7005C61.6233 49.8574 61.6737 49.0016 61.9379 48.1333C62.1896 47.265 62.6175 46.4472 63.2089 45.6922C63.2718 45.6167 63.3348 45.5287 63.4103 45.4532C63.9388 44.7988 64.5302 44.2576 65.1972 43.8423C65.8641 43.4145 66.5059 43.2384 67.1225 43.3139C67.1854 43.3139 67.2358 43.3139 67.2987 43.3139C68.62 43.402 69.9791 43.2888 71.3759 42.9867C72.7727 42.6847 74.2576 42.093 75.7928 41.1996C77.9321 39.9664 79.9581 38.2927 81.8708 36.166C82.6636 35.2977 83.4312 34.3918 84.1737 33.448C85.2559 32.1141 86.2878 30.7046 87.2819 29.2449C87.7978 28.515 88.3515 27.8862 88.943 27.3325C89.5344 26.7788 90.1259 26.3383 90.7047 25.9985C90.7676 25.9607 90.8306 25.9229 90.8935 25.8977C91.422 25.6083 91.9505 25.4069 92.4791 25.2937C93.0705 25.1678 93.6242 25.1552 94.1401 25.2811C95.8264 25.8348 97.6259 26.0488 99.5512 25.9607C101.464 25.8727 103.49 25.2056 105.617 23.9724C107.164 23.0789 108.637 21.9591 110.046 20.6C111.443 19.2409 112.802 17.7559 114.123 16.1452C114.866 15.3021 115.583 14.7233 116.275 14.3961C116.98 14.0815 117.622 13.9683 118.213 14.0438C118.339 14.069 118.452 14.0943 118.565 14.132L118.968 14.3332C119.195 14.4842 119.383 14.7107 119.534 14.9876C119.836 15.5413 119.912 16.2837 119.761 17.2023V17.2149Z" fill="white" stroke="black"/>
<path d="M65.5245 109.379L59.7863 112.689C57.3576 114.098 55.2686 116.288 53.5446 119.27C53.4566 119.434 53.3559 119.585 53.2804 119.748C51.72 122.567 50.9398 125.298 50.9398 127.928V143.142C50.9398 144.576 51.3676 145.533 52.2108 146.024L27.3072 133.566L27.0429 133.44C26.1998 132.949 25.772 131.993 25.772 130.558V115.344C25.772 112.563 26.6403 109.669 28.3768 106.686C30.1008 103.704 32.1898 101.514 34.6185 100.105L40.3567 96.7954L65.5245 109.379Z" fill="url(#paint0_linear_129_463)" stroke="black"/>
<path d="M67.9529 87.6972L65.5242 109.379L40.3564 96.7954L41.6526 85.281L56.6274 92.7687C57.4831 93.2594 58.5276 93.1335 59.786 92.4162L67.9529 87.6972Z" fill="url(#paint1_linear_129_463)" stroke="black"/>
<path d="M118.565 14.1441C118.452 14.1063 118.339 14.0814 118.213 14.0562C117.622 13.9807 116.98 14.094 116.275 14.4086C115.583 14.7358 114.866 15.3145 114.123 16.1576C112.802 17.7684 111.443 19.2534 110.046 20.6124C108.637 21.9715 107.164 23.0913 105.617 23.9848C103.49 25.218 101.464 25.8851 99.5511 25.9732C97.6258 26.0613 95.8263 25.8472 94.1401 25.2935C93.6241 25.1677 93.0704 25.1804 92.479 25.3062C91.9505 25.4195 91.4219 25.6207 90.8934 25.9101C90.8305 25.9353 90.7676 25.9732 90.7047 26.0109C90.1258 26.3507 89.5344 26.7913 88.9429 27.345C88.3515 27.8986 87.7978 28.5275 87.2818 29.2573C86.2877 30.7171 85.2558 32.1266 84.1736 33.4605C83.4312 34.4043 82.6636 35.3102 81.8708 36.1785C79.958 38.3051 77.932 39.9788 75.7927 41.212C74.2575 42.1055 72.7726 42.6972 71.3758 42.9992C69.979 43.3012 68.6199 43.4145 67.2986 43.3264C67.2357 43.3264 67.1854 43.3264 67.1224 43.3264C66.5058 43.2509 65.8641 43.4269 65.1971 43.8548C64.5302 44.27 63.9387 44.8113 63.4102 45.4656C63.3347 45.5411 63.2718 45.6291 63.2089 45.7046C62.6174 46.4596 62.1896 47.2776 61.9379 48.1459C61.6736 49.0142 61.6233 49.8699 61.7743 50.713L62.4161 53.6577L65.411 67.5C65.5746 68.2551 65.8892 68.8087 66.3548 69.1485L49.8573 60.9061L41.7911 56.8666C40.9857 56.615 40.4698 55.9732 40.2433 54.9161L36.6065 38.1291C36.4555 37.286 36.5058 36.4303 36.7701 35.562C37.0218 34.6937 37.4496 33.8757 38.0411 33.1207C38.6325 32.3531 39.2869 31.7365 40.0293 31.2709C40.7592 30.8053 41.4639 30.6292 42.1308 30.7551C43.4521 30.8431 44.8112 30.7299 46.208 30.4279C47.6048 30.1259 49.0897 29.5343 50.625 28.6408C52.7642 27.4076 54.7902 25.734 56.703 23.6073C58.6157 21.4932 60.4278 19.1778 62.1141 16.6861C62.63 15.9563 63.1837 15.327 63.7751 14.7733C64.3666 14.2196 64.958 13.7794 65.5369 13.4396C66.1283 13.0999 66.7198 12.8608 67.3112 12.7349C67.9026 12.6091 68.4563 12.5965 68.9723 12.7223C70.6585 13.276 72.458 13.49 74.3834 13.4019C76.2961 13.3138 78.3221 12.6467 80.4488 11.4135C81.9966 10.5201 83.4689 9.40018 84.8783 8.04112C86.2751 6.68206 87.6342 5.19711 88.9555 3.58637C89.698 2.74325 90.4152 2.16452 91.1073 1.83734C91.812 1.52274 92.4538 1.40945 93.0453 1.48495C93.2214 1.51012 93.385 1.5603 93.536 1.63581L93.8255 1.78696L118.565 14.1567V14.1441Z" fill="url(#paint2_linear_129_463)" stroke="black"/>
<path d="M124.517 46.0697C123.724 45.7425 122.768 45.906 121.635 46.5604L90.3392 64.631L59.7855 82.2736C58.5271 82.9909 57.4827 84.0858 56.627 85.5455C55.7838 87.0052 55.3686 88.4523 55.3686 89.8868C55.3686 91.3214 55.7838 92.2905 56.627 92.7687L41.6521 85.281L31.7235 80.3104L31.4592 80.1848C30.6161 79.7066 30.2008 78.7501 30.2008 77.3029C30.2008 75.8558 30.6161 74.4214 31.4592 72.9616C32.3149 71.5019 33.3594 70.407 34.6178 69.6897L49.8568 60.8935L66.3543 69.136L66.9583 69.438C67.7763 69.6897 68.6949 69.526 69.7268 68.9219L89.4206 57.5464L111.807 44.6227C112.839 44.0313 113.758 43.1375 114.563 41.9547C114.714 41.7407 114.853 41.5142 114.978 41.3003L124.517 46.0697Z" fill="url(#paint3_linear_129_463)" stroke="black"/>
<path d="M127.337 76.0823C125.726 75.4154 123.813 75.7173 121.636 76.9757L115.898 80.2977L114.526 69.677L127.337 76.0823Z" fill="url(#paint4_linear_129_463)" stroke="black"/>
<path d="M148.891 46.8713L148.931 47.2044C149.526 52.1677 153.143 54.2562 157.739 52.2894L158.047 52.1575L157.739 52.3816C153.143 55.7214 149.526 61.987 148.931 67.6368L148.891 68.0159L148.851 67.6829C148.257 62.7196 144.639 60.631 140.044 62.5978L139.735 62.7297L140.044 62.5057C144.639 59.1659 148.257 52.9002 148.851 47.2504L148.891 46.8713Z" fill="white"/>
<path fill-rule="evenodd" clip-rule="evenodd" d="M148.931 47.1099C149.526 52.0732 153.143 54.1618 157.739 52.1951L158.047 52.0631L157.739 52.2873C153.143 55.627 149.526 61.8926 148.931 67.5423L148.891 67.9216L148.851 67.5885C148.257 62.6252 144.639 60.5367 140.044 62.5035L139.735 62.6353L140.044 62.4113C144.639 59.0716 148.257 52.8058 148.851 47.156L148.891 46.777L148.931 47.1099ZM148.891 47.6199C148.158 53.0208 144.776 58.8786 140.465 62.2138C144.776 60.5714 148.158 62.5241 148.891 67.0784C149.624 61.6777 153.006 55.8199 157.317 52.4846C153.006 54.127 149.624 52.1743 148.891 47.6199Z" fill="black"/>
<path d="M148.891 67.9216L148.851 67.5885C148.257 62.6252 144.639 60.5367 140.044 62.5035L139.735 62.6353C139.735 62.6353 140.969 61.9995 142.368 62.6353C143.767 63.2711 144.062 66.037 144.062 66.037L148.891 67.9216Z" fill="url(#paint5_linear_129_463)"/>
<path d="M139.735 62.6353L140.044 62.4113C144.639 59.0716 148.257 52.8058 148.851 47.156L148.891 46.777L143.002 44.4211L142.962 44.8003C142.367 50.4501 138.75 56.7158 134.154 60.0556L133.846 60.2795L139.369 62.4521L139.735 62.6353Z" fill="url(#paint6_linear_129_463)"/>
<path d="M149.054 46.6519L149.107 47.0889C149.399 49.5327 150.431 51.2371 151.923 52.0983C153.414 52.9594 155.406 53.0011 157.669 52.0327L157.978 51.9007L158.151 52.206L157.843 52.4301C153.288 55.7405 149.696 61.9609 149.107 67.5609L149.043 68.1704L143.898 66.1625L143.886 66.0558L143.886 66.0555C143.886 66.0553 143.886 66.0549 143.886 66.0544C143.886 66.0533 143.886 66.0515 143.886 66.0491C143.885 66.0443 143.884 66.0369 143.883 66.0272C143.881 66.0078 143.877 65.9788 143.872 65.9415C143.861 65.8668 143.845 65.7587 143.82 65.6268C143.772 65.3627 143.693 65.005 143.571 64.6288C143.45 64.2519 143.287 63.8621 143.074 63.5307C142.861 63.1986 142.603 62.9361 142.295 62.7961C141.635 62.4962 141.014 62.4959 140.556 62.5712C140.327 62.6089 140.139 62.6654 140.01 62.712C139.994 62.7177 139.98 62.7235 139.966 62.7288L139.73 62.8299L139.296 62.6132L133.482 60.326L134.05 59.9126C138.606 56.6023 142.197 50.3818 142.786 44.7818L142.851 44.1704L149.054 46.6519ZM145.86 62.6002C144.671 61.9141 143.165 61.7482 141.457 62.1991C141.766 62.2356 142.099 62.319 142.441 62.4745C142.832 62.6524 143.136 62.9741 143.371 63.3394C143.607 63.7055 143.781 64.1264 143.908 64.5204C144.035 64.9152 144.117 65.2886 144.168 65.563C144.193 65.7003 144.21 65.8133 144.222 65.8923C144.222 65.8986 144.223 65.9047 144.224 65.9105L148.681 67.6498L148.676 67.6095C148.383 65.1657 147.351 63.4613 145.86 62.6002ZM148.913 48.5842C147.993 53.4439 145.06 58.5239 141.311 61.7506C143.14 61.2497 144.79 61.4081 146.108 62.1693C147.427 62.9306 148.389 64.2797 148.869 66.1141C149.789 61.2546 152.722 56.1744 156.471 52.9478C154.642 53.4487 152.993 53.2903 151.674 52.5291C150.356 51.7678 149.394 50.4186 148.913 48.5842ZM143.217 44.7331L143.146 44.7416L143.138 44.8188C142.538 50.5184 138.894 56.8294 134.258 60.1986L134.211 60.2331L139.434 62.2877L139.441 62.2906L139.448 62.294L139.718 62.4292L139.94 62.2684C144.495 58.958 148.086 52.7375 148.676 47.1375L148.701 46.8914L143.213 44.6957L143.217 44.7331Z" fill="black"/>
<path d="M118.69 127.408L118.73 127.741C119.325 132.705 122.942 134.793 127.538 132.826L127.846 132.694L127.538 132.918C122.942 136.258 119.325 142.524 118.73 148.174L118.69 148.553L118.65 148.22C118.056 143.256 114.438 141.168 109.843 143.135L109.534 143.267L109.843 143.043C114.438 139.703 118.056 133.437 118.65 127.787L118.69 127.408Z" fill="white"/>
<path fill-rule="evenodd" clip-rule="evenodd" d="M118.73 127.647C119.325 132.61 122.942 134.699 127.538 132.732L127.846 132.6L127.538 132.824C122.942 136.164 119.325 142.429 118.73 148.079L118.69 148.458L118.65 148.125C118.056 143.162 114.438 141.074 109.843 143.04L109.534 143.172L109.843 142.948C114.438 139.608 118.056 133.343 118.65 127.693L118.69 127.314L118.73 127.647ZM118.69 128.157C117.957 133.558 114.575 139.415 110.264 142.751C114.575 141.108 117.957 143.061 118.69 147.615C119.423 142.215 122.805 136.357 127.116 133.022C122.805 134.664 119.423 132.711 118.69 128.157Z" fill="black"/>
<path d="M118.69 148.458L118.65 148.125C118.056 143.162 114.438 141.074 109.843 143.04L109.534 143.172C109.534 143.172 110.767 142.536 112.167 143.172C113.566 143.808 113.861 146.574 113.861 146.574L118.69 148.458Z" fill="url(#paint7_linear_129_463)"/>
<path d="M109.534 143.172L109.843 142.948C114.438 139.608 118.056 133.343 118.65 127.693L118.69 127.314L112.801 124.958L112.761 125.337C112.166 130.987 108.549 137.253 103.953 140.592L103.645 140.816L109.168 142.989L109.534 143.172Z" fill="url(#paint8_linear_129_463)"/>
<path d="M118.853 127.189L118.905 127.626C119.198 130.07 120.23 131.774 121.722 132.635C123.213 133.496 125.205 133.538 127.468 132.57L127.776 132.438L127.95 132.743L127.641 132.967C123.086 136.277 119.495 142.498 118.906 148.098L118.842 148.707L113.697 146.699L113.685 146.593L113.685 146.592C113.685 146.592 113.685 146.592 113.685 146.591C113.685 146.59 113.685 146.588 113.684 146.586C113.684 146.581 113.683 146.574 113.682 146.564C113.679 146.545 113.676 146.516 113.67 146.478C113.66 146.404 113.643 146.296 113.619 146.164C113.571 145.9 113.492 145.542 113.37 145.166C113.249 144.789 113.086 144.399 112.873 144.068C112.659 143.735 112.402 143.473 112.094 143.333C111.433 143.033 110.813 143.033 110.354 143.108C110.125 143.146 109.938 143.202 109.809 143.249C109.793 143.255 109.778 143.26 109.765 143.266L109.529 143.367L109.095 143.15L103.28 140.863L103.849 140.45C108.404 137.139 111.996 130.919 112.585 125.319L112.649 124.707L118.853 127.189ZM115.658 143.137C114.47 142.451 112.964 142.285 111.256 142.736C111.565 142.772 111.898 142.856 112.24 143.011C112.631 143.189 112.935 143.511 113.17 143.876C113.406 144.242 113.579 144.663 113.707 145.057C113.834 145.452 113.916 145.826 113.967 146.1C113.992 146.237 114.009 146.35 114.02 146.429C114.021 146.435 114.022 146.442 114.023 146.447L118.479 148.187L118.475 148.146C118.182 145.703 117.15 143.998 115.658 143.137ZM118.712 129.121C117.792 133.981 114.859 139.061 111.11 142.288C112.939 141.787 114.589 141.945 115.907 142.706C117.226 143.467 118.187 144.817 118.668 146.651C119.588 141.791 122.521 136.711 126.27 133.485C124.441 133.986 122.791 133.827 121.473 133.066C120.154 132.305 119.193 130.955 118.712 129.121ZM113.016 125.27L112.945 125.278L112.937 125.356C112.337 131.055 108.693 137.366 104.057 140.735L104.009 140.77L109.232 142.825L109.24 142.827L109.247 142.831L109.517 142.966L109.739 142.805C114.294 139.495 117.885 133.274 118.474 127.674L118.5 127.428L113.012 125.233L113.016 125.27Z" fill="black"/>
<path d="M18.0183 26.7371L18.0582 27.0701C18.6527 32.0334 22.2702 34.1219 26.8658 32.1552L27.1741 32.0232L26.8658 32.2473C22.2702 35.5871 18.6527 41.8527 18.0582 47.5025L18.0183 47.8816L17.9784 47.5486C17.3839 42.5853 13.7664 40.4967 9.17077 42.4635L8.86243 42.5955L9.17077 42.3714C13.7664 39.0316 17.3839 32.766 17.9784 27.1161L18.0183 26.7371Z" fill="white"/>
<path fill-rule="evenodd" clip-rule="evenodd" d="M18.0581 26.9756C18.6526 31.9389 22.2701 34.0276 26.8657 32.0608L27.1741 31.9288L26.8657 32.153C22.2701 35.4928 18.6527 41.7583 18.0581 47.4081L18.0182 47.7873L17.9783 47.4542C17.3837 42.4909 13.7663 40.4024 9.17067 42.3692L8.8624 42.501L9.17067 42.2771C13.7663 38.9373 17.3837 32.6715 17.9783 27.0217L18.0182 26.6427L18.0581 26.9756ZM18.0182 27.4856C17.2852 32.8865 13.9032 38.7443 9.59236 42.0796C13.9031 40.4371 17.2851 42.3898 18.0182 46.9442C18.7512 41.5434 22.1332 35.6856 26.4439 32.3504C22.1332 33.9927 18.7512 32.0401 18.0182 27.4856Z" fill="black"/>
<path d="M18.0182 47.7873L17.9783 47.4542C17.3837 42.4909 13.7663 40.4024 9.17067 42.3692L8.8624 42.501C8.8624 42.501 10.0955 41.8652 11.4947 42.501C12.8939 43.1368 13.1889 45.9027 13.1889 45.9027L18.0182 47.7873Z" fill="url(#paint9_linear_129_463)"/>
<path d="M8.8624 42.501L9.17067 42.2771C13.7663 38.9373 17.3837 32.6715 17.9783 27.0217L18.0182 26.6427L12.1288 24.2869L12.0889 24.666C11.4943 30.3158 7.87689 36.5815 3.28129 39.9213L2.97302 40.1453L8.49591 42.3178L8.8624 42.501Z" fill="url(#paint10_linear_129_463)"/>
<path d="M18.1812 26.5176L18.2335 26.9546C18.5263 29.3984 19.5583 31.1029 21.0498 31.964C22.5413 32.8252 24.5334 32.8668 26.7961 31.8984L27.1045 31.7664L27.278 32.0717L26.9696 32.2959C22.4145 35.6062 18.8232 41.8266 18.2339 47.4266L18.1697 48.0361L13.0247 46.0282L13.0133 45.9215L13.0132 45.9212C13.0131 45.921 13.0131 45.9206 13.013 45.9201C13.0129 45.919 13.0127 45.9172 13.0125 45.9148C13.0119 45.91 13.0111 45.9026 13.0099 45.893C13.0076 45.8735 13.0038 45.8446 12.9985 45.8073C12.9881 45.7325 12.9715 45.6244 12.9472 45.4925C12.8987 45.2284 12.8196 44.8707 12.6983 44.4946C12.5767 44.1176 12.4144 43.7278 12.2012 43.3964C11.9875 43.0643 11.7298 42.8019 11.4216 42.6618C10.7616 42.3619 10.1406 42.3616 9.68255 42.437C9.45347 42.4747 9.26616 42.5311 9.13698 42.5778C9.1213 42.5834 9.10661 42.5892 9.0927 42.5946L8.85666 42.6957L8.42313 42.479L2.60852 40.1918L3.17744 39.7784C7.73253 36.468 11.3238 30.2475 11.9132 24.6475L11.9776 24.0361L18.1812 26.5176ZM14.9866 42.466C13.798 41.7798 12.2917 41.6139 10.5838 42.0649C10.8929 42.1013 11.2257 42.1848 11.5678 42.3402C11.9593 42.5181 12.2632 42.8398 12.4983 43.2051C12.7339 43.5712 12.9076 43.9921 13.0347 44.3861C13.162 44.7809 13.2443 45.1544 13.2947 45.4287C13.32 45.566 13.3374 45.679 13.3485 45.758C13.3493 45.7643 13.3501 45.7704 13.3509 45.7762L17.8076 47.5155L17.8029 47.4753C17.5101 45.0314 16.4781 43.3271 14.9866 42.466ZM18.0401 28.4499C17.1199 33.3096 14.1869 38.3897 10.4384 41.6164C12.2674 41.1154 13.9167 41.2738 15.2352 42.0351C16.5538 42.7963 17.5156 44.1455 17.9962 45.9798C18.9164 41.1203 21.8494 36.0402 25.5978 32.8135C23.7689 33.3144 22.1196 33.1561 20.801 32.3948C19.4825 31.6335 18.5207 30.2844 18.0401 28.4499ZM12.3442 24.5988L12.2727 24.6074L12.2647 24.6845C11.6649 30.3841 8.02127 36.6951 3.38518 40.0643L3.33756 40.0988L8.56058 42.1534L8.56794 42.1563L8.57496 42.1598L8.84527 42.2949L9.06682 42.1341C13.6219 38.8238 17.2132 32.6033 17.8025 27.0032L17.8284 26.7571L12.3397 24.5615L12.3442 24.5988Z" fill="black"/>
<defs>
<linearGradient id="paint0_linear_129_463" x1="29.0815" y1="102.081" x2="34.823" y2="148.307" gradientUnits="userSpaceOnUse">
<stop offset="0.216346" stop-color="#08EC72"/>
<stop offset="0.466346" stop-color="#1098EC"/>
<stop offset="0.620192" stop-color="#0093FC"/>
<stop offset="0.802885" stop-color="#C200FB"/>
<stop offset="1" stop-color="#534EFF"/>
</linearGradient>
<linearGradient id="paint1_linear_129_463" x1="42.654" y1="87.8682" x2="44.6511" y2="110.671" gradientUnits="userSpaceOnUse">
<stop offset="0.216346" stop-color="#08EC72"/>
<stop offset="0.466346" stop-color="#1098EC"/>
<stop offset="0.620192" stop-color="#0093FC"/>
<stop offset="0.802885" stop-color="#C200FB"/>
<stop offset="1" stop-color="#534EFF"/>
</linearGradient>
<linearGradient id="paint2_linear_129_463" x1="43.3526" y1="8.72924" x2="48.6567" y2="72.8291" gradientUnits="userSpaceOnUse">
<stop offset="0.216346" stop-color="#08EC72"/>
<stop offset="0.466346" stop-color="#1098EC"/>
<stop offset="0.620192" stop-color="#0093FC"/>
<stop offset="0.802885" stop-color="#C200FB"/>
<stop offset="1" stop-color="#534EFF"/>
</linearGradient>
<linearGradient id="paint3_linear_129_463" x1="38.053" y1="46.826" x2="40.731" y2="95.7545" gradientUnits="userSpaceOnUse">
<stop offset="0.216346" stop-color="#08EC72"/>
<stop offset="0.466346" stop-color="#1098EC"/>
<stop offset="0.620192" stop-color="#0093FC"/>
<stop offset="0.802885" stop-color="#C200FB"/>
<stop offset="1" stop-color="#534EFF"/>
</linearGradient>
<linearGradient id="paint4_linear_129_463" x1="115.593" y1="70.8172" x2="116.429" y2="80.8745" gradientUnits="userSpaceOnUse">
<stop offset="0.216346" stop-color="#08EC72"/>
<stop offset="0.466346" stop-color="#1098EC"/>
<stop offset="0.620192" stop-color="#0093FC"/>
<stop offset="0.802885" stop-color="#C200FB"/>
<stop offset="1" stop-color="#534EFF"/>
</linearGradient>
<linearGradient id="paint5_linear_129_463" x1="135.861" y1="46.9442" x2="138.023" y2="69.1413" gradientUnits="userSpaceOnUse">
<stop offset="0.216346" stop-color="#08EC72"/>
<stop offset="0.466346" stop-color="#1098EC"/>
<stop offset="0.620192" stop-color="#0093FC"/>
<stop offset="0.802885" stop-color="#C200FB"/>
<stop offset="1" stop-color="#534EFF"/>
</linearGradient>
<linearGradient id="paint6_linear_129_463" x1="135.861" y1="46.9442" x2="138.023" y2="69.1413" gradientUnits="userSpaceOnUse">
<stop offset="0.216346" stop-color="#08EC72"/>
<stop offset="0.466346" stop-color="#1098EC"/>
<stop offset="0.620192" stop-color="#0093FC"/>
<stop offset="0.802885" stop-color="#C200FB"/>
<stop offset="1" stop-color="#534EFF"/>
</linearGradient>
<linearGradient id="paint7_linear_129_463" x1="105.66" y1="127.481" x2="107.822" y2="149.678" gradientUnits="userSpaceOnUse">
<stop offset="0.216346" stop-color="#08EC72"/>
<stop offset="0.466346" stop-color="#1098EC"/>
<stop offset="0.620192" stop-color="#0093FC"/>
<stop offset="0.802885" stop-color="#C200FB"/>
<stop offset="1" stop-color="#534EFF"/>
</linearGradient>
<linearGradient id="paint8_linear_129_463" x1="105.66" y1="127.481" x2="107.822" y2="149.678" gradientUnits="userSpaceOnUse">
<stop offset="0.216346" stop-color="#08EC72"/>
<stop offset="0.466346" stop-color="#1098EC"/>
<stop offset="0.620192" stop-color="#0093FC"/>
<stop offset="0.802885" stop-color="#C200FB"/>
<stop offset="1" stop-color="#534EFF"/>
</linearGradient>
<linearGradient id="paint9_linear_129_463" x1="4.98786" y1="26.8099" x2="7.14973" y2="49.007" gradientUnits="userSpaceOnUse">
<stop offset="0.216346" stop-color="#08EC72"/>
<stop offset="0.466346" stop-color="#1098EC"/>
<stop offset="0.620192" stop-color="#0093FC"/>
<stop offset="0.802885" stop-color="#C200FB"/>
<stop offset="1" stop-color="#534EFF"/>
</linearGradient>
<linearGradient id="paint10_linear_129_463" x1="4.98786" y1="26.8099" x2="7.14973" y2="49.007" gradientUnits="userSpaceOnUse">
<stop offset="0.216346" stop-color="#08EC72"/>
<stop offset="0.466346" stop-color="#1098EC"/>
<stop offset="0.620192" stop-color="#0093FC"/>
<stop offset="0.802885" stop-color="#C200FB"/>
<stop offset="1" stop-color="#534EFF"/>
</linearGradient>
</defs>
</svg>
