<svg width="362" height="210" viewBox="0 0 362 210" fill="none" xmlns="http://www.w3.org/2000/svg">
<path fill-rule="evenodd" clip-rule="evenodd" d="M67.7165 138.842C67.4037 139.497 67.3999 140.259 67.7165 140.875V138.842Z" fill="url(#paint0_linear_56_213)"/>
<path d="M154.816 155.511C161.944 142.994 171.74 124.295 178.867 111.779V101.792L173.551 110.302L154.816 140.29V155.511Z" fill="url(#paint1_linear_56_213)"/>
<path d="M128.232 152.095C136.523 153.549 144.939 154.817 154.816 155.511V140.29L137.103 137.734L128.232 136.453V152.095Z" fill="url(#paint2_linear_56_213)"/>
<path d="M168.159 156.029C183.935 156.412 197.194 155.15 213.37 150.876C235.891 144.943 270.629 121.707 286.463 100.43V94.6026C286.463 94.6026 250.593 130.792 213.37 138.521C201.149 141.059 186.057 141.29 177.009 141.143C172.157 141.063 169.043 140.875 169.043 140.875L168.159 156.029Z" fill="url(#paint3_linear_56_213)"/>
<path d="M294.555 84.2894L285.854 83.2624C284.771 83.2306 283.745 83.5635 283.32 84.1378L280.568 87.6973C279.455 87.6656 278.474 87.9897 278.018 88.5815C277.942 88.683 277.751 88.8917 277.466 89.189V93.5679L260.767 107.089C260.227 106.882 260.018 106.605 260.307 106.23C260.502 105.979 261.408 105.057 262.716 103.757C250.29 111.768 233.004 121.269 218.749 122.307C208.996 123.011 202.231 122.503 189.51 120.115L177.009 141.143C186.057 141.29 201.149 141.059 213.37 138.521C250.593 130.792 286.463 94.6026 286.463 94.6026V100.43L289.101 100.775C290.075 101.18 291.941 99.3367 292.778 98.2315L295.454 94.7329C296.381 93.5406 295.258 91.9906 294.298 91.698L297.75 87.1812C298.145 86.6764 298.613 84.6777 294.555 84.2894Z" fill="url(#paint4_linear_56_213)"/>
<path d="M67.7165 140.875C68.1016 141.604 68.9246 142.131 69.8709 142.294L81.8616 144.601L82.0268 144.626C83.3792 144.796 84.7978 144.237 85.498 143.227L85.711 142.931V119.083L82.7713 118.848L67.7165 118.367V138.842V140.875Z" fill="url(#paint5_linear_56_213)"/>
<path d="M115.651 150.186V127.211L85.711 119.083V142.931C86.038 143.047 86.6585 143.203 88.7284 143.84C98.8509 146.954 107.026 148.903 115.651 150.186Z" fill="url(#paint6_linear_56_213)"/>
<path d="M115.651 150.186L143.993 107.754L145.762 88.7657L134.987 103.381L115.651 127.211V150.186Z" fill="url(#paint7_linear_56_213)"/>
<path d="M285.868 82.8203L285.887 82.8212L285.907 82.8229L294.607 83.8498C296.677 84.0494 297.76 84.6725 298.209 85.4761C298.655 86.2769 298.38 87.0947 298.099 87.4539L298.098 87.453L294.976 91.5391C295.385 91.809 295.751 92.2193 295.98 92.6809C296.318 93.3605 296.398 94.2358 295.805 95.0007L295.806 95.0015L293.13 98.4977C292.694 99.0744 291.993 99.8403 291.266 100.416C290.903 100.703 290.515 100.958 290.137 101.113C289.79 101.255 289.388 101.336 289.008 101.208L286.661 100.9C278.695 111.528 266.089 122.606 252.674 131.772C239.595 140.71 225.708 147.861 214.553 151.012L213.483 151.304C197.263 155.589 183.962 156.855 168.149 156.472L167.691 156.461L168.602 140.85L168.609 140.736L168.67 140.639L189.321 108.021L189.647 108.127L189.648 108.128H189.649C189.651 108.128 189.654 108.129 189.658 108.13C189.665 108.133 189.677 108.137 189.692 108.141C189.722 108.151 189.767 108.166 189.827 108.185C189.947 108.222 190.126 108.277 190.357 108.347C190.821 108.487 191.499 108.685 192.353 108.92C194.063 109.391 196.479 110.007 199.303 110.588C204.959 111.751 212.22 112.767 218.712 112.209C227.462 111.458 239.609 108.933 250.805 104.656C262.02 100.371 272.189 94.364 277.094 86.7042L277.099 86.6965L277.103 86.6896C277.747 85.7655 278.564 85.0608 279.211 84.59C279.537 84.3534 279.823 84.1736 280.029 84.0519C280.132 83.991 280.216 83.9445 280.275 83.9128C280.304 83.897 280.327 83.8841 280.343 83.8757C280.351 83.8716 280.357 83.8685 280.362 83.8662C280.364 83.865 280.366 83.8643 280.368 83.8636L280.37 83.8627L281.01 83.5415V86.4019L282.97 83.8671C283.256 83.4856 283.709 83.2208 284.199 83.0543C284.637 82.9058 285.136 82.8249 285.647 82.8186L285.868 82.8203ZM285.154 96.4931C284.097 97.5009 282.547 98.9475 280.571 100.708C276.619 104.228 270.961 109.003 264.138 114.02C250.5 124.046 232.165 135.07 213.46 138.954C201.189 141.502 186.056 141.732 177.003 141.585C174.572 141.545 172.577 141.478 171.189 141.421C170.495 141.393 169.953 141.366 169.584 141.347C169.54 141.345 169.498 141.342 169.459 141.34L168.627 155.597C184.165 155.943 197.283 154.669 213.257 150.448C224.45 147.5 238.718 140.237 252.175 131.042C265.581 121.881 278.137 110.832 286.021 100.281V95.6553C285.784 95.885 285.496 96.1672 285.154 96.4931ZM128.675 151.722C136.707 153.124 144.867 154.346 154.374 155.035V140.673L128.675 136.963V151.722ZM155.259 140.416V153.83C157.723 149.465 160.47 144.453 163.291 139.263L169.616 127.605C172.736 121.866 175.765 116.338 178.426 111.662V103.334L155.259 140.416ZM106.83 69.9023L146.232 88.4981L144.424 107.907L115.864 150.664L115.587 150.624C106.935 149.337 98.737 147.382 88.5987 144.263C87.0561 143.788 86.3038 143.576 85.8833 143.449L85.8574 143.486C85.0473 144.647 83.4583 145.252 81.9726 145.065L81.9657 145.064L81.9596 145.063L81.7946 145.038L81.7869 145.037L81.7782 145.035L69.7879 142.728C68.7427 142.546 67.7885 141.956 67.3264 141.082L67.3238 141.078C66.9552 140.361 66.9505 139.496 67.2746 138.748V118.21L106.516 69.7538L106.83 69.9023ZM86.1536 142.608C86.5473 142.726 87.2671 142.928 88.8586 143.417C98.7662 146.465 106.797 148.391 115.209 149.67V127.549L86.1536 119.661V142.608ZM135.343 103.643L135.337 103.652L135.331 103.66L116.094 127.368V148.727L143.564 107.601L145.174 90.3083L135.343 103.643ZM68.159 138.696L68.2669 138.771C68.2274 138.829 68.1918 138.889 68.159 138.95V140.756C68.4865 141.295 69.1454 141.72 69.9459 141.858L69.9554 141.859L81.9415 144.165L82.0866 144.188C83.3015 144.339 84.5443 143.827 85.1353 142.975L85.1397 142.969L85.2692 142.789V119.491L82.7404 119.289L68.159 118.823V138.696ZM285.831 83.7038C285.34 83.6906 284.87 83.76 284.483 83.8912C284.087 84.0257 283.816 84.2119 283.676 84.4008L283.67 84.4086L280.781 88.1457L280.555 88.1397C279.501 88.1097 278.698 88.4243 278.369 88.8513C278.288 88.9584 278.124 89.1355 277.909 89.3626V93.7786L260.847 107.593L260.609 107.501C260.321 107.391 260.009 107.225 259.845 106.946C259.754 106.791 259.716 106.612 259.745 106.425C259.765 106.298 259.814 106.182 259.878 106.077C254.343 109.522 248.056 113.093 241.603 116.048C234.165 119.454 226.481 122.056 219.459 122.692L218.782 122.748C209.059 123.45 202.285 122.949 189.733 120.605L177.781 140.71C186.889 140.831 201.447 140.546 213.28 138.088C231.799 134.243 250.01 123.308 263.613 113.307C270.41 108.31 276.046 103.554 279.983 100.048C281.95 98.2951 283.493 96.8546 284.544 95.8531C285.069 95.3524 285.471 94.9613 285.742 94.6958C285.877 94.5631 285.979 94.4615 286.047 94.3935L286.143 94.2976C286.145 94.2955 286.146 94.2935 286.147 94.2925L286.148 94.2916C286.149 94.2914 286.149 94.2915 286.463 94.6025L286.148 94.2916L286.905 93.5281V100.041L289.159 100.336L289.217 100.343L289.271 100.367C289.357 100.402 289.521 100.409 289.802 100.294C290.073 100.183 290.387 99.9836 290.717 99.7224C291.375 99.2014 292.026 98.4933 292.426 97.9648L292.427 97.9631L295.103 94.4643L295.105 94.4617C295.437 94.035 295.42 93.5403 295.188 93.0747C294.948 92.59 294.513 92.226 294.17 92.1212L293.56 91.9355L297.399 86.9124L297.402 86.9089C297.516 86.7632 297.672 86.3288 297.437 85.9071C297.204 85.4892 296.495 84.9196 294.513 84.7299L294.504 84.729L285.831 83.7038ZM169.821 140.473C170.174 140.491 170.647 140.513 171.225 140.537C172.558 140.592 174.455 140.655 176.761 140.695L189.069 119.992V110.072L169.821 140.473ZM157.735 105.172L157.669 105.279L137.833 137.391L154.595 139.811L178.142 102.119L157.735 98.7335V105.172ZM129.038 136.123L136.879 137.254L156.85 104.922V99.5246L129.038 136.123ZM107.811 89.5483C107.483 89.4637 107.168 89.458 106.712 89.531L106.696 89.5328C105.804 89.6444 105.007 90.1061 104.604 90.6961L104.598 90.7048L104.591 90.7134L83.6101 118.471L85.7468 118.643L85.7874 118.645L85.8271 118.657L115.489 126.708L134.297 103.529C125.732 99.2369 114.875 93.5581 109.089 90.1451L108.722 89.9283C108.35 89.7332 108.069 89.6149 107.811 89.5483ZM277.025 88.3728C271.714 95.7042 261.805 101.4 251.121 105.481C239.847 109.788 227.619 112.332 218.788 113.09C212.17 113.659 204.812 112.624 199.126 111.455C196.279 110.869 193.843 110.248 192.119 109.774C191.256 109.537 190.572 109.335 190.102 109.193C190.05 109.178 190 109.162 189.953 109.148V119.746C202.416 122.071 209.105 122.559 218.718 121.865L219.381 121.812C226.258 121.188 233.838 118.632 241.235 115.244C248.85 111.757 256.243 107.401 262.439 103.409C266.571 99.3004 274.598 91.5209 277.025 89.0094V88.3728ZM68.6202 117.953L82.5564 118.398L103.886 90.1805C104.391 89.4521 105.257 88.93 106.199 88.7226V71.5502L68.6202 117.953ZM267.063 101.421C265.779 102.285 264.42 103.183 262.997 104.101C262.357 104.737 261.816 105.28 261.411 105.696C260.991 106.126 260.737 106.399 260.658 106.5C260.651 106.509 260.646 106.518 260.641 106.526C260.65 106.533 260.66 106.543 260.673 106.552C260.683 106.558 260.693 106.563 260.704 106.57L267.063 101.421ZM107.084 88.6017C107.41 88.5845 107.713 88.6092 108.032 88.6915C108.496 88.8112 108.966 89.0444 109.561 89.379L111.023 90.2021H110.948C116.984 93.6634 126.92 98.8458 134.853 102.819L145.087 88.936L107.084 70.9992V88.6017ZM277.025 90.2729C274.745 92.5793 270.016 97.1919 266.215 100.925C271.076 97.6663 274.887 94.8762 277.025 93.3407V90.2729ZM279.731 85.3051C279.158 85.7223 278.465 86.3245 277.909 87.0877V88.0507C278.444 87.563 279.261 87.3082 280.126 87.2613V85.0339C280.006 85.1128 279.872 85.2027 279.731 85.3051ZM179.31 111.896L179.252 111.998C176.582 116.688 173.535 122.247 170.394 128.027L164.068 139.685C160.926 145.466 157.876 151.033 155.201 155.73L155.063 155.972L154.785 155.952C144.888 155.257 136.455 153.986 128.156 152.531L127.79 152.466V136.304L156.941 97.9449L157.102 97.7325L157.365 97.7757L179.31 101.417V111.896Z" fill="black"/>
<path d="M190.625 103.267C204.419 106.09 216.579 106.841 227.201 106.248C251.229 104.892 266.913 96.7336 274.973 91.155L273.174 90.4407C272.59 90.206 272.368 89.9005 272.689 89.4986C273.685 88.2555 274.682 86.9935 275.662 85.7408C276.169 85.1053 277.241 84.7703 278.45 84.8244L281.507 81.0015C281.981 80.3843 283.102 80.0402 284.279 80.0939L293.725 81.3653C298.132 81.8596 297.588 84.025 297.149 84.5674L293.315 89.4199C294.354 89.7553 295.564 90.499 294.534 91.7793L291.56 95.5371C290.631 96.7244 288.601 96.7726 287.548 96.3143L286.608 95.9237C269.008 118.786 245.444 131.175 220.842 137.228C203.172 141.59 184.879 142.665 167.726 141.969L190.625 103.267Z" fill="white"/>
<path d="M156.701 93.0551C172.637 98.6569 176.439 99.7859 180.049 100.761C172.074 114.249 164.082 127.728 156.108 141.216C145.377 140.286 135.282 138.741 126.289 137.013L156.701 93.0551Z" fill="white"/>
<path d="M102.247 69.5467C102.79 68.7793 103.802 68.2358 104.885 68.1183C105.969 67.9629 106.537 68.15 107.811 68.8946L107.779 68.8945C116.794 74.4119 139.244 85.3362 147.107 89.1088L115.526 134.761C105.761 133.145 94.4733 129.543 85.9739 126.385L85.7368 126.703C84.9573 127.789 83.4046 128.372 81.9368 128.163L81.757 128.132L66.8309 125.379C65.8046 125.186 64.919 124.597 64.513 123.798C64.1232 123.009 64.2133 122.008 64.7559 121.241L102.247 69.5467Z" fill="white"/>
<path d="M284.281 80.0943L293.727 81.3657C298.133 81.86 297.59 84.0247 297.151 84.5673L293.316 89.4203C294.356 89.7557 295.565 90.4988 294.536 91.779L291.562 95.5368C290.633 96.7241 288.602 96.7724 287.55 96.3141L286.61 95.9238C269.01 118.786 245.446 131.175 220.844 137.228C203.174 141.59 184.881 142.665 167.728 141.97L190.627 103.268C204.421 106.091 216.581 106.841 227.202 106.248C251.231 104.892 266.916 96.7341 274.975 91.1554L273.176 90.4403C272.592 90.2057 272.37 89.9006 272.69 89.4989C273.686 88.2559 274.684 86.9937 275.664 85.741C276.139 85.1452 277.111 84.8131 278.227 84.8186L278.452 84.8247L281.509 81.0012C281.983 80.3843 283.104 80.0407 284.281 80.0943ZM284.209 80.9761C283.725 80.9576 283.269 81.0195 282.901 81.1376C282.512 81.2628 282.299 81.4254 282.21 81.5401L282.2 81.5539L278.862 85.7281L278.413 85.7082C277.32 85.6594 276.603 85.9817 276.356 86.2921C275.471 87.4228 274.571 88.5605 273.671 89.6863L276.835 90.9421L275.478 91.8818C267.306 97.5385 251.467 105.764 227.252 107.131C216.711 107.719 204.678 106.992 191.067 104.257L169.245 141.141C185.907 141.714 203.57 140.581 220.631 136.37C245.086 130.353 268.457 118.053 285.909 95.384L286.322 94.8468L286.949 95.1067L287.889 95.498L287.903 95.5032C288.258 95.6578 288.862 95.7512 289.483 95.6664C290.103 95.5816 290.592 95.3418 290.866 94.9919L290.869 94.9884L293.842 91.2306L293.847 91.2254C294.029 90.9992 294.042 90.8826 294.043 90.8652C294.043 90.8637 294.05 90.847 294.006 90.7901C293.951 90.7197 293.84 90.6239 293.657 90.5206C293.478 90.4202 293.265 90.3326 293.045 90.2615L291.834 89.8703L296.458 84.0189L296.464 84.0111C296.466 84.0072 296.481 83.9855 296.498 83.9446C296.518 83.8979 296.537 83.8395 296.547 83.7744C296.566 83.6484 296.553 83.5097 296.477 83.3668C296.326 83.0863 295.738 82.4806 293.628 82.244L293.619 82.2432L293.609 82.2414L284.209 80.9761ZM156.702 93.0555C172.638 98.6572 176.441 99.7863 180.051 100.761C172.076 114.249 164.084 127.728 156.109 141.216C145.378 140.286 135.284 138.741 126.292 137.013L156.702 93.0555ZM127.792 136.396C136.263 137.988 145.669 139.4 155.632 140.285C159.525 133.701 163.423 127.119 167.319 120.538C171.115 114.128 174.909 107.718 178.7 101.306C175.332 100.368 170.875 98.9692 157.045 94.1126L127.792 136.396ZM104.887 68.1186C105.971 67.9634 106.539 68.1497 107.813 68.8942L107.781 68.8942C116.796 74.4116 139.246 85.3359 147.109 89.1085L115.528 134.761L114.608 134.603C105.06 132.92 94.2091 129.445 85.9752 126.386L85.7386 126.703C85.0079 127.721 83.5976 128.297 82.2148 128.193L81.9384 128.164L81.7588 128.133L66.8328 125.379C65.8065 125.186 64.9206 124.597 64.5147 123.798C64.1251 123.009 64.2149 122.008 64.7574 121.241L102.249 69.5463C102.791 68.7789 103.804 68.2362 104.887 68.1186ZM106.044 69.0212C105.757 68.9422 105.473 68.9275 105.012 68.9935L104.998 68.9961L104.982 68.9978C104.102 69.0934 103.342 69.5341 102.971 70.0576L102.965 70.0662L65.4734 121.76C65.1129 122.276 65.0716 122.925 65.3049 123.402C65.5602 123.901 66.1748 124.354 66.9926 124.51L81.9203 127.263L82.0775 127.289C83.2689 127.453 84.4648 126.96 85.02 126.188L85.0243 126.182L85.0295 126.175L85.6626 125.325L86.2836 125.556C94.6015 128.647 105.565 132.149 115.121 133.793L145.792 89.4557C137.227 85.3337 116.044 74.9893 107.319 69.649L106.933 69.4124C106.55 69.204 106.28 69.0864 106.044 69.0212Z" fill="black"/>
<defs>
<linearGradient id="paint0_linear_56_213" x1="86.6722" y1="79.5129" x2="89.7215" y2="161.202" gradientUnits="userSpaceOnUse">
<stop offset="0.216346" stop-color="#08EC72"/>
<stop offset="0.466346" stop-color="#1098EC"/>
<stop offset="0.620192" stop-color="#0093FC"/>
<stop offset="0.802885" stop-color="#C200FB"/>
<stop offset="1" stop-color="#534EFF"/>
</linearGradient>
<linearGradient id="paint1_linear_56_213" x1="86.6722" y1="79.5129" x2="89.7215" y2="161.202" gradientUnits="userSpaceOnUse">
<stop offset="0.216346" stop-color="#08EC72"/>
<stop offset="0.466346" stop-color="#1098EC"/>
<stop offset="0.620192" stop-color="#0093FC"/>
<stop offset="0.802885" stop-color="#C200FB"/>
<stop offset="1" stop-color="#534EFF"/>
</linearGradient>
<linearGradient id="paint2_linear_56_213" x1="86.6722" y1="79.5129" x2="89.7215" y2="161.202" gradientUnits="userSpaceOnUse">
<stop offset="0.216346" stop-color="#08EC72"/>
<stop offset="0.466346" stop-color="#1098EC"/>
<stop offset="0.620192" stop-color="#0093FC"/>
<stop offset="0.802885" stop-color="#C200FB"/>
<stop offset="1" stop-color="#534EFF"/>
</linearGradient>
<linearGradient id="paint3_linear_56_213" x1="86.6722" y1="79.5129" x2="89.7215" y2="161.202" gradientUnits="userSpaceOnUse">
<stop offset="0.216346" stop-color="#08EC72"/>
<stop offset="0.466346" stop-color="#1098EC"/>
<stop offset="0.620192" stop-color="#0093FC"/>
<stop offset="0.802885" stop-color="#C200FB"/>
<stop offset="1" stop-color="#534EFF"/>
</linearGradient>
<linearGradient id="paint4_linear_56_213" x1="86.6722" y1="79.5129" x2="89.7215" y2="161.202" gradientUnits="userSpaceOnUse">
<stop offset="0.216346" stop-color="#08EC72"/>
<stop offset="0.466346" stop-color="#1098EC"/>
<stop offset="0.620192" stop-color="#0093FC"/>
<stop offset="0.802885" stop-color="#C200FB"/>
<stop offset="1" stop-color="#534EFF"/>
</linearGradient>
<linearGradient id="paint5_linear_56_213" x1="86.6722" y1="79.5129" x2="89.7215" y2="161.202" gradientUnits="userSpaceOnUse">
<stop offset="0.216346" stop-color="#08EC72"/>
<stop offset="0.466346" stop-color="#1098EC"/>
<stop offset="0.620192" stop-color="#0093FC"/>
<stop offset="0.802885" stop-color="#C200FB"/>
<stop offset="1" stop-color="#534EFF"/>
</linearGradient>
<linearGradient id="paint6_linear_56_213" x1="86.6722" y1="79.5129" x2="89.7215" y2="161.202" gradientUnits="userSpaceOnUse">
<stop offset="0.216346" stop-color="#08EC72"/>
<stop offset="0.466346" stop-color="#1098EC"/>
<stop offset="0.620192" stop-color="#0093FC"/>
<stop offset="0.802885" stop-color="#C200FB"/>
<stop offset="1" stop-color="#534EFF"/>
</linearGradient>
<linearGradient id="paint7_linear_56_213" x1="86.6722" y1="79.5129" x2="89.7215" y2="161.202" gradientUnits="userSpaceOnUse">
<stop offset="0.216346" stop-color="#08EC72"/>
<stop offset="0.466346" stop-color="#1098EC"/>
<stop offset="0.620192" stop-color="#0093FC"/>
<stop offset="0.802885" stop-color="#C200FB"/>
<stop offset="1" stop-color="#534EFF"/>
</linearGradient>
</defs>
</svg>
