<svg width="181" height="150" viewBox="0 0 181 150" fill="none" xmlns="http://www.w3.org/2000/svg">
<path d="M86.7042 111.91V116.089L35.8727 145.446V141.252C35.8727 134.089 38.8878 127.599 44.9184 121.813C50.9644 116.012 56.4136 111.711 61.2963 108.895C66.1636 106.079 71.6125 104.089 77.6584 102.91C79.4186 102.573 80.9186 102.573 82.1737 102.956H82.189C82.3727 103.017 82.5565 103.079 82.7402 103.155L83.0308 103.293C85.4798 104.471 86.7042 107.349 86.7042 111.91Z" fill="white" stroke="black"/>
<path d="M74.0001 79.6754C74.0001 82.2316 73.495 84.8642 72.4848 87.5275C72.4083 87.7112 72.3472 87.8948 72.2554 88.0785C72.1788 88.2775 72.1024 88.4765 72.0106 88.6908C71.5208 89.8234 70.9389 90.9714 70.2654 92.1346C69.4848 93.4816 68.6586 94.7061 67.7861 95.8234C65.8575 98.303 63.6994 100.216 61.2963 101.609C57.9902 103.492 55.1584 103.874 52.7554 102.711C52.6023 102.65 52.4644 102.573 52.3113 102.497C49.8164 101.089 48.5768 98.3642 48.5768 94.354C48.5768 92.0734 48.9749 89.7469 49.8014 87.3744C50.3984 85.5836 51.2399 83.7469 52.3113 81.8948C53.3368 80.1346 54.4389 78.5734 55.6328 77.2112C57.3317 75.2214 59.23 73.6295 61.2963 72.4357C62.98 71.4561 64.5562 70.8897 66.0103 70.7214C67.2501 70.553 68.3981 70.7214 69.4848 71.1499L70.2654 71.5326C71.4899 72.2367 72.4084 73.2469 73.0207 74.5632C73.6788 75.9254 74.0001 77.6397 74.0001 79.6754Z" fill="white" stroke="black"/>
<path d="M99.4237 72.2984C99.4237 73.477 99.3473 74.6709 99.2096 75.8953C99.0259 77.4566 98.7196 79.0484 98.3064 80.6862C98.2911 80.7168 98.2911 80.7627 98.2757 80.7933C97.5411 83.6862 96.4848 86.6402 95.1378 89.7168C94.6021 90.7576 93.99 91.7525 93.3013 92.6862C92.6125 93.6351 91.8472 94.3545 91.0053 94.8443C89.7349 95.579 88.6176 95.6709 87.6686 95.1198C86.7043 94.5841 86.23 93.5892 86.23 92.1198C86.23 91.4004 86.7043 89.8392 87.6686 87.4668C88.5104 85.7678 89.0919 84.0841 89.4133 82.4464C89.7348 80.8086 89.888 79.2627 89.888 77.7933C89.888 76.3239 89.7348 75.0076 89.4133 73.7831C89.0919 72.5739 88.5104 71.6096 87.6686 70.8749C87.24 70.5076 86.8878 70.079 86.6276 69.5586C86.3674 69.0382 86.23 68.426 86.23 67.6913C86.23 66.1147 86.689 64.5535 87.5768 62.9923C88.4798 61.4464 89.6278 60.2678 91.0053 59.4719C91.8472 58.9821 92.6125 58.8137 93.3013 58.9668C93.99 59.1045 94.6021 59.3953 95.1378 59.8239C95.9644 60.6658 96.6841 61.6606 97.2963 62.778C97.679 63.4974 98.0155 64.2627 98.3064 65.0892C99.0564 67.2168 99.4237 69.6198 99.4237 72.2984Z" fill="white" stroke="black"/>
<path d="M118.48 61.2931C118.48 62.4564 118.449 63.635 118.358 64.8441C118.082 69.4054 117.24 74.2115 115.862 79.2931C115.067 82.2319 114.087 85.186 112.939 88.1248C111.592 91.6146 110 95.1043 108.163 98.6094C107.628 99.5278 107.077 100.324 106.495 101.028C105.914 101.732 105.24 102.298 104.505 102.727C103.128 103.523 101.965 103.676 101.016 103.186C100.051 102.711 99.5769 101.671 99.5769 100.094C99.5769 99.3748 99.7147 98.5941 99.9749 97.7676C100.235 96.9564 100.587 96.1146 101.016 95.2574C102.944 91.6758 104.505 88.0941 105.73 84.5278C106.189 83.1962 106.602 81.8492 106.969 80.5176C107.918 76.9666 108.546 73.5686 108.806 70.3544C108.914 69.1452 108.959 67.9513 108.959 66.788C108.959 62.5329 108.286 58.7523 106.969 55.4462C106.602 54.5278 106.174 53.6707 105.699 52.8595C104.49 50.7625 102.929 49.0329 101.016 47.6707C100.587 47.3186 100.235 46.9054 99.9749 46.4462C99.7147 45.987 99.5769 45.4054 99.5769 44.6707C99.5769 43.0941 100.036 41.5023 100.924 39.8799C101.827 38.2727 102.975 37.0635 104.352 36.2676C105.087 35.839 105.776 35.6248 106.419 35.6248C106.893 35.6248 107.337 35.7166 107.75 35.8697L108.163 36.0686C111.286 38.288 113.689 41.2574 115.357 44.9768C115.571 45.4207 115.755 45.8799 115.939 46.339C117.638 50.7166 118.48 55.6911 118.48 61.2931Z" fill="white" stroke="black"/>
<path d="M175.679 60.5279V64.7218L124.847 94.0789V89.8851C124.847 82.7218 127.862 76.232 133.893 70.431C139.939 64.6453 145.388 60.3442 150.27 57.5279C155.138 54.7116 160.587 52.7218 166.633 51.5432C168.454 51.1912 170 51.2065 171.27 51.6197L171.5 51.7269C174.286 52.7218 175.679 55.6606 175.679 60.5279Z" fill="white" stroke="black"/>
<path d="M162.974 28.3085C162.974 32.3187 161.735 36.4667 159.24 40.7677C158.49 42.0534 157.694 43.2473 156.837 44.334C154.908 46.8595 152.704 48.8187 150.27 50.2269C146.964 52.1248 144.133 52.5075 141.73 51.3442C141.577 51.283 141.439 51.2065 141.286 51.1299C138.791 49.7065 137.551 46.9973 137.551 42.9871C137.551 40.7065 137.949 38.3799 138.776 36.0075C139.372 34.2167 140.215 32.3799 141.286 30.5279C143.781 26.2422 146.765 23.0738 150.27 21.0687C153.408 19.2626 156.117 18.8187 158.459 19.783L159.24 20.1656C161.735 21.5891 162.974 24.2983 162.974 28.3085Z" fill="white" stroke="black"/>
<path d="M82.7402 103.155C82.5565 103.078 82.3727 103.017 82.189 102.956H82.1737C80.9186 102.573 79.4186 102.573 77.6584 102.91C71.6125 104.089 66.1637 106.078 61.2963 108.895C56.4137 111.711 50.9644 116.012 44.9184 121.813C38.8878 127.599 35.8727 134.089 35.8727 141.252V145.446L5.26038 130.14V125.946C5.26038 118.783 8.27554 112.293 14.3062 106.507C20.3521 100.706 25.8014 96.405 30.6841 93.5887C31.281 93.2366 31.8931 92.9152 32.5053 92.5938L52.3113 102.497C52.4644 102.573 52.6023 102.65 52.7553 102.711C55.1584 103.874 57.9902 103.492 61.2963 101.609C63.6994 100.216 65.8575 98.3029 67.7861 95.8233L82.7402 103.155Z" fill="url(#paint0_linear_129_428)" stroke="black"/>
<path d="M108.959 66.7882C108.959 67.9515 108.914 69.1454 108.806 70.3546C108.546 73.5689 107.918 76.9668 106.969 80.5178C106.602 81.8495 106.189 83.1964 105.73 84.528C104.505 88.0944 102.944 91.676 101.015 95.2576C100.587 96.1148 100.235 96.9566 99.9748 97.7678C99.7146 98.5944 99.5768 99.375 99.5768 100.094C99.5768 101.671 100.051 102.712 101.015 103.186L72.0105 88.6913C72.1024 88.477 72.1787 88.278 72.2553 88.079C72.3471 87.8954 72.4082 87.7117 72.4847 87.528L73.0665 87.8188L87.6685 95.1199C88.6175 95.6709 89.7349 95.5791 91.0053 94.8444C91.8471 94.3546 92.6124 93.6352 93.3012 92.6862C93.99 91.7525 94.6021 90.7576 95.1378 89.7168C96.4847 86.6403 97.541 83.6862 98.2757 80.7933C98.291 80.7627 98.291 80.7168 98.3063 80.6862C98.7196 79.0484 99.0258 77.4566 99.2095 75.8954C99.3473 74.6709 99.4236 73.477 99.4236 72.2984C99.4236 69.6199 99.0563 67.2168 98.3063 65.0893C98.0155 64.2627 97.6789 63.4974 97.2962 62.778C96.684 61.6607 95.9643 60.6658 95.1378 59.8239C94.6021 59.3954 93.99 59.1046 93.3012 58.9668L87.0255 55.8137L78.3471 51.4515C78.3471 47.2117 77.6735 43.4311 76.3572 40.1403C75.0255 36.8342 73.0512 34.2474 70.4032 32.3648C69.9746 32.0127 69.6228 31.5995 69.3626 31.1403C69.1024 30.6811 68.9646 30.0995 68.9646 29.3648C68.9646 27.7882 69.4236 26.1964 70.3114 24.5739C71.2144 22.9668 72.3623 21.7576 73.7398 20.9617C74.4745 20.5331 75.1634 20.3188 75.8063 20.3188C76.4491 20.3188 77.0153 20.4719 77.551 20.7627L107.75 35.8699C107.337 35.7168 106.893 35.625 106.419 35.625C105.776 35.625 105.087 35.8393 104.352 36.2678C102.975 37.0637 101.827 38.2729 100.924 39.8801C100.036 41.5025 99.5768 43.0944 99.5768 44.6709C99.5768 45.4056 99.7146 45.9872 99.9748 46.4464C100.235 46.9056 100.587 47.3188 101.015 47.6709C102.929 49.0331 104.49 50.7627 105.699 52.8597C106.174 53.6709 106.602 54.528 106.969 55.4464C108.286 58.7525 108.959 62.5331 108.959 66.7882Z" fill="url(#paint1_linear_129_428)" stroke="black"/>
<path d="M171.27 51.6202C170 51.2069 168.454 51.1916 166.633 51.5436C160.587 52.7222 155.138 54.712 150.27 57.5283C145.388 60.3446 139.939 64.6457 133.893 70.4314C127.862 76.2324 124.847 82.7222 124.847 89.8855V94.0793L112.939 88.1253C114.087 85.1865 115.066 82.2324 115.862 79.2936C117.24 74.212 118.082 69.4059 118.357 64.8446C118.449 63.6355 118.48 62.4569 118.48 61.2936C118.48 55.6916 117.638 50.7171 115.939 46.3395C115.755 45.8804 115.571 45.4212 115.357 44.9773C116.842 43.9365 118.281 43.0181 119.658 42.2222C120.255 41.8702 120.867 41.5487 121.48 41.2273L141.286 51.1304C141.439 51.2069 141.577 51.2834 141.73 51.3446C144.133 52.5079 146.964 52.1253 150.27 50.2273C152.704 48.8191 154.908 46.8599 156.837 44.3344L171.27 51.6202Z" fill="url(#paint2_linear_129_428)" stroke="black"/>
<path d="M158.459 19.7829C156.117 18.8186 153.408 19.2624 150.27 21.0686C146.765 23.0737 143.781 26.242 141.286 30.5277C140.215 32.3798 139.373 34.2165 138.776 36.0073C137.949 38.3798 137.551 40.7063 137.551 42.9869C137.551 46.9971 138.791 49.7063 141.286 51.1298L121.48 41.2267L111.454 36.2063L110.674 35.8237C108.179 34.4002 106.939 31.691 106.939 27.6808C106.939 23.6706 108.179 19.5226 110.674 15.2217C113.169 10.936 116.153 7.76761 119.658 5.7625C123.148 3.74209 126.133 3.43599 128.628 4.85946L158.459 19.7829Z" fill="url(#paint3_linear_129_428)" stroke="black"/>
<path d="M172.082 52.0176L171.5 51.7268" stroke="black"/>
<path d="M93.3012 58.9667C92.6124 58.8137 91.8471 58.982 91.0053 59.4718C89.6277 60.2678 88.4798 61.4463 87.5767 62.9923C86.689 64.5535 86.2299 66.1147 86.2299 67.6912C86.2299 68.4259 86.3674 69.0382 86.6276 69.5586C86.8878 70.079 87.24 70.5076 87.6685 70.8749C88.5104 71.6096 89.0919 72.5739 89.4133 73.7831C89.7347 75.0076 89.8879 76.3392 89.8879 77.7933C89.8879 79.2474 89.7347 80.8086 89.4133 82.4463C89.0919 84.0841 88.5104 85.7678 87.6685 87.4667C86.7043 89.8392 86.2299 91.4004 86.2299 92.1198C86.2299 93.5892 86.7043 94.5841 87.6685 95.1198L73.0665 87.8188L72.4847 87.528C73.4949 84.8647 74 82.2321 74 79.6759C74 77.6402 73.6787 75.9259 73.0206 74.5637C72.4083 73.2474 71.4898 72.2372 70.2653 71.5331L69.4847 71.1504L66.4235 69.6045L59.0156 65.9157C59.184 64.7218 59.2757 63.5892 59.2757 62.4872C59.2757 61.0331 59.1225 59.7014 58.801 58.477C58.4796 57.2678 57.8981 56.3035 57.0563 55.5688C56.6277 55.2014 56.2755 54.7729 56.0153 54.2525C55.7551 53.732 55.6177 53.1198 55.6177 52.3851C55.6177 50.8086 56.0767 49.2474 56.9645 47.6861C57.8675 46.1402 59.0155 44.9616 60.393 44.1657C61.2349 43.6759 62.0002 43.5076 62.689 43.6606C63.3777 43.7984 63.9898 44.0892 64.5255 44.5178L78.3471 51.4514L87.0255 55.8137L93.3012 58.9667Z" fill="url(#paint4_linear_129_428)" stroke="black"/>
<path d="M69.4847 71.1504C68.398 70.7065 67.25 70.5534 66.0102 70.7218C64.5562 70.8901 62.9799 71.4565 61.2963 72.4361C59.2299 73.6299 57.3317 75.2218 55.6327 77.2116C54.4388 78.5738 53.3368 80.135 52.3113 81.8953C51.2398 83.7473 50.3983 85.584 49.8014 87.3748C48.9748 89.7473 48.5767 92.0738 48.5767 94.3544C48.5767 98.3646 49.8164 101.089 52.3113 102.497L32.5053 92.5942L22.4798 87.5738L21.699 87.1912C19.2041 85.783 17.9645 83.0585 17.9645 79.0483C17.9645 75.0381 19.2041 70.8901 21.699 66.5891C24.1939 62.3034 27.1789 59.1504 30.684 57.1299C34.1738 55.1095 37.1582 54.8034 39.6531 56.2269L59.0156 65.9157L66.4235 69.6044L69.4847 71.1504Z" fill="url(#paint5_linear_129_428)" stroke="black"/>
<path d="M82.7401 103.156L83.0308 103.293" stroke="black"/>
<path d="M110.099 126.83L110.14 127.172C110.751 132.271 114.467 134.417 119.189 132.396L119.505 132.261L119.189 132.491C114.467 135.922 110.751 142.359 110.14 148.164L110.099 148.553L110.058 148.211C109.447 143.112 105.73 140.966 101.009 142.987L100.692 143.122L101.009 142.892C105.73 139.461 109.447 133.024 110.058 127.219L110.099 126.83Z" fill="white"/>
<path fill-rule="evenodd" clip-rule="evenodd" d="M110.14 127.075C110.751 132.174 114.467 134.32 119.189 132.299L119.505 132.164L119.189 132.394C114.467 135.825 110.751 142.262 110.14 148.067L110.099 148.457L110.058 148.114C109.447 143.015 105.73 140.869 101.009 142.89L100.692 143.025L101.009 142.795C105.73 139.364 109.447 132.927 110.058 127.122L110.099 126.733L110.14 127.075ZM110.099 127.599C109.346 133.148 105.871 139.166 101.442 142.592C105.871 140.905 109.346 142.911 110.099 147.59C110.852 142.042 114.326 136.023 118.755 132.597C114.326 134.284 110.852 132.278 110.099 127.599Z" fill="black"/>
<path d="M110.099 148.457L110.058 148.114C109.447 143.015 105.73 140.869 101.009 142.89L100.692 143.025C100.692 143.025 101.959 142.372 103.397 143.025C104.834 143.679 105.137 146.52 105.137 146.52L110.099 148.457Z" fill="url(#paint6_linear_129_428)"/>
<path d="M100.692 143.025L101.009 142.795C105.73 139.364 109.447 132.927 110.058 127.122L110.099 126.733L104.048 124.312L104.007 124.702C103.396 130.506 99.6796 136.944 94.9581 140.375L94.6414 140.605L100.316 142.837L100.692 143.025Z" fill="url(#paint7_linear_129_428)"/>
<path d="M110.266 126.604L110.32 127.053C110.621 129.564 111.681 131.315 113.213 132.2C114.746 133.085 116.792 133.127 119.117 132.132L119.434 131.997L119.612 132.31L119.295 132.541C114.615 135.942 110.926 142.333 110.32 148.086L110.254 148.712L104.968 146.649L104.957 146.54L104.957 146.539C104.957 146.539 104.956 146.539 104.956 146.538C104.956 146.537 104.956 146.535 104.956 146.533C104.955 146.528 104.954 146.52 104.953 146.51C104.951 146.49 104.947 146.461 104.942 146.422C104.931 146.346 104.914 146.234 104.889 146.099C104.839 145.828 104.758 145.46 104.633 145.074C104.508 144.686 104.341 144.286 104.122 143.945C103.903 143.604 103.638 143.335 103.321 143.191C102.643 142.883 102.005 142.882 101.535 142.96C101.299 142.998 101.107 143.056 100.974 143.104C100.958 143.11 100.943 143.116 100.929 143.122L100.686 143.225L100.241 143.003L94.2668 140.653L94.8514 140.228C99.5312 136.827 103.221 130.436 103.826 124.683L103.893 124.055L110.266 126.604ZM106.984 142.989C105.763 142.284 104.215 142.114 102.461 142.577C102.778 142.615 103.12 142.701 103.472 142.86C103.874 143.043 104.186 143.374 104.428 143.749C104.67 144.125 104.848 144.557 104.979 144.962C105.109 145.368 105.194 145.752 105.246 146.033C105.272 146.174 105.29 146.291 105.301 146.372C105.302 146.378 105.303 146.384 105.304 146.39L109.882 148.177L109.877 148.136C109.577 145.625 108.516 143.874 106.984 142.989ZM110.121 128.589C109.176 133.582 106.162 138.801 102.311 142.117C104.19 141.602 105.885 141.765 107.24 142.547C108.594 143.329 109.582 144.715 110.076 146.6C111.022 141.607 114.035 136.388 117.886 133.073C116.007 133.587 114.312 133.424 112.958 132.642C111.603 131.86 110.615 130.474 110.121 128.589ZM104.269 124.633L104.196 124.642L104.188 124.721C103.571 130.577 99.8279 137.06 95.0648 140.522L95.0159 140.557L100.382 142.668L100.39 142.671L100.397 142.675L100.674 142.814L100.902 142.648C105.582 139.247 109.272 132.857 109.877 127.103L109.904 126.85L104.265 124.594L104.269 124.633Z" fill="black"/>
<path d="M40.0995 16.8296L40.1404 17.1717C40.7513 22.271 44.4678 24.4168 49.1894 22.3961L49.5062 22.2606L49.1894 22.4908C44.4678 25.9221 40.7513 32.3594 40.1404 38.164L40.0995 38.5534L40.0585 38.2113C39.4476 33.112 35.7311 30.9663 31.0095 32.9869L30.6927 33.1225L31.0095 32.8923C35.7311 29.461 39.4476 23.0237 40.0585 17.2191L40.0995 16.8296Z" fill="white"/>
<path fill-rule="evenodd" clip-rule="evenodd" d="M40.1405 17.0747C40.7513 22.1739 44.4679 24.3198 49.1894 22.2992L49.5062 22.1635L49.1894 22.3939C44.4679 25.8252 40.7513 32.2623 40.1405 38.0669L40.0994 38.4565L40.0584 38.1143C39.4476 33.0151 35.731 30.8694 31.0095 32.89L30.6928 33.0254L31.0095 32.7953C35.731 29.3641 39.4476 22.9267 40.0584 17.1221L40.0994 16.7327L40.1405 17.0747ZM40.0994 17.5987C39.3463 23.1475 35.8717 29.1658 31.4428 32.5924C35.8716 30.905 39.3463 32.9111 40.0994 37.5903C40.8526 32.0416 44.3272 26.0233 48.756 22.5967C44.3272 24.284 40.8525 22.2779 40.0994 17.5987Z" fill="black"/>
<path d="M40.0994 38.4565L40.0584 38.1143C39.4476 33.0151 35.731 30.8694 31.0095 32.89L30.6928 33.0254C30.6928 33.0254 31.9597 32.3722 33.3973 33.0254C34.8348 33.6786 35.1379 36.5203 35.1379 36.5203L40.0994 38.4565Z" fill="url(#paint8_linear_129_428)"/>
<path d="M30.6928 33.0254L31.0095 32.7953C35.731 29.3641 39.4476 22.9267 40.0584 17.1221L40.0994 16.7327L34.0487 14.3123L34.0077 14.7018C33.3969 20.5064 29.6803 26.9438 24.9588 30.375L24.6421 30.6051L30.3163 32.8372L30.6928 33.0254Z" fill="url(#paint9_linear_129_428)"/>
<path d="M40.2669 16.6041L40.3207 17.0531C40.6214 19.5639 41.6818 21.315 43.2141 22.1998C44.7465 23.0845 46.7931 23.1273 49.1179 22.1324L49.4347 21.9967L49.6129 22.3104L49.2961 22.5407C44.6162 25.9418 40.9265 32.3326 40.321 38.086L40.2551 38.7122L34.9691 36.6493L34.9574 36.5396L34.9573 36.5394C34.9572 36.5392 34.9572 36.5387 34.9572 36.5382C34.957 36.5371 34.9568 36.5352 34.9566 36.5328C34.956 36.5279 34.9552 36.5203 34.954 36.5103C34.9515 36.4904 34.9476 36.4606 34.9423 36.4223C34.9315 36.3455 34.9145 36.2344 34.8896 36.0989C34.8396 35.8276 34.7585 35.4601 34.6338 35.0736C34.5089 34.6863 34.3421 34.2858 34.1231 33.9454C33.9035 33.6042 33.6387 33.3346 33.3222 33.1907C32.644 32.8826 32.0061 32.8822 31.5354 32.9597C31.3001 32.9984 31.1076 33.0564 30.9749 33.1043C30.9588 33.1101 30.9437 33.1161 30.9294 33.1216L30.6869 33.2254L30.2415 33.0028L24.2676 30.6529L24.8521 30.2282C29.532 26.8272 33.2217 20.4362 33.8271 14.6828L33.8933 14.0547L40.2669 16.6041ZM36.9847 32.9894C35.7637 32.2845 34.216 32.1141 32.4613 32.5774C32.779 32.6148 33.1208 32.7005 33.4724 32.8603C33.8745 33.043 34.1867 33.3735 34.4283 33.7489C34.6703 34.1249 34.8488 34.5574 34.9794 34.9622C35.1102 35.3678 35.1947 35.7515 35.2466 36.0334C35.2725 36.1744 35.2904 36.2905 35.3018 36.3717C35.3027 36.3781 35.3034 36.3844 35.3042 36.3904L39.8831 38.1773L39.8782 38.136C39.5774 35.6252 38.5171 33.8741 36.9847 32.9894ZM40.1219 18.5894C39.1765 23.5822 36.1632 28.8015 32.312 32.1166C34.1911 31.6019 35.8856 31.7646 37.2402 32.5467C38.5949 33.3289 39.583 34.7149 40.0769 36.5996C41.0223 31.6069 44.0356 26.3876 47.8867 23.0725C46.0076 23.5872 44.3132 23.4245 42.9585 22.6423C41.6039 21.8602 40.6157 20.4741 40.1219 18.5894ZM34.2699 14.6328L34.1966 14.6416L34.1883 14.7209C33.572 20.5766 29.8286 27.0605 25.0655 30.522L25.0166 30.5575L30.3827 32.6684L30.3903 32.6713L30.3975 32.6749L30.6752 32.8137L30.9028 32.6485C35.5827 29.2474 39.2724 22.8565 39.8779 17.1031L39.9044 16.8502L34.2653 14.5944L34.2699 14.6328Z" fill="black"/>
<path d="M150.099 96.8296L150.14 97.1717C150.751 102.271 154.468 104.417 159.189 102.396L159.506 102.261L159.189 102.491C154.468 105.922 150.751 112.359 150.14 118.164L150.099 118.553L150.058 118.211C149.448 113.112 145.731 110.966 141.01 112.987L140.693 113.122L141.01 112.892C145.731 109.461 149.448 103.024 150.058 97.2191L150.099 96.8296Z" fill="white"/>
<path fill-rule="evenodd" clip-rule="evenodd" d="M150.14 97.0747C150.751 102.174 154.468 104.32 159.189 102.299L159.506 102.164L159.189 102.394C154.468 105.825 150.751 112.262 150.14 118.067L150.099 118.457L150.058 118.114C149.448 113.015 145.731 110.869 141.01 112.89L140.693 113.025L141.01 112.795C145.731 109.364 149.448 102.927 150.058 97.1221L150.099 96.7327L150.14 97.0747ZM150.099 97.5987C149.346 103.148 145.872 109.166 141.443 112.592C145.872 110.905 149.346 112.911 150.099 117.59C150.853 112.042 154.327 106.023 158.756 102.597C154.327 104.284 150.853 102.278 150.099 97.5987Z" fill="black"/>
<path d="M150.099 118.457L150.058 118.114C149.448 113.015 145.731 110.869 141.01 112.89L140.693 113.025C140.693 113.025 141.96 112.372 143.397 113.025C144.835 113.679 145.138 116.52 145.138 116.52L150.099 118.457Z" fill="url(#paint10_linear_129_428)"/>
<path d="M140.693 113.025L141.01 112.795C145.731 109.364 149.448 102.927 150.058 97.1221L150.099 96.7327L144.049 94.3123L144.008 94.7018C143.397 100.506 139.68 106.944 134.959 110.375L134.642 110.605L140.316 112.837L140.693 113.025Z" fill="url(#paint11_linear_129_428)"/>
<path d="M150.267 96.6041L150.321 97.0531C150.621 99.5639 151.682 101.315 153.214 102.2C154.747 103.085 156.793 103.127 159.118 102.132L159.435 101.997L159.613 102.31L159.296 102.541C154.616 105.942 150.926 112.333 150.321 118.086L150.255 118.712L144.969 116.649L144.957 116.54L144.957 116.539C144.957 116.539 144.957 116.539 144.957 116.538C144.957 116.537 144.957 116.535 144.957 116.533C144.956 116.528 144.955 116.52 144.954 116.51C144.952 116.49 144.948 116.461 144.942 116.422C144.931 116.346 144.914 116.234 144.89 116.099C144.84 115.828 144.758 115.46 144.634 115.074C144.509 114.686 144.342 114.286 144.123 113.945C143.903 113.604 143.639 113.335 143.322 113.191C142.644 112.883 142.006 112.882 141.535 112.96C141.3 112.998 141.108 113.056 140.975 113.104C140.959 113.11 140.944 113.116 140.929 113.122L140.687 113.225L140.241 113.003L134.268 110.653L134.852 110.228C139.532 106.827 143.222 100.436 143.827 94.6828L143.893 94.0547L150.267 96.6041ZM146.985 112.989C145.764 112.284 144.216 112.114 142.461 112.577C142.779 112.615 143.121 112.701 143.472 112.86C143.875 113.043 144.187 113.374 144.428 113.749C144.67 114.125 144.849 114.557 144.979 114.962C145.11 115.368 145.195 115.752 145.247 116.033C145.273 116.174 145.29 116.291 145.302 116.372C145.303 116.378 145.303 116.384 145.304 116.39L149.883 118.177L149.878 118.136C149.577 115.625 148.517 113.874 146.985 112.989ZM150.122 98.5894C149.177 103.582 146.163 108.801 142.312 112.117C144.191 111.602 145.886 111.765 147.24 112.547C148.595 113.329 149.583 114.715 150.077 116.6C151.022 111.607 154.036 106.388 157.887 103.073C156.008 103.587 154.313 103.424 152.959 102.642C151.604 101.86 150.616 100.474 150.122 98.5894ZM144.27 94.6328L144.197 94.6416L144.188 94.7209C143.572 100.577 139.829 107.06 135.066 110.522L135.017 110.557L140.383 112.668L140.39 112.671L140.397 112.675L140.675 112.814L140.903 112.648C145.583 109.247 149.272 102.857 149.878 97.1031L149.904 96.8502L144.265 94.5944L144.27 94.6328Z" fill="black"/>
<defs>
<linearGradient id="paint0_linear_129_428" x1="11.7109" y1="98.268" x2="15.1427" y2="148.428" gradientUnits="userSpaceOnUse">
<stop stop-color="#534EFF"/>
<stop offset="0.272808" stop-color="#C200FB"/>
<stop offset="0.460443" stop-color="#EC0868"/>
<stop offset="0.667914" stop-color="#FC2F00"/>
<stop offset="0.826923" stop-color="#EC7D10"/>
<stop offset="1" stop-color="#FFBC0A"/>
</linearGradient>
<linearGradient id="paint1_linear_129_428" x1="72.2943" y1="29.2156" x2="88.0347" y2="104.959" gradientUnits="userSpaceOnUse">
<stop stop-color="#534EFF"/>
<stop offset="0.272808" stop-color="#C200FB"/>
<stop offset="0.460443" stop-color="#EC0868"/>
<stop offset="0.667914" stop-color="#FC2F00"/>
<stop offset="0.826923" stop-color="#EC7D10"/>
<stop offset="1" stop-color="#FFBC0A"/>
</linearGradient>
<linearGradient id="paint2_linear_129_428" x1="117.795" y1="46.9015" x2="122.338" y2="96.8832" gradientUnits="userSpaceOnUse">
<stop stop-color="#534EFF"/>
<stop offset="0.272808" stop-color="#C200FB"/>
<stop offset="0.460443" stop-color="#EC0868"/>
<stop offset="0.667914" stop-color="#FC2F00"/>
<stop offset="0.826923" stop-color="#EC7D10"/>
<stop offset="1" stop-color="#FFBC0A"/>
</linearGradient>
<linearGradient id="paint3_linear_129_428" x1="111.228" y1="9.04181" x2="115.32" y2="53.6238" gradientUnits="userSpaceOnUse">
<stop stop-color="#534EFF"/>
<stop offset="0.272808" stop-color="#C200FB"/>
<stop offset="0.460443" stop-color="#EC0868"/>
<stop offset="0.667914" stop-color="#FC2F00"/>
<stop offset="0.826923" stop-color="#EC7D10"/>
<stop offset="1" stop-color="#FFBC0A"/>
</linearGradient>
<linearGradient id="paint4_linear_129_428" x1="58.755" y1="49.1365" x2="65.3653" y2="97.3487" gradientUnits="userSpaceOnUse">
<stop stop-color="#534EFF"/>
<stop offset="0.272808" stop-color="#C200FB"/>
<stop offset="0.460443" stop-color="#EC0868"/>
<stop offset="0.667914" stop-color="#FC2F00"/>
<stop offset="0.826923" stop-color="#EC7D10"/>
<stop offset="1" stop-color="#FFBC0A"/>
</linearGradient>
<linearGradient id="paint5_linear_129_428" x1="22.2537" y1="60.4092" x2="26.3459" y2="104.991" gradientUnits="userSpaceOnUse">
<stop stop-color="#534EFF"/>
<stop offset="0.272808" stop-color="#C200FB"/>
<stop offset="0.460443" stop-color="#EC0868"/>
<stop offset="0.667914" stop-color="#FC2F00"/>
<stop offset="0.826923" stop-color="#EC7D10"/>
<stop offset="1" stop-color="#FFBC0A"/>
</linearGradient>
<linearGradient id="paint6_linear_129_428" x1="96.7114" y1="126.904" x2="98.9325" y2="149.71" gradientUnits="userSpaceOnUse">
<stop offset="0.216346" stop-color="#08EC72"/>
<stop offset="0.466346" stop-color="#1098EC"/>
<stop offset="0.620192" stop-color="#0093FC"/>
<stop offset="0.802885" stop-color="#C200FB"/>
<stop offset="1" stop-color="#534EFF"/>
</linearGradient>
<linearGradient id="paint7_linear_129_428" x1="96.7114" y1="126.904" x2="98.9325" y2="149.71" gradientUnits="userSpaceOnUse">
<stop offset="0.216346" stop-color="#08EC72"/>
<stop offset="0.466346" stop-color="#1098EC"/>
<stop offset="0.620192" stop-color="#0093FC"/>
<stop offset="0.802885" stop-color="#C200FB"/>
<stop offset="1" stop-color="#534EFF"/>
</linearGradient>
<linearGradient id="paint8_linear_129_428" x1="26.7121" y1="16.9044" x2="28.9332" y2="39.7097" gradientUnits="userSpaceOnUse">
<stop offset="0.216346" stop-color="#08EC72"/>
<stop offset="0.466346" stop-color="#1098EC"/>
<stop offset="0.620192" stop-color="#0093FC"/>
<stop offset="0.802885" stop-color="#C200FB"/>
<stop offset="1" stop-color="#534EFF"/>
</linearGradient>
<linearGradient id="paint9_linear_129_428" x1="26.7121" y1="16.9044" x2="28.9332" y2="39.7097" gradientUnits="userSpaceOnUse">
<stop offset="0.216346" stop-color="#08EC72"/>
<stop offset="0.466346" stop-color="#1098EC"/>
<stop offset="0.620192" stop-color="#0093FC"/>
<stop offset="0.802885" stop-color="#C200FB"/>
<stop offset="1" stop-color="#534EFF"/>
</linearGradient>
<linearGradient id="paint10_linear_129_428" x1="136.712" y1="96.9044" x2="138.933" y2="119.71" gradientUnits="userSpaceOnUse">
<stop offset="0.216346" stop-color="#08EC72"/>
<stop offset="0.466346" stop-color="#1098EC"/>
<stop offset="0.620192" stop-color="#0093FC"/>
<stop offset="0.802885" stop-color="#C200FB"/>
<stop offset="1" stop-color="#534EFF"/>
</linearGradient>
<linearGradient id="paint11_linear_129_428" x1="136.712" y1="96.9044" x2="138.933" y2="119.71" gradientUnits="userSpaceOnUse">
<stop offset="0.216346" stop-color="#08EC72"/>
<stop offset="0.466346" stop-color="#1098EC"/>
<stop offset="0.620192" stop-color="#0093FC"/>
<stop offset="0.802885" stop-color="#C200FB"/>
<stop offset="1" stop-color="#534EFF"/>
</linearGradient>
</defs>
</svg>
