<svg width="153" height="157" viewBox="0 0 153 157" fill="none" xmlns="http://www.w3.org/2000/svg">
<path d="M121.115 11.9992V18.5808V20.7971L111.444 12.9394L121.115 11.9992Z" fill="url(#paint0_linear_56_219)"/>
<path d="M40.7988 70.3614V76.943V79.1592L50.4698 71.3016L40.7988 70.3614Z" fill="url(#paint1_linear_56_219)"/>
<path d="M34.7793 139.295L34.2799 145.858L34.1117 148.067L44.3511 140.966L34.7793 139.295Z" fill="url(#paint2_linear_56_219)"/>
<path d="M114.77 76.1411V82.7228V84.939L105.099 77.0813L114.77 76.1411Z" fill="url(#paint3_linear_56_219)"/>
<path d="M111.65 79.3114C112.669 79.7248 113.435 80.4301 113.923 81.2749C114.995 83.131 114.731 85.6609 112.891 87.2491L79.6225 116.856L62.9652 131.348L39.7073 151.578C36.9083 154.004 32.8547 150.873 34.5087 147.586L45.678 125.257L54.3635 107.942L61.0729 94.5106C61.9536 92.7676 61.1695 90.6565 59.3832 89.9171L42.5024 82.7114C40.1367 81.7427 39.7068 78.5823 41.74 76.9794L63.1718 59.177L80.3417 45.399L115.457 16.8172C118.336 14.51 122.251 17.7726 120.499 20.9905L102.856 54.6447L95.4322 68.3633C94.4672 70.1214 95.249 72.2996 97.0851 73.0567L111.65 79.3114Z" fill="url(#paint4_linear_56_219)"/>
<path d="M114.157 74.0957V80.9555L114.195 83.6914C114.224 84.9421 113.729 86.2282 112.652 87.1614L112.651 87.163L39.2209 151.284C37.7221 152.588 35.8104 151.994 34.899 150.671C34.899 150.671 34.574 150.065 34.574 149.274C34.574 148.363 35.1927 140.493 35.1927 140.493L34.2781 140.338C34.2781 140.338 33.7915 146.622 33.7915 147.178C33.7915 147.735 33.4999 149.982 34.1724 151.029L34.1685 151.175L34.2734 151.177C35.4425 152.827 37.8425 153.554 39.7377 151.904L113.167 87.7835C114.715 86.4413 115.251 84.4581 114.874 82.6866V74.0957H114.157Z" fill="black"/>
<path d="M103.147 54.9697L95.6667 68.679L95.6659 68.6814C94.8103 70.2281 95.4559 72.1419 97.0196 72.8126L111.968 79.1402L111.665 79.8935L96.7134 73.5651L96.7118 73.5643C94.7037 72.703 93.8854 70.2466 94.9736 68.2797L102.452 54.5728C102.452 54.5728 120.218 21.7796 120.451 20.7865C120.683 19.7933 120.69 16.9946 120.69 16.9946L120.455 10.4535L40.8644 69.2868V77.3105L40.9185 79.6806C40.9522 80.7536 41.5522 81.7861 42.6423 82.2507L59.8454 89.5416L59.8477 89.5424C61.8039 90.3845 62.6235 92.7641 61.6303 94.7125L54.8544 108.137L54.5016 107.95L54.1473 107.763L60.924 94.3386L60.9247 94.3371C61.7081 92.8018 61.0575 90.947 59.5393 90.2934L42.3377 83.0032C40.7368 82.3212 39.9728 80.7078 40.1479 79.1537V69.2868L119.931 9.36097C120.233 9.1337 120.656 9.158 120.93 9.41848C121.084 9.5645 121.171 9.76718 121.172 9.97932L121.319 16.9946C121.319 16.9946 121.311 20.3925 121.137 21.1377C120.96 21.8985 103.147 54.9697 103.147 54.9697Z" fill="black"/>
<path d="M112.452 71.0874C115.709 72.472 116.364 76.7921 113.686 79.0536L79.6064 108.028L62.9461 122.211L39.684 142.009C36.8846 144.383 32.8359 141.173 34.4918 137.916L45.6738 115.786L54.3691 98.6264L61.0862 85.3154C61.9679 83.5882 61.186 81.4608 59.4013 80.687L41.7317 73.1395C39.3683 72.1251 38.9412 68.9546 40.9746 67.3895L63.214 50.0008L80.386 36.5421L116.159 8.55637C119.038 6.30275 122.948 9.64198 121.194 12.8284L102.88 46.2229L95.4485 59.808C94.4825 61.5488 95.262 63.7431 97.0964 64.5357L112.452 71.0874Z" fill="white"/>
<path d="M116.159 8.55611C119.038 6.30281 122.948 9.64218 121.194 12.8285L102.88 46.223L95.4486 59.8078C94.4826 61.5485 95.262 63.7433 97.0963 64.5359L112.452 71.0876C115.709 72.4723 116.364 76.7919 113.686 79.0533L39.6844 142.009L39.552 142.116C36.7596 144.283 32.8615 141.122 34.4914 137.916L45.6735 115.786L54.369 98.6268L61.0859 85.3155C61.9675 83.5883 61.1858 81.4612 59.4011 80.6873L41.7319 73.1392C39.3685 72.1247 38.9414 68.9545 40.9748 67.3894L63.2139 50.001L116.159 8.55611ZM120.49 12.4406C121.78 10.0968 119.026 7.6356 116.863 9.04185L116.655 9.19051L63.7106 50.6348L63.7095 50.6348L41.4704 68.0232L41.4658 68.0275C39.9305 69.2092 40.2374 71.6224 42.0493 72.4001L59.7175 79.947L59.7213 79.9488C61.9234 80.9037 62.8982 83.5303 61.8044 85.6778L55.0876 98.9891L55.0876 98.9902L46.3921 116.149L35.2105 138.278L35.2093 138.281C33.9519 140.755 37.0344 143.201 39.1636 141.396L79.0851 107.415L113.165 78.4402L113.167 78.4392C115.382 76.5686 114.847 72.9803 112.137 71.8279L112.136 71.8278L96.7811 65.2762L96.7773 65.2744C94.5195 64.2989 93.541 61.5872 94.745 59.4177L102.174 45.8367L120.488 12.4417L120.49 12.4406Z" fill="black"/>
<defs>
<linearGradient id="paint0_linear_56_219" x1="107.731" y1="14.8442" x2="123.171" y2="21.6532" gradientUnits="userSpaceOnUse">
<stop offset="1" stop-color="#FFBC0A"/>
</linearGradient>
<linearGradient id="paint1_linear_56_219" x1="41.604" y1="71.3059" x2="42.3631" y2="79.6254" gradientUnits="userSpaceOnUse">
<stop stop-color="#534EFF"/>
<stop offset="0.272808" stop-color="#C200FB"/>
<stop offset="0.460443" stop-color="#EC0868"/>
<stop offset="0.667914" stop-color="#FC2F00"/>
<stop offset="0.826923" stop-color="#EC7D10"/>
<stop offset="1" stop-color="#FFBC0A"/>
</linearGradient>
<linearGradient id="paint2_linear_56_219" x1="35.5105" y1="140.298" x2="35.6361" y2="148.651" gradientUnits="userSpaceOnUse">
<stop stop-color="#534EFF"/>
</linearGradient>
<linearGradient id="paint3_linear_56_219" x1="113.964" y1="77.0857" x2="113.205" y2="85.4052" gradientUnits="userSpaceOnUse">
<stop stop-color="#534EFF"/>
<stop offset="0.272808" stop-color="#C200FB"/>
<stop offset="0.460443" stop-color="#EC0868"/>
<stop offset="0.667914" stop-color="#FC2F00"/>
<stop offset="0.826923" stop-color="#EC7D10"/>
<stop offset="1" stop-color="#FFBC0A"/>
</linearGradient>
<linearGradient id="paint4_linear_56_219" x1="104.101" y1="23.6832" x2="29.8559" y2="145.07" gradientUnits="userSpaceOnUse">
<stop stop-color="#FFBC0A"/>
<stop offset="0.173077" stop-color="#EC7D10"/>
<stop offset="0.332086" stop-color="#FC2F00"/>
<stop offset="0.539557" stop-color="#EC0868"/>
<stop offset="0.727192" stop-color="#C200FB"/>
<stop offset="1" stop-color="#534EFF"/>
</linearGradient>
</defs>
</svg>
