<svg width="50" height="50" viewBox="0 0 50 50" fill="none" xmlns="http://www.w3.org/2000/svg">
<path d="M25 50L25.2518 48.0259C26.769 36.133 36.133 26.769 48.0259 25.2518L50 25L48.0259 24.7482C36.133 23.231 26.769 13.867 25.2518 1.97406L25 0L24.7482 1.97406C23.231 13.867 13.867 23.231 1.97406 24.7482L0 25L1.97406 25.2518C13.867 26.769 23.231 36.133 24.7482 48.0259L25 50Z" fill="url(#paint0_linear_253_963)"/>
<path d="M25.252 48.026C26.7692 36.1331 36.1331 26.7692 48.026 25.252L50 25L48.026 24.748C36.1331 23.2308 26.7692 13.8669 25.252 1.974L25 0L24.748 1.974C23.2308 13.8669 13.8669 23.2308 1.974 24.748L0 25L1.974 25.252C13.8669 26.7692 23.2308 36.1331 24.748 48.026L25 50L25.252 48.026ZM25 44.9553C22.613 35.1037 14.8963 27.387 5.04465 25C14.896 22.613 22.6128 14.8967 25 5.04544C27.3872 14.8966 35.1038 22.6129 44.955 25C35.1035 27.3871 27.387 35.1039 25 44.9553Z" fill="black"/>
<defs>
<linearGradient id="paint0_linear_253_963" x1="4.1627" y1="44.632" x2="8.89677" y2="-2.56822" gradientUnits="userSpaceOnUse">
<stop offset="0.216346" stop-color="#08EC72"/>
<stop offset="0.466346" stop-color="#1098EC"/>
<stop offset="0.620192" stop-color="#0093FC"/>
<stop offset="0.802885" stop-color="#C200FB"/>
<stop offset="1" stop-color="#534EFF"/>
</linearGradient>
</defs>
</svg>
