<svg width="155" height="150" viewBox="0 0 155 150" fill="none" xmlns="http://www.w3.org/2000/svg">
<g clip-path="url(#clip0_129_370)">
<path d="M107.849 53.6882C108.399 54.0596 108.99 54.3485 109.637 54.5824L107.849 53.6882ZM130.243 78.4899L129.528 78.1323C126.639 76.8255 123.214 77.3207 119.266 79.5904C114.988 82.0664 111.315 85.918 108.275 91.1728C105.222 96.4275 103.708 101.517 103.708 106.428C103.708 111.339 105.222 114.654 108.275 116.401C111.315 118.134 114.988 117.763 119.266 115.3C123.544 112.824 127.203 108.959 130.243 103.704C133.297 98.4496 134.824 93.3737 134.824 88.4629C134.824 83.5521 133.297 80.2231 130.243 78.4899Z" fill="white" stroke="black"/>
<path d="M52.5647 124.902C50.3638 129.304 49.2493 133.623 49.2493 137.86C49.2493 142.771 50.7763 146.1 53.8301 147.833L26.3186 134.077C23.2648 132.344 21.7378 129.015 21.7378 124.104C21.7378 119.867 22.8522 115.548 25.0532 111.146C27.2541 106.758 30.0463 103.058 33.4164 100.073L52.5922 109.661L60.928 113.829C57.5578 116.814 54.7657 120.514 52.5647 124.902Z" fill="url(#paint0_linear_129_370)" stroke="black"/>
<path d="M134.824 25.9839C134.824 30.8948 133.297 35.9706 130.244 41.2254C127.204 46.4801 123.545 50.3455 119.267 52.8077C115.566 54.9536 112.361 55.5314 109.637 54.5822L107.849 53.6881C106.102 52.5326 104.878 50.6756 104.19 48.1308L100.724 50.1254L79.7874 62.2167C79.0721 65.7519 77.7239 69.2321 75.7568 72.6298C73.776 76.0413 71.4239 78.9437 68.7002 81.3372V109.344C71.1488 108.684 73.3083 108.753 75.1378 109.55L75.2067 109.592C75.867 109.881 76.4857 110.266 77.0635 110.761C79.2644 112.618 80.3651 115.658 80.3651 119.895C80.3651 124.806 78.8519 129.895 75.7981 135.15C72.758 140.405 69.0853 144.256 64.8072 146.732C60.5292 149.195 56.8701 149.566 53.8301 147.833C50.7763 146.1 49.2493 142.771 49.2493 137.86C49.2493 133.623 50.3638 129.304 52.5647 124.902C54.7656 120.514 57.5578 116.813 60.9279 113.828V85.8216C58.5069 86.4681 56.3888 86.4131 54.573 85.6428L53.6239 85.1751C53.2525 84.9413 52.9086 84.6936 52.5647 84.4048C50.3638 82.5615 49.2493 79.549 49.2493 75.381C49.2493 70.4702 50.7763 65.3943 53.8301 60.1396C56.8701 54.8849 60.5292 51.0195 64.8072 48.5434C68.4387 46.4526 71.6162 45.8886 74.3398 46.8377C77.0635 47.8006 78.8795 49.9465 79.7874 53.2892L92.4427 45.9849L104.19 39.2033C105.098 34.8152 106.914 30.5646 109.637 26.4654C112.361 22.3662 115.566 19.2436 119.267 17.1115C123.242 14.8005 126.695 14.3328 129.597 15.6946L130.244 16.011C133.297 17.7442 134.824 21.0731 134.824 25.9839Z" fill="white" stroke="black"/>
<path d="M46.8286 33.082L48.5894 33.9624C48.0529 33.6048 47.4614 33.3021 46.8286 33.082Z" stroke="black"/>
<path d="M104.19 39.2033L92.4423 45.9849L79.7871 53.2892C78.8792 49.9466 77.0632 47.8007 74.3395 46.8378L55.7417 37.5388L76.6783 25.4475L96.6104 35.4067L104.19 39.2033Z" fill="url(#paint1_linear_129_370)" stroke="black"/>
<path d="M129.597 15.6947C126.695 14.3329 123.242 14.8006 119.267 17.1115C115.566 19.2437 112.361 22.3662 109.638 26.4655C106.914 30.5647 105.098 34.8152 104.191 39.2033L96.6111 35.4067L76.679 25.4475C77.5868 21.0594 79.4025 16.8089 82.1261 12.7097C84.8498 8.61047 88.0549 5.48792 91.7552 3.35578C96.0332 0.879734 99.6923 0.522069 102.732 2.2553L129.597 15.6947Z" fill="url(#paint2_linear_129_370)" stroke="black"/>
<path d="M107.849 53.6882L100.723 50.1255" stroke="black"/>
<path d="M27.061 71.8869L26.5106 71.6118" stroke="black"/>
<path d="M74.3399 47.2427C71.6162 46.2935 68.4388 46.8575 64.8073 48.9484C60.5292 51.4244 56.8702 55.2898 53.8301 60.5445C50.7763 65.7992 49.2493 70.8751 49.2493 75.7859C49.2493 79.9539 50.3638 82.9665 52.5647 84.8097C52.9086 85.0986 53.2525 85.3462 53.6239 85.5801L41.1887 79.3624L33.4164 75.4696L27.0614 72.292C26.3461 71.9893 25.6722 71.5767 25.0532 71.0539C22.8522 69.2107 21.7378 66.1982 21.7378 62.0301C21.7378 57.1193 23.2648 52.0434 26.3186 46.7887C29.3586 41.534 33.0176 37.6686 37.2957 35.1926C40.9272 33.1017 44.1046 32.5377 46.8283 33.4869L48.5892 34.3673L55.742 37.9438L74.3399 47.2427Z" fill="url(#paint3_linear_129_370)" stroke="black"/>
<path d="M60.9283 85.8217V113.829L52.5926 109.661L33.4167 100.073V75.0647L41.1889 78.9576L53.6243 85.1752L54.5733 85.6429C56.3891 86.4132 58.5073 86.4682 60.9283 85.8217Z" fill="url(#paint4_linear_129_370)" stroke="black"/>
<path d="M75.1372 109.55L68.6996 106.345" stroke="black"/>
<path d="M129.528 78.1322C126.639 76.8254 123.214 77.3206 119.266 79.5903C114.988 82.0664 111.315 85.918 108.275 91.1727C105.222 96.4274 103.708 101.517 103.708 106.428C103.708 111.339 105.222 114.654 108.275 116.401L80.7638 102.645C77.7101 100.898 76.1968 97.5829 76.1968 92.6721C76.1968 87.7613 77.7101 82.6716 80.7638 77.4169C83.8039 72.1622 87.4765 68.3106 91.7546 65.8345C96.0326 63.3723 99.6917 63.0009 102.732 64.7341L129.528 78.1322Z" fill="url(#paint5_linear_129_370)" stroke="black"/>
<path d="M130.244 78.4897L129.529 78.1321" stroke="black"/>
<path d="M105.937 126.098L105.977 126.431C106.572 131.395 110.189 133.483 114.785 131.516L115.093 131.385L114.785 131.609C110.189 134.948 106.572 141.214 105.977 146.864L105.937 147.243L105.897 146.91C105.303 141.947 101.685 139.858 97.0898 141.825L96.7815 141.957L97.0898 141.733C101.685 138.393 105.303 132.127 105.897 126.477L105.937 126.098Z" fill="white"/>
<path fill-rule="evenodd" clip-rule="evenodd" d="M105.977 126.337C106.572 131.3 110.189 133.389 114.785 131.422L115.093 131.29L114.785 131.514C110.189 134.854 106.572 141.12 105.977 146.769L105.937 147.149L105.897 146.816C105.303 141.852 101.685 139.764 97.0897 141.731L96.7815 141.862L97.0897 141.638C101.685 138.299 105.303 132.033 105.897 126.383L105.937 126.004L105.977 126.337ZM105.937 126.847C105.204 132.248 101.822 138.106 97.5114 141.441C101.822 139.798 105.204 141.751 105.937 146.305C106.67 140.905 110.052 135.047 114.363 131.712C110.052 133.354 106.67 131.401 105.937 126.847Z" fill="black"/>
<path d="M105.937 147.149L105.897 146.816C105.303 141.852 101.685 139.764 97.0897 141.731L96.7815 141.862C96.7815 141.862 98.0146 141.227 99.4138 141.862C100.813 142.498 101.108 145.264 101.108 145.264L105.937 147.149Z" fill="url(#paint6_linear_129_370)"/>
<path d="M96.7815 141.862L97.0897 141.638C101.685 138.299 105.303 132.033 105.897 126.383L105.937 126.004L100.048 123.648L100.008 124.027C99.4134 129.677 95.796 135.943 91.2004 139.283L90.8921 139.507L96.415 141.679L96.7815 141.862Z" fill="url(#paint7_linear_129_370)"/>
<path d="M106.1 125.879L106.153 126.316C106.445 128.76 107.477 130.464 108.969 131.325C110.46 132.186 112.452 132.228 114.715 131.26L115.024 131.128L115.197 131.433L114.889 131.657C110.334 134.968 106.742 141.188 106.153 146.788L106.089 147.397L100.944 145.39L100.932 145.283L100.932 145.283C100.932 145.282 100.932 145.282 100.932 145.281C100.932 145.28 100.932 145.279 100.932 145.276C100.931 145.271 100.93 145.264 100.929 145.254C100.927 145.235 100.923 145.206 100.918 145.169C100.907 145.094 100.891 144.986 100.866 144.854C100.818 144.59 100.739 144.232 100.617 143.856C100.496 143.479 100.333 143.089 100.12 142.758C99.9065 142.426 99.6488 142.163 99.3407 142.023C98.6807 141.723 98.0597 141.723 97.6016 141.798C97.3725 141.836 97.1852 141.892 97.056 141.939C97.0404 141.945 97.0257 141.951 97.0118 141.956L96.7757 142.057L96.3422 141.84L90.5276 139.553L91.0965 139.14C95.6516 135.829 99.2429 129.609 99.8322 124.009L99.8966 123.397L106.1 125.879ZM102.906 141.827C101.717 141.141 100.211 140.975 98.5029 141.426C98.812 141.463 99.1448 141.546 99.4869 141.702C99.8784 141.879 100.182 142.201 100.417 142.566C100.653 142.933 100.827 143.353 100.954 143.747C101.081 144.142 101.163 144.516 101.214 144.79C101.239 144.927 101.256 145.04 101.268 145.119C101.268 145.126 101.269 145.132 101.27 145.138L105.727 146.877L105.722 146.837C105.429 144.393 104.397 142.688 102.906 141.827ZM105.959 127.811C105.039 132.671 102.106 137.751 98.3575 140.978C100.186 140.477 101.836 140.635 103.154 141.396C104.473 142.158 105.435 143.507 105.915 145.341C106.836 140.482 109.768 135.401 113.517 132.175C111.688 132.676 110.039 132.517 108.72 131.756C107.402 130.995 106.44 129.646 105.959 127.811ZM100.263 123.96L100.192 123.969L100.184 124.046C99.5839 129.745 95.9403 136.056 91.3042 139.426L91.2566 139.46L96.4797 141.515L96.487 141.518L96.494 141.521L96.7643 141.656L96.9859 141.495C101.541 138.185 105.132 131.965 105.722 126.365L105.747 126.118L100.259 123.923L100.263 123.96Z" fill="black"/>
<path d="M15.9371 86.0984L15.977 86.4314C16.5715 91.3947 20.189 93.4833 24.7846 91.5165L25.093 91.3845L24.7846 91.6086C20.189 94.9484 16.5715 101.214 15.977 106.864L15.9371 107.243L15.8972 106.91C15.3027 101.947 11.6852 99.8581 7.08959 101.825L6.78125 101.957L7.08959 101.733C11.6852 98.3929 15.3027 92.1273 15.8972 86.4775L15.9371 86.0984Z" fill="white"/>
<path fill-rule="evenodd" clip-rule="evenodd" d="M15.9769 86.3369C16.5715 91.3002 20.1889 93.3889 24.7845 91.4222L25.0929 91.2901L24.7845 91.5143C20.1889 94.8541 16.5715 101.12 15.9769 106.769L15.937 107.149L15.8971 106.816C15.3025 101.852 11.6851 99.7638 7.08949 101.731L6.78122 101.862L7.08949 101.638C11.6851 98.2986 15.3025 92.0329 15.8971 86.3831L15.937 86.0041L15.9769 86.3369ZM15.937 86.847C15.204 92.2479 11.822 98.1056 7.51118 101.441C11.8219 99.7985 15.2039 101.751 15.937 106.305C16.6701 100.905 20.052 95.0469 24.3627 91.7117C20.052 93.354 16.67 91.4014 15.937 86.847Z" fill="black"/>
<path d="M15.937 107.149L15.8971 106.816C15.3025 101.852 11.6851 99.7638 7.08949 101.731L6.78122 101.862C6.78122 101.862 8.01432 101.227 9.41354 101.862C10.8128 102.498 11.1077 105.264 11.1077 105.264L15.937 107.149Z" fill="url(#paint8_linear_129_370)"/>
<path d="M6.78122 101.862L7.08949 101.638C11.6851 98.2986 15.3025 92.0329 15.8971 86.3831L15.937 86.0041L10.0476 83.6482L10.0077 84.0273C9.41316 89.6771 5.79571 95.9429 1.20012 99.2826L0.891846 99.5066L6.41473 101.679L6.78122 101.862Z" fill="url(#paint9_linear_129_370)"/>
<path d="M16.1 85.8789L16.1524 86.3159C16.4451 88.7598 17.4772 90.4642 18.9687 91.3253C20.4602 92.1865 22.4522 92.2281 24.715 91.2598L25.0233 91.1277L25.1968 91.433L24.8884 91.6572C20.3333 94.9676 16.742 101.188 16.1527 106.788L16.0885 107.397L10.9435 105.39L10.9321 105.283L10.932 105.283C10.932 105.282 10.9319 105.282 10.9319 105.281C10.9317 105.28 10.9316 105.279 10.9313 105.276C10.9307 105.271 10.9299 105.264 10.9288 105.254C10.9264 105.235 10.9226 105.206 10.9174 105.169C10.9069 105.094 10.8903 104.986 10.8661 104.854C10.8175 104.59 10.7385 104.232 10.6172 103.856C10.4956 103.479 10.3333 103.089 10.12 102.758C9.90629 102.426 9.6486 102.163 9.34047 102.023C8.68042 101.723 8.05947 101.723 7.60138 101.798C7.37229 101.836 7.18498 101.892 7.05581 101.939C7.04013 101.945 7.02543 101.951 7.01152 101.956L6.77549 102.057L6.34195 101.84L0.527344 99.5531L1.09627 99.1397C5.65136 95.8293 9.24266 89.6088 9.83198 84.0088L9.89639 83.3975L16.1 85.8789ZM12.9054 101.827C11.7169 101.141 10.2105 100.975 8.50261 101.426C8.81175 101.463 9.14451 101.546 9.48667 101.702C9.87811 101.879 10.182 102.201 10.4171 102.566C10.6527 102.933 10.8264 103.353 10.9535 103.747C11.0808 104.142 11.1631 104.516 11.2136 104.79C11.2388 104.927 11.2562 105.04 11.2673 105.119C11.2682 105.126 11.2689 105.132 11.2697 105.138L15.7264 106.877L15.7217 106.837C15.4289 104.393 14.3969 102.688 12.9054 101.827ZM15.9589 87.8113C15.0387 92.6709 12.1057 97.751 8.35722 100.978C10.1862 100.477 11.8355 100.635 13.1541 101.396C14.4726 102.158 15.4344 103.507 15.9151 105.341C16.8353 100.482 19.7682 95.4015 23.5166 92.1748C21.6877 92.6757 20.0384 92.5174 18.7199 91.7561C17.4013 90.9948 16.4395 89.6457 15.9589 87.8113ZM10.263 83.9602L10.1916 83.9687L10.1835 84.0459C9.5837 89.7454 5.94009 96.0564 1.304 99.4256L1.25638 99.4601L6.47941 101.515L6.48677 101.518L6.49378 101.521L6.7641 101.656L6.98564 101.495C11.5407 98.1851 15.132 91.9646 15.7214 86.3646L15.7472 86.1184L10.2585 83.9228L10.263 83.9602Z" fill="black"/>
<path d="M144.797 48.3782L144.837 48.7112C145.432 53.6745 149.049 55.763 153.645 53.7963L153.953 53.6643L153.645 53.8884C149.049 57.2282 145.432 63.4938 144.837 69.1436L144.797 69.5227L144.757 69.1897C144.163 64.2264 140.545 62.1379 135.95 64.1046L135.641 64.2366L135.95 64.0125C140.545 60.6727 144.163 54.4071 144.757 48.7573L144.797 48.3782Z" fill="white"/>
<path fill-rule="evenodd" clip-rule="evenodd" d="M144.837 48.6167C145.432 53.58 149.049 55.6687 153.645 53.702L153.953 53.5699L153.645 53.7941C149.049 57.1339 145.432 63.3994 144.837 69.0492L144.797 69.4284L144.757 69.0953C144.163 64.132 140.545 62.0436 135.95 64.0103L135.641 64.1421L135.95 63.9182C140.545 60.5784 144.163 54.3127 144.757 48.6629L144.797 48.2838L144.837 48.6167ZM144.797 49.1268C144.064 54.5276 140.682 60.3854 136.371 63.7207C140.682 62.0782 144.064 64.0309 144.797 68.5853C145.53 63.1845 148.912 57.3267 153.223 53.9915C148.912 55.6338 145.53 53.6812 144.797 49.1268Z" fill="black"/>
<path d="M144.797 69.4284L144.757 69.0953C144.163 64.132 140.545 62.0436 135.95 64.0103L135.641 64.1421C135.641 64.1421 136.874 63.5063 138.274 64.1421C139.673 64.7779 139.968 67.5438 139.968 67.5438L144.797 69.4284Z" fill="url(#paint10_linear_129_370)"/>
<path d="M135.641 64.1421L135.95 63.9182C140.545 60.5784 144.163 54.3127 144.757 48.6629L144.797 48.2838L138.908 45.928L138.868 46.3071C138.273 51.9569 134.656 58.2226 130.06 61.5624L129.752 61.7864L135.275 63.9589L135.641 64.1421Z" fill="url(#paint11_linear_129_370)"/>
<path d="M144.96 48.1587L145.012 48.5957C145.305 51.0395 146.337 52.744 147.829 53.6051C149.32 54.4663 151.312 54.5079 153.575 53.5396L153.883 53.4075L154.057 53.7128L153.749 53.937C149.193 57.2473 145.602 63.4677 145.013 69.0677L144.949 69.6772L139.804 67.6693L139.792 67.5626L139.792 67.5624C139.792 67.5621 139.792 67.5617 139.792 67.5612C139.792 67.5601 139.792 67.5583 139.791 67.5559C139.791 67.5511 139.79 67.5438 139.789 67.5341C139.786 67.5146 139.783 67.4857 139.777 67.4484C139.767 67.3736 139.75 67.2655 139.726 67.1337C139.678 66.8695 139.599 66.5118 139.477 66.1357C139.356 65.7587 139.193 65.3689 138.98 65.0375C138.766 64.7055 138.509 64.443 138.201 64.303C137.541 64.003 136.92 64.0027 136.461 64.0781C136.232 64.1158 136.045 64.1722 135.916 64.2189C135.9 64.2245 135.886 64.2304 135.872 64.2357L135.636 64.3368L135.202 64.1201L129.387 61.8329L129.956 61.4195C134.511 58.1091 138.103 51.8886 138.692 46.2886L138.757 45.6772L144.96 48.1587ZM141.765 64.1071C140.577 63.4209 139.071 63.255 137.363 63.706C137.672 63.7425 138.005 63.8259 138.347 63.9813C138.738 64.1592 139.042 64.4809 139.277 64.8462C139.513 65.2123 139.687 65.6333 139.814 66.0272C139.941 66.422 140.023 66.7955 140.074 67.0698C140.099 67.2071 140.116 67.3201 140.127 67.3991C140.128 67.4054 140.129 67.4115 140.13 67.4173L144.587 69.1566L144.582 69.1164C144.289 66.6725 143.257 64.9682 141.765 64.1071ZM144.819 50.0911C143.899 54.9507 140.966 60.0308 137.217 63.2575C139.046 62.7565 140.696 62.9149 142.014 63.6762C143.333 64.4374 144.294 65.7866 144.775 67.6209C145.695 62.7614 148.628 57.6813 152.377 54.4546C150.548 54.9555 148.899 54.7972 147.58 54.0359C146.261 53.2746 145.3 51.9255 144.819 50.0911ZM139.123 46.24L139.052 46.2485L139.044 46.3257C138.444 52.0252 134.8 58.3362 130.164 61.7054L130.116 61.7399L135.34 63.7945L135.347 63.7974L135.354 63.8009L135.624 63.936L135.846 63.7752C140.401 60.4649 143.992 54.2444 144.581 48.6444L144.607 48.3982L139.119 46.2026L139.123 46.24Z" fill="black"/>
</g>
<defs>
<linearGradient id="paint0_linear_129_370" x1="25.0005" y1="105.2" x2="30.4849" y2="150.069" gradientUnits="userSpaceOnUse">
<stop stop-color="#534EFF"/>
<stop offset="0.272808" stop-color="#C200FB"/>
<stop offset="0.460443" stop-color="#EC0868"/>
<stop offset="0.667914" stop-color="#FC2F00"/>
<stop offset="0.826923" stop-color="#EC7D10"/>
<stop offset="1" stop-color="#FFBC0A"/>
</linearGradient>
<linearGradient id="paint1_linear_129_370" x1="59.7752" y1="28.4366" x2="61.3003" y2="54.8958" gradientUnits="userSpaceOnUse">
<stop stop-color="#534EFF"/>
<stop offset="0.272808" stop-color="#C200FB"/>
<stop offset="0.460443" stop-color="#EC0868"/>
<stop offset="0.667914" stop-color="#FC2F00"/>
<stop offset="0.826923" stop-color="#EC7D10"/>
<stop offset="1" stop-color="#FFBC0A"/>
</linearGradient>
<linearGradient id="paint2_linear_129_370" x1="81.0846" y1="5.26194" x2="83.684" y2="41.3302" gradientUnits="userSpaceOnUse">
<stop stop-color="#534EFF"/>
<stop offset="0.272808" stop-color="#C200FB"/>
<stop offset="0.460443" stop-color="#EC0868"/>
<stop offset="0.667914" stop-color="#FC2F00"/>
<stop offset="0.826923" stop-color="#EC7D10"/>
<stop offset="1" stop-color="#FFBC0A"/>
</linearGradient>
<linearGradient id="paint3_linear_129_370" x1="26.1171" y1="38.6814" x2="31.0858" y2="88.2799" gradientUnits="userSpaceOnUse">
<stop stop-color="#534EFF"/>
<stop offset="0.272808" stop-color="#C200FB"/>
<stop offset="0.460443" stop-color="#EC0868"/>
<stop offset="0.667914" stop-color="#FC2F00"/>
<stop offset="0.826923" stop-color="#EC7D10"/>
<stop offset="1" stop-color="#FFBC0A"/>
</linearGradient>
<linearGradient id="paint4_linear_129_370" x1="35.7072" y1="79.2264" x2="40.8283" y2="115.464" gradientUnits="userSpaceOnUse">
<stop stop-color="#534EFF"/>
<stop offset="0.272808" stop-color="#C200FB"/>
<stop offset="0.460443" stop-color="#EC0868"/>
<stop offset="0.667914" stop-color="#FC2F00"/>
<stop offset="0.826923" stop-color="#EC7D10"/>
<stop offset="1" stop-color="#FFBC0A"/>
</linearGradient>
<linearGradient id="paint5_linear_129_370" x1="80.6368" y1="69.3246" x2="85.5757" y2="119.121" gradientUnits="userSpaceOnUse">
<stop stop-color="#534EFF"/>
<stop offset="0.272808" stop-color="#C200FB"/>
<stop offset="0.460443" stop-color="#EC0868"/>
<stop offset="0.667914" stop-color="#FC2F00"/>
<stop offset="0.826923" stop-color="#EC7D10"/>
<stop offset="1" stop-color="#FFBC0A"/>
</linearGradient>
<linearGradient id="paint6_linear_129_370" x1="92.9069" y1="126.171" x2="95.0688" y2="148.368" gradientUnits="userSpaceOnUse">
<stop offset="0.216346" stop-color="#08EC72"/>
<stop offset="0.466346" stop-color="#1098EC"/>
<stop offset="0.620192" stop-color="#0093FC"/>
<stop offset="0.802885" stop-color="#C200FB"/>
<stop offset="1" stop-color="#534EFF"/>
</linearGradient>
<linearGradient id="paint7_linear_129_370" x1="92.9069" y1="126.171" x2="95.0688" y2="148.368" gradientUnits="userSpaceOnUse">
<stop offset="0.216346" stop-color="#08EC72"/>
<stop offset="0.466346" stop-color="#1098EC"/>
<stop offset="0.620192" stop-color="#0093FC"/>
<stop offset="0.802885" stop-color="#C200FB"/>
<stop offset="1" stop-color="#534EFF"/>
</linearGradient>
<linearGradient id="paint8_linear_129_370" x1="2.90668" y1="86.1712" x2="5.06855" y2="108.368" gradientUnits="userSpaceOnUse">
<stop offset="0.216346" stop-color="#08EC72"/>
<stop offset="0.466346" stop-color="#1098EC"/>
<stop offset="0.620192" stop-color="#0093FC"/>
<stop offset="0.802885" stop-color="#C200FB"/>
<stop offset="1" stop-color="#534EFF"/>
</linearGradient>
<linearGradient id="paint9_linear_129_370" x1="2.90668" y1="86.1712" x2="5.06855" y2="108.368" gradientUnits="userSpaceOnUse">
<stop offset="0.216346" stop-color="#08EC72"/>
<stop offset="0.466346" stop-color="#1098EC"/>
<stop offset="0.620192" stop-color="#0093FC"/>
<stop offset="0.802885" stop-color="#C200FB"/>
<stop offset="1" stop-color="#534EFF"/>
</linearGradient>
<linearGradient id="paint10_linear_129_370" x1="131.767" y1="48.451" x2="133.929" y2="70.6481" gradientUnits="userSpaceOnUse">
<stop offset="0.216346" stop-color="#08EC72"/>
<stop offset="0.466346" stop-color="#1098EC"/>
<stop offset="0.620192" stop-color="#0093FC"/>
<stop offset="0.802885" stop-color="#C200FB"/>
<stop offset="1" stop-color="#534EFF"/>
</linearGradient>
<linearGradient id="paint11_linear_129_370" x1="131.767" y1="48.451" x2="133.929" y2="70.6481" gradientUnits="userSpaceOnUse">
<stop offset="0.216346" stop-color="#08EC72"/>
<stop offset="0.466346" stop-color="#1098EC"/>
<stop offset="0.620192" stop-color="#0093FC"/>
<stop offset="0.802885" stop-color="#C200FB"/>
<stop offset="1" stop-color="#534EFF"/>
</linearGradient>
<clipPath id="clip0_129_370">
<rect width="154" height="150" fill="white" transform="translate(0.5)"/>
</clipPath>
</defs>
</svg>
