<svg width="55" height="28" viewBox="0 0 55 28" fill="none" xmlns="http://www.w3.org/2000/svg">
<path d="M55 28C51.3434 28 47.8367 26.5276 45.2511 23.9068C43.0573 21.6832 41.6793 18.7874 41.312 15.697V28C37.6554 28 34.1487 26.5276 31.563 23.9068C28.9774 21.286 27.5248 17.7315 27.5248 14.0251C27.5248 10.3188 28.9774 6.76428 31.563 4.14349C34.1487 1.52269 37.6554 0.0502693 41.312 0.0502693V12.3531C41.6793 9.26276 43.0573 6.36706 45.2511 4.14349C47.8367 1.52269 51.3434 0.0502693 55 0.0502693V28ZM27.4752 27.9497C23.8186 27.9497 20.3119 26.4773 17.7263 23.8565C15.5325 21.6329 14.1545 18.7371 13.7872 15.6467V27.9497C10.1306 27.9497 6.62385 26.4773 4.03825 23.8565C1.45265 21.2357 1.24759e-07 17.6812 0 13.9749C2.76065e-07 10.2685 1.45265 6.71401 4.03825 4.09322C6.62385 1.47242 10.1306 0 13.7872 0V12.3028C14.1545 9.21249 15.5325 6.31679 17.7263 4.09322C20.3119 1.47242 23.8186 0 27.4752 0V27.9497Z" fill="white"/>
</svg>
