<svg width="26" height="21" viewBox="0 0 26 21" fill="none" xmlns="http://www.w3.org/2000/svg">
<g clip-path="url(#clip0_129_539)">
<path d="M6.23523 2.58816C6.38915 2.52293 6.55765 2.64524 6.54307 2.81323L6.36323 4.94321L5.98086 9.50491C5.97438 9.58645 5.92416 9.65821 5.84963 9.69083L3.07586 10.9303C2.97055 10.9776 2.84741 10.9369 2.79232 10.8357C2.24956 9.84088 1.84127 8.51983 1.58528 7.4532L1.52047 7.4793C1.30337 7.57389 1.09112 7.53312 0.997151 7.38634L0.98743 7.3684L0.122247 5.78314C0.06392 5.67224 0.072021 5.5173 0.14979 5.37052C0.22756 5.22699 0.374997 5.09 0.527295 5.02313L6.23523 2.58816Z" fill="white"/>
<path d="M11.7762 7.04711L9.3135 8.14798C9.19361 8.2018 9.05265 8.13982 9.01215 8.01424L7.94282 4.75729L7.17323 2.41366C7.13758 2.30275 7.19105 2.18206 7.29798 2.1364L10.9013 0.596808C11.0536 0.529941 11.214 0.531571 11.3209 0.601701C11.4343 0.665307 11.4554 0.737068 11.4586 0.945826H11.4554C11.4392 2.38919 11.7649 5.52872 11.9074 6.81878C11.9188 6.91663 11.8653 7.00796 11.7762 7.04711Z" fill="white"/>
<path d="M12.8763 11.3707C12.4243 11.6006 11.9706 11.8306 11.5186 12.0605C11.3663 12.1372 11.1881 12.0214 11.1962 11.8502L11.3161 9.08085L11.3274 8.82479C11.3307 8.73998 11.3825 8.66496 11.4587 8.63071L11.9382 8.41706C12.063 8.36161 12.2088 8.43174 12.2428 8.56385C12.6673 10.1507 12.8423 10.7085 12.9833 11.0918C13.0221 11.1994 12.9768 11.3185 12.8747 11.3707H12.8763Z" fill="white"/>
<path d="M9.68292 18.5155C9.75583 18.7129 9.53873 18.8955 9.35889 18.7863C8.27498 18.1306 7.32878 17.3331 6.50411 16.4703C6.50087 16.4671 6.49601 16.4638 6.49277 16.4606L6.46036 16.4263C6.415 16.3806 6.36477 16.3236 6.30968 16.2632C6.29348 16.2453 6.27728 16.2257 6.25946 16.2061C5.89005 15.7902 5.38941 15.1738 5.38941 15.1738C4.67653 14.2572 4.08192 13.308 3.59262 12.4061C3.52943 12.2919 3.57966 12.1484 3.69955 12.0946L5.50283 11.2889C5.65675 11.2204 5.82849 11.3427 5.81552 11.5123L5.68915 13.0209L5.6049 14.0191C5.59032 14.1887 5.76206 14.3126 5.9176 14.2425L6.82652 13.8348L7.5945 13.489C7.71277 13.4368 7.85049 13.4939 7.89423 13.6162L7.98172 13.8576L8.437 15.102L9.38643 17.6984L9.68454 18.5155H9.68292Z" fill="white"/>
<path d="M25.1379 18.2939L24.3068 18.6169C24.2225 18.6495 24.1577 18.7261 24.1561 18.8158C24.1528 18.9267 24.0961 19.0474 23.9098 19.1176L23.1337 19.4209C22.8907 19.5171 22.7141 19.3622 22.6898 19.2122L22.6655 19.0817C17.9929 20.9572 14.2842 20.8561 11.3744 19.7634C11.2496 19.7161 11.1281 19.6688 11.0066 19.6183C10.9207 19.5824 10.8673 19.4943 10.8705 19.4013L10.9548 17.454L11.1103 13.8709C11.1135 13.7893 11.1605 13.7176 11.2318 13.6801L13.3964 12.5792C13.5049 12.5237 13.6362 12.5678 13.6929 12.6754C14.4333 14.078 15.3098 15.0957 16.2398 15.8247C18.3218 17.4508 20.6273 17.6122 22.1049 17.4932C22.2394 17.4818 22.3317 17.3562 22.3042 17.2224C22.2864 17.1311 22.322 17.0626 22.4387 17.0381C22.6914 16.9859 22.9215 16.862 23.1548 16.756C23.2569 16.7087 23.3638 16.7185 23.4513 16.7707C23.5096 16.8065 23.5793 16.8196 23.6441 16.7951L24.323 16.5326C24.4493 16.482 24.5919 16.5228 24.6826 16.6239L25.2967 17.56C25.5964 17.9824 25.2481 18.2499 25.1363 18.2923L25.1379 18.2939Z" fill="white"/>
<path d="M10.0282 9.2619C10.2485 9.16242 10.4948 9.33203 10.4835 9.57341L10.349 12.6542L10.2842 14.1612L10.1934 16.2651C10.1821 16.5179 9.83375 16.5717 9.74788 16.3352L9.16137 14.732L8.70772 13.4876L8.35452 12.5237C8.30915 12.3982 8.16658 12.3378 8.04506 12.3916L6.84774 12.9298C6.68734 13.0016 6.50912 12.8744 6.52532 12.6983L6.68896 10.7591L6.81372 9.26027L7.07619 6.14032C7.09725 5.88916 7.44559 5.84838 7.52336 6.0865L8.34156 8.57855L8.67532 9.59135C8.71744 9.72182 8.86326 9.78543 8.98801 9.72998L10.0282 9.2619Z" fill="url(#paint0_linear_129_539)"/>
<path d="M10.0281 9.26209C10.2485 9.1626 10.4947 9.33222 10.4834 9.57359L10.3489 12.6544L10.2841 14.1614L10.2744 14.3848C10.2614 14.6702 9.84667 14.6849 9.81589 14.3995L9.66521 13.0018L9.46755 11.1817C9.45134 11.0251 9.2877 10.9305 9.14513 10.9958L8.22162 11.4116C8.08066 11.4752 7.91702 11.3823 7.8992 11.2273L7.78741 10.2716L7.62701 8.90002L7.43744 7.28867C7.40504 7.01141 7.79713 6.92335 7.88462 7.18919L8.34151 8.58036L8.67527 9.59316C8.7174 9.72364 8.86321 9.78724 8.98797 9.73179L10.0281 9.26372V9.26209Z" fill="url(#paint1_linear_129_539)"/>
</g>
<defs>
<linearGradient id="paint0_linear_129_539" x1="6.85394" y1="7.06177" x2="9.36672" y2="16.4571" gradientUnits="userSpaceOnUse">
<stop stop-color="#FFBC0A"/>
<stop offset="0.173077" stop-color="#EC7D10"/>
<stop offset="0.332086" stop-color="#FC2F00"/>
<stop offset="0.539557" stop-color="#EC0868"/>
<stop offset="0.727192" stop-color="#C200FB"/>
<stop offset="1" stop-color="#534EFF"/>
</linearGradient>
<linearGradient id="paint1_linear_129_539" x1="7.68932" y1="7.84278" x2="9.38513" y2="14.6447" gradientUnits="userSpaceOnUse">
<stop stop-color="#534EFF"/>
<stop offset="0.272808" stop-color="#C200FB"/>
<stop offset="0.460443" stop-color="#EC0868"/>
<stop offset="0.667914" stop-color="#FC2F00"/>
<stop offset="0.826923" stop-color="#EC7D10"/>
<stop offset="1" stop-color="#FFBC0A"/>
</linearGradient>
<clipPath id="clip0_129_539">
<rect width="25.3333" height="20" fill="white" transform="translate(0.083374 0.547852)"/>
</clipPath>
</defs>
</svg>
