<svg width="80" height="78" viewBox="0 0 80 78" fill="none" xmlns="http://www.w3.org/2000/svg">
<path d="M49.6754 8.70679L49.804 9.78031C51.7205 25.7802 63.382 32.5129 78.1966 26.1728L79.1906 25.7474L78.1966 26.4698C63.382 37.2361 51.7205 57.4343 49.804 75.6472L49.6754 76.8693L49.5468 75.7957C47.6302 59.7958 35.9688 53.0631 21.1541 59.4032L20.1602 59.8286L21.1541 59.1063C35.9688 48.34 47.6302 28.1418 49.5468 9.9288L49.6754 8.70679Z" fill="white"/>
<path fill-rule="evenodd" clip-rule="evenodd" d="M49.8027 9.47593C51.7193 25.4758 63.3807 32.2089 78.1953 25.8689L79.1894 25.4432L78.1953 26.1659C63.3808 36.9322 51.7194 57.13 49.8027 75.3428L49.6741 76.5654L49.5454 75.4915C47.6288 59.4917 35.9674 52.7592 21.1528 59.0993L20.1591 59.5243L21.1528 58.8023C35.9674 48.0361 47.6287 27.8376 49.5454 9.62462L49.6741 8.40282L49.8027 9.47593ZM49.6741 11.1201C47.3111 28.5306 36.4087 47.414 22.5122 58.1656C36.4085 52.8711 47.3109 59.1657 49.6741 73.8474C52.0371 56.4372 62.9395 37.5538 76.8356 26.8022C62.9393 32.0965 52.037 25.8019 49.6741 11.1201Z" fill="black"/>
<path d="M49.6741 76.5654L49.5454 75.4915C47.6288 59.4917 35.9674 52.7592 21.1528 59.0993L20.1591 59.5243C20.1591 59.5243 24.1341 57.4747 28.6447 59.5243C33.1553 61.5739 34.1062 70.4901 34.1062 70.4901L49.6741 76.5654Z" fill="url(#paint0_linear_261_2298)"/>
<path d="M20.1591 59.5243L21.1528 58.8023C35.9674 48.0361 47.6287 27.8376 49.5454 9.62462L49.6741 8.40282L30.6888 0.80835L30.5602 2.03052C28.6435 20.2435 16.9822 40.442 2.16759 51.2082L1.17383 51.9302L18.9776 58.9336L20.1591 59.5243Z" fill="url(#paint1_linear_261_2298)"/>
<path d="M50.2008 7.99939L50.3695 9.40808C51.3132 17.2861 54.6402 22.7806 59.4483 25.5567C64.2563 28.3327 70.6779 28.4669 77.9722 25.3453L78.9664 24.9196L79.5255 25.9037L78.5314 26.6264C63.8475 37.2979 52.2703 57.3502 50.3706 75.4025L50.1637 77.3674L33.5779 70.8947L33.5412 70.5506L33.5408 70.5498C33.5408 70.5491 33.5406 70.5478 33.5405 70.5461C33.5401 70.5425 33.5395 70.5367 33.5386 70.529C33.5368 70.5136 33.5343 70.4898 33.5305 70.4586C33.5228 70.3959 33.5106 70.3026 33.4937 70.1823C33.4599 69.9415 33.4065 69.5929 33.3284 69.1678C33.1718 68.3164 32.917 67.1632 32.5259 65.9507C32.134 64.7355 31.6108 63.4788 30.9233 62.4106C30.2344 61.3401 29.4037 60.494 28.4104 60.0427C26.2826 59.0758 24.2809 59.0748 22.8042 59.3177C22.0657 59.4392 21.4618 59.6211 21.0454 59.7716C20.9949 59.7899 20.9475 59.8086 20.9027 59.8257L20.1418 60.1517L18.7442 59.4531L0 52.08L1.834 50.7473C16.518 40.0759 28.0951 20.0233 29.9948 1.97083L30.2025 0L50.2008 7.99939ZM39.9024 59.4112C36.071 57.1992 31.2151 56.6645 25.7094 58.1182C26.706 58.2358 27.7787 58.5047 28.8817 59.0059C30.1435 59.5793 31.1232 60.6163 31.8811 61.794C32.6405 62.974 33.2006 64.331 33.6102 65.601C34.0206 66.8737 34.2859 68.0776 34.4486 68.962C34.53 69.4047 34.586 69.7689 34.6217 70.0236C34.6246 70.0438 34.6269 70.0634 34.6295 70.0822L48.9964 75.6892L48.9812 75.5594C48.0375 67.6814 44.7104 62.1871 39.9024 59.4112ZM49.7458 14.2285C46.7795 29.8943 37.3246 46.2707 25.2407 56.6724C31.1367 55.0574 36.4535 55.5681 40.7041 58.0221C44.9545 60.4762 48.055 64.8253 49.6045 70.7385C52.5709 55.0732 62.0258 38.6967 74.1092 28.295C68.2134 29.9098 62.8967 29.3994 58.6462 26.9453C54.3958 24.4912 51.2951 20.142 49.7458 14.2285ZM31.3842 1.81398L31.154 1.84142L31.128 2.09023C29.1944 20.4636 17.4488 40.808 2.50368 51.6691L2.35016 51.7804L19.1873 58.4037L19.2111 58.413L19.2337 58.4241L20.1051 58.8598L20.8192 58.3414C35.5032 47.67 47.0803 27.6174 48.9801 9.56493L49.0635 8.7714L31.3698 1.69347L31.3842 1.81398Z" fill="black"/>
<defs>
<linearGradient id="paint0_linear_261_2298" x1="7.66893" y1="8.94169" x2="14.638" y2="80.4973" gradientUnits="userSpaceOnUse">
<stop offset="0.216346" stop-color="#08EC72"/>
<stop offset="0.466346" stop-color="#1098EC"/>
<stop offset="0.620192" stop-color="#0093FC"/>
<stop offset="0.802885" stop-color="#C200FB"/>
<stop offset="1" stop-color="#534EFF"/>
</linearGradient>
<linearGradient id="paint1_linear_261_2298" x1="7.66893" y1="8.94169" x2="14.638" y2="80.4973" gradientUnits="userSpaceOnUse">
<stop offset="0.216346" stop-color="#08EC72"/>
<stop offset="0.466346" stop-color="#1098EC"/>
<stop offset="0.620192" stop-color="#0093FC"/>
<stop offset="0.802885" stop-color="#C200FB"/>
<stop offset="1" stop-color="#534EFF"/>
</linearGradient>
</defs>
</svg>
