<svg width="104" height="104" viewBox="0 0 104 104" fill="none" xmlns="http://www.w3.org/2000/svg">
<path d="M52 104L52.5238 99.894C55.6795 75.1567 75.1567 55.6795 99.894 52.5238L104 52L99.894 51.4762C75.1567 48.3205 55.6795 28.8433 52.5238 4.10604L52 0L51.4762 4.10604C48.3205 28.8433 28.8433 48.3205 4.10604 51.4762L0 52L4.10604 52.5238C28.8433 55.6795 48.3205 75.1567 51.4762 99.894L52 104Z" fill="#EC0868"/>
<path d="M52.5242 99.8941C55.6799 75.1569 75.1569 55.6799 99.8941 52.5242L104 52L99.8941 51.4758C75.1569 48.3201 55.6799 28.8431 52.5242 4.10591L52 0L51.4758 4.10591C48.3201 28.8431 28.8431 48.3201 4.10591 51.4758L0 52L4.10591 52.5242C28.8431 55.6799 48.3201 75.1569 51.4758 99.8941L52 104L52.5242 99.8941ZM52 93.5071C47.035 73.0158 30.9842 56.965 10.4929 52C30.9837 47.0351 47.0345 30.9851 52 10.4945C56.9654 30.9849 73.0158 47.0349 93.5063 52C73.0153 56.9653 56.965 73.016 52 93.5071Z" fill="black"/>
</svg>
