<svg width="79" height="79" viewBox="0 0 79 79" fill="none" xmlns="http://www.w3.org/2000/svg">
<path d="M44.6294 73.4203L44.5557 70.6768C44.1118 54.1486 54.8957 39.4096 70.7832 34.8305L73.4203 34.0704L70.6768 34.1441C54.1486 34.588 39.4096 23.804 34.8305 7.91659L34.0704 5.2795L34.1441 8.02296C34.588 24.5512 23.804 39.2901 7.91659 43.8693L5.2795 44.6294L8.02296 44.5557C24.5512 44.1118 39.2901 54.8957 43.8693 70.7832L44.6294 73.4203Z" fill="#C200FB"/>
<path d="M44.556 70.6768C44.112 54.1486 54.8959 39.4099 70.7833 34.8307L73.4203 34.0704L70.6768 34.1438C54.1486 34.5877 39.4099 23.8039 34.8307 7.91647L34.0704 5.2795L34.1438 8.02291C34.5877 24.5511 23.8039 39.2899 7.91647 43.8691L5.2795 44.6294L8.02291 44.556C24.5511 44.1121 39.2899 54.8959 43.8691 70.7833L44.6294 73.4203L44.556 70.6768ZM43.564 66.5453C38.2305 53.6235 26.0845 44.7367 12.1544 43.564C25.0759 38.2306 33.9629 26.0851 35.1359 12.1555C40.4696 25.0766 52.6153 33.963 66.5448 35.1358C53.6232 40.4695 44.7367 52.6155 43.564 66.5453Z" fill="black"/>
</svg>
