<svg width="25" height="24" viewBox="0 0 25 24" fill="none" xmlns="http://www.w3.org/2000/svg">
<path d="M15.3899 2.70093L15.4297 3.03394C16.0235 7.99724 19.6362 10.0858 24.2258 8.11903L24.5337 7.98706L24.2258 8.21115C19.6362 11.5509 16.0235 17.8166 15.4297 23.4664L15.3899 23.8455L15.3501 23.5125C14.7563 18.5492 11.1436 16.4606 6.55403 18.4274L6.24609 18.5593L6.55403 18.3353C11.1436 14.9955 14.7563 8.72982 15.3501 3.08L15.3899 2.70093Z" fill="white"/>
<path fill-rule="evenodd" clip-rule="evenodd" d="M15.4246 2.93961C16.0184 7.90289 19.6311 9.99156 24.2206 8.02483L24.5286 7.89278L24.2206 8.11696C19.6311 11.4568 16.0184 17.7223 15.4246 23.3721L15.3848 23.7513L15.3449 23.4182C14.7511 18.4549 11.1384 16.3664 6.54887 18.3332L6.241 18.465L6.54887 18.2411C11.1384 14.9013 14.7511 8.63553 15.3449 2.98573L15.3848 2.60672L15.4246 2.93961ZM15.3848 3.44964C14.6527 8.85052 11.2751 14.7083 6.97001 18.0435C11.2751 16.4011 14.6527 18.3538 15.3848 22.9081C16.1168 17.5074 19.4944 11.6496 23.7994 8.31435C19.4943 9.95668 16.1168 8.00405 15.3848 3.44964Z" fill="black"/>
<path d="M15.3848 23.7513L15.3449 23.4182C14.7511 18.4549 11.1384 16.3664 6.54887 18.3332L6.241 18.465C6.241 18.465 7.47248 17.8292 8.86986 18.465C10.2672 19.1008 10.5618 21.8667 10.5618 21.8667L15.3848 23.7513Z" fill="url(#paint0_linear_406_897)"/>
<path d="M6.241 18.465L6.54887 18.2411C11.1384 14.9013 14.7511 8.63553 15.3449 2.98573L15.3848 2.60672L9.50313 0.250854L9.46326 0.629983C8.86949 6.27978 5.2568 12.5455 0.667242 15.8853L0.359375 16.1093L5.875 18.2818L6.241 18.465Z" fill="url(#paint1_linear_406_897)"/>
<path d="M15.5522 2.48147L15.6045 2.91846C15.8968 5.3623 16.9275 7.06672 18.4171 7.92788C19.9066 8.78902 21.896 8.83067 24.1558 7.86231L24.4638 7.73026L24.637 8.03554L24.329 8.25973C19.78 11.5701 16.1933 17.7905 15.6048 23.3905L15.5407 24L10.4024 21.9921L10.3911 21.8853L10.3903 21.8787C10.3897 21.8739 10.3889 21.8665 10.3877 21.8568C10.3854 21.8374 10.3816 21.8084 10.3764 21.7711C10.3659 21.6964 10.3493 21.5883 10.3251 21.4564C10.2766 21.1923 10.1977 20.8346 10.0765 20.4584C9.95512 20.0815 9.79302 19.6916 9.58005 19.3603C9.36662 19.0282 9.10927 18.7657 8.80154 18.6257C8.14235 18.3258 7.52222 18.3255 7.06473 18.4008C6.83595 18.4385 6.64888 18.495 6.51988 18.5416C6.50422 18.5473 6.48954 18.5531 6.47565 18.5584L6.23993 18.6595L5.80696 18.4428L0 16.1556L0.568174 15.7422C5.11728 12.4319 8.70386 6.21138 9.2924 0.611368L9.35673 0L15.5522 2.48147ZM12.3618 18.4298C11.1748 17.7437 9.67043 17.5778 7.96478 18.0287C8.27351 18.0652 8.60584 18.1486 8.94754 18.3041C9.33847 18.482 9.64196 18.8037 9.87677 19.169C10.112 19.535 10.2855 19.956 10.4124 20.35C10.5396 20.7448 10.6218 21.1182 10.6722 21.3926C10.6974 21.5299 10.7147 21.6429 10.7258 21.7219C10.7267 21.7281 10.7274 21.7342 10.7282 21.7401L15.1791 23.4794L15.1744 23.4391C14.882 20.9953 13.8513 19.2909 12.3618 18.4298ZM15.4112 4.41381C14.4923 9.27346 11.5632 14.3535 7.81958 17.5802C9.64615 17.0793 11.2933 17.2377 12.6101 17.9989C13.9269 18.7602 14.8874 20.1093 15.3675 21.9437C16.2865 17.0841 19.2156 12.004 22.959 8.77735C21.1325 9.27826 19.4854 9.11992 18.1686 8.35865C16.8518 7.59737 15.8912 6.24822 15.4112 4.41381ZM9.72284 0.562711L9.6515 0.571223L9.64346 0.648406C9.04444 6.34798 5.40563 12.659 0.77564 16.0282L0.728081 16.0627L5.94424 18.1173L5.95159 18.1202L5.9586 18.1236L6.22855 18.2588L6.4498 18.098C10.9989 14.7876 14.5855 8.56712 15.174 2.96712L15.1999 2.72096L9.71836 0.525327L9.72284 0.562711Z" fill="black"/>
<defs>
<linearGradient id="paint0_linear_406_897" x1="2.37156" y1="2.77388" x2="4.53622" y2="24.9704" gradientUnits="userSpaceOnUse">
<stop offset="0.216346" stop-color="#08EC72"/>
<stop offset="0.466346" stop-color="#1098EC"/>
<stop offset="0.620192" stop-color="#0093FC"/>
<stop offset="0.802885" stop-color="#C200FB"/>
<stop offset="1" stop-color="#534EFF"/>
</linearGradient>
<linearGradient id="paint1_linear_406_897" x1="2.37156" y1="2.77388" x2="4.53622" y2="24.9704" gradientUnits="userSpaceOnUse">
<stop offset="0.216346" stop-color="#08EC72"/>
<stop offset="0.466346" stop-color="#1098EC"/>
<stop offset="0.620192" stop-color="#0093FC"/>
<stop offset="0.802885" stop-color="#C200FB"/>
<stop offset="1" stop-color="#534EFF"/>
</linearGradient>
</defs>
</svg>
