<svg width="161" height="150" viewBox="0 0 161 150" fill="none" xmlns="http://www.w3.org/2000/svg">
<g clip-path="url(#clip0_129_404)">
<path d="M129.166 64.9517L129.031 64.8706L128.734 64.7354C128.639 64.6948 128.517 64.6678 128.423 64.6272L121.204 62.5319C121.312 62.0182 121.393 61.545 121.434 61.0854C121.461 60.8015 121.474 60.531 121.474 60.2742V56.0564C121.474 55.3805 121.42 54.7047 121.339 54.0153L128.558 43.606C130.464 40.7401 131.694 37.7931 132.235 34.7515C132.776 31.7369 132.424 29.3983 131.14 27.7355L124.746 18.6106C124.259 17.9618 123.678 17.4751 123.029 17.1371L122.867 17.0559C121.893 16.5963 120.744 16.4612 119.42 16.6775C117.162 17.056 114.891 18.4618 112.62 20.9221L104.184 29.8579H104.13C103.414 29.6687 102.697 29.52 101.954 29.4118C101.67 29.3578 101.386 29.3172 101.102 29.2902C100.061 29.155 98.9526 29.1685 97.7765 29.3307L96.5598 19.7327C96.1948 17.2318 95.1133 15.5555 93.3424 14.7038C91.585 13.8522 89.4762 14.1225 87.0158 15.542L74.2139 22.9364C71.7671 24.3558 69.6584 26.5054 67.8875 29.4118C66.103 32.3048 65.0486 35.2111 64.6836 38.1311L64.0751 43.6602L63.9805 44.4578L63.4533 49.1485H63.4398C62.3583 50.3111 61.2768 51.5413 60.1818 52.8931C59.1004 54.2585 58.0595 55.6375 57.0456 57.0569L48.6101 57.868C46.5688 58.0167 44.514 59.017 42.4863 60.8555C42.2565 61.0447 42.0268 61.2476 41.797 61.4774C39.5394 63.735 37.7684 66.4252 36.4976 69.5614L35.7002 71.6297L30.0899 86.0672C28.8192 89.19 28.4542 91.9479 28.9949 94.3542C29.1166 94.8814 29.2653 95.368 29.4681 95.8141C30.0088 97.1119 30.8199 98.0312 31.9284 98.6124C31.9555 98.626 31.9691 98.6395 31.9826 98.6395C32.1989 98.7611 32.4421 98.8558 32.6854 98.9504L39.9043 101.032C39.7961 101.816 39.7692 102.546 39.7692 103.222V107.44C39.7692 108.116 39.7961 108.792 39.9043 109.481L32.6854 119.89C32.5367 120.12 32.388 120.336 32.2529 120.566C32.1447 120.728 32.0501 120.904 31.9555 121.066C30.4549 123.554 29.4681 126.122 28.9949 128.731C28.4542 131.759 28.8192 134.098 30.0899 135.761L36.4976 144.886C37.0113 145.548 37.5926 146.049 38.2685 146.387C39.2689 146.887 40.4451 147.035 41.797 146.819C44.0681 146.441 46.339 145.035 48.6101 142.574L50.8001 140.263L50.8137 140.222L57.0321 133.625C58.0459 133.882 59.0598 134.085 60.1007 134.206C61.1552 134.342 62.2502 134.315 63.4398 134.166L64.6701 143.764C65.0351 146.265 66.0894 147.928 67.8603 148.793H67.8738C69.6447 149.644 71.7536 149.361 74.2004 147.955L87.0023 140.547C89.4627 139.141 91.5717 136.991 93.3291 134.085C95.1 131.192 96.1814 128.285 96.5464 125.365L97.763 114.348C98.8579 113.185 99.9394 111.942 101.034 110.59C102.129 109.224 103.17 107.845 104.171 106.426L112.336 105.777C114.607 105.601 116.864 104.412 119.149 102.154C121.407 99.8965 123.191 97.2064 124.462 94.0836L131.005 77.4967C132.276 74.3605 132.64 71.6027 132.086 69.21C131.613 67.1416 130.64 65.7087 129.153 64.9381L129.166 64.9517ZM99.6285 75.0227C98.9661 79.619 97.2494 84.2559 94.5051 89.0549C94.4646 89.136 94.4239 89.2037 94.3834 89.2848C90.6523 95.706 86.1642 100.437 80.892 103.479C77.6611 105.331 74.7413 106.25 72.1187 106.223C71.4563 106.21 70.7939 106.142 70.1721 106.007C69.1717 105.791 68.2253 105.412 67.3466 104.898C63.6696 102.749 61.8177 98.6395 61.8177 92.6103C61.8177 90.2581 62.0881 87.8653 62.6558 85.4591C63.0344 83.8368 63.5345 82.201 64.1834 80.5517C65.008 78.3753 66.0623 76.1719 67.3466 73.9414C68.3605 72.184 69.4421 70.5348 70.6047 69.0207C71.6591 67.6148 72.781 66.3035 73.9571 65.1139C76.0795 62.9645 78.4046 61.1664 80.892 59.7199C86.1642 56.6783 90.6523 56.2188 94.3834 58.3412C98.1009 60.4636 99.9529 64.5461 99.9529 70.5888C99.9529 72.0623 99.8448 73.5492 99.6285 75.0227Z" fill="white" stroke="black"/>
<path d="M38.2685 146.4L11.2318 132.882C10.5559 132.544 9.97456 132.043 9.46086 131.381L3.05316 122.256C1.78244 120.593 1.41745 118.255 1.95819 115.227C2.43133 112.618 3.41817 110.049 4.91871 107.562C5.13501 107.17 5.37831 106.778 5.64868 106.386L12.8675 95.9763L39.9042 109.495L32.6854 119.904C32.5367 120.134 32.388 120.35 32.2528 120.58C32.1447 120.742 32.0501 120.918 31.9554 121.08C30.4549 123.567 29.468 126.136 28.9949 128.745C28.4542 131.773 28.8192 134.112 30.0899 135.775L36.4976 144.9C37.0113 145.562 37.5926 146.062 38.2685 146.4Z" fill="url(#paint0_linear_129_404)" stroke="black"/>
<path d="M63.4398 49.1622C62.3583 50.3248 61.2768 51.5549 60.1818 52.9068C59.1003 54.2721 58.0594 55.651 57.0456 57.0704L46.6499 51.8794L30.0088 43.5521C31.0227 42.1326 32.0636 40.7537 33.1451 39.3884C34.24 38.0366 35.3215 36.8064 36.4165 35.6438L55.6532 45.2689L63.4398 49.1622Z" fill="url(#paint1_linear_129_404)" stroke="black"/>
<path d="M93.3424 14.7038C91.585 13.8521 89.4762 14.1225 87.0158 15.5419L74.2139 22.9365C71.7671 24.3559 69.6582 26.5053 67.8873 29.4118C66.1029 32.3047 65.0484 35.2112 64.6834 38.1312L64.0751 43.6602L63.9805 44.4578L63.4533 49.1486H63.4398L55.6532 45.2553L36.4165 35.6303L36.9437 30.9259L37.6467 24.5993C38.0117 21.6793 39.0661 18.7728 40.8505 15.8799C42.6214 12.9734 44.7303 10.824 47.1771 9.40453L59.979 2.00998C62.4394 0.590548 64.5483 0.32018 66.3057 1.17184L93.3424 14.6903V14.7038Z" fill="url(#paint2_linear_129_404)" stroke="black"/>
<path d="M99.953 70.5888C99.953 72.0623 99.8448 73.5493 99.6286 75.0228C98.9661 79.6191 97.2493 84.2559 94.5051 89.0549C94.4645 89.136 94.424 89.2036 94.3834 89.2847C90.6523 95.706 86.1642 100.437 80.8921 103.479C77.6612 105.331 74.7412 106.25 72.1186 106.223C71.4562 106.21 70.7938 106.142 70.172 106.007C69.1716 105.791 68.2253 105.412 67.3466 104.898C63.6696 102.749 61.8176 98.6395 61.8176 92.6103C61.8176 90.2581 62.088 87.8653 62.6558 85.459C63.0343 83.8368 63.5345 82.2011 64.1833 80.5519C65.2919 79.0784 66.3463 77.4832 67.3466 75.7663C67.3872 75.6852 67.4278 75.6176 67.4683 75.5365C68.739 73.333 69.78 71.1701 70.6046 69.0207C71.659 67.6148 72.781 66.3035 73.9571 65.1139C76.0795 62.9644 78.4047 61.1665 80.8921 59.72C86.1642 56.6784 90.6523 56.2188 94.3834 58.3411C98.101 60.4635 99.953 64.5461 99.953 70.5888Z" fill="url(#paint3_linear_129_404)" stroke="black"/>
<path d="M122.867 17.0558C121.893 16.5962 120.744 16.461 119.42 16.6773C117.162 17.0558 114.891 18.4617 112.62 20.9221L104.184 29.8577H104.13C103.414 29.6685 102.697 29.5198 101.954 29.4116C101.67 29.3575 101.386 29.317 101.102 29.29C100.061 29.1548 98.9527 29.1684 97.7766 29.3306L96.56 19.7325C96.195 17.2316 95.1135 15.5553 93.3426 14.7036L83.3931 9.72891L85.583 7.40375C87.8541 4.94341 90.1252 3.53749 92.3828 3.15898C93.7076 2.94269 94.8567 3.07787 95.83 3.53749L122.867 17.0558Z" fill="url(#paint4_linear_129_404)" stroke="black"/>
<path d="M57.0455 57.0704L48.6101 57.8815C46.5688 58.0302 44.514 59.0305 42.4862 60.869C42.2564 61.0583 42.0268 61.2611 41.7969 61.4909C39.5394 63.7485 37.7683 66.4386 36.4976 69.5749L35.7002 71.6432L30.0899 86.0808C28.8192 89.2036 28.4542 91.9615 28.9949 94.3677C29.1166 94.895 29.2653 95.3815 29.468 95.8276C30.0088 97.1254 30.8199 98.0446 31.9284 98.6259L12.7458 89.0278L5.28374 85.2968L4.90518 85.1075C3.79667 84.5397 2.97203 83.607 2.43129 82.3092C2.22851 81.8631 2.07985 81.3764 1.95819 80.8492C1.41745 78.443 1.78244 75.6852 3.05316 72.5625L9.46086 56.0565C10.7316 52.9202 12.5026 50.2301 14.7602 47.9725C14.99 47.7427 15.2197 47.5399 15.4495 47.3507C17.4772 45.5122 19.532 44.5118 21.5733 44.3631L30.0088 43.552L46.6499 51.8793L57.0455 57.0704Z" fill="url(#paint5_linear_129_404)" stroke="black"/>
<path d="M39.7692 107.453C39.7692 108.129 39.7962 108.805 39.9044 109.495L12.8676 95.9763C12.7595 95.2868 12.7324 94.6109 12.7324 93.935V89.7173C12.7324 89.501 12.7323 89.2847 12.7458 89.0549V89.0278L31.9285 98.6259C31.9285 98.6259 31.9691 98.6529 31.9826 98.6529C32.1989 98.7746 32.4421 98.8692 32.6854 98.9638L39.9044 101.046C39.7962 101.83 39.7692 102.56 39.7692 103.236V107.453Z" fill="url(#paint6_linear_129_404)" stroke="black"/>
<path d="M67.8738 148.806L50.8 140.276L50.8136 140.236L57.032 133.639C58.0459 133.896 59.0598 134.098 60.1007 134.22C61.1551 134.355 62.2501 134.328 63.4397 134.179L64.6699 143.777C65.0349 146.278 66.0893 147.941 67.8602 148.806H67.8738Z" fill="url(#paint7_linear_129_404)" stroke="black"/>
<path d="M150.766 46.1006L150.807 46.4427C151.418 51.542 155.134 53.6878 159.856 51.6671L160.173 51.5315L159.856 51.7618C155.134 55.1931 151.418 61.6304 150.807 67.435L150.766 67.8244L150.725 67.4823C150.114 62.383 146.398 60.2372 141.676 62.2579L141.359 62.3935L141.676 62.1632C146.398 58.732 150.114 52.2947 150.725 46.49L150.766 46.1006Z" fill="white"/>
<path fill-rule="evenodd" clip-rule="evenodd" d="M150.807 46.3457C151.418 51.4449 155.134 53.5908 159.856 51.5702L160.173 51.4345L159.856 51.6649C155.134 55.0962 151.418 61.5333 150.807 67.3379L150.766 67.7275L150.725 67.3853C150.114 62.286 146.398 60.1403 141.676 62.161L141.359 62.2964L141.676 62.0663C146.398 58.635 150.114 52.1976 150.725 46.3931L150.766 46.0037L150.807 46.3457ZM150.766 46.8697C150.013 52.4185 146.538 58.4368 142.109 61.8634C146.538 60.176 150.013 62.1821 150.766 66.8613C151.519 61.3125 154.994 55.2943 159.423 51.8677C154.994 53.555 151.519 51.5489 150.766 46.8697Z" fill="black"/>
<path d="M150.766 67.7275L150.725 67.3853C150.114 62.286 146.398 60.1403 141.676 62.161L141.359 62.2964C141.359 62.2964 142.626 61.6432 144.064 62.2964C145.501 62.9496 145.804 65.7913 145.804 65.7913L150.766 67.7275Z" fill="url(#paint8_linear_129_404)"/>
<path d="M141.359 62.2964L141.676 62.0663C146.398 58.635 150.114 52.1976 150.725 46.3931L150.766 46.0037L144.715 43.5833L144.674 43.9728C144.063 49.7774 140.347 56.2148 135.625 59.646L135.309 59.8761L140.983 62.1082L141.359 62.2964Z" fill="url(#paint9_linear_129_404)"/>
<path d="M150.933 45.8751L150.987 46.3241C151.288 48.8349 152.348 50.586 153.881 51.4708C155.413 52.3555 157.46 52.3983 159.784 51.4034L160.101 51.2677L160.279 51.5814L159.963 51.8117C155.283 55.2128 151.593 61.6036 150.988 67.357L150.922 67.9832L145.636 65.9203L145.624 65.8106L145.624 65.8104C145.624 65.8102 145.624 65.8097 145.624 65.8092C145.624 65.8081 145.623 65.8062 145.623 65.8038C145.623 65.7988 145.622 65.7913 145.62 65.7813C145.618 65.7614 145.614 65.7316 145.609 65.6933C145.598 65.6165 145.581 65.5054 145.556 65.3699C145.506 65.0986 145.425 64.7311 145.3 64.3446C145.175 63.9573 145.009 63.5568 144.79 63.2164C144.57 62.8752 144.305 62.6055 143.989 62.4617C143.311 62.1536 142.673 62.1532 142.202 62.2307C141.967 62.2694 141.774 62.3274 141.641 62.3753C141.625 62.3811 141.61 62.3871 141.596 62.3926L141.353 62.4964L140.908 62.2738L134.934 59.9239L135.519 59.4992C140.198 56.0982 143.888 49.7072 144.494 43.9538L144.56 43.3257L150.933 45.8751ZM147.651 62.2604C146.43 61.5555 144.883 61.3851 143.128 61.8483C143.445 61.8858 143.787 61.9715 144.139 62.1313C144.541 62.314 144.853 62.6445 145.095 63.0198C145.337 63.3959 145.515 63.8284 145.646 64.2332C145.777 64.6388 145.861 65.0225 145.913 65.3044C145.939 65.4454 145.957 65.5615 145.968 65.6427C145.969 65.6491 145.97 65.6554 145.971 65.6614L150.55 67.4483L150.545 67.407C150.244 64.8962 149.184 63.1451 147.651 62.2604ZM150.788 47.8604C149.843 52.8532 146.83 58.0725 142.978 61.3876C144.858 60.8729 146.552 61.0356 147.907 61.8177C149.261 62.5998 150.25 63.9859 150.743 65.8705C151.689 60.8779 154.702 55.6586 158.553 52.3435C156.674 52.8581 154.98 52.6955 153.625 51.9133C152.27 51.1312 151.282 49.7451 150.788 47.8604ZM144.936 43.9038L144.863 43.9126L144.855 43.9919C144.239 49.8476 140.495 56.3315 135.732 59.793L135.683 59.8284L141.049 61.9393L141.057 61.9423L141.064 61.9458L141.342 62.0847L141.569 61.9195C146.249 58.5184 149.939 52.1275 150.544 46.3741L150.571 46.1212L144.932 43.8654L144.936 43.9038Z" fill="black"/>
<path d="M119.944 118.019L119.985 118.361C120.596 123.46 124.312 125.606 129.034 123.585L129.351 123.45L129.034 123.68C124.312 127.111 120.596 133.548 119.985 139.353L119.944 139.742L119.903 139.4C119.292 134.301 115.576 132.155 110.854 134.176L110.537 134.311L110.854 134.081C115.576 130.65 119.292 124.213 119.903 118.408L119.944 118.019Z" fill="white"/>
<path fill-rule="evenodd" clip-rule="evenodd" d="M119.985 118.264C120.596 123.363 124.312 125.509 129.034 123.488L129.351 123.353L129.034 123.583C124.312 127.014 120.596 133.451 119.985 139.256L119.944 139.646L119.903 139.303C119.292 134.204 115.576 132.058 110.854 134.079L110.537 134.214L110.854 133.984C115.576 130.553 119.292 124.116 119.903 118.311L119.944 117.922L119.985 118.264ZM119.944 118.788C119.191 124.336 115.716 130.355 111.287 133.781C115.716 132.094 119.191 134.1 119.944 138.779C120.697 133.231 124.172 127.212 128.601 123.786C124.172 125.473 120.697 123.467 119.944 118.788Z" fill="black"/>
<path d="M119.944 139.646L119.903 139.303C119.292 134.204 115.576 132.058 110.854 134.079L110.537 134.214C110.537 134.214 111.804 133.561 113.242 134.214C114.679 134.868 114.982 137.709 114.982 137.709L119.944 139.646Z" fill="url(#paint10_linear_129_404)"/>
<path d="M110.537 134.214L110.854 133.984C115.576 130.553 119.292 124.116 119.903 118.311L119.944 117.922L113.893 115.501L113.852 115.891C113.241 121.695 109.525 128.133 104.803 131.564L104.487 131.794L110.161 134.026L110.537 134.214Z" fill="url(#paint11_linear_129_404)"/>
<path d="M120.112 117.793L120.165 118.242C120.466 120.753 121.526 122.504 123.059 123.389C124.591 124.273 126.638 124.316 128.962 123.321L129.279 123.186L129.458 123.499L129.141 123.73C124.461 127.131 120.771 133.522 120.166 139.275L120.1 139.901L114.814 137.838L114.802 137.729L114.802 137.728C114.802 137.728 114.802 137.728 114.802 137.727C114.802 137.726 114.801 137.724 114.801 137.722C114.801 137.717 114.8 137.709 114.799 137.699C114.796 137.679 114.792 137.65 114.787 137.611C114.776 137.534 114.759 137.423 114.734 137.288C114.684 137.017 114.603 136.649 114.478 136.263C114.354 135.875 114.187 135.475 113.968 135.134C113.748 134.793 113.483 134.524 113.167 134.38C112.489 134.072 111.851 134.071 111.38 134.149C111.145 134.187 110.952 134.245 110.82 134.293C110.803 134.299 110.788 134.305 110.774 134.311L110.532 134.414L110.086 134.192L104.112 131.842L104.697 131.417C109.377 128.016 113.066 121.625 113.672 115.872L113.738 115.244L120.112 117.793ZM116.829 134.178C115.608 133.473 114.061 133.303 112.306 133.766C112.624 133.804 112.965 133.89 113.317 134.049C113.719 134.232 114.031 134.562 114.273 134.938C114.515 135.314 114.693 135.746 114.824 136.151C114.955 136.557 115.039 136.94 115.091 137.222C115.117 137.363 115.135 137.479 115.146 137.561C115.147 137.567 115.148 137.573 115.149 137.579L119.728 139.366L119.723 139.325C119.422 136.814 118.362 135.063 116.829 134.178ZM119.967 119.778C119.021 124.771 116.008 129.99 112.157 133.306C114.036 132.791 115.73 132.954 117.085 133.736C118.439 134.518 119.428 135.904 119.921 137.789C120.867 132.796 123.88 127.577 127.731 124.261C125.852 124.776 124.158 124.613 122.803 123.831C121.448 123.049 120.46 121.663 119.967 119.778ZM114.115 115.822L114.041 115.831L114.033 115.91C113.417 121.766 109.673 128.249 104.91 131.711L104.861 131.746L110.227 133.857L110.235 133.86L110.242 133.864L110.52 134.003L110.747 133.837C115.427 130.436 119.117 124.045 119.722 118.292L119.749 118.039L114.11 115.783L114.115 115.822Z" fill="black"/>
<path d="M17.2043 15.2788L17.2453 15.6209C17.8561 20.7202 21.5727 22.866 26.2942 20.8453L26.611 20.7098L26.2942 20.94C21.5727 24.3713 17.8561 30.8086 17.2453 36.6132L17.2043 37.0027L17.1633 36.6605C16.5525 31.5612 12.8359 29.4155 8.1144 31.4361L7.79761 31.5717L8.1144 31.3415C12.8359 27.9102 16.5525 21.4729 17.1633 15.6683L17.2043 15.2788Z" fill="white"/>
<path fill-rule="evenodd" clip-rule="evenodd" d="M17.2453 15.5239C17.8561 20.6232 21.5727 22.7691 26.2942 20.7484L26.6111 20.6128L26.2942 20.8431C21.5727 24.2744 17.8562 30.7116 17.2453 36.5161L17.2043 36.9058L17.1633 36.5635C16.5525 31.4643 12.8359 29.3186 8.11439 31.3392L7.79767 31.4746L8.11439 31.2446C12.8359 27.8133 16.5525 21.3759 17.1633 15.5713L17.2043 15.1819L17.2453 15.5239ZM17.2043 16.0479C16.4512 21.5967 12.9765 27.615 8.54763 31.0416C12.9765 29.3542 16.4512 31.3604 17.2043 36.0395C17.9574 30.4908 21.4321 24.4725 25.8609 21.0459C21.432 22.7332 17.9574 20.7271 17.2043 16.0479Z" fill="black"/>
<path d="M17.2043 36.9058L17.1633 36.5635C16.5525 31.4643 12.8359 29.3186 8.11439 31.3392L7.79767 31.4746C7.79767 31.4746 9.06456 30.8214 10.5021 31.4746C11.9397 32.1279 12.2427 34.9695 12.2427 34.9695L17.2043 36.9058Z" fill="url(#paint12_linear_129_404)"/>
<path d="M7.79767 31.4746L8.11439 31.2446C12.8359 27.8133 16.5525 21.3759 17.1633 15.5713L17.2043 15.1819L11.1536 12.7615L11.1126 13.151C10.5017 18.9556 6.78517 25.393 2.06367 28.8243L1.74695 29.0544L7.42114 31.2864L7.79767 31.4746Z" fill="url(#paint13_linear_129_404)"/>
<path d="M17.3718 15.0534L17.4255 15.5023C17.7263 18.0131 18.7866 19.7642 20.319 20.649C21.8514 21.5337 23.898 21.5765 26.2227 20.5816L26.5396 20.446L26.7178 20.7596L26.4009 20.9899C21.7211 24.391 18.0313 30.7818 17.4259 36.5352L17.3599 37.1614L12.0739 35.0985L12.0622 34.9889L12.0621 34.9886C12.0621 34.9884 12.0621 34.988 12.062 34.9874C12.0619 34.9863 12.0617 34.9844 12.0614 34.982C12.0609 34.9771 12.06 34.9695 12.0588 34.9595C12.0564 34.9396 12.0525 34.9098 12.0471 34.8715C12.0363 34.7947 12.0193 34.6836 11.9944 34.5482C11.9445 34.2768 11.8633 33.9093 11.7387 33.5229C11.6138 33.1355 11.447 32.735 11.2279 32.3946C11.0083 32.0534 10.7436 31.7838 10.427 31.6399C9.74888 31.3318 9.11092 31.3315 8.64028 31.4089C8.40492 31.4476 8.21247 31.5056 8.07976 31.5535C8.06365 31.5593 8.04855 31.5653 8.03426 31.5708L7.79176 31.6747L7.34635 31.452L1.37244 29.1022L1.95695 28.6774C6.63683 25.2764 10.3265 18.8855 10.932 13.132L10.9982 12.5039L17.3718 15.0534ZM14.0896 31.4387C12.8685 30.7337 11.3209 30.5633 9.56621 31.0266C9.88381 31.064 10.2257 31.1498 10.5772 31.3095C10.9794 31.4922 11.2916 31.8227 11.5332 32.1981C11.7752 32.5742 11.9537 33.0067 12.0842 33.4114C12.215 33.817 12.2996 34.2007 12.3514 34.4826C12.3774 34.6237 12.3952 34.7397 12.4066 34.8209C12.4075 34.8273 12.4083 34.8336 12.4091 34.8396L16.9879 36.6266L16.9831 36.5852C16.6823 34.0744 15.622 32.3234 14.0896 31.4387ZM17.2268 17.0386C16.2814 22.0314 13.268 27.2507 9.41683 30.5658C11.2959 30.0511 12.9904 30.2138 14.3451 30.996C15.6997 31.7781 16.6879 33.1642 17.1817 35.0488C18.1271 30.0561 21.1405 24.8368 24.9915 21.5217C23.1125 22.0364 21.418 21.8737 20.0634 21.0916C18.7087 20.3094 17.7205 18.9233 17.2268 17.0386ZM11.3748 13.082L11.3014 13.0908L11.2931 13.1701C10.6769 19.0258 6.93348 25.5097 2.17038 28.9712L2.12145 29.0067L7.48757 31.1176L7.49513 31.1205L7.50234 31.1241L7.78006 31.2629L8.00767 31.0977C12.6876 27.6967 16.3773 21.3057 16.9827 15.5523L17.0093 15.2994L11.3702 13.0436L11.3748 13.082Z" fill="black"/>
</g>
<defs>
<linearGradient id="paint0_linear_129_404" x1="4.89538" y1="101.39" x2="11.1529" y2="148.64" gradientUnits="userSpaceOnUse">
<stop offset="0.216346" stop-color="#08EC72"/>
<stop offset="0.466346" stop-color="#1098EC"/>
<stop offset="0.620192" stop-color="#0093FC"/>
<stop offset="0.802885" stop-color="#C200FB"/>
<stop offset="1" stop-color="#534EFF"/>
</linearGradient>
<linearGradient id="paint1_linear_129_404" x1="32.792" y1="37.9442" x2="34.1" y2="58.2904" gradientUnits="userSpaceOnUse">
<stop offset="0.216346" stop-color="#08EC72"/>
<stop offset="0.466346" stop-color="#1098EC"/>
<stop offset="0.620192" stop-color="#0093FC"/>
<stop offset="0.802885" stop-color="#C200FB"/>
<stop offset="1" stop-color="#534EFF"/>
</linearGradient>
<linearGradient id="paint2_linear_129_404" x1="41.1558" y1="5.8912" x2="45.0725" y2="51.7635" gradientUnits="userSpaceOnUse">
<stop offset="0.216346" stop-color="#08EC72"/>
<stop offset="0.466346" stop-color="#1098EC"/>
<stop offset="0.620192" stop-color="#0093FC"/>
<stop offset="0.802885" stop-color="#C200FB"/>
<stop offset="1" stop-color="#534EFF"/>
</linearGradient>
<linearGradient id="paint3_linear_129_404" x1="64.9925" y1="62.3139" x2="70.9608" y2="108.446" gradientUnits="userSpaceOnUse">
<stop offset="0.216346" stop-color="#08EC72"/>
<stop offset="0.466346" stop-color="#1098EC"/>
<stop offset="0.620192" stop-color="#0093FC"/>
<stop offset="0.802885" stop-color="#C200FB"/>
<stop offset="1" stop-color="#534EFF"/>
</linearGradient>
<linearGradient id="paint4_linear_129_404" x1="86.6794" y1="5.93555" x2="88.4114" y2="31.3708" gradientUnits="userSpaceOnUse">
<stop offset="0.216346" stop-color="#08EC72"/>
<stop offset="0.466346" stop-color="#1098EC"/>
<stop offset="0.620192" stop-color="#0093FC"/>
<stop offset="0.802885" stop-color="#C200FB"/>
<stop offset="1" stop-color="#534EFF"/>
</linearGradient>
<linearGradient id="paint5_linear_129_404" x1="6.32246" y1="49.4648" x2="11.5133" y2="101.46" gradientUnits="userSpaceOnUse">
<stop offset="0.216346" stop-color="#08EC72"/>
<stop offset="0.466346" stop-color="#1098EC"/>
<stop offset="0.620192" stop-color="#0093FC"/>
<stop offset="0.802885" stop-color="#C200FB"/>
<stop offset="1" stop-color="#534EFF"/>
</linearGradient>
<linearGradient id="paint6_linear_129_404" x1="14.9946" y1="91.2252" x2="16.4606" y2="110.63" gradientUnits="userSpaceOnUse">
<stop offset="0.216346" stop-color="#08EC72"/>
<stop offset="0.466346" stop-color="#1098EC"/>
<stop offset="0.620192" stop-color="#0093FC"/>
<stop offset="0.802885" stop-color="#C200FB"/>
<stop offset="1" stop-color="#534EFF"/>
</linearGradient>
<linearGradient id="paint7_linear_129_404" x1="52.2215" y1="135.267" x2="53.5" y2="149.616" gradientUnits="userSpaceOnUse">
<stop offset="0.216346" stop-color="#08EC72"/>
<stop offset="0.466346" stop-color="#1098EC"/>
<stop offset="0.620192" stop-color="#0093FC"/>
<stop offset="0.802885" stop-color="#C200FB"/>
<stop offset="1" stop-color="#534EFF"/>
</linearGradient>
<linearGradient id="paint8_linear_129_404" x1="137.379" y1="46.1754" x2="139.6" y2="68.9807" gradientUnits="userSpaceOnUse">
<stop offset="0.216346" stop-color="#08EC72"/>
<stop offset="0.466346" stop-color="#1098EC"/>
<stop offset="0.620192" stop-color="#0093FC"/>
<stop offset="0.802885" stop-color="#C200FB"/>
<stop offset="1" stop-color="#534EFF"/>
</linearGradient>
<linearGradient id="paint9_linear_129_404" x1="137.379" y1="46.1754" x2="139.6" y2="68.9807" gradientUnits="userSpaceOnUse">
<stop offset="0.216346" stop-color="#08EC72"/>
<stop offset="0.466346" stop-color="#1098EC"/>
<stop offset="0.620192" stop-color="#0093FC"/>
<stop offset="0.802885" stop-color="#C200FB"/>
<stop offset="1" stop-color="#534EFF"/>
</linearGradient>
<linearGradient id="paint10_linear_129_404" x1="106.557" y1="118.093" x2="108.778" y2="140.899" gradientUnits="userSpaceOnUse">
<stop offset="0.216346" stop-color="#08EC72"/>
<stop offset="0.466346" stop-color="#1098EC"/>
<stop offset="0.620192" stop-color="#0093FC"/>
<stop offset="0.802885" stop-color="#C200FB"/>
<stop offset="1" stop-color="#534EFF"/>
</linearGradient>
<linearGradient id="paint11_linear_129_404" x1="106.557" y1="118.093" x2="108.778" y2="140.899" gradientUnits="userSpaceOnUse">
<stop offset="0.216346" stop-color="#08EC72"/>
<stop offset="0.466346" stop-color="#1098EC"/>
<stop offset="0.620192" stop-color="#0093FC"/>
<stop offset="0.802885" stop-color="#C200FB"/>
<stop offset="1" stop-color="#534EFF"/>
</linearGradient>
<linearGradient id="paint12_linear_129_404" x1="3.81698" y1="15.3536" x2="6.03808" y2="38.1589" gradientUnits="userSpaceOnUse">
<stop offset="0.216346" stop-color="#08EC72"/>
<stop offset="0.466346" stop-color="#1098EC"/>
<stop offset="0.620192" stop-color="#0093FC"/>
<stop offset="0.802885" stop-color="#C200FB"/>
<stop offset="1" stop-color="#534EFF"/>
</linearGradient>
<linearGradient id="paint13_linear_129_404" x1="3.81698" y1="15.3536" x2="6.03808" y2="38.1589" gradientUnits="userSpaceOnUse">
<stop offset="0.216346" stop-color="#08EC72"/>
<stop offset="0.466346" stop-color="#1098EC"/>
<stop offset="0.620192" stop-color="#0093FC"/>
<stop offset="0.802885" stop-color="#C200FB"/>
<stop offset="1" stop-color="#534EFF"/>
</linearGradient>
<clipPath id="clip0_129_404">
<rect width="160.274" height="150" fill="white" transform="translate(0.363037)"/>
</clipPath>
</defs>
</svg>
