<svg width="124" height="104" viewBox="0 0 124 104" fill="none" xmlns="http://www.w3.org/2000/svg">
<path d="M59.3726 77.5911V80.4883L24.1758 100.843V97.9348C24.1758 92.9682 26.2635 88.4687 30.4393 84.4572C34.6256 80.4352 38.3988 77.4531 41.7796 75.5005C45.1499 73.5478 48.9228 72.1683 53.1091 71.3511C54.3279 71.1176 55.3665 71.1176 56.2356 71.3829H56.2462C56.3734 71.4254 56.5007 71.4678 56.6278 71.5209L56.8291 71.6164C58.5248 72.4336 59.3726 74.4287 59.3726 77.5911Z" fill="white" stroke="black"/>
<path d="M50.5763 55.2417C50.5763 57.014 50.2266 58.8393 49.5271 60.6858C49.4741 60.8131 49.4318 60.9405 49.3682 61.0678C49.3152 61.2058 49.2623 61.3438 49.1987 61.4923C48.8596 62.2776 48.4567 63.0736 47.9903 63.8801C47.4498 64.814 46.8777 65.6629 46.2736 66.4376C44.9382 68.1568 43.4439 69.4833 41.7799 70.4491C39.4907 71.7544 37.5299 72.0197 35.866 71.2131C35.76 71.1707 35.6645 71.1176 35.5585 71.0646C33.831 70.0882 32.9727 68.1993 32.9727 65.4189C32.9727 63.8376 33.2483 62.2246 33.8206 60.5797C34.234 59.338 34.8167 58.0646 35.5585 56.7805C36.2686 55.5601 37.0317 54.4776 37.8584 53.5331C39.0348 52.1536 40.3492 51.0499 41.7799 50.2221C42.9458 49.5429 44.0372 49.1503 45.044 49.0336C45.9025 48.9168 46.6973 49.0336 47.4498 49.3307L47.9903 49.596C48.8382 50.0842 49.4742 50.7846 49.8981 51.6972C50.3539 52.6417 50.5763 53.8303 50.5763 55.2417Z" fill="white" stroke="black"/>
<path d="M68.1786 50.1269C68.1786 50.9441 68.1257 51.7718 68.0303 52.6208C67.9031 53.7033 67.6911 54.8069 67.4049 55.9425C67.3943 55.9637 67.3943 55.9955 67.3837 56.0167C66.875 58.0225 66.1436 60.0706 65.211 62.2037C64.84 62.9253 64.4162 63.6151 63.9393 64.2625C63.4623 64.9204 62.9324 65.4192 62.3495 65.7588C61.4699 66.2682 60.6962 66.3318 60.0391 65.9498C59.3714 65.5784 59.043 64.8886 59.043 63.8698C59.043 63.371 59.3714 62.2886 60.0391 60.6437C60.622 59.4657 61.0246 58.2984 61.2472 57.1629C61.4698 56.0274 61.5759 54.9555 61.5759 53.9367C61.5759 52.918 61.4698 52.0053 61.2472 51.1563C61.0246 50.318 60.622 49.6494 60.0391 49.14C59.7423 48.8853 59.4985 48.5882 59.3183 48.2274C59.1381 47.8665 59.043 47.442 59.043 46.9327C59.043 45.8396 59.3608 44.7571 59.9755 43.6747C60.6008 42.6029 61.3957 41.7857 62.3495 41.2339C62.9324 40.8943 63.4623 40.7776 63.9393 40.8837C64.4162 40.9792 64.84 41.1808 65.211 41.478C65.7833 42.0616 66.2816 42.7514 66.7055 43.5261C66.9705 44.0249 67.2035 44.5555 67.4049 45.1286C67.9242 46.6037 68.1786 48.2698 68.1786 50.1269Z" fill="white" stroke="black"/>
<path d="M81.3738 42.4966C81.3738 43.3032 81.3529 44.1203 81.2893 44.9587C81.0985 48.1211 80.5155 51.4534 79.5616 54.9766C79.0105 57.0142 78.3323 59.0623 77.5375 61.0999C76.6048 63.5195 75.5024 65.9391 74.2306 68.3693C73.8596 69.006 73.4783 69.5579 73.0756 70.046C72.6729 70.5342 72.2064 70.9268 71.6977 71.224C70.7439 71.7758 69.9384 71.8819 69.2813 71.5423C68.6136 71.2134 68.2852 70.4917 68.2852 69.3987C68.2852 68.8999 68.3805 68.3587 68.5607 67.7856C68.7409 67.2232 68.9845 66.6395 69.2813 66.0452C70.6167 63.5619 71.6978 61.0787 72.5457 58.606C72.8636 57.6828 73.1496 56.7489 73.4039 55.8256C74.061 53.3636 74.4958 51.0077 74.6759 48.7791C74.7501 47.9407 74.7818 47.113 74.7818 46.3064C74.7818 43.3562 74.3154 40.735 73.4039 38.4428C73.1496 37.806 72.853 37.2117 72.5245 36.6493C71.6872 35.1954 70.6061 33.9962 69.2813 33.0517C68.9845 32.8076 68.7409 32.5211 68.5607 32.2028C68.3805 31.8844 68.2852 31.4811 68.2852 30.9717C68.2852 29.8787 68.603 28.775 69.2177 27.6501C69.843 26.5358 70.6378 25.6974 71.5916 25.1456C72.1003 24.8485 72.5774 24.6999 73.0225 24.6999C73.351 24.6999 73.6583 24.7636 73.9444 24.8697L74.2306 25.0076C76.3926 26.5464 78.0566 28.6052 79.2118 31.184C79.3602 31.4917 79.4874 31.8101 79.6146 32.1285C80.791 35.1636 81.3738 38.6125 81.3738 42.4966Z" fill="white" stroke="black"/>
<path d="M120.978 41.966V44.8738L85.7812 65.2281V62.3203C85.7812 57.3538 87.869 52.8542 92.0447 48.8321C96.2311 44.8207 100.004 41.8387 103.385 39.886C106.755 37.9334 110.528 36.5538 114.714 35.7366C115.976 35.4925 117.046 35.5032 117.926 35.7897L118.085 35.864C120.014 36.5538 120.978 38.5913 120.978 41.966Z" fill="white" stroke="black"/>
<path d="M112.182 19.6272C112.182 22.4076 111.323 25.2836 109.596 28.2656C109.077 29.157 108.525 29.9848 107.932 30.7383C106.597 32.4893 105.07 33.8476 103.385 34.824C101.096 36.1399 99.1354 36.4052 97.4715 35.5987C97.3655 35.5562 97.2703 35.5032 97.1643 35.4501C95.4368 34.4632 94.5781 32.5848 94.5781 29.8044C94.5781 28.2232 94.8537 26.6101 95.426 24.9652C95.8393 23.7236 96.4224 22.4501 97.1643 21.166C98.8918 18.1946 100.958 15.9979 103.385 14.6076C105.558 13.3554 107.434 13.0476 109.055 13.7162L109.596 13.9815C111.323 14.9685 112.182 16.8468 112.182 19.6272Z" fill="white" stroke="black"/>
<path d="M56.6253 71.5208C56.4981 71.4677 56.3708 71.4253 56.2436 71.3828H56.233C55.364 71.1175 54.3253 71.1175 53.1065 71.351C48.9202 72.1681 45.1473 73.5477 41.7771 75.5004C38.3962 77.453 34.623 80.4351 30.4367 84.4571C26.2609 88.4686 24.1732 92.9681 24.1732 97.9347V100.842L2.97656 90.2302V87.3224C2.97656 82.3559 5.06433 77.8563 9.24006 73.8449C13.4264 69.8228 17.1996 66.8408 20.5805 64.8881C20.9938 64.6441 21.4176 64.4212 21.8416 64.1983L35.5556 71.0645C35.6616 71.1175 35.7571 71.1706 35.8631 71.213C37.527 72.0196 39.4878 71.7543 41.7771 70.449C43.441 69.4832 44.9353 68.1567 46.2707 66.4375L56.6253 71.5208Z" fill="url(#paint0_linear_298_1661)" stroke="black"/>
<path d="M74.7831 46.3064C74.7831 47.113 74.7514 47.9407 74.6772 48.7791C74.497 51.0077 74.0623 53.3636 73.4052 55.8256C73.1508 56.7489 72.8649 57.6828 72.5469 58.606C71.6991 61.0787 70.6179 63.5619 69.2826 66.0452C68.9858 66.6395 68.7422 67.2232 68.562 67.7856C68.3818 68.3587 68.2864 68.8999 68.2864 69.3987C68.2864 70.4917 68.6149 71.2134 69.2826 71.5423L49.1989 61.4925C49.2625 61.344 49.3154 61.206 49.3684 61.0681C49.432 60.9407 49.4742 60.8134 49.5272 60.686L49.9301 60.8877L60.0409 65.9497C60.6979 66.3317 61.4716 66.2681 62.3513 65.7587C62.9342 65.4191 63.4641 64.9203 63.941 64.2623C64.4179 63.615 64.8418 62.9252 65.2127 62.2036C66.1454 60.0705 66.8767 58.0224 67.3855 56.0166C67.3961 55.9954 67.3961 55.9636 67.4067 55.9423C67.6928 54.8068 67.9049 53.7032 68.0321 52.6207C68.1275 51.7717 68.1803 50.944 68.1803 50.1268C68.1803 48.2697 67.926 46.6036 67.4067 45.1285C67.2053 44.5554 66.9722 44.0248 66.7073 43.526C66.2834 42.7513 65.785 42.0615 65.2127 41.4779C64.8418 41.1807 64.4179 40.9791 63.941 40.8836L59.5956 38.6974L53.5865 35.673C53.5865 32.7334 53.1201 30.1121 52.2086 27.8305C51.2866 25.5383 49.9195 23.7448 48.086 22.4395C47.7892 22.1954 47.5456 21.9089 47.3654 21.5905C47.1852 21.2721 47.0898 20.8689 47.0898 20.3595C47.0898 19.2664 47.4077 18.1628 48.0224 17.0379C48.6477 15.9236 49.4425 15.0852 50.3963 14.5334C50.905 14.2362 51.382 14.0877 51.8272 14.0877C52.2723 14.0877 52.6643 14.1938 53.0353 14.3954L73.9457 24.8697C73.6595 24.7636 73.3523 24.6999 73.0238 24.6999C72.5786 24.6999 72.1016 24.8485 71.5929 25.1456C70.639 25.6974 69.8443 26.5358 69.219 27.6501C68.6043 28.775 68.2864 29.8787 68.2864 30.9717C68.2864 31.4811 68.3818 31.8844 68.562 32.2028C68.7422 32.5211 68.9858 32.8077 69.2826 33.0517C70.6073 33.9962 71.6885 35.1954 72.5257 36.6493C72.8543 37.2117 73.1508 37.806 73.4052 38.4428C74.3166 40.735 74.7831 43.3562 74.7831 46.3064Z" fill="url(#paint1_linear_298_1661)" stroke="black"/>
<path d="M117.929 35.7899C117.049 35.5034 115.979 35.4928 114.718 35.7368C110.531 36.554 106.758 37.9336 103.388 39.8862C100.007 41.8389 96.2343 44.8209 92.048 48.8324C87.8723 52.8544 85.7845 57.354 85.7845 62.3205V65.2283L77.5391 61.1001C78.3339 59.0626 79.0121 57.0144 79.5632 54.9768C80.5171 51.4536 81.1001 48.1213 81.2909 44.9589C81.3544 44.1205 81.3754 43.3034 81.3754 42.4968C81.3754 38.6128 80.7926 35.1638 79.6162 32.1287C79.489 31.8103 79.3618 31.4919 79.2134 31.1842C80.2414 30.4626 81.2377 29.8258 82.1915 29.274C82.6048 29.0299 83.0288 28.807 83.4527 28.5842L97.1671 35.4503C97.2731 35.5034 97.3683 35.5564 97.4742 35.5989C99.1382 36.4054 101.099 36.1401 103.388 34.8242C105.073 33.8479 106.599 32.4895 107.935 30.7385L117.929 35.7899Z" fill="url(#paint2_linear_298_1661)" stroke="black"/>
<path d="M109.057 13.7161C107.435 13.0475 105.559 13.3553 103.387 14.6075C100.96 15.9977 98.8931 18.1945 97.1656 21.1659C96.4237 22.45 95.8406 23.7235 95.4273 24.9651C94.855 26.61 94.5794 28.2231 94.5794 29.8043C94.5794 32.5847 95.4381 34.4631 97.1656 35.45L83.4512 28.5839L76.5095 25.1031L75.969 24.8377C74.2415 23.8508 73.3828 21.9724 73.3828 19.192C73.3828 16.4116 74.2415 13.5357 75.969 10.5537C77.6965 7.58228 79.763 5.38554 82.19 3.99534C84.6064 2.59452 86.6733 2.38229 88.4008 3.36923L109.057 13.7161Z" fill="url(#paint3_linear_298_1661)" stroke="black"/>
<path d="M118.489 36.0656L118.086 35.864" stroke="black"/>
<path d="M63.9405 40.8837C63.4636 40.7776 62.9337 40.8943 62.3508 41.2339C61.397 41.7857 60.6021 42.6029 59.9768 43.6747C59.3621 44.7571 59.0442 45.8396 59.0442 46.9327C59.0442 47.442 59.1394 47.8665 59.3196 48.2273C59.4998 48.5882 59.7436 48.8853 60.0404 49.14C60.6233 49.6494 61.0259 50.318 61.2485 51.1563C61.471 52.0053 61.5771 52.9286 61.5771 53.9367C61.5771 54.9449 61.471 56.0273 61.2485 57.1629C61.0259 58.2984 60.6233 59.4657 60.0404 60.6437C59.3727 62.2886 59.0442 63.371 59.0442 63.8698C59.0442 64.8886 59.3727 65.5784 60.0404 65.9498L49.9296 60.8878L49.5268 60.6861C50.2262 58.8396 50.576 57.0143 50.576 55.242C50.576 53.8306 50.3535 52.642 49.8978 51.6976C49.4739 50.7849 48.8379 50.0845 47.99 49.5963L47.4495 49.331L45.3298 48.2592L40.2005 45.7016C40.3171 44.8739 40.3805 44.0886 40.3805 43.3245C40.3805 42.3163 40.2745 41.3931 40.0519 40.5441C39.8293 39.7057 39.4267 39.0371 38.8438 38.5278C38.547 38.2731 38.3032 37.9759 38.123 37.6151C37.9428 37.2543 37.8477 36.8298 37.8477 36.3204C37.8477 35.2273 38.1655 34.1449 38.7802 33.0625C39.4055 31.9906 40.2004 31.1735 41.1542 30.6216C41.7371 30.282 42.267 30.1653 42.744 30.2714C43.2209 30.3669 43.6447 30.5686 44.0156 30.8657L53.586 35.6731L59.5951 38.6976L63.9405 40.8837Z" fill="url(#paint4_linear_298_1661)" stroke="black"/>
<path d="M47.4472 49.3309C46.6947 49.0232 45.8998 48.917 45.0414 49.0338C44.0345 49.1505 42.9431 49.5432 41.7773 50.2223C40.3465 51.0501 39.0321 52.1538 37.8557 53.5334C37.0291 54.4778 36.266 55.5603 35.5559 56.7807C34.814 58.0648 34.2313 59.3383 33.818 60.5799C33.2457 62.2248 32.97 63.8379 32.97 65.4191C32.97 68.1995 33.8284 70.0885 35.5559 71.0648L21.8418 64.1987L14.8999 60.7179L14.3593 60.4525C12.6318 59.4762 11.7734 57.5872 11.7734 54.8068C11.7734 52.0264 12.6318 49.1505 14.3593 46.1685C16.0868 43.197 18.1537 41.0109 20.5807 39.6101C22.9971 38.2093 25.0636 37.997 26.7911 38.984L40.1982 45.7015L45.3275 48.2591L47.4472 49.3309Z" fill="url(#paint5_linear_298_1661)" stroke="black"/>
<path d="M56.625 71.5212L56.8263 71.6167" stroke="black"/>
<path d="M75.572 87.9351L75.6004 88.1724C76.0233 91.7079 78.5968 93.1956 81.866 91.7946L82.0854 91.7006L81.866 91.8602C78.5968 94.2393 76.0233 98.7025 75.6004 102.727L75.572 102.997L75.5436 102.76C75.1207 99.2243 72.5472 97.7366 69.2779 99.1375L69.0586 99.2315L69.2779 99.0719C72.5472 96.6929 75.1207 92.2297 75.5436 88.2052L75.572 87.9351Z" fill="white"/>
<path fill-rule="evenodd" clip-rule="evenodd" d="M75.5986 88.1051C76.0215 91.6406 78.595 93.1284 81.8643 91.7274L82.0836 91.6334L81.8643 91.7931C78.595 94.1721 76.0216 98.6352 75.5986 102.66L75.5702 102.93L75.5418 102.693C75.1188 99.1571 72.5454 97.6694 69.2761 99.0704L69.0568 99.1643L69.2761 99.0047C72.5454 96.6257 75.1188 92.1625 75.5418 88.1379L75.5702 87.868L75.5986 88.1051ZM75.5702 88.4684C75.0487 92.3156 72.6428 96.4883 69.5761 98.8641C72.6428 97.6941 75.0487 99.085 75.5702 102.329C76.0917 98.4821 78.4976 94.3095 81.5642 91.9337C78.4976 93.1035 76.0917 91.7126 75.5702 88.4684Z" fill="black"/>
<path d="M75.5702 102.93L75.5418 102.693C75.1188 99.1571 72.5454 97.6694 69.2761 99.0704L69.0568 99.1643C69.0568 99.1643 69.9341 98.7114 70.9295 99.1643C71.9248 99.6172 72.1347 101.587 72.1347 101.587L75.5702 102.93Z" fill="url(#paint6_linear_298_1661)"/>
<path d="M69.0568 99.1643L69.2761 99.0047C72.5454 96.6257 75.1188 92.1625 75.5418 88.1379L75.5702 87.868L71.3805 86.1898L71.3521 86.4599C70.9292 90.4844 68.3558 94.9477 65.0865 97.3267L64.8672 97.4862L68.7961 99.0337L69.0568 99.1643Z" fill="url(#paint7_linear_298_1661)"/>
<path d="M75.6877 87.7788L75.7249 88.0901C75.9331 89.8309 76.6673 91.045 77.7284 91.6584C78.7894 92.2719 80.2065 92.3015 81.8162 91.6117L82.0356 91.5177L82.159 91.7351L81.9396 91.8948C78.6992 94.2529 76.1444 98.6839 75.7251 102.673L75.6795 103.107L72.0193 101.677L72.0112 101.601L72.0112 101.601C72.0111 101.6 72.0111 101.6 72.0111 101.6C72.011 101.599 72.0109 101.598 72.0107 101.596C72.0103 101.593 72.0097 101.587 72.0089 101.58C72.0072 101.567 72.0045 101.546 72.0008 101.519C71.9933 101.466 71.9815 101.389 71.9643 101.295C71.9297 101.107 71.8735 100.852 71.7872 100.584C71.7007 100.316 71.5852 100.038 71.4335 99.8021C71.2815 99.5655 71.0982 99.3786 70.879 99.2788C70.4094 99.0652 69.9677 99.065 69.6418 99.1186C69.4788 99.1455 69.3456 99.1857 69.2537 99.2189C69.2425 99.223 69.2321 99.2271 69.2222 99.2309L69.0543 99.3029L68.7458 99.1485L64.6094 97.5193L65.0141 97.2248C68.2546 94.8668 70.8094 90.4357 71.2286 86.4467L71.2744 86.0112L75.6877 87.7788ZM73.415 99.1393C72.5695 98.6505 71.4979 98.5324 70.2829 98.8536C70.5028 98.8795 70.7396 98.939 70.983 99.0497C71.2614 99.1764 71.4776 99.4056 71.6449 99.6658C71.8125 99.9266 71.9361 100.226 72.0265 100.507C72.117 100.788 72.1756 101.054 72.2115 101.25C72.2294 101.348 72.2418 101.428 72.2497 101.484C72.2503 101.489 72.2508 101.493 72.2514 101.497L75.4219 102.736L75.4185 102.708C75.2103 100.967 74.4761 99.7527 73.415 99.1393ZM75.5872 89.1553C74.9327 92.6169 72.8461 96.2356 70.1795 98.5341C71.4806 98.1772 72.6539 98.2901 73.5919 98.8323C74.5299 99.3746 75.2141 100.336 75.5561 101.642C76.2107 98.1807 78.2972 94.562 80.9638 92.2635C79.6627 92.6204 78.4894 92.5076 77.5514 91.9653C76.6134 91.423 75.9292 90.462 75.5872 89.1553ZM71.5352 86.412L71.4844 86.4181L71.4787 86.4731C71.052 90.533 68.46 95.0285 65.1619 97.4285L65.128 97.4531L68.8436 98.9167L68.8489 98.9187L68.8539 98.9212L69.0462 99.0174L69.2038 98.9029C72.4442 96.5448 74.999 92.1138 75.4183 88.1247L75.4367 87.9494L71.532 86.3854L71.5352 86.412Z" fill="black"/>
<path d="M27.1032 11.6684L27.1316 11.9056C27.5546 15.4411 30.128 16.9289 33.3973 15.5279L33.6167 15.4339L33.3973 15.5935C30.128 17.9726 27.5546 22.4357 27.1316 26.4603L27.1032 26.7303L27.0749 26.4931C26.6519 22.9576 24.0785 21.4698 20.8092 22.8708L20.5898 22.9648L20.8092 22.8052C24.0785 20.4262 26.6519 15.963 27.0749 11.9385L27.1032 11.6684Z" fill="white"/>
<path fill-rule="evenodd" clip-rule="evenodd" d="M27.1298 11.8384C27.5528 15.3739 30.1262 16.8617 33.3955 15.4607L33.6149 15.3667L33.3955 15.5264C30.1262 17.9054 27.5528 22.3685 27.1298 26.393L27.1014 26.6631L27.0731 26.4259C26.6501 22.8904 24.0767 21.4027 20.8074 22.8037L20.5881 22.8976L20.8074 22.738C24.0767 20.359 26.6501 15.8958 27.0731 11.8712L27.1014 11.6013L27.1298 11.8384ZM27.1014 12.2017C26.58 16.0489 24.174 20.2216 21.1074 22.5974C24.174 21.4274 26.58 22.8183 27.1014 26.0625C27.6229 22.2154 30.0288 18.0428 33.0954 15.667C30.0288 16.8368 27.6229 15.4459 27.1014 12.2017Z" fill="black"/>
<path d="M27.1014 26.6631L27.0731 26.4259C26.6501 22.8904 24.0767 21.4027 20.8074 22.8037L20.5881 22.8976C20.5881 22.8976 21.4653 22.4447 22.4607 22.8976C23.4561 23.3505 23.6659 25.3207 23.6659 25.3207L27.1014 26.6631Z" fill="url(#paint8_linear_298_1661)"/>
<path d="M20.5881 22.8976L20.8074 22.738C24.0767 20.359 26.6501 15.8958 27.0731 11.8712L27.1014 11.6013L22.9118 9.92311L22.8834 10.1932C22.4604 14.2177 19.887 18.681 16.6177 21.06L16.3984 21.2195L20.3274 22.767L20.5881 22.8976Z" fill="url(#paint9_linear_298_1661)"/>
<path d="M27.2189 11.5121L27.2561 11.8234C27.4644 13.5642 28.1986 14.7783 29.2596 15.3917C30.3207 16.0052 31.7378 16.0348 33.3475 15.345L33.5669 15.251L33.6903 15.4684L33.4709 15.6281C30.2305 17.9862 27.6756 22.4172 27.2564 26.4062L27.2107 26.8404L23.5506 25.4101L23.5425 25.334L23.5424 25.3339C23.5424 25.3337 23.5424 25.3334 23.5423 25.3331C23.5422 25.3323 23.5421 25.331 23.5419 25.3293C23.5415 25.3259 23.541 25.3206 23.5401 25.3137C23.5384 25.2999 23.5357 25.2793 23.532 25.2527C23.5245 25.1995 23.5128 25.1224 23.4955 25.0285C23.461 24.8404 23.4047 24.5856 23.3184 24.3176C23.2319 24.0491 23.1165 23.7714 22.9648 23.5354C22.8127 23.2988 22.6294 23.1119 22.4102 23.0121C21.9407 22.7985 21.4989 22.7983 21.173 22.8519C21.0101 22.8788 20.8768 22.919 20.7849 22.9522C20.7738 22.9563 20.7633 22.9604 20.7534 22.9642L20.5855 23.0362L20.2771 22.8818L16.1406 21.2526L16.5454 20.9581C19.7858 18.6001 22.3406 14.169 22.7599 10.18L22.8057 9.74448L27.2189 11.5121ZM24.9463 22.8726C24.1008 22.3838 23.0292 22.2656 21.8142 22.5869C22.0341 22.6128 22.2708 22.6723 22.5142 22.783C22.7927 22.9097 23.0089 23.1389 23.1761 23.3991C23.3437 23.6599 23.4673 23.9597 23.5577 24.2404C23.6483 24.5216 23.7068 24.7876 23.7427 24.983C23.7607 25.0809 23.773 25.1613 23.7809 25.2176C23.7816 25.2221 23.7821 25.2264 23.7827 25.2306L26.9531 26.4695L26.9498 26.4408C26.7415 24.7 26.0073 23.486 24.9463 22.8726ZM27.1185 12.8886C26.4639 16.3502 24.3774 19.9689 21.7107 22.2674C23.0119 21.9105 24.1852 22.0234 25.1232 22.5656C26.0612 23.1079 26.7454 24.0689 27.0873 25.3756C27.7419 21.914 29.8284 18.2953 32.495 15.9968C31.1939 16.3537 30.0206 16.2409 29.0826 15.6986C28.1447 15.1563 27.4604 14.1953 27.1185 12.8886ZM23.0665 10.1453L23.0157 10.1514L23.0099 10.2064C22.5832 14.2663 19.9912 18.7618 16.6931 21.1618L16.6593 21.1864L20.3749 22.65L20.3801 22.652L20.3851 22.6545L20.5774 22.7507L20.735 22.6362C23.9755 20.2781 26.5303 15.8471 26.9495 11.858L26.9679 11.6827L23.0633 10.1187L23.0665 10.1453Z" fill="black"/>
<path d="M103.267 67.1351L103.296 67.3723C103.719 70.9078 106.292 72.3956 109.561 70.9946L109.781 70.9006L109.561 71.0602C106.292 73.4393 103.719 77.9024 103.296 81.927L103.267 82.197L103.239 81.9598C102.816 78.4243 100.243 76.9366 96.9733 78.3375L96.7539 78.4315L96.9733 78.2719C100.243 75.8929 102.816 71.4297 103.239 67.4052L103.267 67.1351Z" fill="white"/>
<path fill-rule="evenodd" clip-rule="evenodd" d="M103.294 67.3051C103.717 70.8406 106.29 72.3284 109.56 70.9274L109.779 70.8334L109.56 70.9931C106.29 73.3721 103.717 77.8352 103.294 81.8597L103.266 82.1298L103.237 81.8926C102.814 78.3571 100.241 76.8694 96.9715 78.2704L96.7522 78.3643L96.9715 78.2047C100.241 75.8257 102.814 71.3625 103.237 67.3379L103.266 67.068L103.294 67.3051ZM103.266 67.6684C102.744 71.5156 100.338 75.6883 97.2714 78.0641C100.338 76.8941 102.744 78.285 103.266 81.5293C103.787 77.6821 106.193 73.5095 109.259 71.1337C106.193 72.3035 103.787 70.9126 103.266 67.6684Z" fill="black"/>
<path d="M103.266 82.1298L103.237 81.8926C102.814 78.3571 100.241 76.8694 96.9715 78.2704L96.7522 78.3643C96.7522 78.3643 97.6294 77.9114 98.6248 78.3643C99.6202 78.8172 99.83 80.7874 99.83 80.7874L103.266 82.1298Z" fill="url(#paint10_linear_298_1661)"/>
<path d="M96.7522 78.3643L96.9715 78.2047C100.241 75.8257 102.814 71.3625 103.237 67.3379L103.266 67.068L99.0759 65.3898L99.0475 65.6599C98.6245 69.6844 96.0511 74.1477 92.7818 76.5267L92.5625 76.6862L96.4914 78.2337L96.7522 78.3643Z" fill="url(#paint11_linear_298_1661)"/>
<path d="M103.383 66.9788L103.42 67.2901C103.628 69.0309 104.363 70.245 105.424 70.8584C106.485 71.4719 107.902 71.5015 109.512 70.8117L109.731 70.7177L109.854 70.9351L109.635 71.0948C106.395 73.4529 103.84 77.8839 103.42 81.8729L103.375 82.3071L99.7146 80.8768L99.7065 80.8007L99.706 80.796C99.7056 80.7926 99.705 80.7873 99.7042 80.7804C99.7025 80.7666 99.6998 80.746 99.6961 80.7194C99.6886 80.6662 99.6768 80.5891 99.6596 80.4952C99.625 80.3071 99.5688 80.0522 99.4825 79.7843C99.396 79.5158 99.2805 79.2381 99.1288 79.0021C98.9768 78.7655 98.7935 78.5786 98.5743 78.4788C98.1047 78.2652 97.663 78.265 97.3371 78.3186C97.1741 78.3455 97.0409 78.3857 96.949 78.4189C96.9378 78.423 96.9274 78.4271 96.9175 78.4309L96.7496 78.5029L96.4412 78.3485L92.3047 76.7193L92.7094 76.4248C95.9499 74.0668 98.5047 69.6357 98.9239 65.6467L98.9698 65.2112L103.383 66.9788ZM101.11 78.3393C100.265 77.8505 99.1932 77.7323 97.9782 78.0536C98.1981 78.0795 98.4349 78.139 98.6783 78.2497C98.9567 78.3764 99.1729 78.6056 99.3402 78.8658C99.5078 79.1266 99.6314 79.4264 99.7218 79.7071C99.8123 79.9883 99.8709 80.2543 99.9068 80.4497C99.9247 80.5476 99.9371 80.628 99.945 80.6843C99.9456 80.6888 99.9461 80.6931 99.9467 80.6973L103.117 81.9362L103.114 81.9075C102.906 80.1667 102.171 78.9527 101.11 78.3393ZM103.283 68.3553C102.628 71.8169 100.541 75.4356 97.8748 77.7341C99.1759 77.3772 100.349 77.4901 101.287 78.0323C102.225 78.5746 102.909 79.5356 103.251 80.8423C103.906 77.3807 105.993 73.762 108.659 71.4635C107.358 71.8204 106.185 71.7076 105.247 71.1653C104.309 70.623 103.624 69.662 103.283 68.3553ZM99.2305 65.612L99.1797 65.6181L99.174 65.6731C98.7473 69.733 96.1553 74.2285 92.8572 76.6285L92.8233 76.6531L96.5389 78.1167L96.5442 78.1187L96.5492 78.1212L96.7415 78.2174L96.8991 78.1029C100.14 75.7448 102.694 71.3138 103.114 67.3247L103.132 67.1494L99.2274 65.5854L99.2305 65.612Z" fill="black"/>
<defs>
<linearGradient id="paint0_linear_298_1661" x1="7.44303" y1="68.1325" x2="9.8255" y2="102.909" gradientUnits="userSpaceOnUse">
<stop stop-color="#534EFF"/>
<stop offset="0.272808" stop-color="#C200FB"/>
<stop offset="0.460443" stop-color="#EC0868"/>
<stop offset="0.667914" stop-color="#FC2F00"/>
<stop offset="0.826923" stop-color="#EC7D10"/>
<stop offset="1" stop-color="#FFBC0A"/>
</linearGradient>
<linearGradient id="paint1_linear_298_1661" x1="49.3954" y1="20.256" x2="60.3219" y2="72.7654" gradientUnits="userSpaceOnUse">
<stop stop-color="#534EFF"/>
<stop offset="0.272808" stop-color="#C200FB"/>
<stop offset="0.460443" stop-color="#EC0868"/>
<stop offset="0.667914" stop-color="#FC2F00"/>
<stop offset="0.826923" stop-color="#EC7D10"/>
<stop offset="1" stop-color="#FFBC0A"/>
</linearGradient>
<linearGradient id="paint2_linear_298_1661" x1="80.9017" y1="32.5183" x2="84.055" y2="67.1715" gradientUnits="userSpaceOnUse">
<stop stop-color="#534EFF"/>
<stop offset="0.272808" stop-color="#C200FB"/>
<stop offset="0.460443" stop-color="#EC0868"/>
<stop offset="0.667914" stop-color="#FC2F00"/>
<stop offset="0.826923" stop-color="#EC7D10"/>
<stop offset="1" stop-color="#FFBC0A"/>
</linearGradient>
<linearGradient id="paint3_linear_298_1661" x1="76.3528" y1="6.26899" x2="79.1937" y2="37.1785" gradientUnits="userSpaceOnUse">
<stop stop-color="#534EFF"/>
<stop offset="0.272808" stop-color="#C200FB"/>
<stop offset="0.460443" stop-color="#EC0868"/>
<stop offset="0.667914" stop-color="#FC2F00"/>
<stop offset="0.826923" stop-color="#EC7D10"/>
<stop offset="1" stop-color="#FFBC0A"/>
</linearGradient>
<linearGradient id="paint4_linear_298_1661" x1="40.02" y1="34.0681" x2="44.6089" y2="67.4935" gradientUnits="userSpaceOnUse">
<stop stop-color="#534EFF"/>
<stop offset="0.272808" stop-color="#C200FB"/>
<stop offset="0.460443" stop-color="#EC0868"/>
<stop offset="0.667914" stop-color="#FC2F00"/>
<stop offset="0.826923" stop-color="#EC7D10"/>
<stop offset="1" stop-color="#FFBC0A"/>
</linearGradient>
<linearGradient id="paint5_linear_298_1661" x1="14.7434" y1="41.8837" x2="17.5843" y2="72.7933" gradientUnits="userSpaceOnUse">
<stop stop-color="#534EFF"/>
<stop offset="0.272808" stop-color="#C200FB"/>
<stop offset="0.460443" stop-color="#EC0868"/>
<stop offset="0.667914" stop-color="#FC2F00"/>
<stop offset="0.826923" stop-color="#EC7D10"/>
<stop offset="1" stop-color="#FFBC0A"/>
</linearGradient>
<linearGradient id="paint6_linear_298_1661" x1="66.3005" y1="87.987" x2="67.8425" y2="103.798" gradientUnits="userSpaceOnUse">
<stop offset="0.216346" stop-color="#08EC72"/>
<stop offset="0.466346" stop-color="#1098EC"/>
<stop offset="0.620192" stop-color="#0093FC"/>
<stop offset="0.802885" stop-color="#C200FB"/>
<stop offset="1" stop-color="#534EFF"/>
</linearGradient>
<linearGradient id="paint7_linear_298_1661" x1="66.3005" y1="87.987" x2="67.8425" y2="103.798" gradientUnits="userSpaceOnUse">
<stop offset="0.216346" stop-color="#08EC72"/>
<stop offset="0.466346" stop-color="#1098EC"/>
<stop offset="0.620192" stop-color="#0093FC"/>
<stop offset="0.802885" stop-color="#C200FB"/>
<stop offset="1" stop-color="#534EFF"/>
</linearGradient>
<linearGradient id="paint8_linear_298_1661" x1="17.8318" y1="11.7203" x2="19.3737" y2="27.5316" gradientUnits="userSpaceOnUse">
<stop offset="0.216346" stop-color="#08EC72"/>
<stop offset="0.466346" stop-color="#1098EC"/>
<stop offset="0.620192" stop-color="#0093FC"/>
<stop offset="0.802885" stop-color="#C200FB"/>
<stop offset="1" stop-color="#534EFF"/>
</linearGradient>
<linearGradient id="paint9_linear_298_1661" x1="17.8318" y1="11.7203" x2="19.3737" y2="27.5316" gradientUnits="userSpaceOnUse">
<stop offset="0.216346" stop-color="#08EC72"/>
<stop offset="0.466346" stop-color="#1098EC"/>
<stop offset="0.620192" stop-color="#0093FC"/>
<stop offset="0.802885" stop-color="#C200FB"/>
<stop offset="1" stop-color="#534EFF"/>
</linearGradient>
<linearGradient id="paint10_linear_298_1661" x1="93.9958" y1="67.187" x2="95.5378" y2="82.9983" gradientUnits="userSpaceOnUse">
<stop offset="0.216346" stop-color="#08EC72"/>
<stop offset="0.466346" stop-color="#1098EC"/>
<stop offset="0.620192" stop-color="#0093FC"/>
<stop offset="0.802885" stop-color="#C200FB"/>
<stop offset="1" stop-color="#534EFF"/>
</linearGradient>
<linearGradient id="paint11_linear_298_1661" x1="93.9958" y1="67.187" x2="95.5378" y2="82.9983" gradientUnits="userSpaceOnUse">
<stop offset="0.216346" stop-color="#08EC72"/>
<stop offset="0.466346" stop-color="#1098EC"/>
<stop offset="0.620192" stop-color="#0093FC"/>
<stop offset="0.802885" stop-color="#C200FB"/>
<stop offset="1" stop-color="#534EFF"/>
</linearGradient>
</defs>
</svg>
