<svg width="224" height="226" viewBox="0 0 224 226" fill="none" xmlns="http://www.w3.org/2000/svg">
<g clip-path="url(#clip0_298_1635)">
<path d="M148.346 96.7019C148.315 95.99 148.382 95.2866 148.53 94.5637L148.346 96.7019ZM138.2 62.2975L138.126 63.1528C137.703 66.5296 135.329 69.3872 131.038 71.7283C126.373 74.256 120.788 75.4582 114.274 75.2947C107.752 75.1438 102.245 73.6753 97.7495 70.9219C93.2544 68.1685 91.0684 64.9246 91.1814 61.1499C91.2994 57.3954 93.6986 54.2419 98.351 51.7065C103.016 49.1789 108.606 47.9968 115.12 48.1604C121.642 48.3113 127.145 49.7595 131.64 52.5129C136.135 55.2662 138.326 58.5304 138.2 62.2975Z" fill="white" stroke="black"/>
<path d="M52.1633 107.378C46.9 106.925 42.3215 105.523 38.4434 103.148C33.9483 100.394 31.7574 97.13 31.883 93.3629L29.0492 126.258C28.9236 130.025 31.1145 133.289 35.6096 136.043C39.4877 138.418 44.0662 139.82 49.3295 140.273C54.5801 140.719 59.5327 140.238 64.1545 138.827L66.1299 115.898L66.9884 105.931C62.3665 107.343 57.4139 107.824 52.1633 107.378Z" fill="url(#paint0_linear_298_1635)" stroke="black"/>
<path d="M188.829 87.5431C184.333 84.7897 178.831 83.3414 172.309 83.1905C165.795 83.0269 160.205 84.209 155.553 86.7443C151.514 88.9282 149.188 91.5381 148.529 94.5633L148.345 96.7016C148.423 98.9486 149.437 101.11 151.381 103.167L147.611 105.221L124.805 117.606C121.168 116.279 117.227 115.561 113.014 115.457C108.78 115.357 104.805 115.883 101.087 117.034L75.4509 101.331C77.4281 99.4603 78.576 97.445 78.8714 95.3231L78.8723 95.2368C78.9781 94.4705 78.9724 93.6882 78.8431 92.8817C78.3773 89.8259 76.2117 87.1139 72.3336 84.7384C67.8385 81.985 62.3313 80.5165 55.8092 80.3656C49.2949 80.2021 43.71 81.4044 39.045 83.9321C34.3926 86.4674 32.001 89.6085 31.8831 93.3629C31.7574 97.13 33.9483 100.394 38.4434 103.148C42.3215 105.523 46.9001 106.925 52.1633 107.378C57.4139 107.824 62.3665 107.343 66.9884 105.931L92.6243 121.634C90.6751 123.488 89.5379 125.457 89.2249 127.551L89.1209 128.682C89.1267 129.153 89.1605 129.607 89.2321 130.084C89.6853 133.132 91.818 135.841 95.6331 138.178C100.128 140.931 105.631 142.38 112.153 142.531C118.667 142.694 124.257 141.512 128.922 138.984C132.872 136.833 135.17 134.24 135.828 131.215C136.474 128.182 135.527 125.317 132.977 122.611L146.758 115.123L159.552 108.172C164.078 109.801 168.987 110.523 174.266 110.328C179.545 110.133 184.201 108.95 188.227 106.758C192.571 104.415 194.935 101.517 195.316 98.0968L195.389 97.3276C195.515 93.5605 193.324 90.2965 188.829 87.5431Z" fill="white" stroke="black"/>
<path d="M132.997 164.11L133.179 162.005C133.205 162.696 133.151 163.407 132.997 164.11Z" stroke="black"/>
<path d="M159.554 108.172L146.76 115.123L132.979 122.612C135.529 125.317 136.475 128.182 135.83 131.215L133.914 153.452L156.72 141.068L158.78 117.239L159.554 108.172Z" fill="url(#paint1_linear_298_1635)" stroke="black"/>
<path d="M195.319 98.0965C194.938 101.517 192.574 104.415 188.23 106.758C184.203 108.95 179.548 110.133 174.269 110.328C168.989 110.522 164.081 109.801 159.555 108.172L158.781 117.238L156.721 141.067C161.247 142.696 166.156 143.417 171.435 143.223C176.714 143.028 181.369 141.845 185.396 139.653C190.061 137.126 192.44 133.977 192.558 130.222L195.319 98.0965Z" fill="url(#paint2_linear_298_1635)" stroke="black"/>
<path d="M148.348 96.7019L147.614 105.222" stroke="black"/>
<path d="M86.3939 160.447L86.3371 161.105" stroke="black"/>
<path d="M135.459 130.988C134.801 134.013 132.503 136.605 128.553 138.757C123.888 141.285 118.298 142.467 111.784 142.303C105.262 142.153 99.7596 140.704 95.2645 137.951C91.4493 135.614 89.3167 132.905 88.8634 129.857C88.7918 129.38 88.758 128.926 88.7522 128.455L87.4713 143.324L86.6769 152.621L86.0224 160.22C85.8984 161.044 85.8982 161.892 86.0296 162.752C86.4829 165.8 88.6155 168.509 92.4307 170.846C96.9258 173.599 102.428 175.048 108.95 175.199C115.465 175.362 121.054 174.18 125.719 171.652C129.669 169.501 131.967 166.908 132.625 163.883L132.807 161.778L133.543 153.225L135.459 130.988Z" fill="url(#paint3_linear_298_1635)" stroke="black"/>
<path d="M92.6267 121.634L66.9908 105.931L66.1323 115.898L64.157 138.826L87.048 152.848L87.8424 143.551L89.1233 128.682L89.2273 127.551C89.5402 125.457 90.6775 123.487 92.6267 121.634Z" fill="url(#paint4_linear_298_1635)" stroke="black"/>
<path d="M78.8721 95.3237L78.1965 103.013" stroke="black"/>
<path d="M138.127 63.1528C137.703 66.5296 135.33 69.3872 131.039 71.7283C126.373 74.256 120.789 75.4582 114.274 75.2947C107.752 75.1438 102.245 73.6753 97.75 70.9219C93.2549 68.1685 91.0688 64.9246 91.1819 61.1499L88.3481 94.045C88.235 97.8198 90.4211 101.064 94.9162 103.817C99.4113 106.57 104.918 108.039 111.441 108.19C117.955 108.353 123.54 107.151 128.205 104.624C132.857 102.088 135.249 98.9471 135.367 95.1927L138.127 63.1528Z" fill="url(#paint5_linear_298_1635)" stroke="black"/>
<path d="M138.2 62.2969L138.126 63.1521" stroke="black"/>
<path d="M84.846 69.2889L84.5829 69.0809C80.661 65.9814 80.7695 61.8057 84.8471 58.9142L85.1207 58.7202L84.7686 58.866C79.5201 61.0404 72.2876 60.8525 67.1593 58.4084L66.8152 58.2444L67.0783 58.4524C71.0002 61.5518 70.8917 65.7275 66.8141 68.6191L66.5405 68.8131L66.8926 68.6672C72.1411 66.4928 79.3736 66.6808 84.5019 69.1249L84.846 69.2889Z" fill="white"/>
<path fill-rule="evenodd" clip-rule="evenodd" d="M84.6619 69.1303C80.7401 66.0308 80.8485 61.855 84.926 58.9635L85.1997 58.7695L84.8475 58.9153C79.5991 61.0897 72.3667 60.9018 67.2383 58.4578L66.8941 58.2937L67.1573 58.5017C71.0791 61.6012 70.9706 65.7768 66.893 68.6684L66.6196 68.8624L66.9716 68.7165C72.22 66.5421 79.4525 66.7302 84.5809 69.1742L84.925 69.3382L84.6619 69.1303ZM84.2062 68.8979C79.2177 66.7019 72.456 66.5262 67.3603 68.4601C71.0125 65.642 71.1139 61.7381 67.6131 58.7341C72.6014 60.93 79.3631 61.1057 84.4588 59.1719C80.8067 61.99 80.7053 65.8939 84.2062 68.8979Z" fill="black"/>
<path d="M66.8941 58.2937L67.1573 58.5017C71.0791 61.6012 70.9706 65.7768 66.893 68.6684L66.6196 68.8624C66.6196 68.8624 67.8058 68.143 67.9945 66.6177C68.1832 65.0925 65.9787 63.3962 65.9787 63.3962L66.8941 58.2937Z" fill="url(#paint6_linear_298_1635)"/>
<path d="M66.6196 68.8624L66.9716 68.7165C72.22 66.5421 79.4525 66.7302 84.5809 69.1742L84.925 69.3382L83.8577 75.5908L83.5136 75.4268C78.3852 72.9828 71.1526 72.7947 65.9042 74.9691L65.5522 75.115L66.5844 69.2707L66.6196 68.8624Z" fill="url(#paint7_linear_298_1635)"/>
<path d="M85.1168 69.2645L84.7715 68.9917C82.8405 67.4655 81.9261 65.6952 81.9708 63.9735C82.0156 62.2518 83.0205 60.5314 85.0282 59.1076L85.3019 58.9136L85.1322 58.6063L84.7799 58.7521C79.5778 60.9073 72.3975 60.7207 67.3143 58.2982L66.7611 58.0346L65.7859 63.4707L65.8709 63.5362L65.8711 63.5364C65.8713 63.5366 65.8716 63.5368 65.872 63.5371C65.8729 63.5378 65.8743 63.5389 65.8762 63.5404C65.88 63.5434 65.8859 63.5479 65.8935 63.554C65.9089 63.5661 65.9316 63.5845 65.9607 63.6084C66.0189 63.6564 66.1025 63.727 66.2022 63.8166C66.4021 63.9959 66.6658 64.2502 66.9232 64.5501C67.1812 64.8507 67.4288 65.1927 67.6 65.5476C67.7715 65.9033 67.8608 66.2602 67.8192 66.5961C67.7302 67.3156 67.4061 67.8452 67.1026 68.1965C66.9508 68.3722 66.8048 68.5024 66.6976 68.5882C66.6846 68.5986 66.6719 68.6081 66.6601 68.6172L66.4506 68.7657L66.409 69.2486L65.3222 75.4016L65.9719 75.1324C71.174 72.9772 78.3544 73.1639 83.4376 75.5864L83.9925 75.8508L85.1168 69.2645ZM69.8483 63.6584C69.8127 65.0303 69.1673 66.4015 67.8907 67.6224C68.021 67.3397 68.1237 67.0124 68.1698 66.6394C68.2226 66.2127 68.107 65.7855 67.9183 65.3942C67.7292 65.0021 67.461 64.6341 67.1914 64.3199C66.9213 64.0052 66.6458 63.7399 66.4382 63.5536C66.3343 63.4603 66.247 63.3865 66.1854 63.3358C66.1805 63.3317 66.1757 63.3279 66.1712 63.3242L67.0159 58.6153L67.0477 58.6403C68.9788 60.1665 69.8931 61.9368 69.8483 63.6584ZM83.3953 68.3756C78.7707 66.6219 72.9067 66.4695 68.1972 67.9806C69.5797 66.6826 70.3061 65.1935 70.3457 63.6714C70.3852 62.1494 69.7371 60.6246 68.424 59.2566C73.0485 61.0101 78.9126 61.1626 83.622 59.6516C82.2395 60.9495 81.5131 62.4387 81.4735 63.9607C81.434 65.4827 82.0821 67.0076 83.3953 68.3756ZM83.7042 75.2443L83.6596 75.3007L83.5896 75.2673C78.416 72.8017 71.1312 72.6123 65.8366 74.8059L65.7823 74.8285L66.7583 69.3014L66.7597 69.2936L66.7605 69.2858L66.7864 68.9847L67.0392 68.8798C72.2414 66.7246 79.4217 66.9113 84.5049 69.3338L84.7283 69.4403L83.7337 75.2676L83.7042 75.2443Z" fill="black"/>
<path d="M71.9437 166.929L71.6805 166.721C67.7587 163.622 67.8672 159.446 71.9448 156.554L72.2184 156.36L71.8662 156.506C66.6178 158.681 59.3853 158.493 54.2569 156.049L53.9128 155.885L54.176 156.093C58.0978 159.192 57.9893 163.368 53.9117 166.259L53.6382 166.453L53.9903 166.308C59.2387 164.133 66.4712 164.321 71.5996 166.765L71.9437 166.929Z" fill="white"/>
<path fill-rule="evenodd" clip-rule="evenodd" d="M71.7635 166.771C67.8417 163.671 67.9501 159.495 72.0276 156.604L72.3013 156.41L71.949 156.556C66.7006 158.73 59.4683 158.542 54.3399 156.098L53.9956 155.934L54.2589 156.142C58.1807 159.242 58.0721 163.417 53.9946 166.309L53.7211 166.503L54.0731 166.357C59.3215 164.182 66.5541 164.371 71.6825 166.815L72.0265 166.979L71.7635 166.771ZM71.3077 166.538C66.3193 164.342 59.5576 164.167 54.4618 166.1C58.114 163.282 58.2154 159.378 54.7146 156.374C59.703 158.57 66.4647 158.746 71.5604 156.812C67.9083 159.63 67.8069 163.534 71.3077 166.538Z" fill="black"/>
<path d="M53.9956 155.934L54.2589 156.142C58.1807 159.242 58.0721 163.417 53.9946 166.309L53.7211 166.503C53.7211 166.503 54.9074 165.783 55.0961 164.258C55.2848 162.733 53.0802 161.037 53.0802 161.037L53.9956 155.934Z" fill="url(#paint8_linear_298_1635)"/>
<path d="M53.7211 166.503L54.0731 166.357C59.3215 164.182 66.5541 164.371 71.6825 166.815L72.0265 166.979L70.9593 173.231L70.6151 173.067C65.4867 170.623 58.2542 170.435 53.0058 172.609L52.6538 172.755L53.686 166.911L53.7211 166.503Z" fill="url(#paint9_linear_298_1635)"/>
<path d="M72.2184 166.905L71.8731 166.632C69.942 165.106 69.0277 163.336 69.0724 161.614C69.1171 159.892 70.1221 158.172 72.1298 156.748L72.4035 156.554L72.2337 156.247L71.8815 156.392C66.6793 158.548 59.4991 158.361 54.4159 155.939L53.8626 155.675L52.8874 161.111L52.9725 161.177L52.9726 161.177C52.9728 161.177 52.9732 161.177 52.9736 161.177C52.9745 161.178 52.9759 161.179 52.9778 161.181C52.9816 161.184 52.9875 161.188 52.9951 161.194C53.0104 161.206 53.0332 161.225 53.0622 161.249C53.1205 161.297 53.204 161.367 53.3038 161.457C53.5037 161.636 53.7674 161.891 54.0248 162.19C54.2828 162.491 54.5304 162.833 54.7016 163.188C54.8731 163.544 54.9623 163.901 54.9208 164.236C54.8318 164.956 54.5077 165.486 54.2042 165.837C54.0524 166.013 53.9064 166.143 53.7991 166.229C53.7861 166.239 53.7735 166.248 53.7617 166.258L53.5522 166.406L53.5105 166.889L52.4238 173.042L53.0735 172.773C58.2756 170.618 65.4559 170.804 70.5391 173.227L71.0941 173.491L72.2184 166.905ZM56.9499 161.299C56.9142 162.671 56.2688 164.042 54.9922 165.263C55.1226 164.98 55.2253 164.653 55.2714 164.28C55.3242 163.853 55.2086 163.426 55.0199 163.035C54.8308 162.642 54.5626 162.274 54.293 161.96C54.0228 161.645 53.7473 161.38 53.5397 161.194C53.4358 161.101 53.3486 161.027 53.287 160.976C53.2821 160.972 53.2773 160.968 53.2727 160.965L54.1174 156.256L54.1493 156.281C56.0803 157.807 56.9946 159.577 56.9499 161.299ZM70.4969 166.016C65.8722 164.262 60.0082 164.11 55.2987 165.621C56.6813 164.323 57.4077 162.834 57.4472 161.312C57.4868 159.79 56.8387 158.265 55.5255 156.897C60.1501 158.65 66.0141 158.803 70.7235 157.292C69.3411 158.59 68.6146 160.079 68.5751 161.601C68.5356 163.123 69.1837 164.648 70.4969 166.016ZM70.8057 172.885L70.7612 172.941L70.6911 172.908C65.5176 170.442 58.2328 170.253 52.9381 172.446L52.8838 172.469L53.8599 166.942L53.8613 166.934L53.862 166.926L53.888 166.625L54.1408 166.52C59.343 164.365 66.5233 164.552 71.6065 166.974L71.8299 167.081L70.8353 172.908L70.8057 172.885Z" fill="black"/>
<path d="M165.963 60.8259L165.673 60.5963C161.35 57.1744 161.484 52.5463 165.999 49.3282L166.302 49.1123L165.912 49.2751C160.106 51.7023 152.116 51.518 146.458 48.8264L146.078 48.6458L146.368 48.8754C150.691 52.2974 150.558 56.9254 146.043 60.1435L145.74 60.3595L146.129 60.1966C151.935 57.7694 159.926 57.9537 165.584 60.6453L165.963 60.8259Z" fill="white"/>
<path fill-rule="evenodd" clip-rule="evenodd" d="M165.764 60.6508C161.441 57.2288 161.575 52.6007 166.089 49.3826L166.392 49.1667L166.003 49.3295C160.197 51.7567 152.207 51.5725 146.549 48.8809L146.169 48.7002L146.459 48.9299C150.782 52.3518 150.648 56.9798 146.133 60.1979L145.831 60.4139L146.22 60.251C152.026 57.8238 160.016 58.0082 165.674 60.6998L166.054 60.8803L165.764 60.6508ZM165.261 60.3947C159.757 57.9776 152.287 57.8054 146.65 59.9655C150.695 56.8303 150.82 52.5034 146.962 49.1859C152.466 51.6029 159.936 51.7752 165.573 49.6152C161.528 52.7504 161.403 57.0772 165.261 60.3947Z" fill="black"/>
<path d="M146.169 48.7002L146.459 48.9299C150.782 52.3518 150.648 56.9798 146.133 60.1979L145.831 60.4139C145.831 60.4139 147.144 59.6126 147.357 57.9216C147.571 56.2306 145.141 54.3581 145.141 54.3581L146.169 48.7002Z" fill="url(#paint10_linear_298_1635)"/>
<path d="M145.831 60.4139L146.22 60.251C152.026 57.8238 160.016 58.0082 165.674 60.6998L166.054 60.8803L164.854 67.8133L164.474 67.6327C158.816 64.9411 150.826 64.7568 145.02 67.184L144.63 67.3468L145.79 60.8664L145.831 60.4139Z" fill="url(#paint11_linear_298_1635)"/>
<path d="M166.265 60.7981L165.884 60.4968C163.756 58.8119 162.752 56.8529 162.807 54.9448C162.862 53.0366 163.978 51.1266 166.201 49.542L166.504 49.3261L166.317 48.986L165.928 49.1489C160.173 51.5546 152.24 51.3717 146.632 48.7038L146.022 48.4135L144.926 54.4413L145.02 54.5136L145.02 54.5139C145.02 54.514 145.021 54.5143 145.021 54.5146C145.022 54.5154 145.024 54.5166 145.026 54.5182C145.03 54.5215 145.037 54.5265 145.045 54.5332C145.062 54.5467 145.087 54.5669 145.119 54.5933C145.183 54.6463 145.275 54.7243 145.385 54.8232C145.605 55.0213 145.896 55.3022 146.179 55.6337C146.463 55.966 146.736 56.3442 146.924 56.737C147.112 57.1306 147.21 57.5258 147.163 57.8982C147.062 58.6959 146.702 59.284 146.365 59.6743C146.197 59.8695 146.035 60.0143 145.917 60.1097C145.902 60.1213 145.888 60.1319 145.875 60.142L145.643 60.3072L145.596 60.8425L144.374 67.6652L145.093 67.3647C150.848 64.9589 158.781 65.142 164.389 67.8098L165.001 68.101L166.265 60.7981ZM149.414 54.6359C149.37 56.1564 148.653 57.6781 147.238 59.0354C147.383 58.7217 147.498 58.3586 147.55 57.9451C147.609 57.472 147.483 56.999 147.276 56.5659C147.068 56.132 146.773 55.725 146.476 55.3778C146.179 55.0298 145.875 54.7368 145.647 54.531C145.532 54.428 145.436 54.3464 145.368 54.2904C145.363 54.286 145.358 54.2818 145.353 54.2777L146.301 49.0562L146.337 49.0839C148.465 50.7688 149.469 52.7277 149.414 54.6359ZM164.366 59.8186C159.262 57.8905 152.784 57.7411 147.575 59.4314C149.107 57.9883 149.915 56.3355 149.964 54.6486C150.012 52.9617 149.301 51.274 147.855 49.7622C152.959 51.6903 159.437 51.8397 164.645 50.1495C163.114 51.5926 162.306 53.2453 162.257 54.9322C162.209 56.6191 162.92 58.3069 164.366 59.8186ZM164.684 67.4298L164.635 67.4925L164.558 67.4557C158.85 64.7404 150.802 64.5547 144.945 67.0033L144.885 67.0285L145.981 60.8999L145.983 60.8913L145.984 60.8826L146.013 60.5488L146.293 60.4317C152.048 58.0259 159.981 58.209 165.589 60.8769L165.835 60.9941L164.717 67.4556L164.684 67.4298Z" fill="black"/>
</g>
<defs>
<linearGradient id="paint0_linear_298_1635" x1="54.7425" y1="143.655" x2="16.7468" y2="113.478" gradientUnits="userSpaceOnUse">
<stop stop-color="#534EFF"/>
<stop offset="0.272808" stop-color="#C200FB"/>
<stop offset="0.460443" stop-color="#EC0868"/>
<stop offset="0.667914" stop-color="#FC2F00"/>
<stop offset="0.826923" stop-color="#EC7D10"/>
<stop offset="1" stop-color="#FFBC0A"/>
</linearGradient>
<linearGradient id="paint1_linear_298_1635" x1="144.507" y1="154.864" x2="121.143" y2="138.633" gradientUnits="userSpaceOnUse">
<stop stop-color="#534EFF"/>
<stop offset="0.272808" stop-color="#C200FB"/>
<stop offset="0.460443" stop-color="#EC0868"/>
<stop offset="0.667914" stop-color="#FC2F00"/>
<stop offset="0.826923" stop-color="#EC7D10"/>
<stop offset="1" stop-color="#FFBC0A"/>
</linearGradient>
<linearGradient id="paint2_linear_298_1635" x1="177.668" y1="148.352" x2="146.111" y2="125.75" gradientUnits="userSpaceOnUse">
<stop stop-color="#534EFF"/>
<stop offset="0.272808" stop-color="#C200FB"/>
<stop offset="0.460443" stop-color="#EC0868"/>
<stop offset="0.667914" stop-color="#FC2F00"/>
<stop offset="0.826923" stop-color="#EC7D10"/>
<stop offset="1" stop-color="#FFBC0A"/>
</linearGradient>
<linearGradient id="paint3_linear_298_1635" x1="116.258" y1="179.929" x2="73.6443" y2="147.572" gradientUnits="userSpaceOnUse">
<stop stop-color="#534EFF"/>
<stop offset="0.272808" stop-color="#C200FB"/>
<stop offset="0.460443" stop-color="#EC0868"/>
<stop offset="0.667914" stop-color="#FC2F00"/>
<stop offset="0.826923" stop-color="#EC7D10"/>
<stop offset="1" stop-color="#FFBC0A"/>
</linearGradient>
<linearGradient id="paint4_linear_298_1635" x1="84.5228" y1="148.418" x2="54.2242" y2="123.413" gradientUnits="userSpaceOnUse">
<stop stop-color="#534EFF"/>
<stop offset="0.272808" stop-color="#C200FB"/>
<stop offset="0.460443" stop-color="#EC0868"/>
<stop offset="0.667914" stop-color="#FC2F00"/>
<stop offset="0.826923" stop-color="#EC7D10"/>
<stop offset="1" stop-color="#FFBC0A"/>
</linearGradient>
<linearGradient id="paint5_linear_298_1635" x1="118.777" y1="112.843" x2="75.9651" y2="80.403" gradientUnits="userSpaceOnUse">
<stop stop-color="#534EFF"/>
<stop offset="0.272808" stop-color="#C200FB"/>
<stop offset="0.460443" stop-color="#EC0868"/>
<stop offset="0.667914" stop-color="#FC2F00"/>
<stop offset="0.826923" stop-color="#EC7D10"/>
<stop offset="1" stop-color="#FFBC0A"/>
</linearGradient>
<linearGradient id="paint6_linear_298_1635" x1="77.9763" y1="80.3624" x2="60.1771" y2="66.9246" gradientUnits="userSpaceOnUse">
<stop offset="0.216346" stop-color="#08EC72"/>
<stop offset="0.466346" stop-color="#1098EC"/>
<stop offset="0.620192" stop-color="#0093FC"/>
<stop offset="0.802885" stop-color="#C200FB"/>
<stop offset="1" stop-color="#534EFF"/>
</linearGradient>
<linearGradient id="paint7_linear_298_1635" x1="77.9763" y1="80.3624" x2="60.1771" y2="66.9246" gradientUnits="userSpaceOnUse">
<stop offset="0.216346" stop-color="#08EC72"/>
<stop offset="0.466346" stop-color="#1098EC"/>
<stop offset="0.620192" stop-color="#0093FC"/>
<stop offset="0.802885" stop-color="#C200FB"/>
<stop offset="1" stop-color="#534EFF"/>
</linearGradient>
<linearGradient id="paint8_linear_298_1635" x1="65.0778" y1="178.003" x2="47.2786" y2="164.565" gradientUnits="userSpaceOnUse">
<stop offset="0.216346" stop-color="#08EC72"/>
<stop offset="0.466346" stop-color="#1098EC"/>
<stop offset="0.620192" stop-color="#0093FC"/>
<stop offset="0.802885" stop-color="#C200FB"/>
<stop offset="1" stop-color="#534EFF"/>
</linearGradient>
<linearGradient id="paint9_linear_298_1635" x1="65.0778" y1="178.003" x2="47.2786" y2="164.565" gradientUnits="userSpaceOnUse">
<stop offset="0.216346" stop-color="#08EC72"/>
<stop offset="0.466346" stop-color="#1098EC"/>
<stop offset="0.620192" stop-color="#0093FC"/>
<stop offset="0.802885" stop-color="#C200FB"/>
<stop offset="1" stop-color="#534EFF"/>
</linearGradient>
<linearGradient id="paint10_linear_298_1635" x1="158.34" y1="73.1209" x2="138.7" y2="58.3132" gradientUnits="userSpaceOnUse">
<stop offset="0.216346" stop-color="#08EC72"/>
<stop offset="0.466346" stop-color="#1098EC"/>
<stop offset="0.620192" stop-color="#0093FC"/>
<stop offset="0.802885" stop-color="#C200FB"/>
<stop offset="1" stop-color="#534EFF"/>
</linearGradient>
<linearGradient id="paint11_linear_298_1635" x1="158.34" y1="73.1209" x2="138.7" y2="58.3132" gradientUnits="userSpaceOnUse">
<stop offset="0.216346" stop-color="#08EC72"/>
<stop offset="0.466346" stop-color="#1098EC"/>
<stop offset="0.620192" stop-color="#0093FC"/>
<stop offset="0.802885" stop-color="#C200FB"/>
<stop offset="1" stop-color="#534EFF"/>
</linearGradient>
<clipPath id="clip0_298_1635">
<rect width="165.306" height="161.012" fill="white" transform="matrix(0.522331 -0.852743 -0.852743 -0.522331 137.302 225.065)"/>
</clipPath>
</defs>
</svg>
