<svg width="85" height="80" viewBox="0 0 85 80" fill="none" xmlns="http://www.w3.org/2000/svg">
<g clip-path="url(#clip0_298_1868)">
<path d="M23.2703 9.265L24.2616 8.76937C26.7762 7.64692 29.6041 7.5303 32.7382 8.42681C34.4656 8.92243 36.2951 9.73147 38.2193 10.8393C44.0866 14.2286 49.072 19.4545 53.1683 26.5245C53.6639 27.3845 54.1303 28.2373 54.5676 29.0901C55.5297 30.9705 56.3461 32.8437 57.0167 34.7023C58.5473 38.937 59.3125 43.1134 59.3125 47.2242C59.3125 49.6003 59.0356 51.714 58.4744 53.5726C58.1974 54.4982 57.8549 55.351 57.4395 56.1455C57.2208 56.5609 56.9876 56.9618 56.7325 57.3408C56.4409 57.7708 56.1348 58.179 55.8141 58.5507C55.2019 59.265 54.524 59.8772 53.7879 60.3802C53.4817 60.5915 53.1683 60.781 52.8403 60.956L52.6362 61.058C51.7761 61.488 50.8504 61.7942 49.8591 61.9691V73.82C49.8591 75.6568 49.2908 76.8966 48.1538 77.5452C47.0094 78.2012 45.6391 78.0627 44.0429 77.1371C43.4598 77.968 42.658 78.4417 41.6376 78.5511C40.6245 78.6531 39.4802 78.3463 38.2193 77.6174C36.9583 76.8885 35.8213 75.8827 34.8009 74.5999C33.7805 73.3171 32.986 71.925 32.403 70.4166C30.7995 69.4909 29.4293 68.0478 28.2922 66.0799C27.1552 64.1192 26.5793 62.2169 26.5793 60.3802V48.5288C23.7222 44.7023 21.4336 40.5478 19.7062 36.0434C17.9861 31.5463 17.126 27.1513 17.126 22.8656C17.126 16.1382 19.1741 11.5974 23.2703 9.265ZM32.403 63.7402L44.0429 70.4603V67.4574L35.1873 62.3481L32.403 60.7373V63.7402ZM32.403 57.3991L38.2922 60.7956L44.0429 64.1192V60.9414L41.2368 59.3233L35.3548 55.9268L32.403 54.2213V57.3991ZM31.1639 32.2241L36.04 40.6353V49.644L40.4059 52.1659V43.1498L41.1566 42.7198L45.2746 40.3729C45.7119 40.1251 45.9306 39.6659 45.9306 38.9953C45.9306 38.3248 45.7119 37.6178 45.2746 36.867C45.1361 36.6338 44.9978 36.4224 44.852 36.2329C44.5167 35.7955 44.1523 35.4676 43.7514 35.2344C43.5036 35.0959 43.2777 35.0012 43.059 34.9647H43.0517C42.7529 34.9137 42.4758 34.9574 42.2207 35.1032L38.4598 37.246L38.2193 37.3845L34.2178 30.4822C33.7805 29.7315 33.2775 29.1848 32.6944 28.8495C32.1113 28.5143 31.6012 28.4705 31.1639 28.7184C30.7266 28.9662 30.5078 29.4253 30.5078 30.0959C30.5078 30.7665 30.7266 31.4734 31.1639 32.2241Z" fill="white" stroke="black"/>
<path d="M38.4589 37.246C38.4589 37.246 38.4589 37.2533 38.4735 37.2606L43.0508 34.9647C42.7519 34.9137 42.4749 34.9574 42.2198 35.1032L38.4589 37.246Z" stroke="black"/>
<path d="M32.4036 54.2213V57.3991L35.3555 55.9268L32.4036 54.2213Z" fill="url(#paint0_linear_298_1868)" stroke="black"/>
<path d="M32.4032 60.7373V63.7402L35.1875 62.3481L32.4032 60.7373Z" fill="url(#paint1_linear_298_1868)" stroke="black"/>
<path d="M32.403 63.7402L44.043 70.4603V67.4574L35.1874 62.3481L32.403 63.7402Z" fill="url(#paint2_linear_298_1868)" stroke="black"/>
<path d="M32.403 57.3991L38.2923 60.7956L44.043 64.1192V60.9414L41.2369 59.3233L35.3549 55.9268L32.403 57.3991Z" fill="url(#paint3_linear_298_1868)" stroke="black"/>
<path d="M36.0404 49.644L40.4062 52.1659V47.4647L36.0404 49.644Z" fill="url(#paint4_linear_298_1868)" stroke="black"/>
<path d="M36.039 40.6353V49.644L40.4049 47.4647V43.1498L41.1556 42.7198L45.2736 40.3729C45.711 40.1251 45.9297 39.6659 45.9297 38.9953C45.9297 38.3248 45.711 37.6178 45.2736 36.867C45.1352 36.6338 44.9968 36.4224 44.851 36.2329L39.5157 38.9006L36.039 40.6353Z" fill="url(#paint5_linear_298_1868)" stroke="black"/>
<path d="M30.5074 30.0959C30.5074 30.7592 30.7261 31.4734 31.1634 32.2242L36.0395 40.6353L39.5162 38.9006L44.8516 36.2329C44.5163 35.7956 44.1519 35.4676 43.751 35.2344C43.5032 35.0959 43.2772 35.0011 43.0586 34.9647H43.0513L38.474 37.2606L38.2188 37.3845L34.2174 30.4822C33.7801 29.7315 33.2771 29.1848 32.694 28.8495C32.1109 28.5143 31.6008 28.4705 31.1634 28.7183C30.7261 28.9662 30.5074 29.4253 30.5074 30.0959Z" fill="url(#paint6_linear_298_1868)" stroke="black"/>
<path d="M5.04456 24.3552L5.02286 24.5364C4.6993 27.2376 2.73061 28.3742 0.229591 27.3038L0.0617847 27.232L0.229591 27.354C2.73061 29.1715 4.6993 32.5814 5.02285 35.6561L5.04456 35.8624L5.06627 35.6812C5.38983 32.9801 7.35852 31.8435 9.85954 32.9138L10.0273 32.9856L9.85954 32.8637C7.35852 31.0461 5.38983 27.6362 5.06627 24.5615L5.04456 24.3552Z" fill="white"/>
<path fill-rule="evenodd" clip-rule="evenodd" d="M5.0209 24.485C4.69735 27.1861 2.72865 28.3228 0.22765 27.2525L0.0598202 27.1806L0.22765 27.3026C2.72864 29.1202 4.69734 32.53 5.0209 35.6047L5.04263 35.8111L5.06435 35.6298C5.38792 32.9287 7.35659 31.7922 9.8576 32.8625L10.0254 32.9342L9.8576 32.8124C7.3566 30.9948 5.38792 27.5849 5.06435 24.5101L5.04263 24.3039L5.0209 24.485ZM5.04263 24.7626C5.44155 27.7019 7.2821 30.8898 9.62811 32.7049C7.28212 31.811 5.44157 32.8737 5.04263 35.3523C4.64369 32.4131 2.80315 29.2252 0.457203 27.4101C2.80317 28.3039 4.64371 27.2412 5.04263 24.7626Z" fill="black"/>
<path d="M5.04263 35.8111L5.06435 35.6298C5.38792 32.9287 7.35659 31.7922 9.8576 32.8625L10.0254 32.9342C10.0254 32.9342 9.35429 32.5882 8.59281 32.9342C7.83133 33.2803 7.67081 34.7855 7.67081 34.7855L5.04263 35.8111Z" fill="url(#paint7_linear_298_1868)"/>
<path d="M10.0254 32.9342L9.8576 32.8124C7.3566 30.9948 5.38792 27.5849 5.06435 24.5101L5.04263 24.3039L8.24773 23.0218L8.26945 23.2281C8.59302 26.3028 10.5617 29.7127 13.0627 31.5303L13.2305 31.6522L10.2248 32.8345L10.0254 32.9342Z" fill="url(#paint8_linear_298_1868)"/>
<path d="M4.95476 24.2358L4.92628 24.4736C4.76696 25.8036 4.20529 26.7311 3.39359 27.1998C2.58189 27.6685 1.4978 27.6911 0.266363 27.1641L0.0985336 27.0923L0.00413322 27.2584L0.171964 27.3804C2.65091 29.182 4.60538 32.5672 4.92609 35.6148L4.96102 35.9465L7.76104 34.8538L7.76724 34.7957L7.7673 34.7956C7.76731 34.7955 7.76733 34.7952 7.76736 34.795C7.76743 34.7944 7.76753 34.7934 7.76768 34.7921C7.76797 34.7895 7.76841 34.7855 7.76905 34.7802C7.77035 34.7696 7.7724 34.7538 7.77525 34.7335C7.78096 34.6929 7.78997 34.634 7.80317 34.5623C7.82961 34.4185 7.87262 34.2239 7.93864 34.0192C8.0048 33.814 8.09314 33.6019 8.20919 33.4215C8.3255 33.2408 8.46574 33.098 8.63343 33.0218C8.99264 32.8585 9.33057 32.8584 9.57987 32.8994C9.70455 32.9199 9.80648 32.9506 9.87678 32.976C9.88532 32.9791 9.89331 32.9822 9.90088 32.9851L10.0293 33.0402L10.2653 32.9222L13.4297 31.6775L13.1201 31.4525C10.6411 29.651 8.68666 26.2657 8.36594 23.218L8.33089 22.8853L4.95476 24.2358ZM6.69334 32.9152C7.34015 32.5417 8.15994 32.4515 9.08941 32.6969C8.92117 32.7167 8.74007 32.7621 8.55387 32.8467C8.34084 32.9435 8.17545 33.1186 8.0475 33.3174C7.91929 33.5166 7.82474 33.7457 7.75559 33.9601C7.6863 34.175 7.64152 34.3782 7.61406 34.5275C7.60031 34.6023 7.59086 34.6638 7.58482 34.7068C7.58434 34.7102 7.58394 34.7135 7.58351 34.7166L5.15809 35.6632L5.16065 35.6413C5.31997 34.3113 5.88164 33.3838 6.69334 32.9152ZM5.03157 25.2874C5.53234 27.9321 7.12853 30.6968 9.16853 32.4528C8.17317 32.1802 7.27558 32.2664 6.558 32.6807C5.84044 33.0949 5.31701 33.8292 5.05542 34.8274C4.55463 32.1828 2.95846 29.4181 0.918527 27.6621C1.91386 27.9347 2.81143 27.8485 3.52899 27.4342C4.24656 27.0199 4.77001 26.2857 5.03157 25.2874ZM8.13138 23.1916L8.17025 23.1962L8.17464 23.2382C8.50106 26.34 10.484 29.7746 13.007 31.6081L13.0329 31.6269L10.1905 32.7451L10.1865 32.7466L10.1826 32.7485L10.0355 32.8221L9.91497 32.7346C7.43601 30.933 5.48156 27.5477 5.16084 24.5001L5.14676 24.3661L8.13382 23.1712L8.13138 23.1916Z" fill="black"/>
<path d="M19.3453 68.1848L19.3236 68.366C19.0001 71.0672 17.0314 72.2038 14.5304 71.1334L14.3626 71.0616L14.5304 71.1836C17.0314 73.0011 19.0001 76.411 19.3236 79.4858L19.3453 79.692L19.3671 79.5108C19.6906 76.8097 21.6593 75.6731 24.1603 76.7434L24.3281 76.8152L24.1603 76.6933C21.6593 74.8757 19.6906 71.4658 19.3671 68.3911L19.3453 68.1848Z" fill="white"/>
<path fill-rule="evenodd" clip-rule="evenodd" d="M19.3217 68.3147C18.9981 71.0158 17.0294 72.1525 14.5284 71.0821L14.3606 71.0103L14.5284 71.1323C17.0294 72.9499 18.9981 76.3597 19.3217 79.4344L19.3434 79.6408L19.3651 79.4595C19.6887 76.7584 21.6574 75.6218 24.1584 76.6921L24.3261 76.7639L24.1584 76.642C21.6574 74.8244 19.6887 71.4145 19.3651 68.3398L19.3434 68.1335L19.3217 68.3147ZM19.3434 68.5922C19.7423 71.5315 21.5829 74.7194 23.9289 76.5345C21.5829 75.6407 19.7424 76.7033 19.3434 79.1819C18.9445 76.2427 17.1039 73.0548 14.758 71.2397C17.104 72.1335 18.9445 71.0708 19.3434 68.5922Z" fill="black"/>
<path d="M19.3434 79.6408L19.3651 79.4595C19.6887 76.7584 21.6574 75.6218 24.1584 76.6921L24.3261 76.7639C24.3261 76.7639 23.6551 76.4179 22.8936 76.7639C22.1321 77.1099 21.9716 78.6151 21.9716 78.6151L19.3434 79.6408Z" fill="url(#paint9_linear_298_1868)"/>
<path d="M24.3261 76.7639L24.1584 76.642C21.6574 74.8244 19.6887 71.4145 19.3651 68.3398L19.3434 68.1335L22.5485 66.8514L22.5702 67.0577C22.8938 70.1325 24.8625 73.5424 27.3635 75.36L27.5312 75.4818L24.5256 76.6641L24.3261 76.7639Z" fill="url(#paint10_linear_298_1868)"/>
<path d="M19.2555 68.0654L19.2271 68.3032C19.0677 69.6332 18.5061 70.5608 17.6944 71.0294C16.8827 71.4981 15.7986 71.5207 14.5671 70.9937L14.3993 70.9219L14.3049 71.088L14.4727 71.21C16.9517 73.0116 18.9062 76.3968 19.2269 79.4444L19.2618 79.7762L22.0618 78.6834L22.068 78.6253L22.0681 78.6252C22.0681 78.6251 22.0681 78.6249 22.0681 78.6246C22.0682 78.624 22.0683 78.623 22.0685 78.6217C22.0688 78.6191 22.0692 78.6151 22.0698 78.6098C22.0711 78.5992 22.0732 78.5835 22.076 78.5632C22.0817 78.5225 22.0908 78.4637 22.104 78.3919C22.1304 78.2482 22.1734 78.0535 22.2394 77.8488C22.3056 77.6436 22.3939 77.4315 22.51 77.2511C22.6263 77.0704 22.7665 76.9276 22.9342 76.8514C23.2934 76.6882 23.6314 76.688 23.8807 76.729C24.0053 76.7495 24.1073 76.7802 24.1776 76.8056C24.1861 76.8087 24.1941 76.8119 24.2017 76.8148L24.3301 76.8698L24.5661 76.7518L27.7305 75.5071L27.4209 75.2821C24.9419 73.4806 22.9874 70.0953 22.6667 67.0477L22.6317 66.7149L19.2555 68.0654ZM20.9941 76.7448C21.6409 76.3713 22.4607 76.2811 23.3902 76.5265C23.2219 76.5463 23.0409 76.5917 22.8546 76.6764C22.6416 76.7732 22.4762 76.9482 22.3483 77.147C22.2201 77.3463 22.1255 77.5753 22.0564 77.7897C21.9871 78.0046 21.9423 78.2079 21.9148 78.3572C21.9011 78.4319 21.8916 78.4934 21.8856 78.5364C21.8851 78.5398 21.8847 78.5431 21.8843 78.5463L19.4589 79.4928L19.4614 79.4709C19.6208 78.1409 20.1824 77.2134 20.9941 76.7448ZM19.3324 69.117C19.8331 71.7617 21.4293 74.5264 23.4693 76.2824C22.474 76.0098 21.5764 76.096 20.8588 76.5103C20.1412 76.9246 19.6178 77.6588 19.3562 78.6571C18.8554 76.0124 17.2592 73.2477 15.2193 71.4917C16.2146 71.7643 17.1122 71.6782 17.8298 71.2639C18.5473 70.8496 19.0708 70.1153 19.3324 69.117ZM22.4322 67.0212L22.471 67.0258L22.4754 67.0678C22.8018 70.1696 24.7848 73.6042 27.3078 75.4378L27.3337 75.4565L24.4913 76.5747L24.4872 76.5763L24.4834 76.5781L24.3363 76.6517L24.2158 76.5642C21.7368 74.7626 19.7823 71.3773 19.4616 68.3297L19.4475 68.1957L22.4346 67.0008L22.4322 67.0212Z" fill="black"/>
<path d="M76.2672 13.3978L76.2455 13.579C75.922 16.2801 73.9533 17.4168 71.4522 16.3464L71.2844 16.2746L71.4522 16.3965C73.9533 18.2141 75.922 21.624 76.2455 24.6987L76.2672 24.905L76.2889 24.7238C76.6125 22.0227 78.5812 20.886 81.0822 21.9564L81.25 22.0282L81.0822 21.9063C78.5812 20.0887 76.6125 16.6788 76.2889 13.6041L76.2672 13.3978Z" fill="white"/>
<path fill-rule="evenodd" clip-rule="evenodd" d="M76.2436 13.5276C75.92 16.2287 73.9513 17.3654 71.4503 16.2951L71.2825 16.2232L71.4503 16.3452C73.9513 18.1628 75.92 21.5726 76.2436 24.6473L76.2653 24.8537L76.287 24.6724C76.6106 21.9713 78.5793 20.8347 81.0803 21.9051L81.248 21.9768L81.0803 21.8549C78.5793 20.0374 76.6106 16.6274 76.287 13.5527L76.2653 13.3464L76.2436 13.5276ZM76.2653 13.8052C76.6642 16.7444 78.5048 19.9323 80.8508 21.7474C78.5048 20.8536 76.6642 21.9163 76.2653 24.3948C75.8663 21.4556 74.0258 18.2677 71.6799 16.4526C74.0258 17.3464 75.8664 16.2838 76.2653 13.8052Z" fill="black"/>
<path d="M76.2653 24.8537L76.287 24.6724C76.6106 21.9713 78.5793 20.8347 81.0803 21.9051L81.248 21.9768C81.248 21.9768 80.577 21.6308 79.8155 21.9768C79.054 22.3228 78.8935 23.8281 78.8935 23.8281L76.2653 24.8537Z" fill="url(#paint11_linear_298_1868)"/>
<path d="M81.248 21.9768L81.0803 21.8549C78.5793 20.0374 76.6106 16.6274 76.287 13.5527L76.2653 13.3464L79.4704 12.0643L79.4921 12.2707C79.8157 15.3454 81.7844 18.7553 84.2854 20.5729L84.4531 20.6948L81.4475 21.8771L81.248 21.9768Z" fill="url(#paint12_linear_298_1868)"/>
<path d="M76.1774 13.2783L76.1489 13.5162C75.9896 14.8461 75.4279 15.7737 74.6162 16.2424C73.8045 16.711 72.7205 16.7337 71.489 16.2067L71.3212 16.1348L71.2268 16.301L71.3946 16.423C73.8736 18.2245 75.828 21.6098 76.1487 24.6574L76.1837 24.9891L78.9837 23.8964L78.9899 23.8383L78.99 23.8382C78.99 23.838 78.99 23.8378 78.99 23.8375C78.9901 23.8369 78.9902 23.8359 78.9903 23.8346C78.9906 23.832 78.9911 23.828 78.9917 23.8228C78.993 23.8122 78.9951 23.7964 78.9979 23.7761C79.0036 23.7355 79.0126 23.6766 79.0258 23.6048C79.0523 23.4611 79.0953 23.2664 79.1613 23.0617C79.2275 22.8566 79.3158 22.6444 79.4318 22.4641C79.5482 22.2834 79.6884 22.1405 79.8561 22.0643C80.2153 21.9011 80.5532 21.9009 80.8025 21.9419C80.9272 21.9625 81.0291 21.9932 81.0994 22.0186C81.108 22.0217 81.116 22.0248 81.1235 22.0277L81.252 22.0827L81.4879 21.9648L84.6523 20.7201L84.3427 20.4951C81.8638 18.6935 79.9093 15.3082 79.5886 12.2606L79.5535 11.9279L76.1774 13.2783ZM77.916 21.9577C78.5628 21.5843 79.3826 21.494 80.3121 21.7394C80.1438 21.7593 79.9627 21.8047 79.7765 21.8893C79.5635 21.9861 79.3981 22.1612 79.2702 22.36C79.1419 22.5592 79.0474 22.7883 78.9783 23.0027C78.909 23.2176 78.8642 23.4208 78.8367 23.5701C78.823 23.6448 78.8135 23.7063 78.8075 23.7493C78.807 23.7527 78.8066 23.756 78.8062 23.7592L76.3807 24.7058L76.3833 24.6839C76.5426 23.3539 77.1043 22.4264 77.916 21.9577ZM76.2542 14.33C76.755 16.9747 78.3512 19.7393 80.3912 21.4954C79.3958 21.2227 78.4982 21.3089 77.7807 21.7232C77.0631 22.1375 76.5397 22.8717 76.2781 23.87C75.7773 21.2254 74.1811 18.4607 72.1412 16.7047C73.1365 16.9773 74.0341 16.8911 74.7516 16.4768C75.4692 16.0625 75.9927 15.3283 76.2542 14.33ZM79.354 12.2341L79.3929 12.2388L79.3973 12.2808C79.7237 15.3826 81.7066 18.8171 84.2297 20.6507L84.2556 20.6695L81.4131 21.7876L81.4091 21.7892L81.4053 21.7911L81.2582 21.8646L81.1376 21.7771C78.6587 19.9756 76.7042 16.5903 76.3835 13.5426L76.3694 13.4087L79.3565 12.2138L79.354 12.2341Z" fill="black"/>
<path d="M24.2586 8.76937C26.7732 7.64692 29.6011 7.5303 32.7352 8.4268C34.4626 8.92243 36.292 9.73147 38.2162 10.8393C44.0836 14.2286 49.069 19.4545 53.1652 26.5245C53.6608 27.3845 54.1272 28.2373 54.5646 29.0901C55.5267 30.9705 56.3431 32.8437 57.0136 34.7023C58.5442 38.937 59.3095 43.1134 59.3095 47.2242C59.3095 49.6003 59.0326 51.714 58.4713 53.5726C58.1944 54.4982 57.8519 55.3509 57.4364 56.1454C57.2178 56.5608 56.9845 56.9618 56.7294 57.3408C56.4379 57.7708 56.1318 58.179 55.8111 58.5507C55.1988 59.265 54.521 59.8772 53.7848 60.3801C53.4787 60.5915 53.1652 60.781 52.8372 60.956L53.8795 60.4385L56.6638 59.0391L64.4334 55.1469L66.9844 53.8714C68.6899 53.077 70.1332 51.8014 71.3067 50.0522C73.0268 47.4793 73.8867 44.1119 73.8867 39.9355C73.8867 33.2081 71.8387 26.3058 67.7425 19.2358C63.6463 12.1659 58.6608 6.93992 52.7935 3.55069C46.9261 0.16148 41.948 -0.363324 37.8445 1.97633L24.2586 8.76937Z" fill="url(#paint13_linear_298_1868)" stroke="black"/>
<path d="M48.1509 77.5452L62.7282 70.2562C63.8652 69.6076 64.4336 68.3685 64.4336 66.5318V55.1469L56.664 59.039L53.8797 60.4385L52.8375 60.9559L52.6334 61.058C51.7733 61.488 50.8476 61.7941 49.8563 61.9691V73.82C49.8563 75.6567 49.288 76.8965 48.1509 77.5452Z" fill="url(#paint14_linear_298_1868)" stroke="black"/>
</g>
<defs>
<linearGradient id="paint0_linear_298_1868" x1="35.1097" y1="54.5624" x2="34.7863" y2="57.5576" gradientUnits="userSpaceOnUse">
<stop stop-color="#534EFF"/>
<stop offset="0.272808" stop-color="#C200FB"/>
<stop offset="0.460443" stop-color="#EC0868"/>
<stop offset="0.667914" stop-color="#FC2F00"/>
<stop offset="0.826923" stop-color="#EC7D10"/>
<stop offset="1" stop-color="#FFBC0A"/>
</linearGradient>
<linearGradient id="paint1_linear_298_1868" x1="34.9557" y1="61.0597" x2="34.6495" y2="63.8899" gradientUnits="userSpaceOnUse">
<stop stop-color="#534EFF"/>
<stop offset="0.272808" stop-color="#C200FB"/>
<stop offset="0.460443" stop-color="#EC0868"/>
<stop offset="0.667914" stop-color="#FC2F00"/>
<stop offset="0.826923" stop-color="#EC7D10"/>
<stop offset="1" stop-color="#FFBC0A"/>
</linearGradient>
<linearGradient id="paint2_linear_298_1868" x1="43.0739" y1="63.219" x2="42.5358" y2="70.9164" gradientUnits="userSpaceOnUse">
<stop stop-color="#534EFF"/>
<stop offset="0.272808" stop-color="#C200FB"/>
<stop offset="0.460443" stop-color="#EC0868"/>
<stop offset="0.667914" stop-color="#FC2F00"/>
<stop offset="0.826923" stop-color="#EC7D10"/>
<stop offset="1" stop-color="#FFBC0A"/>
</linearGradient>
<linearGradient id="paint3_linear_298_1868" x1="43.0739" y1="56.8063" x2="42.5252" y2="64.5791" gradientUnits="userSpaceOnUse">
<stop stop-color="#534EFF"/>
<stop offset="0.272808" stop-color="#C200FB"/>
<stop offset="0.460443" stop-color="#EC0868"/>
<stop offset="0.667914" stop-color="#FC2F00"/>
<stop offset="0.826923" stop-color="#EC7D10"/>
<stop offset="1" stop-color="#FFBC0A"/>
</linearGradient>
<linearGradient id="paint4_linear_298_1868" x1="40.0428" y1="47.9694" x2="39.5642" y2="52.4003" gradientUnits="userSpaceOnUse">
<stop stop-color="#534EFF"/>
<stop offset="0.272808" stop-color="#C200FB"/>
<stop offset="0.460443" stop-color="#EC0868"/>
<stop offset="0.667914" stop-color="#FC2F00"/>
<stop offset="0.826923" stop-color="#EC7D10"/>
<stop offset="1" stop-color="#FFBC0A"/>
</linearGradient>
<linearGradient id="paint5_linear_298_1868" x1="45.1063" y1="37.6728" x2="43.3988" y2="50.228" gradientUnits="userSpaceOnUse">
<stop stop-color="#534EFF"/>
<stop offset="0.272808" stop-color="#C200FB"/>
<stop offset="0.460443" stop-color="#EC0868"/>
<stop offset="0.667914" stop-color="#FC2F00"/>
<stop offset="0.826923" stop-color="#EC7D10"/>
<stop offset="1" stop-color="#FFBC0A"/>
</linearGradient>
<linearGradient id="paint6_linear_298_1868" x1="43.6574" y1="29.8567" x2="42.6922" y2="41.2886" gradientUnits="userSpaceOnUse">
<stop stop-color="#534EFF"/>
<stop offset="0.272808" stop-color="#C200FB"/>
<stop offset="0.460443" stop-color="#EC0868"/>
<stop offset="0.667914" stop-color="#FC2F00"/>
<stop offset="0.826923" stop-color="#EC7D10"/>
<stop offset="1" stop-color="#FFBC0A"/>
</linearGradient>
<linearGradient id="paint7_linear_298_1868" x1="12.134" y1="24.3949" x2="10.9574" y2="36.4749" gradientUnits="userSpaceOnUse">
<stop offset="0.216346" stop-color="#08EC72"/>
<stop offset="0.466346" stop-color="#1098EC"/>
<stop offset="0.620192" stop-color="#0093FC"/>
<stop offset="0.802885" stop-color="#C200FB"/>
<stop offset="1" stop-color="#534EFF"/>
</linearGradient>
<linearGradient id="paint8_linear_298_1868" x1="12.134" y1="24.3949" x2="10.9574" y2="36.4749" gradientUnits="userSpaceOnUse">
<stop offset="0.216346" stop-color="#08EC72"/>
<stop offset="0.466346" stop-color="#1098EC"/>
<stop offset="0.620192" stop-color="#0093FC"/>
<stop offset="0.802885" stop-color="#C200FB"/>
<stop offset="1" stop-color="#534EFF"/>
</linearGradient>
<linearGradient id="paint9_linear_298_1868" x1="26.4347" y1="68.2245" x2="25.2582" y2="80.3045" gradientUnits="userSpaceOnUse">
<stop offset="0.216346" stop-color="#08EC72"/>
<stop offset="0.466346" stop-color="#1098EC"/>
<stop offset="0.620192" stop-color="#0093FC"/>
<stop offset="0.802885" stop-color="#C200FB"/>
<stop offset="1" stop-color="#534EFF"/>
</linearGradient>
<linearGradient id="paint10_linear_298_1868" x1="26.4347" y1="68.2245" x2="25.2582" y2="80.3045" gradientUnits="userSpaceOnUse">
<stop offset="0.216346" stop-color="#08EC72"/>
<stop offset="0.466346" stop-color="#1098EC"/>
<stop offset="0.620192" stop-color="#0093FC"/>
<stop offset="0.802885" stop-color="#C200FB"/>
<stop offset="1" stop-color="#534EFF"/>
</linearGradient>
<linearGradient id="paint11_linear_298_1868" x1="83.3566" y1="13.4374" x2="82.1801" y2="25.5175" gradientUnits="userSpaceOnUse">
<stop offset="0.216346" stop-color="#08EC72"/>
<stop offset="0.466346" stop-color="#1098EC"/>
<stop offset="0.620192" stop-color="#0093FC"/>
<stop offset="0.802885" stop-color="#C200FB"/>
<stop offset="1" stop-color="#534EFF"/>
</linearGradient>
<linearGradient id="paint12_linear_298_1868" x1="83.3566" y1="13.4374" x2="82.1801" y2="25.5175" gradientUnits="userSpaceOnUse">
<stop offset="0.216346" stop-color="#08EC72"/>
<stop offset="0.466346" stop-color="#1098EC"/>
<stop offset="0.620192" stop-color="#0093FC"/>
<stop offset="0.802885" stop-color="#C200FB"/>
<stop offset="1" stop-color="#534EFF"/>
</linearGradient>
<linearGradient id="paint13_linear_298_1868" x1="69.755" y1="7.02906" x2="62.8252" y2="63.7867" gradientUnits="userSpaceOnUse">
<stop stop-color="#534EFF"/>
<stop offset="0.272808" stop-color="#C200FB"/>
<stop offset="0.460443" stop-color="#EC0868"/>
<stop offset="0.667914" stop-color="#FC2F00"/>
<stop offset="0.826923" stop-color="#EC7D10"/>
<stop offset="1" stop-color="#FFBC0A"/>
</linearGradient>
<linearGradient id="paint14_linear_298_1868" x1="63.078" y1="57.5516" x2="60.1865" y2="78.5095" gradientUnits="userSpaceOnUse">
<stop stop-color="#534EFF"/>
<stop offset="0.272808" stop-color="#C200FB"/>
<stop offset="0.460443" stop-color="#EC0868"/>
<stop offset="0.667914" stop-color="#FC2F00"/>
<stop offset="0.826923" stop-color="#EC7D10"/>
<stop offset="1" stop-color="#FFBC0A"/>
</linearGradient>
<clipPath id="clip0_298_1868">
<rect width="84.898" height="80" fill="white" transform="matrix(-1 0 0 1 84.8984 0)"/>
</clipPath>
</defs>
</svg>
