<svg width="85" height="80" viewBox="0 0 85 80" fill="none" xmlns="http://www.w3.org/2000/svg">
<g clip-path="url(#clip0_298_1797)">
<path d="M69.0684 43.7382V51.8522C69.0684 52.6173 68.847 53.3893 68.3906 54.1745C67.9409 54.953 67.3839 55.5301 66.7127 55.9193L29.0148 77.6846C28.3436 78.0738 27.7866 78.1342 27.3302 77.8792C26.8805 77.6175 26.6523 77.1074 26.6523 76.3423V68.2282C26.6523 66.8255 27.0685 65.3691 27.9007 63.8657C27.9409 63.7785 27.9946 63.6979 28.0416 63.6106C28.9611 62.02 30.0752 60.8522 31.3705 60.1005L34.4309 58.3355L35.7262 46.7717L31.3705 49.2885C30.6993 49.6711 30.1423 49.7383 29.6859 49.4765C29.2362 49.2215 29.0148 48.7113 29.0148 47.9395C29.0148 47.1677 29.2362 46.4027 29.6859 45.6242C30.1423 44.8456 30.6993 44.2617 31.3705 43.8791L47.6658 34.4697L64.357 24.8321C64.9611 24.4831 65.4711 24.3959 65.894 24.5704L66.0349 24.6376C66.4913 24.8926 66.7127 25.4093 66.7127 26.1744C66.7127 26.9395 66.4913 27.7113 66.0349 28.4899C65.5852 29.2684 65.0282 29.8522 64.357 30.2415L60.0013 32.7583L60.5651 37.1543L61.2966 42.8254L64.357 41.0536C65.5181 40.3825 66.5382 40.2215 67.3973 40.5772L67.6859 40.7181C68.6121 41.2483 69.0684 42.255 69.0684 43.7382Z" fill="white" stroke="black"/>
<path d="M63.3539 9.18127L61.4076 20.3826C61.3137 20.9531 61.1123 21.4966 60.8036 22.0268C60.7365 22.1409 60.6627 22.2617 60.5821 22.3758C60.1526 23.0067 59.6627 23.4833 59.1123 23.7988L47.1727 30.6914L36.6694 36.7584C36.119 37.0805 35.6291 37.1678 35.1929 37.0336L34.8707 36.8725C34.6224 36.6913 34.4546 36.396 34.3674 35.9933L32.77 28.6108L32.4278 27.0403C32.3472 26.5906 32.3741 26.1342 32.515 25.6711C32.6492 25.208 32.8774 24.7718 33.1929 24.3691C33.2264 24.3289 33.26 24.2819 33.3002 24.2417C33.5821 23.8927 33.8976 23.604 34.2533 23.3825C34.609 23.1544 34.9513 23.0605 35.2801 23.1007C35.3137 23.1007 35.3405 23.1007 35.3741 23.1007C36.0788 23.1477 36.8036 23.0873 37.5486 22.9262C38.2935 22.7652 39.0855 22.4496 39.9043 21.9731C41.0452 21.3154 42.1258 20.4227 43.1459 19.2885C43.5687 18.8254 43.9781 18.3423 44.3741 17.8389C44.9513 17.1275 45.5016 16.3758 46.0318 15.5972C46.307 15.208 46.6023 14.8726 46.9177 14.5773C47.2331 14.282 47.5486 14.047 47.8573 13.8658C47.8909 13.8457 47.9244 13.8255 47.958 13.8121C48.2398 13.6577 48.5217 13.5503 48.8036 13.4899C49.119 13.4228 49.4143 13.4161 49.6895 13.4832C50.5888 13.7785 51.5486 13.8927 52.5754 13.8457C53.5956 13.7987 54.6761 13.4429 55.8103 12.7852C56.6358 12.3087 57.4211 11.7115 58.1727 10.9866C58.9177 10.2618 59.6425 9.46979 60.3472 8.61073C60.7432 8.16107 61.1257 7.85241 61.4949 7.67791C61.8707 7.51013 62.213 7.44973 62.5284 7.48999C62.5955 7.50342 62.6559 7.51691 62.7164 7.53704L62.9311 7.64436C63.0519 7.72489 63.1526 7.8457 63.2331 7.99335C63.3942 8.28865 63.4345 8.68462 63.3539 9.17456V9.18127Z" fill="white" stroke="black"/>
<path d="M34.4279 58.3356L31.3675 60.1006C30.0722 60.8523 28.9581 62.0201 28.0387 63.6107C27.9917 63.6979 27.938 63.7785 27.8977 63.8658C27.0655 65.3691 26.6494 66.8255 26.6494 68.2282V76.3423C26.6494 77.1074 26.8776 77.6175 27.3272 77.8792L14.0454 71.2349L13.9044 71.1678C13.4548 70.906 13.2266 70.396 13.2266 69.6309V61.5168C13.2266 60.0336 13.6896 58.4899 14.6158 56.8993C15.5353 55.3087 16.6494 54.1409 17.9447 53.3892L21.0051 51.6242L34.4279 58.3356Z" fill="url(#paint0_linear_298_1797)" stroke="black"/>
<path d="M35.7259 46.7718L34.4306 58.3356L21.0078 51.6242L21.6991 45.4832L29.6857 49.4766C30.142 49.7383 30.6991 49.6711 31.3702 49.2886L35.7259 46.7718Z" fill="url(#paint1_linear_298_1797)" stroke="black"/>
<path d="M62.7173 7.54355C62.6569 7.52342 62.5965 7.51013 62.5294 7.49671C62.2139 7.45644 61.8717 7.51684 61.4958 7.68463C61.1267 7.85912 60.7441 8.16778 60.3482 8.61745C59.6435 9.47651 58.9186 10.2685 58.1737 10.9934C57.422 11.7182 56.6368 12.3154 55.8113 12.7919C54.677 13.4497 53.5965 13.8054 52.5764 13.8524C51.5495 13.8994 50.5898 13.7852 49.6905 13.4899C49.4153 13.4228 49.12 13.4296 48.8045 13.4967C48.5227 13.5571 48.2408 13.6644 47.9589 13.8188C47.9254 13.8322 47.8918 13.8524 47.8582 13.8725C47.5495 14.0538 47.2341 14.2887 46.9186 14.584C46.6032 14.8793 46.3079 15.2147 46.0327 15.604C45.5025 16.3825 44.9522 17.1342 44.375 17.8456C43.979 18.349 43.5696 18.8321 43.1468 19.2952C42.1267 20.4295 41.0462 21.3221 39.9052 21.9798C39.0864 22.4563 38.2945 22.7719 37.5495 22.9329C36.8045 23.094 36.0797 23.1544 35.375 23.1074C35.3415 23.1074 35.3146 23.1074 35.2811 23.1074C34.9522 23.0672 34.6099 23.1611 34.2542 23.3893C33.8985 23.6107 33.5831 23.8994 33.3012 24.2484C33.2609 24.2887 33.2274 24.3356 33.1938 24.3758C32.8784 24.7785 32.6502 25.2148 32.516 25.6778C32.375 26.1409 32.3482 26.5973 32.4287 27.047L32.771 28.6175L34.3683 36.0001C34.4556 36.4027 34.6233 36.698 34.8717 36.8793L26.073 32.4833L21.771 30.3289C21.3415 30.1947 21.0663 29.8524 20.9455 29.2887L19.0059 20.3356C18.9254 19.8859 18.9522 19.4295 19.0931 18.9664C19.2274 18.5034 19.4556 18.0671 19.771 17.6644C20.0864 17.255 20.4354 16.9262 20.8314 16.6778C21.2207 16.4295 21.5965 16.3356 21.9522 16.4027C22.6569 16.4497 23.3817 16.3893 24.1267 16.2283C24.8717 16.0672 25.6636 15.7517 26.4824 15.2752C27.6233 14.6174 28.7039 13.7248 29.724 12.5906C30.7441 11.4631 31.7106 10.2282 32.6099 8.89933C32.8851 8.51006 33.1804 8.17443 33.4958 7.87912C33.8113 7.58382 34.1267 7.34906 34.4354 7.16785C34.7509 6.98664 35.0663 6.85912 35.3817 6.79201C35.6972 6.7249 35.9925 6.71818 36.2676 6.7853C37.167 7.0806 38.1267 7.19469 39.1535 7.14772C40.1737 7.10074 41.2542 6.74496 42.3884 6.08725C43.2139 5.61075 43.9992 5.01348 44.7509 4.28865C45.4958 3.56382 46.2207 2.77184 46.9254 1.91278C47.3213 1.46312 47.7039 1.15446 48.073 0.979964C48.4488 0.812178 48.7911 0.751756 49.1066 0.792024C49.2005 0.805447 49.2878 0.832212 49.3683 0.872481L49.5227 0.953098L62.7173 7.55027V7.54355Z" fill="url(#paint2_linear_298_1797)" stroke="black"/>
<path d="M65.8918 24.5705C65.469 24.396 64.959 24.4832 64.3549 24.8321L47.6637 34.4698L31.3684 43.8792C30.6972 44.2617 30.1402 44.8457 29.6838 45.6242C29.2341 46.4028 29.0127 47.1745 29.0127 47.9396C29.0127 48.7047 29.2341 49.2215 29.6838 49.4766L21.6972 45.4832L16.4019 42.8321L16.261 42.7652C15.8113 42.5101 15.5898 42 15.5898 41.2282C15.5898 40.4564 15.8113 39.6913 16.261 38.9128C16.7174 38.1343 17.2744 37.5503 17.9456 37.1678L26.0731 32.4765L34.8717 36.8725L35.1939 37.0336C35.6301 37.1678 36.12 37.0805 36.6704 36.7583L47.1737 30.6913L59.1133 23.7987C59.6637 23.4833 60.1536 23.0066 60.5831 22.3758C60.6637 22.2617 60.7375 22.1409 60.8046 22.0268L65.8918 24.5705Z" fill="url(#paint3_linear_298_1797)" stroke="black"/>
<path d="M67.3947 40.5772C66.5357 40.2215 65.5156 40.3825 64.3545 41.0537L61.294 42.8254L60.5625 37.1611L67.3947 40.5772Z" fill="url(#paint4_linear_298_1797)" stroke="black"/>
<path d="M17.0504 26.737L17.0903 27.0701C17.6848 32.0334 21.3023 34.1219 25.8979 32.1551L26.2062 32.0232L25.8979 32.2473C21.3023 35.5871 17.6848 41.8527 17.0903 47.5025L17.0504 47.8816L17.0105 47.5486C16.416 42.5853 12.7985 40.4967 8.20288 42.4635L7.89453 42.5955L8.20288 42.3714C12.7985 39.0316 16.416 32.7659 17.0105 27.1161L17.0504 26.737Z" fill="white"/>
<path fill-rule="evenodd" clip-rule="evenodd" d="M17.089 26.9756C17.6835 31.9389 21.301 34.0276 25.8966 32.0609L26.205 31.9288L25.8966 32.153C21.301 35.4928 17.6835 41.7583 17.089 47.4081L17.0491 47.7873L17.0092 47.4542C16.4146 42.4909 12.7972 40.4025 8.20155 42.3692L7.89328 42.501L8.20155 42.2771C12.7971 38.9373 16.4146 32.6716 17.0092 27.0218L17.0491 26.6427L17.089 26.9756ZM17.0491 27.4857C16.3161 32.8865 12.934 38.7443 8.62324 42.0796C12.934 40.4371 16.316 42.3898 17.0491 46.9442C17.7821 41.5434 21.1641 35.6856 25.4748 32.3504C21.1641 33.9927 17.7821 32.0401 17.0491 27.4857Z" fill="black"/>
<path d="M17.0491 47.7873L17.0092 47.4542C16.4146 42.4909 12.7972 40.4025 8.20155 42.3692L7.89328 42.501C7.89328 42.501 9.12638 41.8652 10.5256 42.501C11.9248 43.1368 12.2198 45.9027 12.2198 45.9027L17.0491 47.7873Z" fill="url(#paint5_linear_298_1797)"/>
<path d="M7.89328 42.501L8.20155 42.2771C12.7971 38.9373 16.4146 32.6716 17.0092 27.0218L17.0491 26.6427L11.1597 24.2869L11.1198 24.666C10.5252 30.3158 6.90777 36.5815 2.31218 39.9213L2.00391 40.1453L7.52679 42.3178L7.89328 42.501Z" fill="url(#paint6_linear_298_1797)"/>
<path d="M17.2133 26.5176L17.2656 26.9546C17.5584 29.3984 18.5904 31.1029 20.082 31.964C21.5734 32.8252 23.5655 32.8668 25.8282 31.8984L26.1366 31.7664L26.3101 32.0717L26.0017 32.2959C21.4466 35.6062 17.8553 41.8266 17.266 47.4266L17.2018 48.0361L12.0568 46.0282L12.0454 45.9215L12.0453 45.9212C12.0452 45.921 12.0452 45.9206 12.0451 45.9201C12.045 45.919 12.0448 45.9172 12.0446 45.9148C12.044 45.91 12.0432 45.9026 12.042 45.893C12.0397 45.8735 12.0359 45.8446 12.0307 45.8073C12.0202 45.7325 12.0036 45.6244 11.9794 45.4925C11.9308 45.2284 11.8517 44.8707 11.7304 44.4946C11.6088 44.1176 11.4465 43.7278 11.2333 43.3964C11.0196 43.0643 10.7619 42.8019 10.4537 42.6618C9.7937 42.3619 9.17275 42.3616 8.71466 42.437C8.48557 42.4747 8.29826 42.5311 8.16909 42.5778C8.15341 42.5834 8.13871 42.5892 8.1248 42.5946L7.88877 42.6957L7.45523 42.479L1.64062 40.1918L2.20955 39.7784C6.76464 36.468 10.3559 30.2475 10.9453 24.6475L11.0097 24.0361L17.2133 26.5176ZM14.0187 42.466C12.8302 41.7798 11.3238 41.6139 9.61589 42.0649C9.92503 42.1013 10.2578 42.1848 10.5999 42.3402C10.9914 42.5181 11.2953 42.8398 11.5304 43.2051C11.766 43.5712 11.9397 43.9921 12.0668 44.3861C12.1941 44.7809 12.2764 45.1544 12.3268 45.4287C12.3521 45.566 12.3695 45.679 12.3806 45.758C12.3814 45.7643 12.3822 45.7704 12.383 45.7762L16.8397 47.5155L16.835 47.4753C16.5422 45.0314 15.5102 43.3271 14.0187 42.466ZM17.0722 28.4499C16.152 33.3096 13.219 38.3897 9.4705 41.6164C11.2995 41.1154 12.9488 41.2738 14.2673 42.0351C15.5859 42.7963 16.5477 44.1455 17.0283 45.9798C17.9485 41.1203 20.8815 36.0402 24.6299 32.8135C22.801 33.3144 21.1517 33.1561 19.8332 32.3948C18.5146 31.6335 17.5528 30.2844 17.0722 28.4499ZM11.3763 24.5988L11.3048 24.6074L11.2968 24.6845C10.697 30.3841 7.05337 36.6951 2.41729 40.0643L2.36966 40.0988L7.59269 42.1534L7.60005 42.1563L7.60707 42.1598L7.87738 42.2949L8.09892 42.1341C12.654 38.8238 16.2453 32.6033 16.8346 27.0032L16.8605 26.7571L11.3718 24.5615L11.3763 24.5988Z" fill="black"/>
</g>
<defs>
<linearGradient id="paint0_linear_298_1797" x1="14.9917" y1="54.4429" x2="18.0538" y2="79.0968" gradientUnits="userSpaceOnUse">
<stop offset="0.216346" stop-color="#08EC72"/>
<stop offset="0.466346" stop-color="#1098EC"/>
<stop offset="0.620192" stop-color="#0093FC"/>
<stop offset="0.802885" stop-color="#C200FB"/>
<stop offset="1" stop-color="#534EFF"/>
</linearGradient>
<linearGradient id="paint1_linear_298_1797" x1="22.2332" y1="46.863" x2="23.2983" y2="59.0245" gradientUnits="userSpaceOnUse">
<stop offset="0.216346" stop-color="#08EC72"/>
<stop offset="0.466346" stop-color="#1098EC"/>
<stop offset="0.620192" stop-color="#0093FC"/>
<stop offset="0.802885" stop-color="#C200FB"/>
<stop offset="1" stop-color="#534EFF"/>
</linearGradient>
<linearGradient id="paint2_linear_298_1797" x1="22.6038" y1="4.65565" x2="25.4326" y2="38.8422" gradientUnits="userSpaceOnUse">
<stop offset="0.216346" stop-color="#08EC72"/>
<stop offset="0.466346" stop-color="#1098EC"/>
<stop offset="0.620192" stop-color="#0093FC"/>
<stop offset="0.802885" stop-color="#C200FB"/>
<stop offset="1" stop-color="#534EFF"/>
</linearGradient>
<linearGradient id="paint3_linear_298_1797" x1="19.7777" y1="24.9738" x2="21.2059" y2="51.069" gradientUnits="userSpaceOnUse">
<stop offset="0.216346" stop-color="#08EC72"/>
<stop offset="0.466346" stop-color="#1098EC"/>
<stop offset="0.620192" stop-color="#0093FC"/>
<stop offset="0.802885" stop-color="#C200FB"/>
<stop offset="1" stop-color="#534EFF"/>
</linearGradient>
<linearGradient id="paint4_linear_298_1797" x1="61.1313" y1="37.7692" x2="61.5773" y2="43.1331" gradientUnits="userSpaceOnUse">
<stop offset="0.216346" stop-color="#08EC72"/>
<stop offset="0.466346" stop-color="#1098EC"/>
<stop offset="0.620192" stop-color="#0093FC"/>
<stop offset="0.802885" stop-color="#C200FB"/>
<stop offset="1" stop-color="#534EFF"/>
</linearGradient>
<linearGradient id="paint5_linear_298_1797" x1="4.01874" y1="26.8099" x2="6.18061" y2="49.007" gradientUnits="userSpaceOnUse">
<stop offset="0.216346" stop-color="#08EC72"/>
<stop offset="0.466346" stop-color="#1098EC"/>
<stop offset="0.620192" stop-color="#0093FC"/>
<stop offset="0.802885" stop-color="#C200FB"/>
<stop offset="1" stop-color="#534EFF"/>
</linearGradient>
<linearGradient id="paint6_linear_298_1797" x1="4.01874" y1="26.8099" x2="6.18061" y2="49.007" gradientUnits="userSpaceOnUse">
<stop offset="0.216346" stop-color="#08EC72"/>
<stop offset="0.466346" stop-color="#1098EC"/>
<stop offset="0.620192" stop-color="#0093FC"/>
<stop offset="0.802885" stop-color="#C200FB"/>
<stop offset="1" stop-color="#534EFF"/>
</linearGradient>
<clipPath id="clip0_298_1797">
<rect width="84.8322" height="80" fill="white"/>
</clipPath>
</defs>
</svg>
