<svg width="133" height="125" viewBox="0 0 133 125" fill="none" xmlns="http://www.w3.org/2000/svg">
<g clip-path="url(#clip0_298_1713)">
<path d="M26.1155 54.1264L26.2277 54.0588L26.4743 53.9461C26.5529 53.9123 26.6539 53.8898 26.7325 53.856L32.7227 52.1099C32.633 51.6818 32.5658 51.2875 32.5322 50.9045C32.5097 50.6679 32.4985 50.4425 32.4985 50.2285V46.7137C32.4985 46.1504 32.5434 45.5873 32.6107 45.0127L26.6202 36.3383C25.0385 33.9501 24.0177 31.4942 23.569 28.9595C23.1203 26.4474 23.412 24.4986 24.4777 23.113L29.7836 15.5089C30.1875 14.9681 30.67 14.5626 31.2084 14.2809L31.343 14.2132C32.1507 13.8302 33.1042 13.7177 34.2035 13.8979C36.0769 14.2133 37.9616 15.3848 39.8463 17.4351L46.8463 24.8816H46.891C47.4856 24.7239 48.0801 24.6 48.6971 24.5098C48.9327 24.4648 49.1683 24.431 49.4038 24.4085C50.2676 24.2958 51.1876 24.3071 52.1636 24.4423L53.1732 16.4439C53.4761 14.3598 54.3735 12.9629 55.8431 12.2532C57.3014 11.5435 59.0514 11.7688 61.0931 12.9516L71.7164 19.1136C73.7469 20.2965 75.4968 22.0878 76.9663 24.5098C78.4471 26.9206 79.3221 29.3426 79.625 31.7759L80.1299 36.3835L80.2084 37.0482L80.6459 40.9571H80.6572C81.5546 41.9259 82.452 42.9511 83.3607 44.0776C84.2581 45.2154 85.1219 46.3646 85.9632 47.5474L92.9632 48.2234C94.6572 48.3473 96.3623 49.1808 98.045 50.7129C98.2357 50.8706 98.4263 51.0397 98.617 51.2312C100.49 53.1125 101.96 55.3543 103.015 57.9678L103.676 59.6914L108.332 71.7227C109.386 74.325 109.689 76.6232 109.24 78.6285C109.14 79.0678 109.016 79.4733 108.848 79.8451C108.399 80.9266 107.726 81.6926 106.806 82.177C106.784 82.1883 106.772 82.1996 106.761 82.1996C106.582 82.3009 106.38 82.3798 106.178 82.4587L100.188 84.1935C100.277 84.8469 100.3 85.4551 100.3 86.0184V89.5332C100.3 90.0964 100.277 90.6598 100.188 91.2343L106.178 99.9085C106.301 100.1 106.425 100.28 106.537 100.472C106.627 100.607 106.705 100.754 106.784 100.889C108.029 102.962 108.848 105.102 109.24 107.276C109.689 109.799 109.386 111.749 108.332 113.134L103.015 120.738C102.588 121.29 102.106 121.707 101.545 121.989C100.715 122.406 99.7388 122.53 98.617 122.349C96.7324 122.034 94.8479 120.862 92.9632 118.812L91.1459 116.886L91.1346 116.852L85.9745 111.354C85.1331 111.568 84.2918 111.737 83.428 111.839C82.553 111.951 81.6443 111.929 80.6572 111.805L79.6362 119.803C79.3333 121.887 78.4584 123.273 76.9889 123.994H76.9777C75.5081 124.704 73.7581 124.467 71.7277 123.296L61.1043 117.122C59.0626 115.951 57.3125 114.159 55.8542 111.737C54.3846 109.326 53.4872 106.904 53.1843 104.471L52.1748 95.2897C51.2661 94.3209 50.3687 93.2846 49.46 92.1581C48.5514 91.0203 47.6876 89.8711 46.8575 88.6883L40.0817 88.1475C38.1971 88.0011 36.3238 87.0097 34.428 85.1284C32.5546 83.2471 31.0738 81.0053 30.0193 78.403L24.5897 64.5806C23.5352 61.967 23.2325 59.6689 23.6924 57.675C24.085 55.9514 24.8926 54.7572 26.1266 54.1151L26.1155 54.1264ZM50.6267 62.5189C51.1764 66.3491 52.601 70.2133 54.8782 74.2124C54.9119 74.28 54.9456 74.3364 54.9793 74.404C58.0754 79.755 61.7998 83.6977 66.1748 86.2324C68.8559 87.7758 71.2788 88.5418 73.4551 88.5193C74.0048 88.508 74.5545 88.4517 75.0705 88.339C75.9006 88.1588 76.686 87.8434 77.4152 87.4153C80.4665 85.6241 82.0032 82.1996 82.0032 77.1752C82.0032 75.2151 81.7788 73.2211 81.3077 71.2159C80.9936 69.864 80.5785 68.5008 80.0401 67.1264C79.3558 65.3127 78.4809 63.4766 77.4152 61.6178C76.5738 60.1533 75.6763 58.779 74.7115 57.5172C73.8365 56.3456 72.9056 55.2529 71.9296 54.2616C70.1684 52.4704 68.2389 50.972 66.1748 49.7666C61.7998 47.2319 58.0754 46.849 54.9793 48.6176C51.8943 50.3863 50.3575 53.7884 50.3575 58.824C50.3575 60.0519 50.4472 61.291 50.6267 62.5189Z" fill="white" stroke="black"/>
<path d="M101.547 122L123.982 110.735C124.543 110.453 125.026 110.036 125.452 109.484L130.769 101.88C131.824 100.494 132.127 98.5455 131.678 96.0221C131.285 93.8479 130.466 91.7074 129.221 89.6346C129.042 89.3079 128.84 88.9813 128.616 88.6546L122.625 79.9802L100.189 91.2455L106.18 99.9199C106.303 100.111 106.426 100.292 106.539 100.483C106.628 100.618 106.707 100.765 106.785 100.9C108.031 102.973 108.85 105.113 109.242 107.287C109.691 109.811 109.388 111.76 108.333 113.146L103.016 120.75C102.59 121.302 102.108 121.718 101.547 122Z" fill="url(#paint0_linear_298_1713)" stroke="black"/>
<path d="M80.6565 40.9685C81.5539 41.9373 82.4513 42.9624 83.36 44.089C84.2574 45.2268 85.1212 46.3758 85.9625 47.5587L94.5891 43.2328L108.398 36.2934C107.557 35.1105 106.693 33.9615 105.796 32.8237C104.887 31.6971 103.99 30.672 103.081 29.7032L87.118 37.7241L80.6565 40.9685Z" fill="url(#paint1_linear_298_1713)" stroke="black"/>
<path d="M55.8433 12.2532C57.3016 11.5435 59.0516 11.7688 61.0933 12.9516L71.7167 19.1138C73.7471 20.2966 75.4971 22.0878 76.9667 24.5098C78.4474 26.9206 79.3224 29.3427 79.6253 31.776L80.1301 36.3835L80.2086 37.0481L80.6461 40.9572H80.6574L87.1189 37.7128L103.082 29.6919L102.645 25.7716L102.061 20.4994C101.758 18.0661 100.883 15.644 99.4025 13.2333C97.933 10.8112 96.183 9.01999 94.1525 7.83713L83.5291 1.675C81.4875 0.492138 79.7375 0.266832 78.2791 0.976547L55.8433 12.2419V12.2532Z" fill="url(#paint2_linear_298_1713)" stroke="black"/>
<path d="M50.3581 58.8239C50.3581 60.0518 50.4478 61.291 50.6273 62.5189C51.177 66.3491 52.6017 70.2131 54.8789 74.2123C54.9126 74.2799 54.9462 74.3362 54.9799 74.4038C58.076 79.7549 61.8004 83.6977 66.1754 86.2324C68.8565 87.7758 71.2795 88.5418 73.4558 88.5193C74.0055 88.508 74.5552 88.4517 75.0712 88.339C75.9013 88.1588 76.6866 87.8434 77.4158 87.4153C80.467 85.6241 82.0039 82.1994 82.0039 77.1751C82.0039 75.2149 81.7795 73.221 81.3084 71.2157C80.9943 69.8639 80.5792 68.5008 80.0408 67.1264C79.1209 65.8985 78.2459 64.5692 77.4158 63.1385C77.3821 63.0709 77.3485 63.0146 77.3148 62.947C76.2603 61.1108 75.3965 59.3083 74.7122 57.5171C73.8372 56.3455 72.9061 55.2528 71.9302 54.2614C70.169 52.4703 68.2395 50.972 66.1754 49.7666C61.8004 47.2319 58.076 46.8489 54.9799 48.6175C51.8949 50.3862 50.3581 53.7883 50.3581 58.8239Z" fill="url(#paint3_linear_298_1713)" stroke="black"/>
<path d="M31.3412 14.2132C32.1489 13.8302 33.1025 13.7176 34.2018 13.8978C36.0752 14.2132 37.9598 15.3848 39.8445 17.4351L46.8444 24.8815H46.8893C47.4839 24.7238 48.0783 24.5999 48.6953 24.5097C48.9309 24.4647 49.1665 24.4309 49.402 24.4083C50.2658 24.2957 51.1858 24.3071 52.1618 24.4423L53.1714 16.4438C53.4743 14.3597 54.3717 12.9628 55.8413 12.2531L64.0977 8.10748L62.2803 6.16984C60.3957 4.11956 58.5111 2.94796 56.6377 2.63253C55.5384 2.45229 54.5848 2.56494 53.7771 2.94796L31.3412 14.2132Z" fill="url(#paint4_linear_298_1713)" stroke="black"/>
<path d="M85.9649 47.5586L92.9649 48.2345C94.6588 48.3584 96.3639 49.1921 98.0466 50.7241C98.2373 50.8819 98.4279 51.0508 98.6186 51.2423C100.492 53.1237 101.962 55.3655 103.016 57.979L103.678 59.7026L108.333 71.734C109.388 74.3363 109.691 76.6345 109.242 78.6397C109.141 79.0791 109.018 79.4845 108.85 79.8563C108.401 80.9377 107.728 81.7038 106.808 82.1882L122.726 74.1898L128.918 71.0806L129.232 70.9229C130.152 70.4497 130.837 69.6724 131.285 68.5909C131.454 68.2192 131.577 67.8136 131.678 67.3743C132.127 65.3691 131.824 63.0709 130.769 60.4686L125.452 46.7137C124.398 44.1001 122.928 41.8583 121.055 39.977C120.864 39.7855 120.673 39.6165 120.483 39.4588C118.8 37.9267 117.095 37.0931 115.401 36.9692L108.401 36.2933L94.5915 43.2327L85.9649 47.5586Z" fill="url(#paint5_linear_298_1713)" stroke="black"/>
<path d="M100.298 89.5445C100.298 90.1078 100.276 90.6711 100.186 91.2456L122.622 79.9803C122.712 79.4057 122.734 78.8425 122.734 78.2792V74.7644C122.734 74.5842 122.734 74.4039 122.723 74.2124V74.1899L106.805 82.1883C106.805 82.1883 106.771 82.2108 106.76 82.2108C106.581 82.3122 106.379 82.3911 106.177 82.4699L100.186 84.2048C100.276 84.8582 100.298 85.4665 100.298 86.0298V89.5445Z" fill="url(#paint6_linear_298_1713)" stroke="black"/>
<path d="M76.9763 124.005L91.1445 116.897L91.1333 116.863L85.9731 111.366C85.1317 111.58 84.2904 111.749 83.4266 111.85C82.5516 111.963 81.6429 111.94 80.6558 111.816L79.6349 119.815C79.332 121.899 78.457 123.284 76.9875 124.005H76.9763Z" fill="url(#paint7_linear_298_1713)" stroke="black"/>
<path d="M8.19405 38.4172L8.16004 38.7024C7.65315 42.9518 4.56903 44.7399 0.650974 43.056L0.38809 42.943L0.650974 43.1349C4.56903 45.9943 7.65315 51.3587 8.16004 56.1959L8.19405 56.5205L8.22805 56.2353C8.73494 51.9859 11.8191 50.1978 15.7371 51.8817L16 51.9946L15.7371 51.8028C11.8191 48.9434 8.73494 43.579 8.22805 38.7418L8.19405 38.4172Z" fill="white"/>
<path fill-rule="evenodd" clip-rule="evenodd" d="M8.15854 38.6215C7.65166 42.8709 4.56753 44.6591 0.64949 42.9753L0.38657 42.8622L0.64949 43.0542C4.56751 45.9136 7.65164 51.2779 8.15854 56.115L8.19257 56.4397L8.22659 56.1545C8.73349 51.9052 11.8176 50.1171 15.7356 51.8009L15.9985 51.9138L15.7356 51.7221C11.8176 48.8627 8.73349 43.4982 8.22659 38.661L8.19257 38.3365L8.15854 38.6215ZM8.19257 39.0582C8.81751 43.6822 11.7009 48.6974 15.3761 51.553C11.7009 50.1468 8.81755 51.8186 8.19257 55.7179C7.5676 51.0939 4.68424 46.0787 1.0091 43.2232C4.68427 44.6293 7.56763 42.9575 8.19257 39.0582Z" fill="black"/>
<path d="M8.19257 56.4397L8.22659 56.1545C8.73349 51.9052 11.8176 50.1171 15.7356 51.8009L15.9985 51.9138C15.9985 51.9138 14.9472 51.3695 13.7542 51.9138C12.5613 52.4582 12.3098 54.8262 12.3098 54.8262L8.19257 56.4397Z" fill="url(#paint8_linear_298_1713)"/>
<path d="M15.9985 51.9138L15.7356 51.7221C11.8176 48.8627 8.73349 43.4982 8.22659 38.661L8.19257 38.3365L13.2136 36.3195L13.2477 36.6441C13.7546 41.4812 16.8387 46.8457 20.7567 49.7052L21.0195 49.8969L16.3109 51.7569L15.9985 51.9138Z" fill="url(#paint9_linear_298_1713)"/>
<path d="M8.05533 38.2294L8.01071 38.6035C7.76113 40.6958 6.88122 42.1551 5.60962 42.8924C4.33802 43.6297 2.6397 43.6653 0.710545 42.8362L0.447626 42.7232L0.29974 42.9846L0.562658 43.1765C4.44615 46.0107 7.50799 51.3364 8.01041 56.1309L8.06514 56.6528L12.4516 54.9337L12.4613 54.8423L12.4614 54.8421C12.4614 54.8419 12.4615 54.8415 12.4615 54.8411C12.4616 54.8401 12.4618 54.8386 12.462 54.8365C12.4625 54.8324 12.4631 54.8261 12.4642 54.8178C12.4662 54.8012 12.4694 54.7764 12.4739 54.7445C12.4828 54.6805 12.4969 54.5879 12.5176 54.475C12.559 54.2489 12.6264 53.9426 12.7298 53.6206C12.8335 53.2978 12.9719 52.9641 13.1537 52.6804C13.3359 52.3961 13.5556 52.1714 13.8183 52.0515C14.381 51.7947 14.9104 51.7944 15.301 51.8589C15.4963 51.8912 15.656 51.9395 15.7661 51.9795C15.7795 51.9843 15.792 51.9893 15.8039 51.9939L16.0051 52.0804L16.3747 51.8949L21.332 49.9367L20.847 49.5827C16.9635 46.7485 13.9017 41.4228 13.3992 36.6282L13.3443 36.1048L8.05533 38.2294ZM10.779 51.8838C11.7922 51.2963 13.0765 51.1543 14.5326 51.5404C14.269 51.5716 13.9853 51.643 13.6936 51.7761C13.3599 51.9284 13.1008 52.2038 12.9004 52.5166C12.6995 52.83 12.5514 53.1904 12.4431 53.5277C12.3345 53.8657 12.2644 54.1855 12.2213 54.4204C12.1998 54.5379 12.185 54.6347 12.1755 54.7023C12.1748 54.7077 12.1742 54.7129 12.1735 54.7179L8.37385 56.207L8.37787 56.1726C8.62746 54.0802 9.50736 52.621 10.779 51.8838ZM8.17566 39.8838C8.96015 44.0444 11.4607 48.3938 14.6566 51.1564C13.0972 50.7275 11.6911 50.8631 10.5669 51.5149C9.44281 52.1666 8.62282 53.3217 8.21302 54.8922C7.42849 50.7316 4.92794 46.3822 1.73222 43.6197C3.29149 44.0485 4.69761 43.913 5.82174 43.2612C6.94587 42.6094 7.76589 41.4543 8.17566 39.8838ZM13.0318 36.5866L13.0927 36.5939L13.0995 36.6599C13.6109 41.5397 16.7173 46.943 20.6699 49.8276L20.7105 49.8571L16.2575 51.6162L16.2512 51.6187L16.2453 51.6216L16.0148 51.7373L15.8259 51.5996C11.9424 48.7654 8.8806 43.4397 8.37817 38.6451L8.3561 38.4344L13.0356 36.5546L13.0318 36.5866Z" fill="black"/>
<path d="M33.7683 98.3487L33.7343 98.6339C33.2274 102.883 30.1432 104.671 26.2252 102.988L25.9623 102.875L26.2252 103.066C30.1432 105.926 33.2274 111.29 33.7343 116.127L33.7683 116.452L33.8023 116.167C34.3092 111.917 37.3933 110.129 41.3113 111.813L41.5742 111.926L41.3113 111.734C37.3933 108.875 34.3092 103.51 33.8023 98.6733L33.7683 98.3487Z" fill="white"/>
<path fill-rule="evenodd" clip-rule="evenodd" d="M33.7328 98.553C33.2259 102.802 30.1417 104.591 26.2237 102.907L25.9608 102.794L26.2237 102.986C30.1417 105.845 33.2259 111.209 33.7328 116.047L33.7668 116.371L33.8008 116.086C34.3077 111.837 37.3918 110.049 41.3099 111.732L41.5727 111.845L41.3099 111.654C37.3918 108.794 34.3077 103.43 33.8008 98.5925L33.7668 98.268L33.7328 98.553ZM33.7668 98.9897C34.3917 103.614 37.2751 108.629 40.9503 111.484C37.2751 110.078 34.3918 111.75 33.7668 115.649C33.1418 111.025 30.2585 106.01 26.5833 103.155C30.2585 104.561 33.1418 102.889 33.7668 98.9897Z" fill="black"/>
<path d="M33.7668 116.371L33.8008 116.086C34.3077 111.837 37.3918 110.049 41.3099 111.732L41.5727 111.845C41.5727 111.845 40.5214 111.301 39.3285 111.845C38.1355 112.39 37.8841 114.758 37.8841 114.758L33.7668 116.371Z" fill="url(#paint10_linear_298_1713)"/>
<path d="M41.5727 111.845L41.3099 111.654C37.3918 108.794 34.3077 103.43 33.8008 98.5925L33.7668 98.268L38.7879 96.251L38.8219 96.5756C39.3288 101.413 42.4129 106.777 46.3309 109.637L46.5938 109.828L41.8851 111.688L41.5727 111.845Z" fill="url(#paint11_linear_298_1713)"/>
<path d="M33.6295 98.1609L33.5849 98.535C33.3353 100.627 32.4554 102.087 31.1838 102.824C29.9122 103.561 28.2139 103.597 26.2848 102.768L26.0218 102.655L25.874 102.916L26.1369 103.108C30.0204 105.942 33.0822 111.268 33.5846 116.062L33.6394 116.584L38.0258 114.865L38.0355 114.774L38.0356 114.774C38.0357 114.773 38.0357 114.773 38.0357 114.773C38.0358 114.772 38.036 114.77 38.0362 114.768C38.0367 114.764 38.0374 114.758 38.0384 114.749C38.0404 114.733 38.0436 114.708 38.0481 114.676C38.057 114.612 38.0711 114.519 38.0918 114.407C38.1332 114.18 38.2006 113.874 38.304 113.552C38.4077 113.229 38.5461 112.896 38.7279 112.612C38.9101 112.328 39.1298 112.103 39.3925 111.983C39.9552 111.726 40.4846 111.726 40.8752 111.79C41.0705 111.823 41.2302 111.871 41.3403 111.911C41.3537 111.916 41.3662 111.921 41.3781 111.925L41.5793 112.012L41.9489 111.826L46.9062 109.868L46.4212 109.514C42.5377 106.68 39.4759 101.354 38.9735 96.5597L38.9185 96.0363L33.6295 98.1609ZM36.3532 111.815C37.3665 111.228 38.6507 111.086 40.1068 111.472C39.8433 111.503 39.5596 111.575 39.2679 111.708C38.9341 111.86 38.675 112.135 38.4746 112.448C38.2737 112.762 38.1256 113.122 38.0173 113.459C37.9087 113.797 37.8386 114.117 37.7956 114.352C37.774 114.469 37.7592 114.566 37.7498 114.634C37.749 114.639 37.7484 114.644 37.7477 114.649L33.9481 116.139L33.9521 116.104C34.2017 114.012 35.0816 112.553 36.3532 111.815ZM33.7499 99.8153C34.5344 103.976 37.0349 108.325 40.2308 111.088C38.6715 110.659 37.2653 110.795 36.1412 111.446C35.017 112.098 34.197 113.253 33.7872 114.824C33.0027 110.663 30.5022 106.314 27.3064 103.551C28.8657 103.98 30.2718 103.844 31.396 103.193C32.5201 102.541 33.3401 101.386 33.7499 99.8153ZM38.606 96.5181L38.6669 96.5254L38.6738 96.5915C39.1851 101.471 42.2915 106.874 46.2441 109.759L46.2847 109.789L41.8317 111.548L41.8255 111.55L41.8195 111.553L41.589 111.669L41.4001 111.531C37.5166 108.697 34.4548 103.371 33.9524 98.5766L33.9303 98.3659L38.6098 96.4861L38.606 96.5181Z" fill="black"/>
<path d="M119.022 12.7323L118.988 13.0174C118.481 17.2668 115.397 19.055 111.479 17.3711L111.216 17.2581L111.479 17.45C115.397 20.3094 118.481 25.6738 118.988 30.511L119.022 30.8355L119.056 30.5504C119.563 26.301 122.647 24.5129 126.565 26.1967L126.828 26.3097L126.565 26.1179C122.647 23.2584 119.563 17.894 119.056 13.0569L119.022 12.7323Z" fill="white"/>
<path fill-rule="evenodd" clip-rule="evenodd" d="M118.991 12.9366C118.484 17.186 115.4 18.9742 111.482 17.2904L111.219 17.1773L111.482 17.3692C115.4 20.2287 118.484 25.593 118.991 30.4301L119.025 30.7548L119.059 30.4696C119.566 26.2202 122.65 24.4321 126.568 26.116L126.83 26.2289L126.568 26.0371C122.65 23.1777 119.566 17.8132 119.059 12.9761L119.025 12.6516L118.991 12.9366ZM119.025 13.3732C119.65 17.9973 122.533 23.0125 126.208 25.868C122.533 24.4618 119.65 26.1336 119.025 30.0329C118.4 25.409 115.516 20.3937 111.841 17.5382C115.516 18.9443 118.4 17.2726 119.025 13.3732Z" fill="black"/>
<path d="M119.025 30.7548L119.059 30.4696C119.566 26.2202 122.65 24.4321 126.568 26.116L126.83 26.2289C126.83 26.2289 125.779 25.6845 124.586 26.2289C123.393 26.7732 123.142 29.1413 123.142 29.1413L119.025 30.7548Z" fill="url(#paint12_linear_298_1713)"/>
<path d="M126.83 26.2289L126.568 26.0371C122.65 23.1777 119.566 17.8132 119.059 12.9761L119.025 12.6516L124.046 10.6346L124.08 10.9592C124.587 15.7963 127.671 21.1608 131.589 24.0202L131.852 24.212L127.143 26.072L126.83 26.2289Z" fill="url(#paint13_linear_298_1713)"/>
<path d="M118.883 12.5444L118.839 12.9186C118.589 15.0109 117.709 16.4701 116.438 17.2074C115.166 17.9447 113.468 17.9804 111.539 17.1513L111.276 17.0382L111.128 17.2996L111.391 17.4916C115.274 20.3258 118.336 25.6514 118.839 30.446L118.893 30.9678L123.28 29.2487L123.289 29.1573L123.29 29.1571C123.29 29.1569 123.29 29.1566 123.29 29.1561C123.29 29.1552 123.29 29.1536 123.29 29.1516C123.291 29.1475 123.291 29.1412 123.292 29.1329C123.294 29.1163 123.298 29.0915 123.302 29.0595C123.311 28.9956 123.325 28.903 123.346 28.7901C123.387 28.564 123.455 28.2577 123.558 27.9357C123.662 27.6129 123.8 27.2792 123.982 26.9954C124.164 26.7111 124.384 26.4864 124.646 26.3665C125.209 26.1098 125.739 26.1095 126.129 26.174C126.324 26.2063 126.484 26.2546 126.594 26.2946C126.608 26.2994 126.62 26.3044 126.632 26.3089L126.833 26.3955L127.203 26.21L132.16 24.2517L131.675 23.8978C127.792 21.0636 124.73 15.7378 124.227 10.9433L124.172 10.4199L118.883 12.5444ZM121.607 26.1988C122.62 25.6114 123.905 25.4693 125.361 25.8554C125.097 25.8867 124.813 25.9581 124.522 26.0912C124.188 26.2435 123.929 26.5189 123.728 26.8317C123.528 27.1451 123.38 27.5055 123.271 27.8428C123.163 28.1808 123.092 28.5005 123.049 28.7354C123.028 28.853 123.013 28.9497 123.004 29.0174C123.003 29.0227 123.002 29.028 123.002 29.0329L119.202 30.5221L119.206 30.4876C119.456 28.3953 120.335 26.9361 121.607 26.1988ZM119.004 14.1988C119.788 18.3595 122.289 22.7089 125.485 25.4714C123.925 25.0425 122.519 25.1782 121.395 25.8299C120.271 26.4817 119.451 27.6368 119.041 29.2073C118.257 25.0467 115.756 20.6973 112.56 17.9347C114.12 18.3636 115.526 18.228 116.65 17.5763C117.774 16.9245 118.594 15.7694 119.004 14.1988ZM123.86 10.9016L123.921 10.9089L123.928 10.975C124.439 15.8548 127.545 21.258 131.498 24.1426L131.539 24.1722L127.086 25.9313L127.079 25.9337L127.073 25.9367L126.843 26.0524L126.654 25.9147C122.771 23.0805 119.709 17.7547 119.206 12.9602L119.184 12.7495L123.864 10.8696L123.86 10.9016Z" fill="black"/>
</g>
<defs>
<linearGradient id="paint0_linear_298_1713" x1="129.241" y1="84.4915" x2="124.005" y2="123.861" gradientUnits="userSpaceOnUse">
<stop offset="0.216346" stop-color="#08EC72"/>
<stop offset="0.466346" stop-color="#1098EC"/>
<stop offset="0.620192" stop-color="#0093FC"/>
<stop offset="0.802885" stop-color="#C200FB"/>
<stop offset="1" stop-color="#534EFF"/>
</linearGradient>
<linearGradient id="paint1_linear_298_1713" x1="106.089" y1="31.6201" x2="104.994" y2="48.5747" gradientUnits="userSpaceOnUse">
<stop offset="0.216346" stop-color="#08EC72"/>
<stop offset="0.466346" stop-color="#1098EC"/>
<stop offset="0.620192" stop-color="#0093FC"/>
<stop offset="0.802885" stop-color="#C200FB"/>
<stop offset="1" stop-color="#534EFF"/>
</linearGradient>
<linearGradient id="paint2_linear_298_1713" x1="99.1492" y1="4.90935" x2="95.8717" y2="43.134" gradientUnits="userSpaceOnUse">
<stop offset="0.216346" stop-color="#08EC72"/>
<stop offset="0.466346" stop-color="#1098EC"/>
<stop offset="0.620192" stop-color="#0093FC"/>
<stop offset="0.802885" stop-color="#C200FB"/>
<stop offset="1" stop-color="#534EFF"/>
</linearGradient>
<linearGradient id="paint3_linear_298_1713" x1="79.3693" y1="51.9282" x2="74.3754" y2="90.3658" gradientUnits="userSpaceOnUse">
<stop offset="0.216346" stop-color="#08EC72"/>
<stop offset="0.466346" stop-color="#1098EC"/>
<stop offset="0.620192" stop-color="#0093FC"/>
<stop offset="0.802885" stop-color="#C200FB"/>
<stop offset="1" stop-color="#534EFF"/>
</linearGradient>
<linearGradient id="paint4_linear_298_1713" x1="61.3706" y1="4.94635" x2="59.9212" y2="26.1416" gradientUnits="userSpaceOnUse">
<stop offset="0.216346" stop-color="#08EC72"/>
<stop offset="0.466346" stop-color="#1098EC"/>
<stop offset="0.620192" stop-color="#0093FC"/>
<stop offset="0.802885" stop-color="#C200FB"/>
<stop offset="1" stop-color="#534EFF"/>
</linearGradient>
<linearGradient id="paint5_linear_298_1713" x1="128.056" y1="41.2206" x2="123.713" y2="84.5459" gradientUnits="userSpaceOnUse">
<stop offset="0.216346" stop-color="#08EC72"/>
<stop offset="0.466346" stop-color="#1098EC"/>
<stop offset="0.620192" stop-color="#0093FC"/>
<stop offset="0.802885" stop-color="#C200FB"/>
<stop offset="1" stop-color="#534EFF"/>
</linearGradient>
<linearGradient id="paint6_linear_298_1713" x1="120.857" y1="76.021" x2="119.63" y2="92.1906" gradientUnits="userSpaceOnUse">
<stop offset="0.216346" stop-color="#08EC72"/>
<stop offset="0.466346" stop-color="#1098EC"/>
<stop offset="0.620192" stop-color="#0093FC"/>
<stop offset="0.802885" stop-color="#C200FB"/>
<stop offset="1" stop-color="#534EFF"/>
</linearGradient>
<linearGradient id="paint7_linear_298_1713" x1="89.965" y1="112.723" x2="88.8952" y2="124.679" gradientUnits="userSpaceOnUse">
<stop offset="0.216346" stop-color="#08EC72"/>
<stop offset="0.466346" stop-color="#1098EC"/>
<stop offset="0.620192" stop-color="#0093FC"/>
<stop offset="0.802885" stop-color="#C200FB"/>
<stop offset="1" stop-color="#534EFF"/>
</linearGradient>
<linearGradient id="paint8_linear_298_1713" x1="19.3018" y1="38.4796" x2="17.4432" y2="57.4825" gradientUnits="userSpaceOnUse">
<stop offset="0.216346" stop-color="#08EC72"/>
<stop offset="0.466346" stop-color="#1098EC"/>
<stop offset="0.620192" stop-color="#0093FC"/>
<stop offset="0.802885" stop-color="#C200FB"/>
<stop offset="1" stop-color="#534EFF"/>
</linearGradient>
<linearGradient id="paint9_linear_298_1713" x1="19.3018" y1="38.4796" x2="17.4432" y2="57.4825" gradientUnits="userSpaceOnUse">
<stop offset="0.216346" stop-color="#08EC72"/>
<stop offset="0.466346" stop-color="#1098EC"/>
<stop offset="0.620192" stop-color="#0093FC"/>
<stop offset="0.802885" stop-color="#C200FB"/>
<stop offset="1" stop-color="#534EFF"/>
</linearGradient>
<linearGradient id="paint10_linear_298_1713" x1="44.876" y1="98.4111" x2="43.0174" y2="117.414" gradientUnits="userSpaceOnUse">
<stop offset="0.216346" stop-color="#08EC72"/>
<stop offset="0.466346" stop-color="#1098EC"/>
<stop offset="0.620192" stop-color="#0093FC"/>
<stop offset="0.802885" stop-color="#C200FB"/>
<stop offset="1" stop-color="#534EFF"/>
</linearGradient>
<linearGradient id="paint11_linear_298_1713" x1="44.876" y1="98.4111" x2="43.0174" y2="117.414" gradientUnits="userSpaceOnUse">
<stop offset="0.216346" stop-color="#08EC72"/>
<stop offset="0.466346" stop-color="#1098EC"/>
<stop offset="0.620192" stop-color="#0093FC"/>
<stop offset="0.802885" stop-color="#C200FB"/>
<stop offset="1" stop-color="#534EFF"/>
</linearGradient>
<linearGradient id="paint12_linear_298_1713" x1="130.134" y1="12.7947" x2="128.275" y2="31.7976" gradientUnits="userSpaceOnUse">
<stop offset="0.216346" stop-color="#08EC72"/>
<stop offset="0.466346" stop-color="#1098EC"/>
<stop offset="0.620192" stop-color="#0093FC"/>
<stop offset="0.802885" stop-color="#C200FB"/>
<stop offset="1" stop-color="#534EFF"/>
</linearGradient>
<linearGradient id="paint13_linear_298_1713" x1="130.134" y1="12.7947" x2="128.275" y2="31.7976" gradientUnits="userSpaceOnUse">
<stop offset="0.216346" stop-color="#08EC72"/>
<stop offset="0.466346" stop-color="#1098EC"/>
<stop offset="0.620192" stop-color="#0093FC"/>
<stop offset="0.802885" stop-color="#C200FB"/>
<stop offset="1" stop-color="#534EFF"/>
</linearGradient>
<clipPath id="clip0_298_1713">
<rect width="133" height="125" fill="white" transform="matrix(-1 0 0 1 133 0)"/>
</clipPath>
</defs>
</svg>
